<svg width="16" height="29" viewBox="0 0 16 29" fill="none" xmlns="http://www.w3.org/2000/svg">
<path fill-rule="evenodd" clip-rule="evenodd" d="M15.2237 15.5895C10.266 20.5472 6.03669 24.3083 0.610695 28.7457V0.976501C5.47922 5.84503 10.3552 10.721 15.2237 15.5895ZM2.43174 13.4043V12.2819H8.60845V13.1887C7.99896 13.8354 7.3969 14.6976 6.80227 15.7679C6.20764 16.8382 5.74681 17.9457 5.41976 19.0829C5.18934 19.8783 5.03325 20.7553 4.97378 21.7067H3.77709C3.79196 20.956 3.94061 20.0492 4.21563 18.9789C4.49808 17.9086 4.89945 16.8828 5.42719 15.8943C5.95492 14.9057 6.51238 14.0732 7.10701 13.3968H2.43917L2.43174 13.4043Z" fill="#C5C6C6"/>
</svg>
