<svg width="20" height="26" viewBox="0 0 20 26" fill="none" xmlns="http://www.w3.org/2000/svg">
<path fill-rule="evenodd" clip-rule="evenodd" d="M19.2363 20.9381C12.4649 22.7517 6.92 23.8889 0 25.0262L13.8846 0.980835C15.6685 7.63325 17.4524 14.2857 19.2363 20.9381ZM9.14242 17.7271L10.2648 17.6304C10.3614 18.1582 10.5398 18.5447 10.8148 18.7826C11.0824 19.0204 11.4317 19.1393 11.848 19.1393C12.2048 19.1393 12.5244 19.0576 12.7994 18.894C13.0744 18.7305 13.2974 18.5075 13.4684 18.2325C13.6393 17.9575 13.7805 17.5858 13.8995 17.1176C14.0184 16.6493 14.0778 16.1736 14.0778 15.683C14.0778 15.631 14.0778 15.5492 14.0704 15.4452C13.84 15.8168 13.5204 16.1216 13.1116 16.352C12.7102 16.5824 12.2642 16.7013 11.796 16.7013C11.0081 16.7013 10.3391 16.4115 9.79652 15.8391C9.25392 15.2668 8.9789 14.5161 8.9789 13.5721C8.9789 12.6058 9.26135 11.8254 9.83368 11.2308C10.406 10.6436 11.1196 10.3462 11.9743 10.3462C12.5913 10.3462 13.1562 10.5098 13.6765 10.8517C14.1893 11.1862 14.5758 11.6619 14.8434 12.2788C15.111 12.8957 15.2448 13.7951 15.2448 14.9621C15.2448 16.181 15.111 17.1548 14.8509 17.8757C14.5833 18.5967 14.1893 19.1468 13.669 19.5258C13.1487 19.9049 12.5392 20.0907 11.8331 20.0907C11.0898 20.0907 10.4803 19.8826 10.0046 19.4664C9.53636 19.0501 9.24648 18.4629 9.14986 17.7122L9.14242 17.7271ZM13.9292 13.5126C13.9292 12.8437 13.7508 12.3085 13.394 11.9146C13.0372 11.5206 12.6061 11.32 12.1007 11.32C11.573 11.32 11.1196 11.5281 10.7405 11.9592C10.354 12.3828 10.1682 12.9329 10.1682 13.6093C10.1682 14.2188 10.354 14.7093 10.7108 15.0884C11.075 15.4675 11.5284 15.6607 12.071 15.6607C12.6136 15.6607 13.0595 15.4749 13.4089 15.0884C13.7582 14.7093 13.9292 14.1816 13.9292 13.5126Z" fill="#C5C6C6"/>
</svg>
