<svg width="22" height="22" viewBox="0 0 22 22" fill="none" xmlns="http://www.w3.org/2000/svg">
<path fill-rule="evenodd" clip-rule="evenodd" d="M21.5477 0.624512V21.2879L0.884338 0.624512H21.5477ZM18.8942 10.4656V11.4765H13.208C13.2006 11.2238 13.2452 10.9785 13.3344 10.7406C13.483 10.3541 13.7135 9.97505 14.0331 9.59598C14.3527 9.22434 14.8135 8.79323 15.4156 8.30266C16.3447 7.53708 16.9765 6.92758 17.311 6.48161C17.6455 6.03564 17.809 5.61197 17.809 5.21059C17.809 4.79435 17.6603 4.43757 17.3556 4.15512C17.0583 3.87267 16.6643 3.72402 16.1812 3.72402C15.6683 3.72402 15.2595 3.87268 14.9548 4.17743C14.65 4.48217 14.4939 4.89841 14.4939 5.44101L13.4161 5.32952C13.4905 4.51933 13.7729 3.90241 14.2561 3.47873C14.7392 3.05506 15.3933 2.83951 16.2109 2.83951C17.036 2.83951 17.69 3.06993 18.1657 3.52333C18.6489 3.98417 18.8867 4.54907 18.8867 5.22546C18.8867 5.56737 18.8198 5.90928 18.6712 6.23633C18.53 6.57081 18.2995 6.92015 17.9725 7.29179C17.6455 7.656 17.1029 8.16144 16.3447 8.80066C15.7129 9.33583 15.3041 9.69261 15.1257 9.88587C14.9473 10.0791 14.7987 10.2649 14.6797 10.4582H18.8942V10.4656Z" fill="#C5C6C6"/>
</svg>
