<svg width="21" height="25" viewBox="0 0 21 25" fill="none" xmlns="http://www.w3.org/2000/svg">
<path fill-rule="evenodd" clip-rule="evenodd" d="M20.1371 5.4757C18.3235 12.247 16.5396 17.621 14.0645 24.1768L0.179901 0.13147C6.83231 1.91536 13.4847 3.69923 20.1371 5.48312V5.4757ZM9.57505 13.4809L10.8015 13.3843C10.8907 13.9789 11.1062 14.4323 11.4333 14.7296C11.7603 15.0269 12.1617 15.183 12.6374 15.183C13.2097 15.183 13.6854 14.9675 14.0719 14.5438C14.4584 14.1201 14.6517 13.5552 14.6517 12.8491C14.6517 12.1801 14.4659 11.6524 14.0942 11.2659C13.7226 10.8794 13.232 10.6861 12.6225 10.6861C12.2434 10.6861 11.9015 10.7753 11.6042 10.9463C11.3069 11.1172 11.0691 11.3402 10.8981 11.6227L9.7906 11.4591L10.7123 6.55345H15.447V7.67582H11.6488L11.1434 10.2476C11.7157 9.84621 12.3178 9.64553 12.9421 9.64553C13.7746 9.64553 14.4733 9.93542 15.0456 10.5152C15.618 11.0949 15.9004 11.8382 15.9004 12.745C15.9004 13.6073 15.6477 14.358 15.1497 14.9823C14.5402 15.7553 13.7003 16.1418 12.6448 16.1418C11.7752 16.1418 11.0691 15.8966 10.519 15.4134C9.96899 14.9303 9.65681 14.2836 9.58248 13.4809H9.57505Z" fill="#C5C6C6"/>
</svg>
