<svg width="22" height="21" viewBox="0 0 22 21" fill="none" xmlns="http://www.w3.org/2000/svg">
<path fill-rule="evenodd" clip-rule="evenodd" d="M21.5403 0.119385V20.7827L0.876923 0.119385H21.5403ZM12.8884 9.33614L14.0628 9.17262C14.1966 9.84158 14.427 10.3173 14.7467 10.6146C15.0663 10.9045 15.4676 11.0531 15.9359 11.0531C16.4934 11.0531 16.9616 10.8599 17.3407 10.4808C17.7198 10.1017 17.9056 9.62602 17.9056 9.06112C17.9056 8.52595 17.7272 8.07999 17.3779 7.73064C17.0285 7.3813 16.5826 7.2029 16.0325 7.2029C15.8095 7.2029 15.5345 7.24751 15.2001 7.3367L15.3338 6.31096C15.4082 6.31839 15.4751 6.32583 15.5197 6.32583C16.0251 6.32583 16.4711 6.19204 16.8724 5.93189C17.2738 5.67174 17.4745 5.27036 17.4745 4.7352C17.4745 4.30409 17.3258 3.94731 17.036 3.66486C16.7461 3.38242 16.367 3.24119 15.9062 3.24119C15.4453 3.24119 15.0663 3.38241 14.7615 3.67229C14.4568 3.96217 14.2635 4.39328 14.1743 4.97304L12.9999 4.7575C13.1411 3.96961 13.4682 3.36011 13.9811 2.92901C14.4865 2.4979 15.1183 2.28235 15.8764 2.28235C16.3967 2.28235 16.8724 2.39384 17.311 2.61683C17.7495 2.83981 18.084 3.14457 18.3144 3.53108C18.5448 3.91759 18.6638 4.32639 18.6638 4.7575C18.6638 5.1663 18.5523 5.54538 18.3293 5.87985C18.1063 6.21433 17.7793 6.48936 17.3482 6.69005C17.9131 6.8164 18.3516 7.09142 18.6638 7.50022C18.9759 7.90903 19.132 8.42189 19.132 9.03882C19.132 9.8713 18.8273 10.5849 18.2178 11.1646C17.6083 11.7444 16.8427 12.0343 15.9136 12.0343C15.0737 12.0343 14.3824 11.7816 13.825 11.2836C13.2675 10.7855 12.9553 10.1389 12.8736 9.34357L12.8884 9.33614Z" fill="#C5C6C6"/>
</svg>
