<svg width="19" height="28" viewBox="0 0 19 28" fill="none" xmlns="http://www.w3.org/2000/svg">
<path fill-rule="evenodd" clip-rule="evenodd" d="M18.017 18.3827C11.9444 21.8836 6.88259 24.4256 0.497757 27.3096L7.68534 0.484375C11.1268 6.44553 14.5756 12.4141 18.017 18.3827ZM7.67791 14.8372C7.19477 14.6588 6.83056 14.4061 6.5927 14.0717C6.36228 13.7372 6.24336 13.3432 6.24336 12.8824C6.24336 12.1837 6.49608 11.6039 6.98665 11.1282C7.48465 10.6525 8.14618 10.4147 8.97866 10.4147C9.81114 10.4147 10.4801 10.66 10.9855 11.1431C11.491 11.6262 11.7437 12.2134 11.7437 12.9121C11.7437 13.3507 11.6248 13.7446 11.3943 14.0642C11.1639 14.3913 10.8146 14.644 10.3389 14.8224C10.9261 15.0156 11.3646 15.3204 11.6694 15.744C11.9741 16.1677 12.1302 16.6732 12.1302 17.2678C12.1302 18.0854 11.8403 18.7692 11.268 19.3267C10.6882 19.8842 9.93006 20.1592 8.99352 20.1592C8.05698 20.1592 7.29883 19.8842 6.71907 19.3267C6.14674 18.7692 5.85685 18.0705 5.85685 17.2381C5.85685 16.6211 6.01294 16.1008 6.33255 15.6772C6.64473 15.2609 7.09814 14.971 7.67791 14.8224V14.8372ZM7.44748 12.8452C7.44748 13.2986 7.58871 13.6703 7.87859 13.9527C8.16847 14.2426 8.54755 14.3838 9.01582 14.3838C9.46922 14.3838 9.84087 14.2426 10.1233 13.9602C10.4132 13.6777 10.5544 13.3284 10.5544 12.9121C10.5544 12.481 10.4058 12.1168 10.1159 11.8269C9.826 11.5371 9.45436 11.3884 9.00838 11.3884C8.55498 11.3884 8.18334 11.5296 7.89345 11.8195C7.60357 12.1094 7.45492 12.4513 7.45492 12.8452H7.44748ZM7.06098 17.2604C7.06098 17.5948 7.1353 17.9144 7.29139 18.2341C7.44748 18.5462 7.68534 18.7841 7.99752 18.955C8.3097 19.126 8.65161 19.2152 9.00838 19.2152C9.57328 19.2152 10.0341 19.0368 10.3983 18.6726C10.7625 18.3158 10.9409 17.855 10.9409 17.2975C10.9409 16.7326 10.7551 16.2644 10.3835 15.9002C10.0118 15.5285 9.53612 15.3501 8.97122 15.3501C8.41376 15.3501 7.96035 15.5359 7.60357 15.9002C7.2468 16.2644 7.06098 16.7178 7.06098 17.2678V17.2604Z" fill="#C5C6C6"/>
</svg>
