<svg width="19" height="27" viewBox="0 0 19 27" fill="none" xmlns="http://www.w3.org/2000/svg">
<path fill-rule="evenodd" clip-rule="evenodd" d="M18.1582 10.3308C14.6573 16.4034 11.5355 21.1307 7.44741 26.8243L0.259827 -0.000915527C6.22842 3.4405 12.1896 6.88935 18.1582 10.3308ZM12.0781 10.7693L10.9186 10.8659C10.8145 10.4051 10.6658 10.0706 10.4726 9.86249C10.153 9.52801 9.75902 9.35706 9.29818 9.35706C8.92654 9.35706 8.59206 9.46113 8.30218 9.66925C7.93054 9.93683 7.64809 10.3308 7.43254 10.8436C7.21698 11.3639 7.10549 12.0998 7.09806 13.0512C7.38051 12.6201 7.72985 12.3005 8.13866 12.0923C8.54746 11.8842 8.97114 11.7802 9.42455 11.7802C10.205 11.7802 10.8739 12.0701 11.424 12.6424C11.974 13.2147 12.249 13.958 12.249 14.8723C12.249 15.4743 12.1227 16.0243 11.8625 16.5446C11.6024 17.0575 11.2456 17.4515 10.7996 17.7265C10.3462 18.0015 9.83336 18.1353 9.26103 18.1353C8.28732 18.1353 7.48457 17.7785 6.86764 17.0575C6.25071 16.3365 5.94596 15.1547 5.94596 13.5046C5.94596 11.6613 6.28788 10.3159 6.9717 9.48343C7.56633 8.75501 8.36907 8.39079 9.37994 8.39079C10.1307 8.39079 10.7476 8.5989 11.2307 9.02257C11.7139 9.43881 11.9963 10.026 12.0929 10.7619L12.0781 10.7693ZM7.27645 14.8871C7.27645 15.2885 7.36564 15.675 7.5366 16.0466C7.70755 16.4183 7.94541 16.6933 8.25016 16.8866C8.5549 17.0798 8.88195 17.1764 9.22386 17.1764C9.72186 17.1764 10.153 16.9757 10.5023 16.5744C10.8591 16.173 11.03 15.6304 11.03 14.9466C11.03 14.285 10.8517 13.7648 10.5023 13.3857C10.153 13.0066 9.70699 12.8133 9.17182 12.8133C8.64409 12.8133 8.19069 13.0066 7.82648 13.3857C7.45483 13.7648 7.27645 14.2627 7.27645 14.8797V14.8871Z" fill="#C5C6C6"/>
</svg>
