<?xml version="1.0" encoding="utf-8"?>
<!-- Generator: Adobe Illustrator 16.0.0, SVG Export Plug-In . SVG Version: 6.00 Build 0)  -->
<!DOCTYPE svg PUBLIC "-//W3C//DTD SVG 1.1//EN" "http://www.w3.org/Graphics/SVG/1.1/DTD/svg11.dtd">
<svg version="1.1" id="Layer_1" xmlns="http://www.w3.org/2000/svg" xmlns:xlink="http://www.w3.org/1999/xlink" x="0px" y="0px"
	 width="408.331px" height="329.936px" viewBox="0 0 408.331 329.936" enable-background="new 0 0 408.331 329.936"
	 xml:space="preserve">
<g>
	<path fill-rule="evenodd" clip-rule="evenodd" fill="#6C93E7" d="M163.332,9.419v73.064h81.666V9.419
		c0-5.182-4.195-9.419-9.325-9.419H172.63C167.527,0,163.332,4.237,163.332,9.419L163.332,9.419z"/>
	<path fill-rule="evenodd" clip-rule="evenodd" fill="#6C93E7" d="M399.005,164.968h-63.071c-5.103-0.029-9.27-4.237-9.27-9.391
		V91.903c0-5.182-4.194-9.419-9.325-9.419h-63.043c-5.103,0-9.298-4.237-9.298-9.391v9.391v0.144c0-0.086-0.057-0.144-0.142-0.144
		h0.142V9.419c0-5.182-4.195-9.419-9.325-9.419H172.63c-5.103,0-9.298,4.237-9.298,9.419v63.703
		c-0.028,5.153-4.224,9.362-9.326,9.362H90.822c-5.046,0-9.156,4.152-9.156,9.248v63.845c0,5.154-4.167,9.362-9.27,9.391H9.297
		c-5.102,0-9.297,4.237-9.297,9.419v63.673c0,5.154,4.195,9.391,9.297,9.391h72.369l0,0H72.34c5.131,0,9.326,4.238,9.326,9.42
		v63.674c0,5.154,4.195,9.391,9.298,9.391h63.042c5.131,0,9.326-4.236,9.326-9.391v-73.094v-73.064c0-5.182,4.195-9.419,9.298-9.419
		h-9.298l0,0l0,0V82.484l0,0v82.484h81.666l0,0h-9.325c5.13,0,9.325,4.237,9.325,9.419v73.064v73.094
		c0,5.154,4.195,9.391,9.298,9.391h63.043c5.131,0,9.325-4.236,9.325-9.391v-63.674c0-5.182,4.195-9.42,9.298-9.42h-9.298l0,0
		h72.341c5.131,0,9.326-4.236,9.326-9.391v-63.673C408.331,169.206,404.136,164.968,399.005,164.968L399.005,164.968z"/>
	<path fill-rule="evenodd" clip-rule="evenodd" fill="#6C93E7" d="M399.005,164.968h-72.341v82.483h72.341
		c5.131,0,9.326-4.236,9.326-9.391v-63.673C408.331,169.206,404.136,164.968,399.005,164.968L399.005,164.968z"/>
	<path fill-rule="evenodd" clip-rule="evenodd" fill="#6C93E7" d="M317.339,82.484h-72.341v82.484h81.666V91.903
		C326.664,86.721,322.47,82.484,317.339,82.484L317.339,82.484z"/>
	<path fill-rule="evenodd" clip-rule="evenodd" fill="#6C93E7" d="M163.332,82.484h-72.51c-5.046,0-9.156,4.152-9.156,9.248v73.236
		h81.666V82.484z"/>
	<path fill-rule="evenodd" clip-rule="evenodd" fill="#A8C4FF" d="M244.856,82.484h-81.524v82.484h81.666l0,0h-9.325
		c5.13,0,9.325,4.237,9.325,9.419v73.064h81.666v-82.483h-81.666V82.627C244.998,82.542,244.941,82.484,244.856,82.484
		L244.856,82.484z M172.63,164.968h-9.298l0,0H81.666v82.483h81.666v-73.064C163.332,169.206,167.527,164.968,172.63,164.968
		L172.63,164.968z"/>
	<path fill-rule="evenodd" clip-rule="evenodd" fill="#6C93E7" d="M72.34,164.968h9.326v-9.391
		C81.666,160.731,77.471,164.968,72.34,164.968L72.34,164.968z"/>
	<path fill-rule="evenodd" clip-rule="evenodd" fill="#6C93E7" d="M335.962,164.968h-9.298v-9.391
		C326.664,160.731,330.859,164.968,335.962,164.968L335.962,164.968z"/>
	<path fill-rule="evenodd" clip-rule="evenodd" fill="#6C93E7" d="M326.664,320.545v-73.094h-81.666v73.094
		c0,5.154,4.195,9.391,9.298,9.391h63.043C322.47,329.936,326.664,325.699,326.664,320.545L326.664,320.545z"/>
	<path fill-rule="evenodd" clip-rule="evenodd" fill="#6C93E7" d="M335.962,247.451h-9.298v9.42
		C326.664,251.689,330.859,247.451,335.962,247.451L335.962,247.451z"/>
	<path fill-rule="evenodd" clip-rule="evenodd" fill="#6C93E7" d="M163.332,73.093v9.391h-9.326
		C159.137,82.484,163.332,78.247,163.332,73.093L163.332,73.093z"/>
	<path fill-rule="evenodd" clip-rule="evenodd" fill="#6C93E7" d="M244.998,73.093v9.391h9.298
		C249.193,82.484,244.998,78.247,244.998,73.093L244.998,73.093z"/>
	<path fill-rule="evenodd" clip-rule="evenodd" fill="#6C93E7" d="M163.332,320.545v-73.094H81.666v73.094
		c0,5.154,4.195,9.391,9.298,9.391h63.042C159.137,329.936,163.332,325.699,163.332,320.545L163.332,320.545z"/>
	<path fill-rule="evenodd" clip-rule="evenodd" fill="#6C93E7" d="M9.297,164.968h72.369v82.483H9.297
		c-5.102,0-9.297-4.236-9.297-9.391v-63.673C0,169.206,4.195,164.968,9.297,164.968L9.297,164.968z"/>
	<path fill-rule="evenodd" clip-rule="evenodd" fill="#6C93E7" d="M72.34,247.451h9.326v9.42
		C81.666,251.689,77.471,247.451,72.34,247.451L72.34,247.451z"/>
</g>
</svg>
