<svg width="619" height="193" viewBox="0 0 619 193" fill="none" xmlns="http://www.w3.org/2000/svg">
<g clip-path="url(#clip0_17_857)">
<mask id="mask0_17_857" style="mask-type:luminance" maskUnits="userSpaceOnUse" x="0" y="-1" width="619" height="194">
<path d="M144.649 33.6063C140.984 39.0261 145.206 33.5077 136.423 38.1782C116.859 48.5756 117.555 37.4627 108.966 44.0093C104.025 47.7727 105.147 54.9898 104.44 52.8263C104.375 52.632 104.183 53.5052 103.989 53.8066C101.53 54.6799 91.828 58.1391 90.0196 58.6039C81.8955 60.6856 82.7828 56.5306 77.3264 54.2095C75.0982 56.3475 73.9742 57.5644 71.9939 60.2237C60.974 58.9448 53.4809 63.5702 44.9483 64.7646C37.9482 65.7449 25.1902 65.0519 18.669 67.4181C8.33923 70.2323 11.9731 65.1646 9.05474 74.6549C7.99275 78.1113 7.82655 78.8916 2.67153 80.2691V86.934C6.41526 88.3763 4.08845 86.8241 4.76171 89.934C4.76452 89.9425 5.28848 95.6947 5.33636 96.2637C1.06868 98.5229 0.519378 96.7454 0.00387573 102.929L14.1957 107.368C19.1028 108.56 15.4041 107.926 18.5789 107.019C24.1339 105.43 22.5705 105.084 30.1227 106.177C38.4496 107.382 35.1453 105.653 41.368 105.701C46.1596 105.737 52.7119 110.796 64.574 107.506C69.3769 106.174 70.9234 103.791 73.7629 103.241C81.4673 101.751 75.7601 104.909 83.9969 105.596C86.1885 97.3877 90.4449 103.23 99.8563 101.455C104.456 100.591 100.716 101.402 102.792 100.391C108.127 97.7905 101.885 97.7173 111.921 97.5201C127.505 97.213 120.375 97.6215 132.184 93.7003C140.373 90.9819 137.826 96.0187 145.356 92.3735L146.733 91.4327C150.567 89.0833 152.545 88.2636 157.322 88.2636C157.077 88.4326 156.64 88.3847 156.57 88.7453L154.702 90.965C152.688 94.8947 135.815 101.016 126.66 105.593C114.476 111.684 102.425 117.081 89.7717 123.366C83.8701 126.298 64.4839 136.546 59.4697 141.056C59.2669 141.239 58.9852 141.518 58.7908 141.71C52.802 147.625 57.8218 144.8 49.3456 149.597L41.6441 155.228C41.2131 155.499 27.0832 159.279 28.0044 169.583L35.4411 182.147C37.6299 185.361 36.3397 183.643 40.0046 185.584C38.3003 188.803 36.0637 190.708 40.2581 192.063C51.8555 195.806 49.6864 181.586 67.9994 181.586C68.9319 185.485 67.8276 183.508 70.6671 185.586C92.6393 173.961 115.285 176.299 140.522 167.454C152.731 163.175 162.652 158.093 176.424 158.332C184.117 158.465 178.68 161.986 186.055 158.479C190.21 156.504 185.582 157.969 190.607 156.197C199.526 153.056 203.593 157.051 209.489 157.468C220.008 158.208 222.287 151.817 232.07 151.017C239.431 150.414 250.529 147.659 254.642 142.927C255.127 144.124 254.659 147.129 263.349 145.174C266.62 144.439 270.719 142.459 273.276 141.563C276.981 140.265 290.967 137.594 295.97 137.594C291.879 143.701 294.144 137.535 294.894 145.783L295.939 154.724C295.446 158.431 295.992 153.913 294.595 157.372L293.854 161C293.857 161.178 294.603 165.535 294.634 166.924C321.136 166.924 308.519 163.042 315.964 162.924C317.246 162.904 328.043 169.138 336.739 163.702C341.948 160.442 337.246 160.682 345.247 160.209C359.292 159.38 355.582 160.056 366.272 155.904C376.303 152.008 389.676 150.079 397.783 147.422L437.443 135.09C445.933 133.569 449.995 132.067 457.102 129.419C464.604 126.625 471.071 127.54 477.753 122.929C483.074 120.337 482.46 124.535 495.866 117.884C506.728 112.495 500.745 114.67 515.255 112.726C517.881 112.374 519.844 112.292 522.461 112.019L529.075 112.264C527.447 115.549 530.188 112.813 524.117 114.994C521.402 115.968 522.976 114.546 520.596 116.264C520.991 121.439 520.447 121.749 524.844 121.712C527.112 121.692 525.554 117.258 531.143 122.929L522.9 126.687C516.596 119.65 509.602 117.808 510.762 132.262L514.607 133.262C519.56 133.374 516.283 134.29 519.413 132.262C521.653 125.757 537.095 131.712 543.019 130.101C550.664 128.019 545.18 130.439 550.05 126.191L543.633 123.867C545.757 122.554 547.101 121.864 548.535 120.261C540.737 118.05 546.771 120.749 543.38 117.036C551.563 116.458 548.447 114.318 553.267 120.566L561.267 118.549L575.932 118.709L581.265 117.45C584.794 117.019 582.583 118.154 584.541 116.264C585.609 113.875 585.975 113.613 585.752 110.16C579.104 106.624 581.628 108.74 577.265 113.425C568.442 113.346 571.29 115.751 567.834 109.599C569.375 108.45 570.2 110.594 574.797 109.678C578.947 108.853 579.107 107.464 585.265 106.233L595.158 102.168C595.169 102.162 609.809 90.0383 611.22 98.6694C611.702 101.627 607.854 105.053 606.595 106.934L611.553 105.227C611.843 105.106 612.187 104.94 612.474 104.813C616.727 102.937 615.142 103.912 618.592 101.602L615.668 96.5257C612.409 92.9087 608.885 91.3848 603.651 91.2439C597.806 91.089 599.919 92.9341 593.195 93.5454C588.152 94.0045 585.321 92.3763 582.245 94.9341L581.947 102.937C579.738 105.951 583.409 103.069 579.544 105.47L574.651 107.185C570.606 103.636 571.746 102.306 567.614 99.506C561.194 101.137 569.217 100.05 563.324 101.915C560.997 102.65 558.453 102.427 556.042 102.827C549.431 103.923 549.357 107.036 542.453 107.388C542.501 101.3 542.571 102.157 547.769 99.892C562.915 93.2918 566.096 94.3707 574.594 90.4749C578.992 90.9735 579.732 90.4495 583.372 89.0692C596.248 84.1875 585.431 90.5791 599.626 82.6325C603.975 80.1958 604.727 82.624 605.257 76.2662C601.809 75.9789 597.46 75.7958 601.857 73.6014L602.265 70.2407C593.22 69.7731 589.93 72.7253 583.938 66.8012C587.347 62.3054 585.082 64.897 590.49 63.0688L583.378 62.4519C583.166 62.404 582.806 62.2181 582.62 62.1786C579.428 61.511 580.152 62.9984 576.87 63.6293C572.566 64.4547 574.983 64.328 572.003 63.1533C573.507 57.3701 575.324 58.4462 582.135 58.0405C582.378 50.8404 581.594 58.7757 581.099 55.0686C580.966 54.0827 577.008 53.57 588.158 50.1925L595.657 47.553C596.705 47.2206 598.806 50.4291 599.257 44.2713L599.026 41.6064C595.933 39.1838 593.186 39.5303 588.73 39.0571C588.828 37.2993 588.719 39.981 588.707 39.9923C588.645 40.0627 588.333 40.3726 588.254 40.4458C588.149 40.5416 587.676 40.874 587.572 40.9585L585.73 42.0881C584.268 40.7782 582.163 39.336 580.792 38.3162C582.468 36.3134 581.442 37.4514 583.426 35.8711C583.761 35.6035 584.82 34.8824 585.144 34.657C587.085 33.3049 585.279 35.2401 588.245 32.733C580.656 31.5105 583.783 23.0991 572.735 23.9977C545.492 26.2146 562.963 26.8033 550.166 21.268C545.69 25.2568 548.16 20.33 545.174 27.0484L538.597 24.9442C535.785 27.8907 538.154 26.7301 534.596 29.8175C527.923 27.1386 534.543 28.3104 529.264 26.2061C524.734 30.4175 527.881 27.8794 520.402 28.7414C512.393 29.6654 481.542 35.9331 475.429 38.5895C468.97 41.398 470.116 38.4881 458.998 40.6487L440.136 44.1755C436.744 44.6825 435.152 45.9135 432.079 47.3474C424.983 50.6601 420.479 48.953 415.476 49.584C412.149 50.0038 396.766 53.6799 392.583 53.17C387.845 52.5925 392.169 54.7898 388.394 51.415L395.695 47.6967C392.273 42.7557 393.585 50.2376 393.233 42.5811L397.284 40.3951C401.107 39.5867 400.87 39.2402 403.36 37.0852C403.572 36.9021 403.839 36.6035 404.053 36.4176C404.265 36.2317 404.535 35.9415 404.752 35.7612L410.617 32.271C409.71 23.9864 411.163 32.3274 408.825 27.3977C407.949 25.5526 407.324 24.4089 406.62 22.9385L409.594 20.3835C410.634 19.4624 411.375 19.237 411.862 18.0342C411.913 17.913 411.986 17.5468 412.008 17.4173L411.707 11.8453C411.763 9.71008 421.572 9.60867 395.955 9.60867C396.752 6.6227 397.848 6.1072 399.955 4.27618C394.726 3.83956 388.478 0.140899 367.977 0.259211C355.976 0.326818 342.759 -0.73799 331.356 1.00289C320.548 2.6508 309.787 3.70434 299.753 5.39451C288.248 7.32976 266.116 11.5242 255.459 15.7609C244.496 20.1215 246.18 14.8482 231.005 19.3018L144.657 33.6063H144.649Z" fill="white"/>
</mask>
<g mask="url(#mask0_17_857)">
<path fill-rule="evenodd" clip-rule="evenodd" d="M0.00106049 -0.735229H3.62648V195.809H0.00106049V-0.735229Z" fill="white"/>
<path fill-rule="evenodd" clip-rule="evenodd" d="M2.41801 -0.735229H6.04061V195.809H2.41801V-0.735229Z" fill="#FEFEFE"/>
<path fill-rule="evenodd" clip-rule="evenodd" d="M4.83495 -0.735229H8.45755V195.809H4.83495V-0.735229Z" fill="#FDFDFE"/>
<path fill-rule="evenodd" clip-rule="evenodd" d="M7.24908 -0.735229H10.8745V195.809H7.24908V-0.735229Z" fill="#FDFCFD"/>
<path fill-rule="evenodd" clip-rule="evenodd" d="M9.66602 -0.735229H13.2914V195.809H9.66602V-0.735229Z" fill="#FCFBFD"/>
<path fill-rule="evenodd" clip-rule="evenodd" d="M12.083 -0.735229H15.7084V195.809H12.083V-0.735229Z" fill="#FBFAFD"/>
<path fill-rule="evenodd" clip-rule="evenodd" d="M14.4999 -0.735229H18.1225V195.809H14.4999V-0.735229Z" fill="#F9F8FC"/>
<path fill-rule="evenodd" clip-rule="evenodd" d="M16.9169 -0.735229H20.5395V195.809H16.9169V-0.735229Z" fill="#F8F8FB"/>
<path fill-rule="evenodd" clip-rule="evenodd" d="M19.331 -0.735229H22.9564V195.809H19.331V-0.735229Z" fill="#F6F6FB"/>
<path fill-rule="evenodd" clip-rule="evenodd" d="M21.7479 -0.735229H25.3733V195.809H21.7479V-0.735229Z" fill="#F5F4FA"/>
<path fill-rule="evenodd" clip-rule="evenodd" d="M24.1649 -0.735229H27.7903V195.809H24.1649V-0.735229Z" fill="#F2F1F8"/>
<path fill-rule="evenodd" clip-rule="evenodd" d="M26.5818 -0.735229H30.2044V195.809H26.5818V-0.735229Z" fill="#F0EFF8"/>
<path fill-rule="evenodd" clip-rule="evenodd" d="M28.9988 -0.735229H32.6214V195.809H28.9988V-0.735229Z" fill="#EEECF6"/>
<path fill-rule="evenodd" clip-rule="evenodd" d="M31.4129 -0.735229H35.0383V195.809H31.4129V-0.735229Z" fill="#ECEAF5"/>
<path fill-rule="evenodd" clip-rule="evenodd" d="M33.8298 -0.735229H37.4552V195.809H33.8298V-0.735229Z" fill="#E9E7F4"/>
<path fill-rule="evenodd" clip-rule="evenodd" d="M36.2468 -0.735229H39.8694V195.809H36.2468V-0.735229Z" fill="#E6E4F3"/>
<path fill-rule="evenodd" clip-rule="evenodd" d="M38.6637 -0.735229H42.2863V195.809H38.6637V-0.735229Z" fill="#E5E2F2"/>
<path fill-rule="evenodd" clip-rule="evenodd" d="M41.0778 -0.735229H44.7033V195.809H41.0778V-0.735229Z" fill="#E2DFF0"/>
<path fill-rule="evenodd" clip-rule="evenodd" d="M43.4948 -0.735229H47.1202V195.809H43.4948V-0.735229Z" fill="#DFDCEF"/>
<path fill-rule="evenodd" clip-rule="evenodd" d="M45.9117 -0.735229H49.5372V195.809H45.9117V-0.735229Z" fill="#DDDAED"/>
<path fill-rule="evenodd" clip-rule="evenodd" d="M48.3287 -0.735229H51.9513V195.809H48.3287V-0.735229Z" fill="#DAD7EC"/>
<path fill-rule="evenodd" clip-rule="evenodd" d="M50.7456 -0.735229H54.3682V195.809H50.7456V-0.735229Z" fill="#D8D4EB"/>
<path fill-rule="evenodd" clip-rule="evenodd" d="M53.1597 -0.735229H56.7852V195.809H53.1597V-0.735229Z" fill="#D5D1E9"/>
<path fill-rule="evenodd" clip-rule="evenodd" d="M55.5767 -0.735229H59.2021V195.809H55.5767V-0.735229Z" fill="#D3CEE8"/>
<path fill-rule="evenodd" clip-rule="evenodd" d="M57.9936 -0.735229H61.6191V195.809H57.9936V-0.735229Z" fill="#D0CBE6"/>
<path fill-rule="evenodd" clip-rule="evenodd" d="M60.4106 -0.735229H64.0332V195.809H60.4106V-0.735229Z" fill="#CEC9E5"/>
<path fill-rule="evenodd" clip-rule="evenodd" d="M62.8275 -0.735229H66.4501V195.809H62.8275V-0.735229Z" fill="#CBC6E3"/>
<path fill-rule="evenodd" clip-rule="evenodd" d="M65.2417 -0.735229H68.8671V195.809H65.2417V-0.735229Z" fill="#C9C3E2"/>
<path fill-rule="evenodd" clip-rule="evenodd" d="M67.6586 -0.735229H71.284V195.809H67.6586V-0.735229Z" fill="#C6C0E0"/>
<path fill-rule="evenodd" clip-rule="evenodd" d="M70.0755 -0.735229H73.701V195.809H70.0755V-0.735229Z" fill="#C4BDDF"/>
<path fill-rule="evenodd" clip-rule="evenodd" d="M72.4925 -0.735229H76.1151V195.809H72.4925V-0.735229Z" fill="#C1BADD"/>
<path fill-rule="evenodd" clip-rule="evenodd" d="M74.9066 -0.735229H78.532V195.809H74.9066V-0.735229Z" fill="#BFB8DC"/>
<path fill-rule="evenodd" clip-rule="evenodd" d="M77.3236 -0.735229H80.949V195.809H77.3236V-0.735229Z" fill="#BCB5DA"/>
<path fill-rule="evenodd" clip-rule="evenodd" d="M79.7405 -0.735229H83.3659V195.809H79.7405V-0.735229Z" fill="#BAB2D8"/>
<path fill-rule="evenodd" clip-rule="evenodd" d="M82.1574 -0.735229H85.7829V195.809H82.1574V-0.735229Z" fill="#B7AFD7"/>
<path fill-rule="evenodd" clip-rule="evenodd" d="M84.5744 -0.735229H88.197V195.809H84.5744V-0.735229Z" fill="#B5ACD5"/>
<path fill-rule="evenodd" clip-rule="evenodd" d="M86.9885 -0.735229H90.6139V195.809H86.9885V-0.735229Z" fill="#B2AAD4"/>
<path fill-rule="evenodd" clip-rule="evenodd" d="M89.4055 -0.735229H93.0309V195.809H89.4055V-0.735229Z" fill="#B0A8D3"/>
<path fill-rule="evenodd" clip-rule="evenodd" d="M91.8224 -0.735229H95.4478V195.809H91.8224V-0.735229Z" fill="#AEA5D1"/>
<path fill-rule="evenodd" clip-rule="evenodd" d="M94.2393 -0.735229H97.8648V195.809H94.2393V-0.735229Z" fill="#ABA2D0"/>
<path fill-rule="evenodd" clip-rule="evenodd" d="M96.6563 -0.735229H100.279V195.809H96.6563V-0.735229Z" fill="#A9A0CE"/>
<path fill-rule="evenodd" clip-rule="evenodd" d="M99.0704 -0.735229H102.696V195.809H99.0704V-0.735229Z" fill="#A79ECD"/>
<path fill-rule="evenodd" clip-rule="evenodd" d="M101.487 -0.735229H105.113V195.809H101.487V-0.735229Z" fill="#A59BCB"/>
<path fill-rule="evenodd" clip-rule="evenodd" d="M103.904 -0.735229H107.53V195.809H103.904V-0.735229Z" fill="#A298C9"/>
<path fill-rule="evenodd" clip-rule="evenodd" d="M106.321 -0.735229H109.944V195.809H106.321V-0.735229Z" fill="#A196C8"/>
<path fill-rule="evenodd" clip-rule="evenodd" d="M108.735 -0.735229H112.361V195.809H108.735V-0.735229Z" fill="#9E94C7"/>
<path fill-rule="evenodd" clip-rule="evenodd" d="M111.152 -0.735229H114.778V195.809H111.152V-0.735229Z" fill="#9D92C6"/>
<path fill-rule="evenodd" clip-rule="evenodd" d="M113.569 -0.735229H117.195V195.809H113.569V-0.735229Z" fill="#9A8FC4"/>
<path fill-rule="evenodd" clip-rule="evenodd" d="M115.986 -0.735229H119.612V195.809H115.986V-0.735229Z" fill="#998DC3"/>
<path fill-rule="evenodd" clip-rule="evenodd" d="M118.403 -0.735229H122.026V195.809H118.403V-0.735229Z" fill="#968BC1"/>
<path fill-rule="evenodd" clip-rule="evenodd" d="M120.817 -0.735229H124.443V195.809H120.817V-0.735229Z" fill="#9589C0"/>
<path fill-rule="evenodd" clip-rule="evenodd" d="M123.234 -0.735229H126.86V195.809H123.234V-0.735229Z" fill="#9286BE"/>
<path fill-rule="evenodd" clip-rule="evenodd" d="M125.651 -0.735229H129.277V195.809H125.651V-0.735229Z" fill="#9184BD"/>
<path fill-rule="evenodd" clip-rule="evenodd" d="M128.068 -0.735229H131.694V195.809H128.068V-0.735229Z" fill="#8F83BC"/>
<path fill-rule="evenodd" clip-rule="evenodd" d="M130.485 -0.735229H134.108V195.809H130.485V-0.735229Z" fill="#8E81BB"/>
<path fill-rule="evenodd" clip-rule="evenodd" d="M132.899 -0.735229H136.525V195.809H132.899V-0.735229Z" fill="#8B7EB9"/>
<path fill-rule="evenodd" clip-rule="evenodd" d="M135.316 -0.735229H138.942V195.809H135.316V-0.735229Z" fill="#8A7DB8"/>
<path fill-rule="evenodd" clip-rule="evenodd" d="M137.733 -0.735229H141.358V195.809H137.733V-0.735229Z" fill="#887BB7"/>
<path fill-rule="evenodd" clip-rule="evenodd" d="M140.15 -0.735229H143.773V195.809H140.15V-0.735229Z" fill="#8679B6"/>
<path fill-rule="evenodd" clip-rule="evenodd" d="M142.567 -0.735229H146.19V195.809H142.567V-0.735229Z" fill="#8578B5"/>
<path fill-rule="evenodd" clip-rule="evenodd" d="M144.981 -0.735229H148.607V195.809H144.981V-0.735229Z" fill="#8376B4"/>
<path fill-rule="evenodd" clip-rule="evenodd" d="M147.398 -0.735229H151.023V195.809H147.398V-0.735229Z" fill="#8274B3"/>
<path fill-rule="evenodd" clip-rule="evenodd" d="M149.815 -0.735229H153.44V195.809H149.815V-0.735229Z" fill="#8073B2"/>
<path fill-rule="evenodd" clip-rule="evenodd" d="M152.232 -0.735229H155.855V195.809H152.232V-0.735229Z" fill="#7E71B1"/>
<path fill-rule="evenodd" clip-rule="evenodd" d="M154.649 -0.735229H158.271V195.809H154.649V-0.735229Z" fill="#7D6FB0"/>
<path fill-rule="evenodd" clip-rule="evenodd" d="M157.063 -0.735229H160.688V195.809H157.063V-0.735229Z" fill="#7B6EAF"/>
<path fill-rule="evenodd" clip-rule="evenodd" d="M159.48 -0.735229H163.105V195.809H159.48V-0.735229Z" fill="#7A6CAE"/>
<path fill-rule="evenodd" clip-rule="evenodd" d="M161.897 -0.735229H165.522V195.809H161.897V-0.735229Z" fill="#786BAD"/>
<path fill-rule="evenodd" clip-rule="evenodd" d="M164.314 -0.735229H167.936V195.809H164.314V-0.735229Z" fill="#7769AC"/>
<path fill-rule="evenodd" clip-rule="evenodd" d="M166.728 -0.735229H170.353V195.809H166.728V-0.735229Z" fill="#7668AB"/>
<path fill-rule="evenodd" clip-rule="evenodd" d="M169.145 -0.735229H172.77V195.809H169.145V-0.735229Z" fill="#7466AA"/>
<path fill-rule="evenodd" clip-rule="evenodd" d="M171.562 -0.735229H175.187V195.809H171.562V-0.735229Z" fill="#7365A9"/>
<path fill-rule="evenodd" clip-rule="evenodd" d="M173.979 -0.735229H177.601V195.809H173.979V-0.735229Z" fill="#7264A9"/>
<path fill-rule="evenodd" clip-rule="evenodd" d="M176.396 -0.735229H180.018V195.809H176.396V-0.735229Z" fill="#7062A8"/>
<path fill-rule="evenodd" clip-rule="evenodd" d="M178.81 -0.735229H182.435V195.809H178.81V-0.735229Z" fill="#6F61A7"/>
<path fill-rule="evenodd" clip-rule="evenodd" d="M181.227 -0.735229H184.852V195.809H181.227V-0.735229Z" fill="#6E60A6"/>
<path fill-rule="evenodd" clip-rule="evenodd" d="M183.644 -0.735229H187.269V195.809H183.644V-0.735229Z" fill="#6D5FA5"/>
<path fill-rule="evenodd" clip-rule="evenodd" d="M186.061 -0.735229H189.683V195.809H186.061V-0.735229Z" fill="#6C5EA5"/>
<path fill-rule="evenodd" clip-rule="evenodd" d="M188.478 -0.735229H192.1V195.809H188.478V-0.735229Z" fill="#6B5DA4"/>
<path fill-rule="evenodd" clip-rule="evenodd" d="M190.892 -0.735229H194.517V195.809H190.892V-0.735229Z" fill="#6A5CA3"/>
<path fill-rule="evenodd" clip-rule="evenodd" d="M193.309 -0.735229H196.934V195.809H193.309V-0.735229Z" fill="#685AA2"/>
<path fill-rule="evenodd" clip-rule="evenodd" d="M195.726 -0.735229H199.351V195.809H195.726V-0.735229Z" fill="#685AA2"/>
<path fill-rule="evenodd" clip-rule="evenodd" d="M198.143 -0.735229H201.765V195.809H198.143V-0.735229Z" fill="#6658A1"/>
<path fill-rule="evenodd" clip-rule="evenodd" d="M200.56 -0.735229H204.182V195.809H200.56V-0.735229Z" fill="#6557A0"/>
<path fill-rule="evenodd" clip-rule="evenodd" d="M202.974 -0.735229H206.599V195.809H202.974V-0.735229Z" fill="#64569F"/>
<path fill-rule="evenodd" clip-rule="evenodd" d="M205.391 -0.735229H209.016V195.809H205.391V-0.735229Z" fill="#63559F"/>
<path fill-rule="evenodd" clip-rule="evenodd" d="M207.808 -0.735229H211.433V195.809H207.808V-0.735229Z" fill="#63549E"/>
<path fill-rule="evenodd" clip-rule="evenodd" d="M210.225 -0.735229H213.847V195.809H210.225V-0.735229Z" fill="#61539D"/>
<path fill-rule="evenodd" clip-rule="evenodd" d="M212.639 -0.735229H216.264V195.809H212.639V-0.735229Z" fill="#60529D"/>
<path fill-rule="evenodd" clip-rule="evenodd" d="M215.056 -0.735229H218.681V195.809H215.056V-0.735229Z" fill="#60529C"/>
<path fill-rule="evenodd" clip-rule="evenodd" d="M217.473 -0.735229H221.098V195.809H217.473V-0.735229Z" fill="#5F519C"/>
<path fill-rule="evenodd" clip-rule="evenodd" d="M219.889 -0.735229H223.515V195.809H219.889V-0.735229Z" fill="#5E509B"/>
<path fill-rule="evenodd" clip-rule="evenodd" d="M222.306 -0.735229H225.929V195.809H222.306V-0.735229Z" fill="#5D4F9A"/>
<path fill-rule="evenodd" clip-rule="evenodd" d="M224.721 -0.735229H228.346V195.809H224.721V-0.735229Z" fill="#5C4E9A"/>
<path fill-rule="evenodd" clip-rule="evenodd" d="M227.137 -0.735229H230.763V195.809H227.137V-0.735229Z" fill="#5C4E99"/>
<path fill-rule="evenodd" clip-rule="evenodd" d="M229.554 -0.735229H233.18V195.809H229.554V-0.735229Z" fill="#5B4D99"/>
<path fill-rule="evenodd" clip-rule="evenodd" d="M231.971 -0.735229H235.594V195.809H231.971V-0.735229Z" fill="#5A4C98"/>
<path fill-rule="evenodd" clip-rule="evenodd" d="M234.388 -0.735229H238.011V195.809H234.388V-0.735229Z" fill="#594C98"/>
<path fill-rule="evenodd" clip-rule="evenodd" d="M236.802 -0.735229H240.428V195.809H236.802V-0.735229Z" fill="#594B97"/>
<path fill-rule="evenodd" clip-rule="evenodd" d="M239.219 -0.735229H242.845V195.809H239.219V-0.735229Z" fill="#584A97"/>
<path fill-rule="evenodd" clip-rule="evenodd" d="M241.636 -0.735229H245.262V195.809H241.636V-0.735229Z" fill="#574A97"/>
<path fill-rule="evenodd" clip-rule="evenodd" d="M244.053 -0.735229H247.676V195.809H244.053V-0.735229Z" fill="#574996"/>
<path fill-rule="evenodd" clip-rule="evenodd" d="M246.467 -0.735229H250.093V195.809H246.467V-0.735229Z" fill="#564896"/>
<path fill-rule="evenodd" clip-rule="evenodd" d="M248.884 -0.735229H252.51V195.809H248.884V-0.735229Z" fill="#564895"/>
<path fill-rule="evenodd" clip-rule="evenodd" d="M251.301 -0.735229H254.927V195.809H251.301V-0.735229Z" fill="#554795"/>
<path fill-rule="evenodd" clip-rule="evenodd" d="M253.718 -0.735229H257.344V195.809H253.718V-0.735229Z" fill="#544795"/>
<path fill-rule="evenodd" clip-rule="evenodd" d="M256.135 -0.735229H259.758V195.809H256.135V-0.735229Z" fill="#544694"/>
<path fill-rule="evenodd" clip-rule="evenodd" d="M258.549 -0.735229H262.175V195.809H258.549V-0.735229Z" fill="#534594"/>
<path fill-rule="evenodd" clip-rule="evenodd" d="M260.966 -0.735229H264.592V195.809H260.966V-0.735229Z" fill="#524593"/>
<path fill-rule="evenodd" clip-rule="evenodd" d="M263.383 -0.735229H267.009V195.809H263.383V-0.735229Z" fill="#524493"/>
<path fill-rule="evenodd" clip-rule="evenodd" d="M265.8 -0.735229H269.426V195.809H265.8V-0.735229Z" fill="#514492"/>
<path fill-rule="evenodd" clip-rule="evenodd" d="M268.217 -0.735229H271.84V195.809H268.217V-0.735229Z" fill="#504392"/>
<path fill-rule="evenodd" clip-rule="evenodd" d="M270.631 -0.735229H274.257V195.809H270.631V-0.735229Z" fill="#504392"/>
<path fill-rule="evenodd" clip-rule="evenodd" d="M273.048 -0.735229H276.674V195.809H273.048V-0.735229Z" fill="#504292"/>
<path fill-rule="evenodd" clip-rule="evenodd" d="M275.465 -0.735229H279.091V195.809H275.465V-0.735229Z" fill="#4F4291"/>
<path fill-rule="evenodd" clip-rule="evenodd" d="M277.882 -0.735229H281.505V195.809H277.882V-0.735229Z" fill="#4E4191"/>
<path fill-rule="evenodd" clip-rule="evenodd" d="M280.299 -0.735229H283.922V195.809H280.299V-0.735229Z" fill="#4E4190"/>
<path fill-rule="evenodd" clip-rule="evenodd" d="M282.713 -0.735229H286.339V195.809H282.713V-0.735229Z" fill="#4E4190"/>
<path fill-rule="evenodd" clip-rule="evenodd" d="M285.13 -0.735229H288.755V195.809H285.13V-0.735229Z" fill="#4D4090"/>
<path fill-rule="evenodd" clip-rule="evenodd" d="M287.547 -0.735229H291.172V195.809H287.547V-0.735229Z" fill="#4D4090"/>
<path fill-rule="evenodd" clip-rule="evenodd" d="M289.964 -0.735229H293.587V195.809H289.964V-0.735229Z" fill="#4C3F8F"/>
<path fill-rule="evenodd" clip-rule="evenodd" d="M292.381 -0.735229H296.004V195.809H292.381V-0.735229Z" fill="#4C3F8F"/>
<path fill-rule="evenodd" clip-rule="evenodd" d="M294.795 -0.735229H298.42V195.809H294.795V-0.735229Z" fill="#4B3F8F"/>
<path fill-rule="evenodd" clip-rule="evenodd" d="M297.212 -0.735229H300.837V195.809H297.212V-0.735229Z" fill="#4B3E8F"/>
<path fill-rule="evenodd" clip-rule="evenodd" d="M299.629 -0.735229H303.254V195.809H299.629V-0.735229Z" fill="#4B3E8F"/>
<path fill-rule="evenodd" clip-rule="evenodd" d="M302.046 -0.735229H305.668V195.809H302.046V-0.735229Z" fill="#4A3E8E"/>
<path fill-rule="evenodd" clip-rule="evenodd" d="M304.46 -0.735229H308.085V195.809H304.46V-0.735229Z" fill="#493D8E"/>
<path fill-rule="evenodd" clip-rule="evenodd" d="M306.877 -0.735229H310.502V195.809H306.877V-0.735229Z" fill="#493D8E"/>
<path fill-rule="evenodd" clip-rule="evenodd" d="M309.294 -0.735229H312.919V195.809H309.294V-0.735229Z" fill="#493D8D"/>
<path fill-rule="evenodd" clip-rule="evenodd" d="M311.711 -0.735229H315.333V195.809H311.711V-0.735229Z" fill="#493D8D"/>
<path fill-rule="evenodd" clip-rule="evenodd" d="M314.128 -0.735229H317.75V195.809H314.128V-0.735229Z" fill="#483C8D"/>
<path fill-rule="evenodd" clip-rule="evenodd" d="M316.542 -0.735229H320.167V195.809H316.542V-0.735229Z" fill="#483C8D"/>
<path fill-rule="evenodd" clip-rule="evenodd" d="M318.959 -0.735229H322.584V195.809H318.959V-0.735229Z" fill="#483C8D"/>
<path fill-rule="evenodd" clip-rule="evenodd" d="M321.376 -0.735229H325.001V195.809H321.376V-0.735229Z" fill="#473B8C"/>
<path fill-rule="evenodd" clip-rule="evenodd" d="M323.793 -0.735229H327.415V195.809H323.793V-0.735229Z" fill="#473B8C"/>
<path fill-rule="evenodd" clip-rule="evenodd" d="M326.21 -0.735229H329.832V195.809H326.21V-0.735229Z" fill="#463B8C"/>
<path fill-rule="evenodd" clip-rule="evenodd" d="M328.624 -0.735229H332.249V195.809H328.624V-0.735229Z" fill="#463B8C"/>
<path fill-rule="evenodd" clip-rule="evenodd" d="M331.041 -0.735229H334.666V195.809H331.041V-0.735229Z" fill="#463A8C"/>
<path fill-rule="evenodd" clip-rule="evenodd" d="M333.458 -0.735229H337.083V195.809H333.458V-0.735229Z" fill="#463A8C"/>
<path fill-rule="evenodd" clip-rule="evenodd" d="M335.875 -0.735229H339.497V195.809H335.875V-0.735229Z" fill="#453A8B"/>
<path fill-rule="evenodd" clip-rule="evenodd" d="M338.292 -0.735229H341.914V195.809H338.292V-0.735229Z" fill="#453A8B"/>
<path fill-rule="evenodd" clip-rule="evenodd" d="M340.706 -0.735229H344.331V195.809H340.706V-0.735229Z" fill="#45398B"/>
<path fill-rule="evenodd" clip-rule="evenodd" d="M343.123 -0.735229H346.748V195.809H343.123V-0.735229Z" fill="#45398B"/>
<path fill-rule="evenodd" clip-rule="evenodd" d="M345.54 -0.735229H349.165V195.809H345.54V-0.735229Z" fill="#44398B"/>
<path fill-rule="evenodd" clip-rule="evenodd" d="M347.957 -0.735229H351.579V195.809H347.957V-0.735229Z" fill="#44398B"/>
<path fill-rule="evenodd" clip-rule="evenodd" d="M350.371 -0.735229H353.996V195.809H350.371V-0.735229Z" fill="#43388A"/>
<path fill-rule="evenodd" clip-rule="evenodd" d="M352.788 -0.735229H356.413V195.809H352.788V-0.735229Z" fill="#43388A"/>
<path fill-rule="evenodd" clip-rule="evenodd" d="M355.205 -0.735229H358.83V195.809H355.205V-0.735229Z" fill="#43388A"/>
<path fill-rule="evenodd" clip-rule="evenodd" d="M357.621 -0.735229H361.247V195.809H357.621V-0.735229Z" fill="#43388A"/>
<path fill-rule="evenodd" clip-rule="evenodd" d="M360.038 -0.735229H363.661V195.809H360.038V-0.735229Z" fill="#43388A"/>
<path fill-rule="evenodd" clip-rule="evenodd" d="M362.453 -0.735229H366.078V195.809H362.453V-0.735229Z" fill="#42388A"/>
<path fill-rule="evenodd" clip-rule="evenodd" d="M364.87 -0.735229H368.495V195.809H364.87V-0.735229Z" fill="#42388A"/>
<path fill-rule="evenodd" clip-rule="evenodd" d="M367.286 -0.735229H370.912V195.809H367.286V-0.735229Z" fill="#42388A"/>
<path fill-rule="evenodd" clip-rule="evenodd" d="M369.703 -0.735229H373.326V195.809H369.703V-0.735229Z" fill="#423789"/>
<path fill-rule="evenodd" clip-rule="evenodd" d="M372.12 -0.735229H375.743V195.809H372.12V-0.735229Z" fill="#423789"/>
<path fill-rule="evenodd" clip-rule="evenodd" d="M374.534 -0.735229H378.16V195.809H374.534V-0.735229Z" fill="#413789"/>
<path fill-rule="evenodd" clip-rule="evenodd" d="M376.951 -0.735229H380.577V195.809H376.951V-0.735229Z" fill="#413789"/>
<path fill-rule="evenodd" clip-rule="evenodd" d="M379.368 -0.735229H382.994V195.809H379.368V-0.735229Z" fill="#413789"/>
<path fill-rule="evenodd" clip-rule="evenodd" d="M381.785 -0.735229H385.408V195.809H381.785V-0.735229Z" fill="#403689"/>
<path fill-rule="evenodd" clip-rule="evenodd" d="M384.199 -0.735229H387.825V195.809H384.199V-0.735229Z" fill="#403689"/>
<path fill-rule="evenodd" clip-rule="evenodd" d="M386.616 -0.735229H390.242V195.809H386.616V-0.735229Z" fill="#403689"/>
<path fill-rule="evenodd" clip-rule="evenodd" d="M389.033 -0.735229H392.659V195.809H389.033V-0.735229Z" fill="#403688"/>
<path fill-rule="evenodd" clip-rule="evenodd" d="M391.45 -0.735229H395.076V195.809H391.45V-0.735229Z" fill="#403688"/>
<path fill-rule="evenodd" clip-rule="evenodd" d="M393.867 -0.735229H397.49V195.809H393.867V-0.735229Z" fill="#403688"/>
<path fill-rule="evenodd" clip-rule="evenodd" d="M396.281 -0.735229H399.907V195.809H396.281V-0.735229Z" fill="#3F3688"/>
<path fill-rule="evenodd" clip-rule="evenodd" d="M398.698 -0.735229H402.324V195.809H398.698V-0.735229Z" fill="#3F3688"/>
<path fill-rule="evenodd" clip-rule="evenodd" d="M401.115 -0.735229H404.741V195.809H401.115V-0.735229Z" fill="#3F3688"/>
<path fill-rule="evenodd" clip-rule="evenodd" d="M403.532 -0.735229H407.158V195.809H403.532V-0.735229Z" fill="#3F3688"/>
<path fill-rule="evenodd" clip-rule="evenodd" d="M405.949 -0.735229H409.572V195.809H405.949V-0.735229Z" fill="#3F3588"/>
<path fill-rule="evenodd" clip-rule="evenodd" d="M408.363 -0.735229H411.989V195.809H408.363V-0.735229Z" fill="#3F3588"/>
<path fill-rule="evenodd" clip-rule="evenodd" d="M410.78 -0.735229H414.406V195.809H410.78V-0.735229Z" fill="#3F3588"/>
<path fill-rule="evenodd" clip-rule="evenodd" d="M413.197 -0.735229H416.823V195.809H413.197V-0.735229Z" fill="#3E3588"/>
<path fill-rule="evenodd" clip-rule="evenodd" d="M415.614 -0.735229H419.237V195.809H415.614V-0.735229Z" fill="#3E3588"/>
<path fill-rule="evenodd" clip-rule="evenodd" d="M418.031 -0.735229H421.654V195.809H418.031V-0.735229Z" fill="#3E3588"/>
<path fill-rule="evenodd" clip-rule="evenodd" d="M420.445 -0.735229H424.071V195.809H420.445V-0.735229Z" fill="#3E3588"/>
<path fill-rule="evenodd" clip-rule="evenodd" d="M422.862 -0.735229H426.488V195.809H422.862V-0.735229Z" fill="#3D3487"/>
<path fill-rule="evenodd" clip-rule="evenodd" d="M425.279 -0.735229H428.904V195.809H425.279V-0.735229Z" fill="#3D3487"/>
<path fill-rule="evenodd" clip-rule="evenodd" d="M427.696 -0.735229H431.319V195.809H427.696V-0.735229Z" fill="#3D3487"/>
<path fill-rule="evenodd" clip-rule="evenodd" d="M430.113 -0.735229H433.736V195.809H430.113V-0.735229Z" fill="#3D3487"/>
<path fill-rule="evenodd" clip-rule="evenodd" d="M432.527 -0.735229H436.152V195.809H432.527V-0.735229Z" fill="#3D3487"/>
<path fill-rule="evenodd" clip-rule="evenodd" d="M434.944 -0.735229H438.569V195.809H434.944V-0.735229Z" fill="#3D3487"/>
<path fill-rule="evenodd" clip-rule="evenodd" d="M437.361 -0.735229H440.986V195.809H437.361V-0.735229Z" fill="#3D3487"/>
<path fill-rule="evenodd" clip-rule="evenodd" d="M439.778 -0.735229H443.4V195.809H439.778V-0.735229Z" fill="#3D3487"/>
<path fill-rule="evenodd" clip-rule="evenodd" d="M442.192 -0.735229H445.817V195.809H442.192V-0.735229Z" fill="#3D3487"/>
<path fill-rule="evenodd" clip-rule="evenodd" d="M444.609 -0.735229H448.234V195.809H444.609V-0.735229Z" fill="#3D3487"/>
<path fill-rule="evenodd" clip-rule="evenodd" d="M447.026 -0.735229H450.651V195.809H447.026V-0.735229Z" fill="#3C3387"/>
<path fill-rule="evenodd" clip-rule="evenodd" d="M449.443 -0.735229H453.065V195.809H449.443V-0.735229Z" fill="#3C3387"/>
<path fill-rule="evenodd" clip-rule="evenodd" d="M451.86 -0.735229H455.482V195.809H451.86V-0.735229Z" fill="#3C3387"/>
<path fill-rule="evenodd" clip-rule="evenodd" d="M454.274 -0.735229H457.899V195.809H454.274V-0.735229Z" fill="#3C3387"/>
<path fill-rule="evenodd" clip-rule="evenodd" d="M456.691 -0.735229H460.316V195.809H456.691V-0.735229Z" fill="#3C3387"/>
<path fill-rule="evenodd" clip-rule="evenodd" d="M459.108 -0.735229H462.733V195.809H459.108V-0.735229Z" fill="#3C3386"/>
<path fill-rule="evenodd" clip-rule="evenodd" d="M461.525 -0.735229H465.147V195.809H461.525V-0.735229Z" fill="#3C3386"/>
<path fill-rule="evenodd" clip-rule="evenodd" d="M463.942 -0.735229H467.564V195.809H463.942V-0.735229Z" fill="#3C3386"/>
<path fill-rule="evenodd" clip-rule="evenodd" d="M466.356 -0.735229H469.981V195.809H466.356V-0.735229Z" fill="#3C3386"/>
<path fill-rule="evenodd" clip-rule="evenodd" d="M468.773 -0.735229H472.398V195.809H468.773V-0.735229Z" fill="#3C3386"/>
<path fill-rule="evenodd" clip-rule="evenodd" d="M471.19 -0.735229H474.815V195.809H471.19V-0.735229Z" fill="#3C3386"/>
<path fill-rule="evenodd" clip-rule="evenodd" d="M473.607 -0.735229H477.229V195.809H473.607V-0.735229Z" fill="#3C3386"/>
<path fill-rule="evenodd" clip-rule="evenodd" d="M476.021 -0.735229H479.646V195.809H476.021V-0.735229Z" fill="#3B3386"/>
<path fill-rule="evenodd" clip-rule="evenodd" d="M478.438 -0.735229H482.063V195.809H478.438V-0.735229Z" fill="#3B3386"/>
<path fill-rule="evenodd" clip-rule="evenodd" d="M480.855 -0.735229H484.48V195.809H480.855V-0.735229Z" fill="#3B3386"/>
<path fill-rule="evenodd" clip-rule="evenodd" d="M483.272 -0.735229H486.897V195.809H483.272V-0.735229Z" fill="#3B3386"/>
<path fill-rule="evenodd" clip-rule="evenodd" d="M485.689 -0.735229H489.311V195.809H485.689V-0.735229Z" fill="#3B3386"/>
<path fill-rule="evenodd" clip-rule="evenodd" d="M488.103 -0.735229H491.728V195.809H488.103V-0.735229Z" fill="#3B3386"/>
<path fill-rule="evenodd" clip-rule="evenodd" d="M490.52 -0.735229H494.145V195.809H490.52V-0.735229Z" fill="#3B3386"/>
<path fill-rule="evenodd" clip-rule="evenodd" d="M492.937 -0.735229H496.562V195.809H492.937V-0.735229Z" fill="#3B3386"/>
<path fill-rule="evenodd" clip-rule="evenodd" d="M495.353 -0.735229H498.979V195.809H495.353V-0.735229Z" fill="#3A3286"/>
<path fill-rule="evenodd" clip-rule="evenodd" d="M497.77 -0.735229H501.393V195.809H497.77V-0.735229Z" fill="#3A3286"/>
<path fill-rule="evenodd" clip-rule="evenodd" d="M500.185 -0.735229H503.81V195.809H500.185V-0.735229Z" fill="#3A3286"/>
<path fill-rule="evenodd" clip-rule="evenodd" d="M502.602 -0.735229H506.227V195.809H502.602V-0.735229Z" fill="#3A3286"/>
<path fill-rule="evenodd" clip-rule="evenodd" d="M505.018 -0.735229H508.644V195.809H505.018V-0.735229Z" fill="#3A3286"/>
<path fill-rule="evenodd" clip-rule="evenodd" d="M507.435 -0.735229H511.058V195.809H507.435V-0.735229Z" fill="#3A3286"/>
<path fill-rule="evenodd" clip-rule="evenodd" d="M509.852 -0.735229H513.475V195.809H509.852V-0.735229Z" fill="#3A3286"/>
<path fill-rule="evenodd" clip-rule="evenodd" d="M512.266 -0.735229H515.892V195.809H512.266V-0.735229Z" fill="#3A3286"/>
<path fill-rule="evenodd" clip-rule="evenodd" d="M514.683 -0.735229H518.309V195.809H514.683V-0.735229Z" fill="#3A3286"/>
<path fill-rule="evenodd" clip-rule="evenodd" d="M517.1 -0.735229H520.726V195.809H517.1V-0.735229Z" fill="#3A3286"/>
<path fill-rule="evenodd" clip-rule="evenodd" d="M519.517 -0.735229H523.14V195.809H519.517V-0.735229Z" fill="#3A3285"/>
<path fill-rule="evenodd" clip-rule="evenodd" d="M521.931 -0.735229H525.557V195.809H521.931V-0.735229Z" fill="#3A3285"/>
<path fill-rule="evenodd" clip-rule="evenodd" d="M524.348 -0.735229H527.974V195.809H524.348V-0.735229Z" fill="#3A3285"/>
<path fill-rule="evenodd" clip-rule="evenodd" d="M526.765 -0.735229H530.391V195.809H526.765V-0.735229Z" fill="#3A3285"/>
<path fill-rule="evenodd" clip-rule="evenodd" d="M529.182 -0.735229H532.808V195.809H529.182V-0.735229Z" fill="#3A3285"/>
<path fill-rule="evenodd" clip-rule="evenodd" d="M531.599 -0.735229H535.222V195.809H531.599V-0.735229Z" fill="#3A3285"/>
<path fill-rule="evenodd" clip-rule="evenodd" d="M534.013 -0.735229H537.639V195.809H534.013V-0.735229Z" fill="#3A3285"/>
<path fill-rule="evenodd" clip-rule="evenodd" d="M536.43 -0.735229H540.056V195.809H536.43V-0.735229Z" fill="#3A3285"/>
<path fill-rule="evenodd" clip-rule="evenodd" d="M538.847 -0.735229H542.473V195.809H538.847V-0.735229Z" fill="#3A3285"/>
<path fill-rule="evenodd" clip-rule="evenodd" d="M541.264 -0.735229H544.887V195.809H541.264V-0.735229Z" fill="#3A3285"/>
<path fill-rule="evenodd" clip-rule="evenodd" d="M543.681 -0.735229H547.304V195.809H543.681V-0.735229Z" fill="#3A3285"/>
<path fill-rule="evenodd" clip-rule="evenodd" d="M546.095 -0.735229H549.721V195.809H546.095V-0.735229Z" fill="#3A3285"/>
<path fill-rule="evenodd" clip-rule="evenodd" d="M548.512 -0.735229H552.138V195.809H548.512V-0.735229Z" fill="#3A3285"/>
<path fill-rule="evenodd" clip-rule="evenodd" d="M550.929 -0.735229H554.555V195.809H550.929V-0.735229Z" fill="#3A3285"/>
<path fill-rule="evenodd" clip-rule="evenodd" d="M553.346 -0.735229H556.969V195.809H553.346V-0.735229Z" fill="#3A3285"/>
<path fill-rule="evenodd" clip-rule="evenodd" d="M555.763 -0.735229H559.386V195.809H555.763V-0.735229Z" fill="#3A3285"/>
<path fill-rule="evenodd" clip-rule="evenodd" d="M558.177 -0.735229H561.803V195.809H558.177V-0.735229Z" fill="#393185"/>
<path fill-rule="evenodd" clip-rule="evenodd" d="M560.594 -0.735229H564.22V195.809H560.594V-0.735229Z" fill="#393185"/>
<path fill-rule="evenodd" clip-rule="evenodd" d="M563.011 -0.735229H566.636V195.809H563.011V-0.735229Z" fill="#393185"/>
<path fill-rule="evenodd" clip-rule="evenodd" d="M565.428 -0.735229H569.051V195.809H565.428V-0.735229Z" fill="#393185"/>
<path fill-rule="evenodd" clip-rule="evenodd" d="M567.845 -0.735229H571.468V195.809H567.845V-0.735229Z" fill="#393185"/>
<path fill-rule="evenodd" clip-rule="evenodd" d="M570.259 -0.735229H573.884V195.809H570.259V-0.735229Z" fill="#393185"/>
<path fill-rule="evenodd" clip-rule="evenodd" d="M572.676 -0.735229H576.301V195.809H572.676V-0.735229Z" fill="#393185"/>
<path fill-rule="evenodd" clip-rule="evenodd" d="M575.093 -0.735229H578.718V195.809H575.093V-0.735229Z" fill="#393185"/>
<path fill-rule="evenodd" clip-rule="evenodd" d="M577.51 -0.735229H581.132V195.809H577.51V-0.735229Z" fill="#393185"/>
<path fill-rule="evenodd" clip-rule="evenodd" d="M579.924 -0.735229H583.549V195.809H579.924V-0.735229Z" fill="#393185"/>
<path fill-rule="evenodd" clip-rule="evenodd" d="M582.341 -0.735229H585.966V195.809H582.341V-0.735229Z" fill="#393185"/>
<path fill-rule="evenodd" clip-rule="evenodd" d="M584.758 -0.735229H588.383V195.809H584.758V-0.735229Z" fill="#393185"/>
<path fill-rule="evenodd" clip-rule="evenodd" d="M587.175 -0.735229H590.797V195.809H587.175V-0.735229Z" fill="#393185"/>
<path fill-rule="evenodd" clip-rule="evenodd" d="M589.592 -0.735229H593.214V195.809H589.592V-0.735229Z" fill="#393185"/>
<path fill-rule="evenodd" clip-rule="evenodd" d="M592.006 -0.735229H595.631V195.809H592.006V-0.735229Z" fill="#393185"/>
<path fill-rule="evenodd" clip-rule="evenodd" d="M594.423 -0.735229H598.048V195.809H594.423V-0.735229Z" fill="#393185"/>
<path fill-rule="evenodd" clip-rule="evenodd" d="M596.84 -0.735229H600.465V195.809H596.84V-0.735229Z" fill="#393185"/>
<path fill-rule="evenodd" clip-rule="evenodd" d="M599.257 -0.735229H602.879V195.809H599.257V-0.735229Z" fill="#393185"/>
<path fill-rule="evenodd" clip-rule="evenodd" d="M601.674 -0.735229H605.296V195.809H601.674V-0.735229Z" fill="#393185"/>
<path fill-rule="evenodd" clip-rule="evenodd" d="M604.088 -0.735229H607.713V195.809H604.088V-0.735229Z" fill="#393185"/>
<path fill-rule="evenodd" clip-rule="evenodd" d="M606.505 -0.735229H610.13V195.809H606.505V-0.735229Z" fill="#393185"/>
<path fill-rule="evenodd" clip-rule="evenodd" d="M608.922 -0.735229H612.547V195.809H608.922V-0.735229Z" fill="#393185"/>
<path fill-rule="evenodd" clip-rule="evenodd" d="M611.339 -0.735229H614.961V195.809H611.339V-0.735229Z" fill="#393185"/>
<path fill-rule="evenodd" clip-rule="evenodd" d="M613.753 -0.735229H617.378V195.809H613.753V-0.735229Z" fill="#393185"/>
<path fill-rule="evenodd" clip-rule="evenodd" d="M616.17 -0.735229H619.795V195.809H616.17V-0.735229Z" fill="#393185"/>
</g>
</g>
<defs>
<clipPath id="clip0_17_857">
<rect width="618.588" height="192.694" fill="white"/>
</clipPath>
</defs>
</svg>
