<?xml version="1.0" encoding="UTF-8"?>
<!-- Generator: Adobe Illustrator 16.0.0, SVG Export Plug-In . SVG Version: 6.00 Build 0)  -->
<!DOCTYPE svg PUBLIC "-//W3C//DTD SVG 1.1//EN" "http://www.w3.org/Graphics/SVG/1.1/DTD/svg11.dtd">
<svg version="1.1" id="Layer_1" xmlns="http://www.w3.org/2000/svg" xmlns:xlink="http://www.w3.org/1999/xlink" x="0px" y="0px" width="408.331px" height="412.42px" viewBox="0 0 408.331 412.42" enable-background="new 0 0 408.331 412.42" xml:space="preserve">
<g>
	<path fill-rule="evenodd" clip-rule="evenodd" fill="#6278B1" d="M90.963,412.42h72.369v-82.484H81.667l0,0H72.34   c5.131,0,9.298,4.237,9.326,9.392v63.702C81.667,408.211,85.862,412.42,90.963,412.42L90.963,412.42z M9.297,329.936h72.369   v-82.483H0v73.093C0,325.698,4.196,329.936,9.297,329.936L9.297,329.936z"/>
	<path fill-rule="evenodd" clip-rule="evenodd" fill="#6278B1" d="M244.999,412.42h72.51c5.046,0,9.156-4.151,9.156-9.219v-63.903   c0.028-5.153,4.195-9.362,9.298-9.362h63.042c5.131,0,9.326-4.237,9.326-9.391v-63.674c0-5.182-4.195-9.419-9.326-9.419h-72.34   v82.483l0,0l0,0h-81.666V412.42z"/>
	<rect x="81.667" y="164.968" fill-rule="evenodd" clip-rule="evenodd" fill="#6278B1" width="81.666" height="82.484"/>
	<path fill-rule="evenodd" clip-rule="evenodd" fill="#6278B1" d="M9.297,82.484h72.369v82.484H0V91.903   C0,86.721,4.196,82.484,9.297,82.484L9.297,82.484z M72.34,82.484h9.326l0,0h81.666V0H90.822c-5.046,0-9.155,4.151-9.155,9.248   v63.846C81.638,78.275,77.471,82.484,72.34,82.484L72.34,82.484z"/>
	<path fill-rule="evenodd" clip-rule="evenodd" fill="#6278B1" d="M317.338,0h-72.34v82.484h81.666l0,0h9.298   c-5.103,0-9.298-4.208-9.298-9.391V9.419C326.665,4.237,322.469,0,317.338,0L317.338,0z M335.962,82.484h63.042   c5.131,0,9.326,4.237,9.326,9.419v63.674c0,5.153-4.195,9.391-9.326,9.391h-72.34V82.484"/>
	<path fill-rule="evenodd" clip-rule="evenodd" fill="#FFC047" d="M244.857,0h-81.524v82.484h81.666l0,0h-9.326   c5.103,0,9.298,4.208,9.326,9.362v63.874c0,5.096,4.11,9.248,9.156,9.248h72.51V82.484h-81.666V0.143   C244.999,0.057,244.942,0,244.857,0L244.857,0z M81.667,247.452h81.666v73.15c0.028,5.153,4.195,9.333,9.298,9.333h-9.298l0,0   h81.666h81.666v-82.483h-72.51c-5.046,0-9.156,4.18-9.156,9.247v63.875c-0.028,5.153-4.224,9.361-9.326,9.361h9.326l0,0v82.484   h-81.524c-0.085,0-0.142-0.058-0.142-0.144v-82.341H81.667V247.452z M81.667,247.452H0v-82.484h81.666V247.452z M172.63,82.484   h-9.298l0,0H81.667v82.484h81.666V91.903C163.333,86.721,167.528,82.484,172.63,82.484L172.63,82.484z"/>
</g>
</svg>