<svg xmlns="http://www.w3.org/2000/svg" xmlns:xlink="http://www.w3.org/1999/xlink" version="1.1" id="Layer_1" x="0px" y="0px" width="43.228px" height="57.805px" viewBox="0 0 43.228 57.805" enable-background="new 0 0 43.228 57.805" xml:space="preserve">
<path fill="#FEFEFE" d="M20.522,7.387c-0.396,0.143-0.794,0.314-1.19,0.486s-0.766,0.344-1.134,0.545l-0.596-1.031  c0.228-0.114,0.454-0.229,0.681-0.344c0.255-0.114,0.51-0.229,0.737-0.344c0.142-0.057,0.283-0.114,0.425-0.172l0,0l0.028-0.028  c-0.425-1.088-0.879-2.147-1.332-3.264c-0.454,0.2-0.907,0.401-1.332,0.601c-0.539,0.258-1.021,0.516-1.531,0.803  c-0.737,0.4-1.445,0.858-2.154,1.374l0,0c0.907,1.288,1.758,2.577,2.637,3.923c-0.341,0.229-0.681,0.486-1.021,0.772  c-0.341,0.258-0.652,0.544-0.964,0.83l-0.822-0.858c0.028-0.029,0.057-0.086,0.113-0.115c0.198-0.2,0.425-0.372,0.624-0.572  c0.283-0.2,0.566-0.43,0.85-0.658c-0.708-0.945-1.445-1.861-2.126-2.807c-0.17,0.144-0.34,0.258-0.51,0.401l0,0  c-0.454,0.372-0.907,0.744-1.332,1.146l0,0l-0.028,0.028L10.46,8.188c-0.228,0.2-0.426,0.401-0.624,0.601  c-0.567,0.573-1.077,1.146-1.56,1.719l0.907,0.772l0,0l2.608,2.319c-0.255,0.344-0.539,0.688-0.766,1.031  c-0.255,0.343-0.51,0.687-0.737,1.059l-1.021-0.63c0.028-0.028,0.057-0.058,0.085-0.114l0,0c0.256-0.372,0.511-0.744,0.766-1.117  l0,0c0.085-0.086,0.142-0.2,0.227-0.285l0,0l0.086-0.115l0,0v-0.028h0.028l0,0l0,0l0.028-0.058  c-0.936-0.716-1.871-1.402-2.778-2.119c-0.539,0.688-1.021,1.375-1.474,2.091c-0.454,0.744-0.879,1.489-1.248,2.262l0,0  c-0.085,0.172-0.198,0.372-0.283,0.572c1.417,0.659,2.807,1.346,4.224,2.062c-0.17,0.4-0.34,0.773-0.51,1.203  c-0.143,0.4-0.284,0.801-0.426,1.202l-1.134-0.344c0.057-0.2,0.142-0.401,0.198-0.602v-0.028l0.028-0.029v-0.027l0,0  c0.085-0.229,0.17-0.459,0.256-0.717l0,0c0.085-0.172,0.17-0.372,0.255-0.572c-1.077-0.458-2.183-0.859-3.26-1.316  c-0.085,0.199-0.142,0.4-0.227,0.572l0,0c-0.313,0.801-0.596,1.632-0.822,2.462c-0.227,0.802-0.426,1.661-0.567,2.491  c1.56,0.286,3.062,0.572,4.621,0.887c-0.086,0.43-0.143,0.859-0.199,1.289c-0.028,0.43-0.057,0.859-0.085,1.288l-1.19-0.028  c0.028-0.258,0.028-0.516,0.057-0.773c0.028-0.458,0.085-0.887,0.142-1.316c-1.162-0.172-2.296-0.287-3.486-0.43  c-0.028,0.2-0.057,0.43-0.057,0.63l0,0c-0.057,0.4-0.085,0.802-0.113,1.231c-0.028,0.543-0.057,1.116-0.057,1.66  c0,0.2,0,0.486,0,0.802v0.028l0,0v1.088h4.79v3.007H5.669v-1.003v-1.116H4.592H2.353v0.602l0,0v4.523l0,0v0.086h4.79v2.978H5.669  v-1.002v-1.117H4.592H2.353v0.602l0,0v4.523l0,0v0.086h7.823c0.198,0.344,0.454,0.658,0.737,0.974c0.227,0.286,0.34,0.63,0.34,1.03  l0,0c0,0.859-0.68,1.604-1.53,1.689H8.276H7.682c-1.503,0-2.722,1.202-2.722,2.72l0,0c0,0.544,0.171,1.06,0.454,1.489H5.329H4.733  H1.984C0.878,48.93,0,49.846,0,50.962v2.004l0,0v4.839h1.105v-4.839h2.947v1.489H3.062H1.955v1.116v2.233h0.596l0,0h4.479l0,0h0.085  v-4.839h2.977v1.489H9.07H7.993v1.116v2.233h0.567l0,0h4.479l0,0h0.085v-4.839h2.977v1.489H15.08h-1.077v1.116v2.233h0.566l0,0  h4.479l0,0h0.113v-4.839h2.948v1.489h-0.992h-1.105v1.116v2.233h0.595l0,0h4.479l0,0h0.085v-4.839h2.948v1.489h-0.992h-1.105v1.116  v2.233h0.596l0,0h4.479l0,0h0.085v-4.839h2.977v1.489h-1.021H32.06v1.116v2.233h0.566l0,0h4.479l0,0h0.085v-4.839h2.977v1.489  h-0.992h-1.105v1.116v2.233h0.595l0,0h4.479l0,0h0.085v-4.839v-1.088v-0.916c0-1.116-0.906-2.032-2.012-2.032H39.26h-0.596h-0.057  c0.283-0.43,0.426-0.945,0.426-1.489l0,0c0-1.518-1.22-2.72-2.693-2.72h-0.596h-1.445c-0.879-0.086-1.559-0.83-1.559-1.689l0,0  c0-0.458,0.17-0.83,0.425-1.145l0,0c0.227-0.229,0.396-0.458,0.567-0.688c0.623-0.888,0.991-1.947,0.991-3.121  c0-1.546-0.651-2.92-1.7-3.864c-0.028-0.029-0.057-0.058-0.057-0.058c-2.92-2.577-6.662-4.553-7.597-9.906  c-0.482-0.229-0.936-0.572-1.305-0.974c-0.935-0.944-1.502-2.262-1.502-3.692h0.794c0,1.23,0.481,2.318,1.275,3.148  c0.255,0.258,0.566,0.516,0.907,0.716c0.907,0.458,1.956,0.659,3.062,0.544c0.906-0.114,1.729-0.43,2.438-0.916  c3.005,0.888,5.357,3.436,5.896,6.699l3.061-0.372l3.118-4.237L35.603,11.71l-0.17-0.372l-4.592-2.662L29.395,0  c-1.785,0.115-3.26,1.518-3.458,3.293l0,0l-0.737,2.949L25.143,6.27c-0.623,0.059-1.275,0.172-1.898,0.315L22.96,5.411  c0.057,0,0.113,0,0.142-0.028l0,0c0.426-0.086,0.879-0.172,1.305-0.229l0,0c0.17-0.029,0.368-0.059,0.566-0.086l0,0h0.028  c-0.142-1.174-0.312-2.291-0.453-3.494c-0.596,0.058-1.19,0.172-1.786,0.287c-0.453,0.086-0.907,0.2-1.332,0.286  c-0.822,0.229-1.645,0.487-2.438,0.772C19.53,4.409,20.013,5.869,20.522,7.387L20.522,7.387z M31.152,14.287  c-0.396,0-0.681-0.315-0.681-0.688c0-0.4,0.284-0.716,0.681-0.716c0.368,0,0.681,0.315,0.681,0.716  C31.833,13.972,31.521,14.287,31.152,14.287L31.152,14.287z M24.888,7.502l-0.227,1.002c-8.561,1.23-14.882,8.561-15.165,17.092l0,0  v0.114c0,0.114,0,0.229,0,0.344l-0.057,1.718l0,0v10.021v0.658c-0.028,0.459,0.057,0.888,0.17,1.346  c0.028,0.029,0.028,0.086,0.057,0.144H3.43v-3.006h1.162v1.002v0.772v0.344H8.22v-0.258v-0.858v-2.978v-0.372v-0.745H3.43v-2.978  h1.162v1.003v0.744v0.372H8.22v-0.258v-0.858v-3.007v-0.344v-0.486l0,0l0,0v-0.258H3.543c0-0.057,0-0.114,0-0.172  c0-0.2,0-0.43,0-0.658c0-0.572,0.028-1.146,0.057-1.689c0-0.172,0.028-0.314,0.028-0.486l1.134,0.143l-0.028,0.058v0.114  c0,0.115-0.028,0.229-0.028,0.373l0,0l0,0c0,0.086,0,0.172,0,0.257c-0.028,0.458-0.057,0.917-0.028,1.403  c1.162,0,2.353,0.057,3.543,0.057v-0.858c0.028-0.487,0.057-1.002,0.114-1.518c0.057-0.515,0.142-1.06,0.227-1.603l0.17-0.717  L4.139,21.53c0.085-0.401,0.17-0.772,0.283-1.146v-0.057c0.17-0.602,0.368-1.174,0.566-1.775l1.049,0.43  c0,0.057-0.028,0.114-0.057,0.172c0,0.028-0.028,0.057-0.028,0.114c-0.142,0.4-0.283,0.83-0.396,1.26l0,0  c-0.057,0.171-0.113,0.372-0.17,0.572c1.134,0.286,2.268,0.659,3.43,1.002l0.227-0.83c0.142-0.515,0.312-0.974,0.482-1.432  c0.17-0.429,0.34-0.858,0.538-1.26l0.454-0.916l-4.195-2.09c0.142-0.286,0.283-0.573,0.453-0.831  c0.057-0.085,0.085-0.171,0.142-0.257c0.312-0.544,0.652-1.06,0.992-1.546L8.815,13.6v0.028l0,0H8.787v0.028l0,0l0,0  C8.73,13.714,8.702,13.8,8.646,13.857c-0.255,0.372-0.482,0.744-0.709,1.116l0,0c-0.085,0.172-0.198,0.344-0.283,0.516  c1.021,0.572,2.013,1.231,3.033,1.832l0.368-0.63c0.283-0.458,0.596-0.916,0.907-1.346c0.312-0.4,0.595-0.772,0.907-1.145  l0.595-0.688l-3.486-3.149c0.17-0.2,0.396-0.401,0.596-0.63c0.227-0.229,0.453-0.458,0.68-0.658c0.313-0.287,0.624-0.572,0.936-0.83  l0.681,0.887c-0.198,0.172-0.397,0.373-0.596,0.545c-0.34,0.314-0.68,0.629-1.021,0.973c0.851,0.83,1.645,1.719,2.467,2.577  l0.623-0.602c0.369-0.343,0.737-0.687,1.134-1.002c0.426-0.344,0.879-0.658,1.333-0.974l0.595-0.4l-2.607-3.922  c0.538-0.344,1.049-0.659,1.587-0.945c0.368-0.201,0.737-0.372,1.105-0.544l0.454,1.03c-0.057,0.029-0.113,0.058-0.171,0.086  c-0.396,0.201-0.793,0.4-1.219,0.63l0,0c-0.17,0.114-0.368,0.2-0.538,0.315l1.7,3.148L18.51,9.62  c0.426-0.229,0.851-0.458,1.304-0.659c0.426-0.199,0.879-0.371,1.305-0.515l0.906-0.315l-1.502-4.466  c0.396-0.114,0.794-0.229,1.19-0.344c0.596-0.144,1.19-0.286,1.786-0.372l0.17,1.116c-0.737,0.114-1.445,0.286-2.154,0.487  l0.17,0.572h-0.028l0.737,2.892l0.907-0.229C23.839,7.673,24.35,7.588,24.888,7.502L24.888,7.502z M4.053,55.571H4.79h0.368v-2.605  h0.851v3.751H3.062v-1.146H4.053z M16.101,55.571h0.737h0.34v-2.605h0.879v3.751H15.08v-1.146H16.101z M10.091,55.571h0.737h0.34  v-2.605h0.879v3.751H9.07v-1.146H10.091z M28.119,55.571h0.766h0.34v-2.605h0.879v3.751h-2.977v-1.146H28.119z M22.11,55.571h0.736  h0.369v-2.605h0.85v3.751h-2.947v-1.146H22.11z M40.167,55.571h0.736h0.369v-2.605h0.85v3.751h-2.947v-1.146H40.167z M34.157,55.571  h0.737h0.34v-2.605h0.879v3.751h-2.977v-1.146H34.157z M25.455,1.461l-0.028,0.027l0.028,0.115V1.461z"/>
<deepl-alert xmlns=""/><deepl-alert xmlns=""/><deepl-alert xmlns=""/><deepl-alert xmlns=""/></svg>