<svg xmlns="http://www.w3.org/2000/svg" xmlns:xlink="http://www.w3.org/1999/xlink" version="1.1" id="Layer_1" x="0px" y="0px" width="43.229px" height="57.805px" viewBox="0 0 43.229 57.805" enable-background="new 0 0 43.229 57.805" xml:space="preserve">
<path d="M22.706,7.387c0.397,0.143,0.794,0.314,1.162,0.486c0.397,0.172,0.794,0.344,1.162,0.545l0.567-1.031  c-0.227-0.114-0.454-0.229-0.681-0.344c-0.255-0.114-0.482-0.229-0.737-0.344c-0.113-0.057-0.255-0.114-0.397-0.172l0,0  l-0.057-0.028c0.454-1.088,0.907-2.147,1.332-3.264c0.454,0.2,0.907,0.401,1.361,0.601c0.51,0.258,1.021,0.516,1.502,0.803  c0.737,0.4,1.474,0.858,2.154,1.374l0,0c-0.879,1.288-1.729,2.577-2.608,3.923c0.34,0.229,0.68,0.486,1.021,0.772  c0.312,0.258,0.652,0.544,0.964,0.83l0.822-0.858c-0.028-0.029-0.085-0.086-0.113-0.115c-0.227-0.2-0.425-0.372-0.652-0.572  c-0.255-0.2-0.539-0.43-0.822-0.658c0.709-0.945,1.417-1.861,2.126-2.807c0.17,0.144,0.34,0.258,0.51,0.401l0,0  c0.454,0.372,0.879,0.744,1.333,1.146l0,0l0.028,0.028l0.085,0.086c0.198,0.2,0.425,0.401,0.624,0.601  c0.539,0.573,1.077,1.146,1.559,1.719l-0.907,0.772l0,0L31.408,13.6c0.284,0.344,0.539,0.688,0.794,1.031  c0.255,0.343,0.482,0.687,0.708,1.059l1.021-0.63c-0.028-0.028-0.057-0.058-0.085-0.114l0,0c-0.227-0.372-0.482-0.744-0.737-1.117  l0,0c-0.085-0.086-0.17-0.2-0.227-0.285l0,0l-0.085-0.115l0,0l-0.028-0.028l0,0l0,0l0,0l-0.028-0.058  c0.907-0.716,1.842-1.402,2.778-2.119c0.51,0.688,1.021,1.375,1.474,2.091c0.454,0.744,0.851,1.489,1.247,2.262l0,0  c0.085,0.172,0.17,0.372,0.255,0.572c-1.417,0.659-2.778,1.346-4.195,2.062c0.17,0.4,0.34,0.773,0.482,1.203  c0.17,0.4,0.312,0.801,0.425,1.202l1.134-0.344c-0.057-0.2-0.113-0.401-0.199-0.602v-0.028v-0.029l-0.028-0.027l0,0  c-0.085-0.229-0.17-0.459-0.255-0.717l0,0c-0.085-0.172-0.142-0.372-0.227-0.572c1.077-0.458,2.154-0.859,3.232-1.316  c0.085,0.199,0.17,0.4,0.255,0.572l0,0c0.312,0.801,0.567,1.632,0.794,2.462c0.227,0.802,0.425,1.661,0.567,2.491  c-1.531,0.286-3.033,0.572-4.592,0.887c0.085,0.43,0.142,0.859,0.17,1.289c0.057,0.43,0.085,0.859,0.114,1.288l1.162-0.028  c0-0.258-0.028-0.516-0.028-0.773c-0.028-0.458-0.085-0.887-0.142-1.316c1.163-0.172,2.296-0.287,3.458-0.43  c0.028,0.2,0.057,0.43,0.085,0.63l0,0c0.057,0.4,0.085,0.802,0.113,1.231c0.028,0.543,0.057,1.116,0.057,1.66  c0,0.2-0.028,0.486-0.028,0.802v0.028l0,0v1.088h-4.762v3.007h1.446v-1.003v-1.116h1.105h2.211v0.602h0.028v4.523h-0.028v0.086  h-4.762v2.978h1.446v-1.002v-1.117h1.105h2.211v0.602h0.028v4.523h-0.028v0.086h-7.795c-0.227,0.344-0.482,0.658-0.766,0.974  c-0.198,0.286-0.34,0.63-0.34,1.03l0,0c0,0.859,0.68,1.604,1.559,1.689h1.446h0.595c1.474,0,2.693,1.202,2.693,2.72l0,0  c0,0.544-0.17,1.06-0.425,1.489h0.057h0.595h2.75c1.105,0,2.013,0.916,2.013,2.032v2.004H43.2v4.839h-1.077v-4.839h-2.977v1.489  h1.021h1.077v1.116v2.233h-0.567l0,0h-4.479l0,0h-0.085v-4.839h-2.976v1.489h0.992h1.105v1.116v2.233h-0.567l0,0h-4.479l0,0h-0.113  v-4.839h-2.948v1.489h0.992h1.105v1.116v2.233H28.63l0,0h-4.479l0,0h-0.085v-4.839H21.09v1.489h1.021h1.077v1.116v2.233h-0.567l0,0  h-4.479l0,0h-0.085v-4.839h-2.976v1.489h1.021h1.077v1.116v2.233h-0.567l0,0h-4.479l0,0h-0.113v-4.839H9.071v1.489h0.992h1.105  v1.116v2.233h-0.595l0,0H6.095l0,0H6.009v-4.839H3.062v1.489h0.992h1.105v1.116v2.233H4.564l0,0H0.085l0,0H0v-4.839v-1.088v-0.916  c0-1.116,0.907-2.032,2.013-2.032H3.94h0.595h0.085c-0.284-0.43-0.454-0.945-0.454-1.489l0,0c0-1.518,1.219-2.72,2.721-2.72h0.595  h1.446c0.851-0.086,1.531-0.83,1.531-1.689l0,0c0-0.458-0.142-0.83-0.425-1.145l0,0c-0.198-0.229-0.369-0.458-0.539-0.688  c-0.652-0.888-1.021-1.947-1.021-3.121c0-1.546,0.68-2.92,1.729-3.864c0.028-0.029,0.028-0.058,0.057-0.058  c2.892-2.577,6.662-4.553,7.569-9.906c0.51-0.229,0.936-0.572,1.332-0.974c0.936-0.944,1.502-2.262,1.474-3.692h-0.793  c0.028,1.23-0.454,2.318-1.248,3.148c-0.283,0.258-0.567,0.516-0.907,0.716c-0.907,0.458-1.984,0.659-3.062,0.544  c-0.907-0.114-1.729-0.43-2.438-0.916c-3.005,0.888-5.357,3.436-5.896,6.699l-3.062-0.372l-3.146-4.237L7.625,11.71l0.17-0.372  l4.592-2.662L13.833,0c1.786,0.115,3.231,1.518,3.43,3.293l0,0L18,6.242l0.085,0.027c0.624,0.059,1.248,0.172,1.871,0.315  l0.283-1.174c-0.028,0-0.085,0-0.142-0.028l0,0c-0.425-0.086-0.85-0.172-1.275-0.229l0,0c-0.199-0.029-0.369-0.059-0.567-0.086l0,0  h-0.057c0.142-1.174,0.34-2.291,0.481-3.494c0.596,0.058,1.191,0.172,1.786,0.287c0.454,0.086,0.879,0.2,1.332,0.286  c0.822,0.229,1.644,0.487,2.438,0.772C23.698,4.409,23.188,5.869,22.706,7.387L22.706,7.387z M12.076,14.287  c0.369,0,0.68-0.315,0.68-0.688c0-0.4-0.312-0.716-0.68-0.716s-0.68,0.315-0.68,0.716C11.396,13.972,11.707,14.287,12.076,14.287  L12.076,14.287z M18.312,7.502l0.255,1.002c8.532,1.23,14.882,8.561,15.166,17.092l0,0v0.114c0,0.114,0,0.229,0,0.344l0.028,1.718  l0,0v10.021v0.658c0.028,0.459-0.028,0.888-0.17,1.346c0,0.029-0.028,0.086-0.028,0.144h6.208v-3.006h-1.134v1.002v0.772v0.344  h-3.657v-0.258v-0.858v-2.978v-0.372v-0.745h4.791v-2.978h-1.134v1.003v0.744v0.372h-3.657v-0.258v-0.858v-3.007v-0.344v-0.486l0,0  l0,0v-0.258h4.677c0-0.057,0-0.114,0-0.172c0.028-0.2,0.028-0.43,0.028-0.658c0-0.572-0.028-1.146-0.057-1.689  c-0.028-0.172-0.028-0.314-0.057-0.486l-1.105,0.143v0.058l0.028,0.114c0,0.115,0,0.229,0,0.373l0,0l0,0  c0.028,0.086,0.028,0.172,0.028,0.257c0.028,0.458,0.028,0.917,0.028,1.403c-1.162,0-2.353,0.057-3.543,0.057l-0.028-0.858  c0-0.487-0.028-1.002-0.085-1.518c-0.057-0.515-0.142-1.06-0.255-1.603l-0.142-0.717l4.592-0.944  c-0.085-0.401-0.198-0.772-0.284-1.146l-0.028-0.057c-0.17-0.602-0.34-1.174-0.567-1.775l-1.049,0.43  c0.028,0.057,0.057,0.114,0.057,0.172c0.029,0.028,0.029,0.057,0.057,0.114c0.142,0.4,0.283,0.83,0.396,1.26l0,0  c0.057,0.171,0.085,0.372,0.142,0.572c-1.134,0.286-2.268,0.659-3.402,1.002l-0.227-0.83c-0.17-0.515-0.312-0.974-0.51-1.432  c-0.142-0.429-0.34-0.858-0.51-1.26l-0.454-0.916l4.195-2.09c-0.17-0.286-0.312-0.573-0.454-0.831  c-0.057-0.085-0.113-0.171-0.17-0.257c-0.312-0.544-0.624-1.06-0.992-1.546L34.384,13.6l0.028,0.028l0,0l0,0v0.028l0,0h0.028  c0.028,0.058,0.085,0.144,0.113,0.201c0.255,0.372,0.482,0.744,0.709,1.116l0,0c0.113,0.172,0.198,0.344,0.312,0.516  c-1.021,0.572-2.041,1.231-3.061,1.832l-0.369-0.63c-0.284-0.458-0.595-0.916-0.907-1.346c-0.283-0.4-0.567-0.772-0.879-1.145  l-0.624-0.688l3.515-3.149c-0.198-0.2-0.397-0.401-0.595-0.63c-0.227-0.229-0.454-0.458-0.708-0.658  c-0.284-0.287-0.596-0.572-0.907-0.83l-0.709,0.887c0.227,0.172,0.425,0.373,0.624,0.545c0.34,0.314,0.68,0.629,0.992,0.973  c-0.822,0.83-1.645,1.719-2.466,2.577l-0.624-0.602c-0.369-0.343-0.737-0.687-1.134-1.002c-0.425-0.344-0.851-0.658-1.304-0.974  l-0.595-0.4l2.58-3.922c-0.51-0.344-1.049-0.659-1.587-0.945c-0.369-0.201-0.709-0.372-1.105-0.544l-0.425,1.03  c0.028,0.029,0.085,0.058,0.142,0.086c0.425,0.201,0.822,0.4,1.219,0.63l0,0c0.198,0.114,0.368,0.2,0.567,0.315l-1.729,3.148  L24.718,9.62c-0.425-0.229-0.879-0.458-1.304-0.659c-0.454-0.199-0.878-0.371-1.332-0.515l-0.879-0.315l1.474-4.466  c-0.369-0.114-0.765-0.229-1.162-0.344c-0.595-0.144-1.19-0.286-1.786-0.372l-0.17,1.116c0.708,0.114,1.417,0.286,2.126,0.487  l-0.142,0.572l0,0l-0.709,2.892l-0.907-0.229C19.389,7.673,18.851,7.588,18.312,7.502L18.312,7.502z M39.146,55.571H38.41h-0.34  v-2.605H37.19v3.751h2.977v-1.146H39.146z M27.127,55.571h-0.737h-0.369v-2.605h-0.85v3.751h2.948v-1.146H27.127z M33.137,55.571  H32.4h-0.34v-2.605h-0.879v3.751h2.948v-1.146H33.137z M15.081,55.571h-0.737h-0.34v-2.605h-0.879v3.751h2.977v-1.146H15.081z   M21.09,55.571h-0.737h-0.34v-2.605h-0.879v3.751h2.977v-1.146H21.09z M3.062,55.571H2.296h-0.34v-2.605H1.077v3.751h2.977v-1.146  H3.062z M9.071,55.571H8.334H7.965v-2.605h-0.85v3.751h2.948v-1.146H9.071z M17.773,1.461v0.027v0.115V1.461z"/>
<deepl-alert xmlns=""/><deepl-alert xmlns=""/><deepl-alert xmlns=""/></svg>