<svg width="220" height="375" viewBox="0 0 220 375" fill="none" xmlns="http://www.w3.org/2000/svg">
<g clip-path="url(#clip0_10_39)">
<path fill-rule="evenodd" clip-rule="evenodd" d="M219.006 52.3139V72.9764L198.343 52.3139H219.006ZM216.356 62.1584V63.168H210.67C210.664 62.9156 210.706 62.6692 210.796 62.4348C210.94 62.0502 211.175 61.6655 211.499 61.2929C211.824 60.9203 212.281 60.4876 212.882 59.9947C213.813 59.2315 214.444 58.6244 214.775 58.1737C215.105 57.7229 215.274 57.3022 215.274 56.8996C215.274 56.4849 215.123 56.1303 214.823 55.8418C214.522 55.5533 214.132 55.4091 213.651 55.4091C213.14 55.4091 212.731 55.5593 212.425 55.8658C212.118 56.1663 211.962 56.587 211.962 57.1279L210.88 57.0198C210.953 56.2144 211.235 55.5954 211.716 55.1687C212.203 54.748 212.852 54.5316 213.669 54.5316C214.492 54.5316 215.148 54.76 215.628 55.2168C216.109 55.6735 216.35 56.2445 216.35 56.9176C216.35 57.2602 216.277 57.5967 216.139 57.9333C216.001 58.2699 215.767 58.6184 215.442 58.9851C215.111 59.3517 214.571 59.8565 213.813 60.4996C213.182 61.0285 212.774 61.3891 212.593 61.5814C212.413 61.7737 212.263 61.96 212.148 62.1523H216.368L216.356 62.1584Z" fill="#C5C6C6"/>
<path fill-rule="evenodd" clip-rule="evenodd" d="M218.994 103.814V124.476L198.331 103.814H218.994ZM210.339 113.033L211.511 112.871C211.65 113.538 211.872 114.019 212.197 114.314C212.521 114.608 212.912 114.752 213.381 114.752C213.933 114.752 214.402 114.56 214.781 114.181C215.16 113.797 215.346 113.328 215.346 112.763C215.346 112.228 215.172 111.783 214.817 111.429C214.468 111.08 214.018 110.906 213.477 110.906C213.254 110.906 212.978 110.948 212.647 111.038L212.78 110.01C212.858 110.022 212.924 110.022 212.966 110.022C213.471 110.022 213.915 109.89 214.318 109.632C214.721 109.373 214.919 108.971 214.919 108.43C214.919 108.003 214.775 107.642 214.48 107.36C214.192 107.077 213.813 106.939 213.357 106.939C212.9 106.939 212.521 107.083 212.215 107.372C211.908 107.66 211.716 108.093 211.626 108.67L210.454 108.46C210.598 107.672 210.922 107.059 211.433 106.627C211.938 106.194 212.575 105.978 213.326 105.978C213.843 105.978 214.324 106.086 214.763 106.314C215.202 106.537 215.538 106.843 215.767 107.228C216.001 107.612 216.115 108.021 216.115 108.454C216.115 108.862 216.007 109.241 215.785 109.578C215.562 109.914 215.232 110.185 214.799 110.383C215.364 110.509 215.803 110.786 216.115 111.194C216.428 111.603 216.584 112.12 216.584 112.733C216.584 113.568 216.277 114.277 215.67 114.854C215.063 115.437 214.294 115.726 213.363 115.726C212.527 115.726 211.83 115.473 211.277 114.975C210.724 114.476 210.406 113.827 210.327 113.033H210.339Z" fill="#C5C6C6"/>
<path fill-rule="evenodd" clip-rule="evenodd" d="M218.994 155.873C218.994 162.881 218.657 168.536 217.966 175.508L198.331 155.873C205.219 155.873 212.106 155.873 218.994 155.873ZM213.855 167.478V165.201H209.708V164.119L214.066 157.934H215.027V164.119H216.319V165.201H215.027V167.478H213.855ZM213.855 164.119V159.822L210.862 164.119H213.855Z" fill="#C5C6C6"/>
<path fill-rule="evenodd" clip-rule="evenodd" d="M211.596 212.169C209.781 218.936 207.996 224.309 205.519 230.866L191.636 206.82C198.289 208.605 204.942 210.384 211.596 212.169ZM201.036 220.174L202.262 220.078C202.352 220.673 202.562 221.124 202.893 221.424C203.224 221.725 203.626 221.875 204.095 221.875C204.666 221.875 205.147 221.665 205.531 221.238C205.916 220.811 206.114 220.247 206.114 219.543C206.114 218.876 205.928 218.347 205.562 217.963C205.189 217.578 204.696 217.386 204.089 217.386C203.71 217.386 203.368 217.47 203.067 217.644C202.767 217.818 202.532 218.041 202.358 218.317L201.252 218.155L202.172 213.251H206.908V214.369H203.109L202.599 216.947C203.17 216.544 203.771 216.346 204.396 216.346C205.225 216.346 205.928 216.634 206.499 217.211C207.07 217.788 207.359 218.534 207.359 219.435C207.359 220.301 207.106 221.046 206.607 221.677C205.994 222.452 205.159 222.837 204.101 222.837C203.236 222.837 202.526 222.59 201.98 222.104C201.433 221.617 201.114 220.974 201.042 220.168L201.036 220.174Z" fill="#C5C6C6"/>
<path fill-rule="evenodd" clip-rule="evenodd" d="M189.617 265.027C186.113 271.098 182.994 275.827 178.907 281.519L171.719 254.696C177.687 258.14 183.649 261.584 189.617 265.027ZM183.541 265.466L182.381 265.562C182.279 265.099 182.128 264.769 181.936 264.559C181.617 264.222 181.227 264.054 180.758 264.054C180.385 264.054 180.049 264.156 179.76 264.366C179.394 264.637 179.105 265.027 178.889 265.544C178.673 266.061 178.564 266.8 178.558 267.75C178.841 267.323 179.189 266.999 179.598 266.794C180.007 266.584 180.434 266.482 180.884 266.482C181.666 266.482 182.333 266.77 182.886 267.347C183.433 267.924 183.709 268.663 183.709 269.577C183.709 270.178 183.583 270.731 183.324 271.248C183.066 271.765 182.711 272.155 182.261 272.432C181.81 272.702 181.299 272.84 180.722 272.84C179.748 272.84 178.949 272.48 178.33 271.765C177.717 271.049 177.404 269.859 177.404 268.213C177.404 266.368 177.747 265.027 178.426 264.186C179.021 263.459 179.827 263.092 180.836 263.092C181.587 263.092 182.206 263.302 182.687 263.723C183.168 264.144 183.457 264.721 183.553 265.466H183.541ZM178.739 269.589C178.739 269.992 178.823 270.382 178.997 270.749C179.165 271.116 179.406 271.398 179.712 271.59C180.019 271.783 180.343 271.879 180.686 271.879C181.185 271.879 181.611 271.68 181.966 271.278C182.321 270.875 182.495 270.334 182.495 269.649C182.495 268.988 182.321 268.471 181.972 268.086C181.623 267.708 181.179 267.516 180.638 267.516C180.109 267.516 179.658 267.708 179.292 268.086C178.925 268.465 178.739 268.964 178.739 269.583V269.589Z" fill="#C5C6C6"/>
<path fill-rule="evenodd" clip-rule="evenodd" d="M154.686 310.277C149.728 315.235 145.497 318.992 140.076 323.433V295.667C144.944 300.535 149.818 305.409 154.686 310.277ZM141.897 308.095V306.977H148.069V307.885C147.462 308.534 146.855 309.394 146.26 310.463C145.665 311.539 145.203 312.639 144.878 313.775C144.644 314.574 144.493 315.452 144.427 316.401H143.225C143.237 315.65 143.388 314.742 143.67 313.679C143.953 312.609 144.355 311.587 144.878 310.595C145.407 309.604 145.966 308.774 146.561 308.095H141.897Z" fill="#C5C6C6"/>
<path fill-rule="evenodd" clip-rule="evenodd" d="M109.479 345.075C103.409 348.579 98.3483 351.115 91.9597 354L99.1477 327.177C102.591 333.139 106.035 339.107 109.479 345.075ZM99.1417 341.529C98.6549 341.349 98.2943 341.096 98.0599 340.766C97.8255 340.435 97.7113 340.039 97.7113 339.582C97.7113 338.885 97.9577 338.302 98.4565 337.833C98.9554 337.358 99.6165 337.124 100.446 337.124C101.275 337.124 101.948 337.364 102.453 337.851C102.958 338.338 103.21 338.927 103.21 339.618C103.21 340.063 103.096 340.447 102.862 340.772C102.633 341.103 102.279 341.355 101.804 341.529C102.387 341.722 102.832 342.028 103.132 342.455C103.439 342.881 103.589 343.386 103.589 343.975C103.589 344.793 103.301 345.478 102.724 346.031C102.147 346.584 101.389 346.866 100.446 346.866C99.5083 346.866 98.751 346.59 98.168 346.031C97.5911 345.472 97.3026 344.775 97.3026 343.945C97.3026 343.326 97.4589 342.803 97.7774 342.389C98.0959 341.968 98.5407 341.685 99.1236 341.535L99.1417 341.529ZM98.9073 339.54C98.9073 339.991 99.0515 340.363 99.34 340.652C99.6285 340.94 100.007 341.084 100.476 341.084C100.933 341.084 101.299 340.94 101.588 340.658C101.876 340.375 102.014 340.027 102.014 339.612C102.014 339.179 101.87 338.819 101.57 338.524C101.275 338.23 100.903 338.085 100.458 338.085C100.007 338.085 99.6345 338.23 99.34 338.518C99.0515 338.807 98.9013 339.149 98.9013 339.546L98.9073 339.54ZM98.5226 343.951C98.5226 344.288 98.6008 344.606 98.757 344.925C98.9133 345.237 99.1477 345.478 99.4662 345.646C99.7787 345.814 100.115 345.905 100.476 345.905C101.041 345.905 101.504 345.724 101.864 345.364C102.225 345.003 102.405 344.546 102.405 343.987C102.405 343.422 102.219 342.954 101.846 342.587C101.474 342.22 100.999 342.034 100.434 342.034C99.8809 342.034 99.4241 342.214 99.0635 342.581C98.7029 342.948 98.5226 343.398 98.5226 343.945V343.951Z" fill="#C5C6C6"/>
<path fill-rule="evenodd" clip-rule="evenodd" d="M56.6927 366.633C49.9254 368.448 44.3782 369.584 37.4606 370.72L51.3438 346.674C53.1288 353.327 54.9078 359.98 56.6927 366.633ZM46.6019 363.424L47.7197 363.328C47.8159 363.857 47.9962 364.241 48.2667 364.476C48.5371 364.716 48.8797 364.83 49.3004 364.83C49.661 364.83 49.9735 364.746 50.25 364.584C50.5204 364.421 50.7428 364.199 50.9171 363.923C51.0854 363.646 51.2356 363.274 51.3498 362.805C51.47 362.336 51.5241 361.855 51.5241 361.374C51.5241 361.326 51.5241 361.242 51.5181 361.14C51.2837 361.513 50.9652 361.819 50.5625 362.048C50.1598 362.282 49.7151 362.396 49.2463 362.396C48.459 362.396 47.7919 362.108 47.2449 361.537C46.698 360.966 46.4276 360.208 46.4276 359.271C46.4276 358.303 46.7101 357.522 47.281 356.933C47.852 356.344 48.5611 356.049 49.4206 356.049C50.0396 356.049 50.6046 356.218 51.1214 356.554C51.6323 356.885 52.0229 357.366 52.2934 357.985C52.5578 358.604 52.6961 359.499 52.6961 360.671C52.6961 361.891 52.5638 362.865 52.2994 363.586C52.0349 364.313 51.6383 364.86 51.1154 365.239C50.5925 365.617 49.9795 365.804 49.2824 365.804C48.5371 365.804 47.9241 365.599 47.4553 365.179C46.9865 364.764 46.698 364.181 46.6019 363.43V363.424ZM51.3859 359.211C51.3859 358.538 51.2056 358.009 50.851 357.612C50.4964 357.221 50.0637 357.023 49.5588 357.023C49.0359 357.023 48.5792 357.233 48.2005 357.66C47.8159 358.087 47.6236 358.634 47.6236 359.313C47.6236 359.92 47.8039 360.413 48.1705 360.791C48.5371 361.17 48.9879 361.362 49.5288 361.362C50.0697 361.362 50.5144 361.176 50.863 360.791C51.2116 360.413 51.3859 359.89 51.3859 359.217V359.211Z" fill="#C5C6C6"/>
<path fill-rule="evenodd" clip-rule="evenodd" d="M218.994 6.36114V21.3562L198.331 0.693665H213.326C216.452 0.693665 218.994 3.24192 218.994 6.36114ZM213.753 13.0563H212.581V5.58584C212.299 5.85629 211.926 6.12674 211.469 6.3972C211.013 6.66765 210.598 6.86598 210.231 7.00421V5.86831C210.886 5.5618 211.457 5.18918 211.95 4.75044C212.443 4.31171 212.792 3.89101 212.996 3.47631H213.753V13.0623V13.0563Z" fill="#C5C6C6"/>
<path fill-rule="evenodd" clip-rule="evenodd" d="M219.439 52.0074V103.634V155.26C219.439 174.871 216.86 193.88 212.028 211.971C207.028 230.692 199.606 248.422 190.122 264.811C180.506 281.435 168.768 296.67 155.275 310.163C141.789 323.649 126.547 335.393 109.924 345.009C93.5343 354.493 75.8047 361.909 57.0834 366.916C40.7902 371.273 23.7457 373.791 6.19034 374.254C4.60369 374.296 3.22138 373.755 2.08548 372.649C0.949587 371.543 0.372622 370.173 0.372622 368.586V328.277C0.372622 325.218 2.80068 322.712 5.85979 322.616C18.9136 322.195 31.5828 320.284 43.717 317.038C58.027 313.216 71.5736 307.542 84.1045 300.294C96.8098 292.944 108.457 283.971 118.764 273.664C129.078 263.357 138.045 251.703 145.395 238.998C152.643 226.473 158.311 212.92 162.139 198.61C165.835 184.787 167.806 170.255 167.806 155.266V103.64V52.0134V6.05462C167.806 2.92939 170.355 0.387146 173.474 0.387146H213.765C216.89 0.387146 219.433 2.9354 219.433 6.05462V52.0134L219.439 52.0074Z" stroke="#C5C6C6" stroke-width="0.757265" stroke-miterlimit="22.9256"/>
</g>
<defs>
<clipPath id="clip0_10_39">
<rect width="219.817" height="374.629" fill="white"/>
</clipPath>
</defs>
</svg>
