<?xml version="1.0" encoding="utf-8"?>
<!-- Generator: Adobe Illustrator 16.0.0, SVG Export Plug-In . SVG Version: 6.00 Build 0)  -->
<!DOCTYPE svg PUBLIC "-//W3C//DTD SVG 1.1//EN" "http://www.w3.org/Graphics/SVG/1.1/DTD/svg11.dtd">
<svg version="1.1" id="Layer_1" xmlns="http://www.w3.org/2000/svg" xmlns:xlink="http://www.w3.org/1999/xlink" x="0px" y="0px"
	 width="326.665px" height="329.937px" viewBox="0 0 326.665 329.937" enable-background="new 0 0 326.665 329.937"
	 xml:space="preserve">
<g>
	<path fill-rule="evenodd" clip-rule="evenodd" fill="#6C93E7" d="M235.701,329.937h-72.369h-72.34c-5.13,0-9.326-4.238-9.326-9.393
		v-73.092v-73.064c0-5.184,4.195-9.42,9.326-9.42h72.34h81.667v82.485l0,0v73.092C244.999,325.699,240.804,329.937,235.701,329.937
		L235.701,329.937z M244.999,164.968v9.42c0-5.184,4.195-9.42,9.325-9.42h63.043c5.103,0,9.298-4.237,9.298-9.391V82.484h-81.666
		V164.968z M0,155.577V82.484V9.419C0,4.237,4.195,0,9.326,0h72.34v0.143C81.667,0.057,81.723,0,81.808,0h81.524v0.143
		c0-0.086,0.057-0.143,0.142-0.143h81.525v82.484l0,0v82.484h-81.667h-9.298c5.103,0,9.298-4.237,9.298-9.391V91.903
		c0-5.182-4.195-9.419-9.298-9.419h9.298l0,0l0,0H81.667l0,0h9.326c-5.13,0-9.326,4.237-9.326,9.419v63.674
		c0,5.153-4.195,9.391-9.298,9.391H9.326C4.195,164.968,0,160.73,0,155.577L0,155.577z M244.999,0h72.51
		c5.046,0,9.156,4.151,9.156,9.248v73.236h-81.666V0z"/>
	<path fill-rule="evenodd" clip-rule="evenodd" fill="#FFC1B9" d="M9.326,0h72.34v82.484H0V9.419C0,4.237,4.195,0,9.326,0L9.326,0z
		 M244.999,164.968v9.42c0-5.184,4.195-9.42,9.325-9.42h63.043c5.103,0,9.298-4.237,9.298-9.391V82.484h-81.666V164.968z
		 M163.333,164.968h81.667v82.485h-81.667H81.667v73.092c0,5.154,4.195,9.393,9.326,9.393h72.34v-82.484V164.968z M163.474,0h81.525
		v82.484h-81.667V0.143C163.333,0.057,163.389,0,163.474,0L163.474,0z"/>
	<path fill-rule="evenodd" clip-rule="evenodd" fill="#6C93E7" d="M244.999,0h72.51c5.046,0,9.156,4.151,9.156,9.248v73.236h-81.666
		V0z M90.992,164.968h72.34v82.485h81.667v73.092c0,5.154-4.195,9.393-9.298,9.393h-72.369v-82.484H81.667v-73.064
		C81.667,169.205,85.862,164.968,90.992,164.968L90.992,164.968z M81.808,0h81.524v82.484H81.667l0,0h9.326
		c-5.13,0-9.326,4.237-9.326,9.419v63.674c0,5.153-4.195,9.391-9.298,9.391H9.326c-5.131,0-9.326-4.237-9.326-9.391V82.484h81.667
		V0.143C81.667,0.057,81.723,0,81.808,0L81.808,0z M154.035,82.484h9.298l0,0h81.667v82.484h-81.667h-9.298
		c5.103,0,9.298-4.237,9.298-9.391V91.903C163.333,86.721,159.137,82.484,154.035,82.484L154.035,82.484z"/>
</g>
</svg>
