<?xml version="1.0" encoding="utf-8"?>
<!-- Generator: Adobe Illustrator 16.0.0, SVG Export Plug-In . SVG Version: 6.00 Build 0)  -->
<!DOCTYPE svg PUBLIC "-//W3C//DTD SVG 1.1//EN" "http://www.w3.org/Graphics/SVG/1.1/DTD/svg11.dtd">
<svg version="1.1" id="Layer_1" xmlns="http://www.w3.org/2000/svg" xmlns:xlink="http://www.w3.org/1999/xlink" x="0px" y="0px"
	 width="326.665px" height="412.42px" viewBox="0 0 326.665 412.42" enable-background="new 0 0 326.665 412.42"
	 xml:space="preserve">
<g>
	<path fill-rule="evenodd" clip-rule="evenodd" fill="#AFB734" d="M235.701,0h-72.369v82.484h72.369
		c5.103,0,9.298-4.237,9.298-9.391V9.419C244.999,4.237,240.804,0,235.701,0L235.701,0z M235.701,329.937h9.298l0,0h-81.667H81.667
		l0,0h9.326c-5.13,0-9.326-4.237-9.326-9.391v-73.094v-82.484l0,0V91.903c0-5.182,4.195-9.419,9.326-9.419h72.34V0h-72.51
		c-5.046,0-9.156,4.151-9.156,9.248v63.845c0,5.154-4.195,9.391-9.298,9.391H9.326C4.195,82.484,0,86.722,0,91.903v73.065l0,0
		v82.484v73.094c0,5.153,4.195,9.391,9.326,9.391h63.042c5.103,0,9.298,4.237,9.298,9.419v63.674c0,5.183,4.195,9.391,9.326,9.391
		h72.34h72.369c5.103,0,9.298-4.208,9.298-9.391v-63.674c0-5.153,4.167-9.391,9.269-9.419h63.241c5.046,0,9.156-4.151,9.156-9.248
		v-73.236v-73.236c0-5.096-4.11-9.248-9.156-9.248h-72.51l0,0h-72.341c-5.131,0-9.326,4.237-9.326,9.419v63.674
		c0,5.153,4.195,9.391,9.326,9.391h63.043c5.131,0.028,9.298,4.237,9.298,9.42v63.73
		C244.971,325.756,240.804,329.937,235.701,329.937L235.701,329.937z"/>
	<path fill-rule="evenodd" clip-rule="evenodd" fill="#AFB734" d="M235.701,0h-72.369v82.484h72.369
		c5.103,0,9.298-4.237,9.298-9.391V9.419C244.999,4.237,240.804,0,235.701,0L235.701,0z"/>
	<path fill-rule="evenodd" clip-rule="evenodd" fill="#FFC047" d="M9.326,329.937h63.042c5.103,0,9.298,4.237,9.298,9.419v63.674
		c0,5.183,4.195,9.391,9.326,9.391h72.34v-82.483H81.667l0,0h9.326c-5.13,0-9.326-4.237-9.326-9.391v-73.094H0v73.094
		C0,325.699,4.195,329.937,9.326,329.937L9.326,329.937z M81.667,73.093c0,5.154-4.195,9.391-9.298,9.391H9.326
		C4.195,82.484,0,86.722,0,91.903v73.065h81.667V91.903c0-5.182,4.195-9.419,9.326-9.419h72.34V0h-72.51
		c-5.046,0-9.156,4.151-9.156,9.248V73.093z M244.999,164.968h72.51c5.046,0,9.156,4.151,9.156,9.248v73.236h-81.666V164.968z"/>
	<path fill-rule="evenodd" clip-rule="evenodd" fill="#AFB734" d="M235.701,412.42h-72.369v-82.483h81.667v-73.064
		c0-5.183-4.167-9.392-9.298-9.42h-63.043c-5.131,0-9.326-4.237-9.326-9.391v-63.674c0-5.182,4.195-9.419,9.326-9.419h72.341v82.484
		l0,0l0,0h81.666v73.236c0,5.097-4.11,9.248-9.156,9.248h-63.241c-5.102,0.028-9.269,4.266-9.269,9.419v63.674
		C244.999,408.212,240.804,412.42,235.701,412.42L235.701,412.42z M81.667,247.452H0v-82.484h81.667V247.452z"/>
	<path fill-rule="evenodd" clip-rule="evenodd" fill="#AFB734" d="M235.701,329.937h9.298v-9.391
		C244.999,325.699,240.804,329.937,235.701,329.937L235.701,329.937z"/>
</g>
</svg>
