<?xml version="1.0" encoding="utf-8"?>
<!-- Generator: Adobe Illustrator 16.0.0, SVG Export Plug-In . SVG Version: 6.00 Build 0)  -->
<!DOCTYPE svg PUBLIC "-//W3C//DTD SVG 1.1//EN" "http://www.w3.org/Graphics/SVG/1.1/DTD/svg11.dtd">
<svg version="1.1" id="Layer_1" xmlns="http://www.w3.org/2000/svg" xmlns:xlink="http://www.w3.org/1999/xlink" x="0px" y="0px"
	 width="489.997px" height="247.453px" viewBox="0 0 489.997 247.453" enable-background="new 0 0 489.997 247.453"
	 xml:space="preserve">
<g>
	<polygon fill-rule="evenodd" clip-rule="evenodd" fill="#6C93E7" points="163.333,82.484 81.666,82.484 81.666,164.968 
		163.333,164.968 244.999,164.968 326.665,164.968 408.331,164.968 408.331,82.484 326.665,82.484 244.999,82.484 	"/>
	<polygon fill-rule="evenodd" clip-rule="evenodd" fill="#FEFEFE" points="163.333,40.083 81.666,40.083 81.666,122.566 
		163.333,122.566 244.999,122.566 326.665,122.566 408.331,122.566 408.331,40.083 326.665,40.083 244.999,40.083 	"/>
	<rect x="81.666" fill-rule="evenodd" clip-rule="evenodd" fill="#87CF02" width="81.667" height="82.484"/>
	<path fill-rule="evenodd" clip-rule="evenodd" fill="#87CF02" d="M0,238.062v-73.094h81.666v82.484H9.326
		C4.195,247.453,0,243.214,0,238.062L0,238.062z"/>
	<path fill-rule="evenodd" clip-rule="evenodd" fill="#87CF02" d="M0,82.484V9.248C0,4.151,4.11,0,9.156,0h72.51v82.484H0z"/>
	<rect y="82.484" fill-rule="evenodd" clip-rule="evenodd" fill="#87CF02" width="81.666" height="82.484"/>
	<path fill-rule="evenodd" clip-rule="evenodd" fill="#87CF02" d="M81.666,91.903v-9.419h9.326
		C85.861,82.484,81.666,86.721,81.666,91.903L81.666,91.903z"/>
	<path fill-rule="evenodd" clip-rule="evenodd" fill="#87CF02" d="M81.666,155.578v9.391h9.326
		C85.861,164.968,81.666,160.73,81.666,155.578L81.666,155.578z"/>
	<rect x="81.666" y="164.968" fill-rule="evenodd" clip-rule="evenodd" fill="#87CF02" width="81.667" height="82.484"/>
	<rect x="163.333" fill-rule="evenodd" clip-rule="evenodd" fill="#87CF02" width="81.666" height="82.484"/>
	<rect x="163.333" y="164.968" fill-rule="evenodd" clip-rule="evenodd" fill="#87CF02" width="81.666" height="82.484"/>
	<rect x="326.665" fill-rule="evenodd" clip-rule="evenodd" fill="#87CF02" width="81.666" height="82.484"/>
	<path fill-rule="evenodd" clip-rule="evenodd" fill="#87CF02" d="M489.997,238.062v-73.094h-81.666v82.484h72.368
		C485.83,247.453,489.997,243.214,489.997,238.062L489.997,238.062z"/>
	<path fill-rule="evenodd" clip-rule="evenodd" fill="#87CF02" d="M489.997,82.484V9.248c0-5.096-4.11-9.248-9.128-9.248h-72.538
		v82.484H489.997z"/>
	<rect x="408.331" y="82.484" fill-rule="evenodd" clip-rule="evenodd" fill="#87CF02" width="81.666" height="82.484"/>
	<path fill-rule="evenodd" clip-rule="evenodd" fill="#87CF02" d="M408.331,91.903v-9.419h-9.298
		C404.136,82.484,408.331,86.721,408.331,91.903L408.331,91.903z"/>
	<path fill-rule="evenodd" clip-rule="evenodd" fill="#87CF02" d="M408.331,155.578v9.391h-9.298
		C404.136,164.968,408.331,160.73,408.331,155.578L408.331,155.578z"/>
	<rect x="326.665" y="164.968" fill-rule="evenodd" clip-rule="evenodd" fill="#87CF02" width="81.666" height="82.484"/>
	<rect x="244.999" fill-rule="evenodd" clip-rule="evenodd" fill="#87CF02" width="81.667" height="82.484"/>
	<rect x="244.999" y="164.968" fill-rule="evenodd" clip-rule="evenodd" fill="#87CF02" width="81.667" height="82.484"/>
	<path fill-rule="evenodd" clip-rule="evenodd" fill="#CED662" d="M163.333,0v82.484h-72.34c-5.131,0-9.326,4.237-9.326,9.419l0,0
		v31.837v31.837l0,0c0,5.152,4.195,9.391,9.326,9.391h72.34v82.484H81.666v-82.484H0l0,0V82.484l0,0h81.666V0H163.333z
		 M81.666,164.968L81.666,164.968L81.666,164.968L81.666,164.968L81.666,164.968z M81.666,82.484L81.666,82.484L81.666,82.484
		L81.666,82.484L81.666,82.484z"/>
	<path fill-rule="evenodd" clip-rule="evenodd" fill="#CED662" d="M489.997,238.062v-73.094h-81.666v82.484h72.368
		C485.83,247.453,489.997,243.214,489.997,238.062L489.997,238.062z"/>
	<path fill-rule="evenodd" clip-rule="evenodd" fill="#CED662" d="M489.997,82.484V9.248c0-5.096-4.11-9.248-9.128-9.248h-72.538
		v82.484H489.997z"/>
	<rect x="244.999" fill-rule="evenodd" clip-rule="evenodd" fill="#CED662" width="81.667" height="82.484"/>
	<rect x="244.999" y="164.968" fill-rule="evenodd" clip-rule="evenodd" fill="#CED662" width="81.667" height="82.484"/>
	<path fill-rule="evenodd" clip-rule="evenodd" fill="#82A6F5" d="M173.339,150.367v0.029c-1.474-2.549-4.11-3.895-6.747-3.924
		c-2.636,0.029-5.301,1.375-6.747,3.924v-0.029c-2.948,4.838-10.035,4.811-12.897-0.172l-0.057-0.086
		c-2.892-5.039-10.148-5.01-13.011,0.029s-10.12,5.039-13.011,0.027l-0.057-0.113c-2.891-5.012-10.091-5.012-12.982,0l-0.085,0.143
		c-2.892,5.01-10.12,5.039-12.983,0l-0.113-0.143c-2.863-5.012-10.091-5.012-12.983,0v-17.266c2.892-5.01,10.12-5.01,12.983,0
		l0.113,0.145c2.863,5.01,10.091,5.01,12.983,0l0.085-0.145c2.891-5.01,10.091-5.01,12.982,0l0.057,0.086
		c2.892,5.039,10.148,5.012,13.011-0.027s10.12-5.039,13.011-0.029l0.057,0.115c2.891,5.01,10.091,5.01,12.982,0l0.085-0.145
		c1.446-2.49,3.997-3.664,6.577-3.607c2.58-0.057,5.131,1.117,6.548,3.607l0.085,0.145c2.892,5.01,10.12,5.01,13.011,0l0.057-0.115
		c2.892-5.01,10.12-5.01,13.011,0.029c2.863,5.039,10.091,5.066,12.982,0.027l0.057-0.086c2.892-5.01,10.12-5.01,13.011,0
		l0.085,0.145c2.863,5.01,10.091,5.01,12.983,0l0.085-0.145c1.049-1.803,2.636-2.977,4.394-3.463l0,0
		c0.085-0.029,0.142-0.059,0.227-0.059c0.312-0.086,0.624-0.143,0.935-0.199l0,0c0.085,0,0.142,0,0.227-0.029l0,0
		c0.085,0,0.17,0,0.227,0h0.028c0.057,0,0.142,0,0.227-0.029l0,0c0.085,0,0.142,0,0.227,0l0,0c0.085,0,0.17,0,0.255,0l0,0
		c0.057,0.029,0.142,0.029,0.227,0.029l0,0c0.085,0,0.142,0,0.227,0l0,0c0.085,0.029,0.17,0.029,0.255,0.029l0,0
		c0.143,0.027,0.313,0.057,0.454,0.086c0.085,0,0.17,0.027,0.227,0.057l0,0c0.085,0,0.17,0.029,0.227,0.057l0,0
		c0.085,0,0.17,0.029,0.255,0.059l0,0c1.729,0.486,3.346,1.66,4.366,3.463l0.085,0.145c2.891,5.01,10.119,5.01,13.011,0l0.085-0.145
		c2.892-5.01,10.092-5.01,12.982,0l0.057,0.086c2.892,5.039,10.12,5.012,13.012-0.027c2.862-5.039,10.119-5.039,13.011-0.029
		l0.057,0.115c2.892,5.01,10.092,5.01,12.982,0l0.085-0.145c1.418-2.49,3.997-3.664,6.577-3.607c2.579-0.057,5.13,1.117,6.548,3.607
		l0.085,0.145c2.892,5.01,10.119,5.01,13.011,0l0.057-0.115c2.892-5.01,10.12-5.01,12.982,0.029
		c2.892,5.039,10.12,5.066,13.012,0.027l0.057-0.086c2.892-5.01,10.119-5.01,13.011,0l0.057,0.145c2.892,5.01,10.12,5.01,13.011,0
		l0.086-0.145c2.891-5.01,10.091-5.01,12.982,0v17.266c-2.892-5.012-10.092-5.012-12.982,0l-0.086,0.143
		c-2.891,5.039-10.119,5.01-13.011,0l-0.057-0.143c-2.892-5.012-10.119-5.012-13.011,0l-0.057,0.113
		c-2.892,5.012-10.12,5.012-13.012-0.027c-2.862-5.039-10.091-5.068-12.982-0.029l-0.057,0.086
		c-2.863,4.982-9.949,5.01-12.897,0.172v0.029c-1.474-2.549-4.11-3.895-6.746-3.924c-2.637,0.029-5.301,1.375-6.747,3.924v-0.029
		c-2.948,4.838-10.034,4.811-12.897-0.172l-0.057-0.086c-2.892-5.039-10.148-5.01-13.011,0.029
		c-2.892,5.039-10.12,5.039-13.012,0.027l-0.057-0.113c-2.891-5.012-10.091-5.012-12.982,0l-0.085,0.143
		c-2.892,5.01-10.12,5.039-13.011,0l-0.085-0.143l0,0c-1.077-1.891-2.75-3.064-4.621-3.521l0,0
		c-0.057-0.029-0.142-0.029-0.227-0.059l0,0c-0.057-0.027-0.142-0.027-0.227-0.057c-0.142-0.029-0.312-0.057-0.454-0.057l0,0
		c-0.17-0.029-0.34-0.029-0.481-0.059l0,0c-0.085,0-0.17,0-0.227,0l0,0c-0.085,0-0.17,0-0.255,0s-0.142,0-0.227,0l0,0
		c-0.085,0-0.17,0-0.227,0h-0.028c-0.057,0-0.142,0.029-0.227,0.029l0,0c-0.085,0-0.142,0-0.227,0.029l0,0
		c-0.17,0-0.312,0.027-0.482,0.057l0,0c-0.142,0.029-0.312,0.086-0.453,0.115c-0.085,0.027-0.142,0.027-0.227,0.057l0,0
		c-1.757,0.516-3.345,1.66-4.394,3.465l0,0l-0.085,0.143c-2.892,5.039-10.12,5.01-12.983,0l-0.085-0.143
		c-2.892-5.012-10.12-5.012-13.011,0l-0.057,0.113c-2.891,5.012-10.12,5.012-12.982-0.027c-2.892-5.039-10.12-5.068-13.011-0.029
		l-0.057,0.086C183.374,155.177,176.287,155.205,173.339,150.367L173.339,150.367z M244.063,146.359
		c-0.17,0-0.312,0.027-0.482,0.057"/>
	<path fill-rule="evenodd" clip-rule="evenodd" fill="#A8C4FF" d="M173.339,133.533v0.027c-1.474-2.547-4.11-3.893-6.747-3.922
		c-2.636,0.029-5.301,1.375-6.747,3.922v-0.027c-2.948,4.838-10.035,4.809-12.897-0.172l-0.057-0.086
		c-2.892-5.039-10.148-5.012-13.011,0.027s-10.12,5.039-13.011,0.029l-0.057-0.115c-2.891-5.01-10.091-5.01-12.982,0l-0.085,0.145
		c-2.892,5.037-10.12,5.037-12.983,0l-0.113-0.145c-2.863-5.01-10.091-5.01-12.983,0v-17.264c2.892-5.01,10.12-5.01,12.983,0
		l0.113,0.143c2.863,5.01,10.091,5.01,12.983,0l0.085-0.143c2.891-5.01,10.091-5.01,12.982,0l0.057,0.086
		c2.892,5.039,10.148,5.01,13.011-0.029c2.863-5.039,10.12-5.039,13.011-0.028l0.057,0.114c2.891,5.01,10.091,5.01,12.982,0
		l0.085-0.143c1.446-2.491,3.997-3.665,6.577-3.607c2.58-0.057,5.131,1.117,6.548,3.607l0.085,0.143c2.892,5.01,10.12,5.01,13.011,0
		l0.057-0.114c2.892-5.01,10.12-5.01,13.011,0.028c2.863,5.039,10.091,5.068,12.982,0.029l0.057-0.086
		c2.892-5.01,10.12-5.01,13.011,0l0.085,0.143c2.863,5.01,10.091,5.01,12.983,0l0.085-0.143c1.049-1.804,2.636-2.978,4.394-3.464
		l0,0c0.085-0.028,0.142-0.057,0.227-0.057c0.312-0.086,0.624-0.143,0.935-0.2l0,0c0.085,0,0.142,0,0.227,0l0,0
		c0.085-0.029,0.17-0.029,0.227-0.029h0.028c0.057,0,0.142,0,0.227-0.029l0,0c0.085,0,0.142,0,0.227,0l0,0c0.085,0,0.17,0,0.255,0
		l0,0c0.057,0.029,0.142,0.029,0.227,0.029l0,0c0.085,0,0.142,0,0.227,0.029l0,0c0.085,0,0.17,0,0.255,0l0,0
		c0.143,0.028,0.313,0.057,0.454,0.085c0.085,0,0.17,0.029,0.227,0.058l0,0c0.085,0,0.17,0.028,0.227,0.057l0,0
		c0.085,0,0.17,0.029,0.255,0.057l0,0c1.729,0.487,3.346,1.661,4.366,3.464l0.085,0.143c2.891,5.01,10.119,5.01,13.011,0
		l0.085-0.143c2.892-5.01,10.092-5.01,12.982,0l0.057,0.086c2.892,5.039,10.12,5.01,13.012-0.029
		c2.862-5.039,10.119-5.039,13.011-0.028l0.057,0.114c2.892,5.01,10.092,5.01,12.982,0l0.085-0.143
		c1.418-2.491,3.997-3.665,6.577-3.607c2.579-0.057,5.13,1.117,6.548,3.607l0.085,0.143c2.892,5.01,10.119,5.01,13.011,0
		l0.057-0.114c2.892-5.01,10.12-5.01,12.982,0.028c2.892,5.039,10.12,5.068,13.012,0.029l0.057-0.086
		c2.892-5.01,10.119-5.01,13.011,0l0.057,0.143c2.892,5.01,10.12,5.01,13.011,0l0.086-0.143c2.891-5.01,10.091-5.01,12.982,0v17.264
		c-2.892-5.01-10.092-5.01-12.982,0l-0.086,0.145c-2.891,5.037-10.119,5.037-13.011,0l-0.057-0.145
		c-2.892-5.01-10.119-5.01-13.011,0l-0.057,0.115c-2.892,5.01-10.12,5.01-13.012-0.029c-2.862-5.039-10.091-5.066-12.982-0.027
		l-0.057,0.086c-2.863,4.98-9.949,5.01-12.897,0.172v0.027c-1.474-2.547-4.11-3.893-6.746-3.922
		c-2.637,0.029-5.301,1.375-6.747,3.922v-0.027c-2.948,4.838-10.034,4.809-12.897-0.172l-0.057-0.086
		c-2.892-5.039-10.148-5.012-13.011,0.027c-2.892,5.039-10.12,5.039-13.012,0.029l-0.057-0.115c-2.891-5.01-10.091-5.01-12.982,0
		l-0.085,0.145c-2.892,5.037-10.12,5.037-13.011,0l-0.085-0.145l0,0c-1.077-1.889-2.75-3.063-4.621-3.521l0,0
		c-0.057-0.027-0.142-0.027-0.227-0.057l0,0c-0.057-0.029-0.142-0.029-0.227-0.057c-0.142-0.029-0.312-0.029-0.454-0.059l0,0
		c-0.17-0.027-0.34-0.027-0.481-0.057l0,0c-0.085,0-0.17,0-0.227,0l0,0c-0.085,0-0.17,0-0.255,0s-0.142,0-0.227,0l0,0
		c-0.085,0-0.17,0-0.227,0h-0.028c-0.057,0-0.142,0.029-0.227,0.029l0,0c-0.085,0-0.142,0-0.227,0.027l0,0
		c-0.17,0.029-0.312,0.029-0.482,0.059l0,0c-0.142,0.027-0.312,0.086-0.453,0.113c-0.085,0.029-0.142,0.029-0.227,0.059l0,0
		c-1.757,0.514-3.345,1.66-4.394,3.463l0,0l-0.085,0.145c-2.892,5.037-10.12,5.037-12.983,0l-0.085-0.145
		c-2.892-5.01-10.12-5.01-13.011,0l-0.057,0.115c-2.891,5.01-10.12,5.01-12.982-0.029c-2.892-5.039-10.12-5.066-13.011-0.027
		l-0.057,0.086C183.374,138.341,176.287,138.371,173.339,133.533L173.339,133.533z M244.063,129.523
		c-0.17,0.029-0.312,0.029-0.482,0.059"/>
</g>
</svg>
