<svg width="328" height="125" viewBox="0 0 328 125" fill="none" xmlns="http://www.w3.org/2000/svg">
<path fill-rule="evenodd" clip-rule="evenodd" d="M82.333 42.484H0.666016V124.968H82.333H163.999H245.665H327.331V42.484H245.665H163.999H82.333Z" fill="#6C93E7"/>
<path fill-rule="evenodd" clip-rule="evenodd" d="M82.333 0.0830078H0.666016V82.566H82.333H163.999H245.665H327.331V0.0830078H245.665H163.999H82.333Z" fill="#FEFEFE"/>
<path fill-rule="evenodd" clip-rule="evenodd" d="M92.339 110.367V110.396C90.865 107.847 88.229 106.501 85.592 106.472C82.956 106.501 80.291 107.847 78.845 110.396V110.367C75.897 115.205 68.81 115.178 65.948 110.195L65.891 110.109C62.999 105.07 55.743 105.099 52.88 110.138C50.017 115.177 42.76 115.177 39.869 110.165L39.812 110.052C36.921 105.04 29.721 105.04 26.83 110.052L26.745 110.195C23.853 115.205 16.625 115.234 13.762 110.195L13.649 110.052C10.786 105.04 3.55802 105.04 0.666016 110.052V92.7859C3.55802 87.7759 10.786 87.7759 13.649 92.7859L13.762 92.931C16.625 97.941 23.853 97.941 26.745 92.931L26.83 92.7859C29.721 87.7759 36.921 87.7759 39.812 92.7859L39.869 92.8719C42.761 97.9109 50.017 97.884 52.88 92.845C55.743 87.806 63 87.8059 65.891 92.8159L65.948 92.931C68.839 97.941 76.039 97.941 78.93 92.931L79.015 92.7859C80.461 90.2959 83.012 89.122 85.592 89.179C88.172 89.122 90.723 90.2959 92.14 92.7859L92.225 92.931C95.117 97.941 102.345 97.941 105.236 92.931L105.293 92.8159C108.185 87.8059 115.413 87.806 118.304 92.845C121.167 97.884 128.395 97.9109 131.286 92.8719L131.343 92.7859C134.235 87.7759 141.463 87.7759 144.354 92.7859L144.439 92.931C147.302 97.941 154.53 97.941 157.422 92.931L157.507 92.7859C158.556 90.9829 160.143 89.809 161.901 89.323C161.986 89.294 162.043 89.264 162.128 89.264C162.44 89.178 162.752 89.121 163.063 89.065C163.148 89.065 163.205 89.0649 163.29 89.0359C163.375 89.0359 163.46 89.0359 163.517 89.0359H163.545C163.602 89.0359 163.687 89.036 163.772 89.007C163.857 89.007 163.914 89.007 163.999 89.007C164.084 89.007 164.169 89.007 164.254 89.007C164.311 89.036 164.396 89.0359 164.481 89.0359C164.566 89.0359 164.623 89.0359 164.708 89.0359C164.793 89.0649 164.878 89.065 164.963 89.065C165.106 89.092 165.276 89.122 165.417 89.151C165.502 89.151 165.587 89.1779 165.644 89.2079C165.729 89.2079 165.814 89.237 165.871 89.265C165.956 89.265 166.041 89.294 166.126 89.324C167.855 89.81 169.472 90.984 170.492 92.787L170.577 92.932C173.468 97.942 180.696 97.942 183.588 92.932L183.673 92.787C186.565 87.777 193.765 87.777 196.655 92.787L196.712 92.873C199.604 97.912 206.832 97.8849 209.724 92.8459C212.586 87.8069 219.843 87.807 222.735 92.817L222.792 92.932C225.684 97.942 232.884 97.942 235.774 92.932L235.859 92.787C237.277 90.297 239.856 89.1229 242.436 89.1799C245.015 89.1229 247.566 90.297 248.984 92.787L249.069 92.932C251.961 97.942 259.188 97.942 262.08 92.932L262.137 92.817C265.029 87.807 272.257 87.8069 275.119 92.8459C278.011 97.8849 285.239 97.912 288.131 92.873L288.188 92.787C291.08 87.777 298.307 87.777 301.199 92.787L301.256 92.932C304.148 97.942 311.376 97.942 314.267 92.932L314.353 92.787C317.244 87.777 324.444 87.777 327.335 92.787V110.053C324.443 105.041 317.243 105.041 314.353 110.053L314.267 110.196C311.376 115.235 304.148 115.206 301.256 110.196L301.199 110.053C298.307 105.041 291.08 105.041 288.188 110.053L288.131 110.166C285.239 115.178 278.011 115.178 275.119 110.139C272.257 105.1 265.028 105.071 262.137 110.11L262.08 110.196C259.217 115.178 252.131 115.206 249.183 110.368V110.397C247.709 107.848 245.073 106.502 242.437 106.473C239.8 106.502 237.136 107.848 235.69 110.397V110.368C232.742 115.206 225.656 115.179 222.793 110.196L222.736 110.11C219.844 105.071 212.588 105.1 209.725 110.139C206.833 115.178 199.605 115.178 196.713 110.166L196.656 110.053C193.765 105.041 186.565 105.041 183.674 110.053L183.589 110.196C180.697 115.206 173.469 115.235 170.578 110.196L170.493 110.053C169.416 108.162 167.743 106.989 165.872 106.532C165.815 106.503 165.73 106.503 165.645 106.473C165.588 106.446 165.503 106.446 165.418 106.416C165.276 106.387 165.106 106.359 164.964 106.359C164.794 106.33 164.624 106.33 164.483 106.3C164.398 106.3 164.313 106.3 164.256 106.3C164.171 106.3 164.086 106.3 164.001 106.3C163.916 106.3 163.859 106.3 163.774 106.3C163.689 106.3 163.604 106.3 163.547 106.3H163.519C163.462 106.3 163.377 106.329 163.292 106.329C163.207 106.329 163.15 106.329 163.065 106.358C162.895 106.358 162.753 106.385 162.583 106.415C162.441 106.444 162.271 106.501 162.13 106.53C162.045 106.557 161.988 106.557 161.903 106.587C160.146 107.103 158.558 108.247 157.509 110.052L157.424 110.195C154.532 115.234 147.304 115.205 144.441 110.195L144.356 110.052C141.464 105.04 134.236 105.04 131.345 110.052L131.288 110.165C128.397 115.177 121.168 115.177 118.306 110.138C115.414 105.099 108.186 105.07 105.295 110.109L105.238 110.195C102.374 115.177 95.287 115.205 92.339 110.367ZM163.063 106.359C162.893 106.359 162.751 106.386 162.581 106.416Z" fill="#82A6F5"/>
<path fill-rule="evenodd" clip-rule="evenodd" d="M92.339 93.533V93.56C90.865 91.013 88.229 89.667 85.592 89.638C82.956 89.667 80.291 91.013 78.845 93.56V93.533C75.897 98.371 68.81 98.342 65.948 93.361L65.891 93.275C62.999 88.236 55.743 88.263 52.88 93.302C50.017 98.341 42.76 98.341 39.869 93.331L39.812 93.216C36.921 88.206 29.721 88.206 26.83 93.216L26.745 93.361C23.853 98.398 16.625 98.398 13.762 93.361L13.649 93.216C10.786 88.206 3.55802 88.206 0.666016 93.216V75.952C3.55802 70.942 10.786 70.942 13.649 75.952L13.762 76.095C16.625 81.105 23.853 81.105 26.745 76.095L26.83 75.952C29.721 70.942 36.921 70.942 39.812 75.952L39.869 76.038C42.761 81.077 50.017 81.048 52.88 76.009C55.743 70.97 63 70.97 65.891 75.981L65.948 76.095C68.839 81.105 76.039 81.105 78.93 76.095L79.015 75.952C80.461 73.461 83.012 72.287 85.592 72.345C88.172 72.288 90.723 73.462 92.14 75.952L92.225 76.095C95.117 81.105 102.345 81.105 105.236 76.095L105.293 75.981C108.185 70.971 115.413 70.971 118.304 76.009C121.167 81.048 128.395 81.077 131.286 76.038L131.343 75.952C134.235 70.942 141.463 70.942 144.354 75.952L144.439 76.095C147.302 81.105 154.53 81.105 157.422 76.095L157.507 75.952C158.556 74.148 160.143 72.974 161.901 72.488C161.986 72.46 162.043 72.431 162.128 72.431C162.44 72.345 162.752 72.288 163.063 72.231C163.148 72.231 163.205 72.231 163.29 72.231C163.375 72.202 163.46 72.202 163.517 72.202H163.545C163.602 72.202 163.687 72.202 163.772 72.173C163.857 72.173 163.914 72.173 163.999 72.173C164.084 72.173 164.169 72.173 164.254 72.173C164.311 72.202 164.396 72.202 164.481 72.202C164.566 72.202 164.623 72.202 164.708 72.231C164.793 72.231 164.878 72.231 164.963 72.231C165.106 72.259 165.276 72.288 165.417 72.316C165.502 72.316 165.587 72.345 165.644 72.374C165.729 72.374 165.814 72.402 165.871 72.431C165.956 72.431 166.041 72.46 166.126 72.488C167.855 72.975 169.472 74.149 170.492 75.952L170.577 76.095C173.468 81.105 180.696 81.105 183.588 76.095L183.673 75.952C186.565 70.942 193.765 70.942 196.655 75.952L196.712 76.038C199.604 81.077 206.832 81.048 209.724 76.009C212.586 70.97 219.843 70.97 222.735 75.981L222.792 76.095C225.684 81.105 232.884 81.105 235.774 76.095L235.859 75.952C237.277 73.461 239.856 72.287 242.436 72.345C245.015 72.288 247.566 73.462 248.984 75.952L249.069 76.095C251.961 81.105 259.188 81.105 262.08 76.095L262.137 75.981C265.029 70.971 272.257 70.971 275.119 76.009C278.011 81.048 285.239 81.077 288.131 76.038L288.188 75.952C291.08 70.942 298.307 70.942 301.199 75.952L301.256 76.095C304.148 81.105 311.376 81.105 314.267 76.095L314.353 75.952C317.244 70.942 324.444 70.942 327.335 75.952V93.216C324.443 88.206 317.243 88.206 314.353 93.216L314.267 93.361C311.376 98.398 304.148 98.398 301.256 93.361L301.199 93.216C298.307 88.206 291.08 88.206 288.188 93.216L288.131 93.331C285.239 98.341 278.011 98.341 275.119 93.302C272.257 88.263 265.028 88.236 262.137 93.275L262.08 93.361C259.217 98.341 252.131 98.371 249.183 93.533V93.56C247.709 91.013 245.073 89.667 242.437 89.638C239.8 89.667 237.136 91.013 235.69 93.56V93.533C232.742 98.371 225.656 98.342 222.793 93.361L222.736 93.275C219.844 88.236 212.588 88.263 209.725 93.302C206.833 98.341 199.605 98.341 196.713 93.331L196.656 93.216C193.765 88.206 186.565 88.206 183.674 93.216L183.589 93.361C180.697 98.398 173.469 98.398 170.578 93.361L170.493 93.216C169.416 91.327 167.743 90.153 165.872 89.695C165.815 89.668 165.73 89.668 165.645 89.638C165.588 89.609 165.503 89.609 165.418 89.581C165.276 89.552 165.106 89.552 164.964 89.522C164.794 89.495 164.624 89.495 164.483 89.465C164.398 89.465 164.313 89.465 164.256 89.465C164.171 89.465 164.086 89.465 164.001 89.465C163.916 89.465 163.859 89.465 163.774 89.465C163.689 89.465 163.604 89.465 163.547 89.465H163.519C163.462 89.465 163.377 89.494 163.292 89.494C163.207 89.494 163.15 89.494 163.065 89.521C162.895 89.55 162.753 89.55 162.583 89.58C162.441 89.607 162.271 89.666 162.13 89.693C162.045 89.722 161.988 89.722 161.903 89.752C160.146 90.266 158.558 91.412 157.509 93.215L157.424 93.36C154.532 98.397 147.304 98.397 144.441 93.36L144.356 93.215C141.464 88.205 134.236 88.205 131.345 93.215L131.288 93.33C128.397 98.34 121.168 98.34 118.306 93.301C115.414 88.262 108.186 88.235 105.295 93.274L105.238 93.36C102.374 98.341 95.287 98.371 92.339 93.533ZM163.063 89.523C162.893 89.552 162.751 89.552 162.581 89.582Z" fill="#A8C4FF"/>
</svg>
