<svg width="221" height="376" viewBox="0 0 221 376" fill="none" xmlns="http://www.w3.org/2000/svg">
<path fill-rule="evenodd" clip-rule="evenodd" d="M173.77 0.668221H214.061C217.183 0.668221 219.73 3.21537 219.73 6.33733V52.2973H168.101V6.33733C168.101 3.21537 170.648 0.668221 173.77 0.668221Z" stroke="#A2A3A4" stroke-width="1.33285" stroke-miterlimit="22.9256"/>
<path fill-rule="evenodd" clip-rule="evenodd" d="M168.101 52.2937H219.727V103.923H168.101V52.2937Z" stroke="#A2A3A4" stroke-width="1.33285" stroke-miterlimit="22.9256"/>
<path fill-rule="evenodd" clip-rule="evenodd" d="M168.101 103.923H219.727V155.552H168.101V103.923Z" stroke="#A2A3A4" stroke-width="1.33285" stroke-miterlimit="22.9256"/>
<path fill-rule="evenodd" clip-rule="evenodd" d="M162.435 198.897L212.319 212.261C217.154 194.172 219.73 175.164 219.73 155.552H168.101C168.101 170.54 166.132 185.072 162.435 198.897Z" stroke="#A2A3A4" stroke-width="1.33285" stroke-miterlimit="22.9256"/>
<path fill-rule="evenodd" clip-rule="evenodd" d="M145.694 239.281C152.94 226.754 158.613 213.202 162.436 198.897L212.319 212.261C207.318 230.978 199.895 248.711 190.415 265.101L145.694 239.281Z" stroke="#A2A3A4" stroke-width="1.33285" stroke-miterlimit="22.9256"/>
<path fill-rule="evenodd" clip-rule="evenodd" d="M44.0165 317.326L57.3774 367.202C41.085 371.556 24.0417 374.082 6.48472 374.538C4.8968 374.578 3.51724 374.039 2.38199 372.932C1.24313 371.826 0.66832 370.457 0.66832 368.873V328.564C0.66832 325.507 3.1005 322.999 6.1578 322.902C19.2097 322.482 31.8843 320.567 44.0165 317.326Z" stroke="#A2A3A4" stroke-width="1.33285" stroke-miterlimit="22.9256"/>
<path fill-rule="evenodd" clip-rule="evenodd" d="M57.3774 367.202C76.0948 362.201 93.8278 354.779 110.217 345.298L84.3972 300.578C71.8699 307.824 58.3186 313.497 44.0129 317.319L57.3774 367.202Z" stroke="#A2A3A4" stroke-width="1.33285" stroke-miterlimit="22.9256"/>
<path fill-rule="evenodd" clip-rule="evenodd" d="M155.566 310.45C142.04 323.976 126.775 335.713 110.217 345.295L84.3972 300.574C97.1006 293.224 108.748 284.253 119.059 273.942L155.566 310.45Z" stroke="#A2A3A4" stroke-width="1.33285" stroke-miterlimit="22.9256"/>
<path fill-rule="evenodd" clip-rule="evenodd" d="M119.059 273.946C129.369 263.635 138.34 251.988 145.69 239.281L190.411 265.101C180.794 281.724 169.057 296.964 155.566 310.454L119.059 273.946Z" stroke="#A2A3A4" stroke-width="1.33285" stroke-miterlimit="22.9256"/>
</svg>
