<?xml version="1.0" encoding="utf-8"?>
<!-- Generator: Adobe Illustrator 16.0.0, SVG Export Plug-In . SVG Version: 6.00 Build 0)  -->
<!DOCTYPE svg PUBLIC "-//W3C//DTD SVG 1.1//EN" "http://www.w3.org/Graphics/SVG/1.1/DTD/svg11.dtd">
<svg version="1.1" id="Layer_1" xmlns="http://www.w3.org/2000/svg" xmlns:xlink="http://www.w3.org/1999/xlink" x="0px" y="0px"
	 width="326.664px" height="329.937px" viewBox="0 0 326.664 329.937" enable-background="new 0 0 326.664 329.937"
	 xml:space="preserve">
<g>
	<path fill-rule="evenodd" clip-rule="evenodd" fill="#FFC1B9" d="M81.666,247.452v-82.484l0,0V82.484l0,0v82.484V247.452h81.667
		l0,0h-9.326c5.131,0,9.326,4.236,9.326,9.391v63.703c0,5.152,4.195,9.391,9.297,9.391h63.071c5.102,0,9.297-4.238,9.297-9.391
		v-63.703c0-5.154,4.168-9.391,9.299-9.391h63.212c5.046,0,9.155-4.152,9.155-9.248v-73.236l0,0V82.627
		c0-0.086-0.057-0.143-0.141-0.143h0.141V9.391c0-5.153-4.195-9.391-9.297-9.391h-63.043c-5.131,0-9.326,4.237-9.326,9.391v63.731
		c-0.027,5.154-4.195,9.362-9.297,9.362H172.63c-5.102,0-9.297-4.237-9.297-9.419v9.419h0.142c-0.085,0-0.142,0.057-0.142,0.143
		c0-0.086-0.057-0.143-0.142-0.143h0.142V9.391c0-5.153-4.195-9.391-9.326-9.391H90.964c-5.103,0-9.298,4.237-9.298,9.391v63.731
		c-0.028,5.154-4.195,9.362-9.326,9.362H9.156C4.11,82.484,0,86.635,0,91.731v73.236l0,0v82.484v73.094
		c0,5.152,4.195,9.391,9.298,9.391H72.34c5.131,0,9.326-4.238,9.326-9.391v-63.703c0-5.154,4.195-9.391,9.298-9.391H81.666
		L81.666,247.452z M163.19,164.968h0.142v0.143C163.333,165.025,163.276,164.968,163.19,164.968L163.19,164.968z"/>
	<rect y="164.968" fill-rule="evenodd" clip-rule="evenodd" fill="#FFC1B9" width="81.666" height="82.484"/>
	<path fill-rule="evenodd" clip-rule="evenodd" fill="#FA7867" d="M72.34,82.484H9.156C4.11,82.484,0,86.635,0,91.731v73.236h81.666
		V82.484l0,0h81.667V9.391c0-5.153-4.195-9.391-9.326-9.391H90.964c-5.103,0-9.298,4.237-9.298,9.391v63.731
		C81.638,78.275,77.471,82.484,72.34,82.484L72.34,82.484z M235.701,82.484c5.102,0,9.27-4.208,9.297-9.362V9.391
		c0-5.153,4.195-9.391,9.326-9.391h63.043c5.102,0,9.297,4.237,9.297,9.391v73.093h-81.666l0,0v82.484h-81.666V82.627
		c0-0.086,0.057-0.143,0.142-0.143h-0.142v-9.419c0,5.182,4.195,9.419,9.297,9.419H235.701z"/>
	<path fill-rule="evenodd" clip-rule="evenodd" fill="#FFC1B9" d="M163.19,82.484H81.666v82.484h81.667V82.627
		C163.333,82.541,163.276,82.484,163.19,82.484L163.19,82.484z"/>
	<rect x="163.333" y="164.968" fill-rule="evenodd" clip-rule="evenodd" fill="#FFC1B9" width="81.666" height="82.484"/>
	<path fill-rule="evenodd" clip-rule="evenodd" fill="#FFC1B9" d="M326.523,82.484h-81.525v82.484h81.666V82.627
		C326.664,82.541,326.607,82.484,326.523,82.484L326.523,82.484z"/>
	<path fill-rule="evenodd" clip-rule="evenodd" fill="#FA7867" d="M254.297,247.452h63.212c5.046,0,9.155-4.152,9.155-9.248v-73.236
		h-81.666v82.484h-81.666v-82.341c0-0.085-0.057-0.143-0.142-0.143H81.666v82.484h81.667l0,0h-9.326
		c5.131,0,9.326,4.236,9.326,9.391v63.703c0,5.152,4.195,9.391,9.297,9.391h63.071c5.102,0,9.297-4.238,9.297-9.391v-63.703
		C244.998,251.688,249.166,247.452,254.297,247.452L254.297,247.452z M81.666,320.546v-63.703c0-5.154,4.195-9.391,9.298-9.391
		h-9.298l0,0H0v73.094c0,5.152,4.195,9.391,9.298,9.391H72.34C77.471,329.937,81.666,325.698,81.666,320.546L81.666,320.546z"/>
</g>
</svg>
