<?xml version="1.0" encoding="utf-8"?>
<!-- Generator: Adobe Illustrator 16.0.0, SVG Export Plug-In . SVG Version: 6.00 Build 0)  -->
<!DOCTYPE svg PUBLIC "-//W3C//DTD SVG 1.1//EN" "http://www.w3.org/Graphics/SVG/1.1/DTD/svg11.dtd">
<svg version="1.1" id="Layer_1" xmlns="http://www.w3.org/2000/svg" xmlns:xlink="http://www.w3.org/1999/xlink" x="0px" y="0px"
	 width="326.665px" height="329.964px" viewBox="0 0 326.665 329.964" enable-background="new 0 0 326.665 329.964"
	 xml:space="preserve">
<g>
	<path fill-rule="evenodd" clip-rule="evenodd" fill="#6C93E7" d="M163.332,247.451v-82.483l0,0V247.451L163.332,247.451z
		 M163.332,0H81.666v82.341c0,0.086,0.057,0.143,0.142,0.143c-0.085,0-0.142,0.086-0.142,0.143v82.341l0,0l0,0l0,0v-9.391
		c0,5.153-4.167,9.391-9.27,9.391H9.326c-5.13,0-9.326,4.237-9.326,9.419v63.674c0,5.184,4.195,9.391,9.326,9.391h72.34l0,0h-9.298
		c5.103,0,9.298,4.238,9.298,9.42v63.674c0,5.182,4.195,9.42,9.326,9.42h63.042c5.103,0,9.298-4.238,9.298-9.42v-63.674
		c0-5.152,4.195-9.391,9.298-9.42h63.07c5.131,0.029,9.298,4.268,9.298,9.42v63.674c0,5.182,4.195,9.42,9.326,9.42h63.042
		c5.104,0,9.299-4.238,9.299-9.42v-73.094v-82.483l0,0V82.484V9.419c0-5.182-4.195-9.419-9.299-9.419h-72.368H163.332z
		 M163.332,91.875v63.731c0.028,5.153,4.195,9.362,9.326,9.362H235.7c5.103,0,9.298-4.208,9.298-9.391v4.982l0,0V82.484l0,0v9.419
		c0-5.182-4.195-9.419-9.298-9.419h-63.042C167.527,82.484,163.36,86.721,163.332,91.875L163.332,91.875z M72.368,82.484h9.298
		v9.419C81.666,86.721,77.471,82.484,72.368,82.484L72.368,82.484z M9.326,0h72.34v82.484H9.326C4.195,82.484,0,78.275,0,73.093
		V9.419C0,4.237,4.195,0,9.326,0L9.326,0z"/>
	<rect x="81.666" y="164.968" fill-rule="evenodd" clip-rule="evenodd" fill="#FFC451" width="81.666" height="82.483"/>
	<path fill-rule="evenodd" clip-rule="evenodd" fill="#FFC451" d="M317.366,0h-72.368v82.484h81.667V9.419
		C326.665,4.237,322.47,0,317.366,0L317.366,0z"/>
	<rect x="244.998" y="164.968" fill-rule="evenodd" clip-rule="evenodd" fill="#FFC451" width="81.667" height="82.483"/>
	<path fill-rule="evenodd" clip-rule="evenodd" fill="#6C93E7" d="M81.808,82.484h81.524l0,0V0h81.666v82.484h81.667v82.484h-79.428
		h-2.239v82.483h81.667v73.094c0,5.182-4.195,9.42-9.299,9.42h-63.042c-5.131,0-9.326-4.238-9.326-9.42v-63.674
		c0-5.152-4.167-9.391-9.298-9.42h-63.07c-5.103,0.029-9.298,4.268-9.298,9.42v63.674c0,5.182-4.195,9.42-9.298,9.42H90.992
		c-5.131,0-9.326-4.238-9.326-9.42v-63.674c0-5.182-4.195-9.42-9.298-9.42h9.298h81.666l0,0v-82.483l0,0H81.666V82.627
		C81.666,82.57,81.723,82.484,81.808,82.484L81.808,82.484z M163.332,91.875v63.731c0.028,5.153,4.195,9.362,9.326,9.362H235.7
		c5.103,0,9.298-4.208,9.298-9.391v4.982l0,0V82.484l0,0v9.419c0-5.182-4.195-9.419-9.298-9.419h-63.042
		C167.527,82.484,163.36,86.721,163.332,91.875L163.332,91.875z M72.368,82.484h9.298v9.419
		C81.666,86.721,77.471,82.484,72.368,82.484L72.368,82.484z M9.326,0h72.34v82.484H9.326C4.195,82.484,0,78.275,0,73.093V9.419
		C0,4.237,4.195,0,9.326,0L9.326,0z M9.326,164.968h63.071c5.103,0,9.27-4.237,9.27-9.391v9.391l0,0v82.483H9.326
		c-5.13,0-9.326-4.207-9.326-9.391v-63.674C0,169.205,4.195,164.968,9.326,164.968L9.326,164.968z"/>
	<path fill-rule="evenodd" clip-rule="evenodd" fill="#FFC451" d="M81.808,82.484h81.524V0H81.666v82.341
		C81.666,82.427,81.723,82.484,81.808,82.484L81.808,82.484z"/>
</g>
</svg>
