<svg width="28" height="28" viewBox="0 0 28 28" fill="none" xmlns="http://www.w3.org/2000/svg">
<g clip-path="url(#clip0_18_1142)">
<path fill-rule="evenodd" clip-rule="evenodd" d="M14.3594 0.913068L20.4185 6.9722L26.4776 13.0313C26.8096 13.3633 26.8096 14.0274 26.4776 14.3594L20.4185 20.4185L14.3594 26.4776C14.0274 26.8096 13.3633 26.8096 13.0313 26.4776L6.9722 20.4185L0.913068 14.3594C0.581061 14.0274 0.581061 13.3633 0.913068 13.0313L6.9722 6.9722L13.0313 0.913068C13.3633 0.581061 14.0274 0.581061 14.3594 0.913068Z" stroke="#2B2A29" stroke-width="1.32803" stroke-miterlimit="22.9256"/>
<path fill-rule="evenodd" clip-rule="evenodd" d="M13.6953 6.14221L17.5134 9.9603L21.2485 13.6954L17.5134 17.5135L13.6953 21.2486L9.96024 17.5135L6.14215 13.6954L9.96024 9.9603L13.6953 6.14221Z" stroke="#2B2A29" stroke-width="0.415009" stroke-miterlimit="22.9256"/>
<path d="M13.6953 0.249023V6.14216" stroke="#2B2A29" stroke-width="0.415009" stroke-miterlimit="22.9256"/>
<path d="M6.14216 13.6953H0.249023" stroke="#2B2A29" stroke-width="0.415009" stroke-miterlimit="22.9256"/>
<path d="M13.6953 21.2485V27.1417" stroke="#2B2A29" stroke-width="0.415009" stroke-miterlimit="22.9256"/>
<path d="M21.2485 13.6953H27.1416" stroke="#2B2A29" stroke-width="0.415009" stroke-miterlimit="22.9256"/>
</g>
<defs>
<clipPath id="clip0_18_1142">
<rect width="27.3906" height="27.3906" fill="white"/>
</clipPath>
</defs>
</svg>
