<svg  viewBox="0 0 221 376" fill="none" xmlns="http://www.w3.org/2000/svg">
<g clip-path="url(#clip0_25_39)">
<path fill-rule="evenodd" clip-rule="evenodd" d="M219.297 52.5975V73.2625L198.632 52.5975H219.297Z" fill="#C5C6C6"/>
<path fill-rule="evenodd" clip-rule="evenodd" d="M219.285 104.098V124.763L198.62 104.098H219.285Z" fill="#C5C6C6"/>
<path fill-rule="evenodd" clip-rule="evenodd" d="M219.285 156.162C219.285 163.168 218.949 168.826 218.254 175.796L198.62 156.162C205.506 156.162 212.399 156.162 219.285 156.162Z" fill="#C5C6C6"/>
<path fill-rule="evenodd" clip-rule="evenodd" d="M211.883 212.458C210.067 219.23 208.281 224.6 205.806 231.157L191.919 207.106C198.572 208.886 205.225 210.672 211.877 212.452L211.883 212.458Z" fill="#C5C6C6"/>
<path fill-rule="evenodd" clip-rule="evenodd" d="M189.906 265.313C186.4 271.384 183.283 276.113 179.196 281.801L172.01 254.98C177.973 258.427 183.942 261.867 189.906 265.313Z" fill="#C5C6C6"/>
<path fill-rule="evenodd" clip-rule="evenodd" d="M154.977 310.568C150.02 315.525 145.789 319.283 140.365 323.724V295.957C145.237 300.829 150.104 305.696 154.977 310.568Z" fill="#C5C6C6"/>
<path fill-rule="evenodd" clip-rule="evenodd" d="M109.769 345.36C103.698 348.866 98.6393 351.401 92.2504 354.284L99.4364 327.464C102.883 333.427 106.323 339.396 109.769 345.36Z" fill="#C5C6C6"/>
<path fill-rule="evenodd" clip-rule="evenodd" d="M56.9796 366.918C50.2072 368.734 44.6633 369.872 37.747 371.005L51.6336 346.954C53.4136 353.607 55.1996 360.259 56.9796 366.912V366.918Z" fill="#C5C6C6"/>
<path fill-rule="evenodd" clip-rule="evenodd" d="M219.285 6.64662V21.6419L198.62 0.976929H213.615C216.738 0.976929 219.285 3.52409 219.285 6.64662Z" fill="#C5C6C6"/>
<path d="M168.102 52.2978V6.34096C168.102 3.21843 170.649 0.671265 173.772 0.671265H214.059C217.181 0.671265 219.729 3.21843 219.729 6.34096V52.2978" stroke="#C5C6C6" stroke-width="1.33052" stroke-miterlimit="22.9256"/>
<path d="M168.102 103.924V52.2979" stroke="#C5C6C6" stroke-width="1.33052" stroke-miterlimit="22.9256"/>
<path d="M219.729 52.2979V103.924" stroke="#C5C6C6" stroke-width="1.33052" stroke-miterlimit="22.9256"/>
<path d="M168.102 155.551V103.924" stroke="#C5C6C6" stroke-width="1.33052" stroke-miterlimit="22.9256"/>
<path d="M219.729 103.924V155.551" stroke="#C5C6C6" stroke-width="1.33052" stroke-miterlimit="22.9256"/>
<path fill-rule="evenodd" clip-rule="evenodd" d="M216.642 62.4446V63.4514H210.954C210.948 63.1997 210.99 62.954 211.08 62.7203C211.224 62.3367 211.458 61.9531 211.781 61.5755C212.105 61.2039 212.561 60.7724 213.16 60.281C214.089 59.5138 214.724 58.9085 215.054 58.459C215.383 58.0095 215.551 57.59 215.551 57.1884C215.551 56.7689 215.401 56.4213 215.102 56.1276C214.802 55.8399 214.412 55.6961 213.927 55.6961C213.418 55.6961 213.01 55.8459 212.704 56.1516C212.399 56.4512 212.243 56.8708 212.243 57.4102L211.164 57.3023C211.236 56.4932 211.518 55.8759 212.003 55.4563C212.489 55.0308 213.142 54.821 213.957 54.821C214.778 54.821 215.437 55.0488 215.917 55.5043C216.396 55.9598 216.642 56.5291 216.642 57.2064C216.642 57.548 216.57 57.8896 216.432 58.2193C216.294 58.5549 216.061 58.9025 215.731 59.2741C215.401 59.6397 214.862 60.1431 214.107 60.7844C213.472 61.3178 213.064 61.6774 212.884 61.8692C212.704 62.061 212.555 62.2468 212.441 62.4386H216.66L216.642 62.4446Z" fill="#F2F1EF"/>
<path fill-rule="evenodd" clip-rule="evenodd" d="M210.631 113.316L211.805 113.154C211.943 113.819 212.165 114.299 212.489 114.593C212.812 114.886 213.208 115.03 213.675 115.03C214.233 115.03 214.7 114.838 215.078 114.455C215.455 114.071 215.647 113.598 215.647 113.034C215.647 112.495 215.473 112.051 215.12 111.704C214.766 111.356 214.323 111.182 213.777 111.182C213.555 111.182 213.28 111.224 212.95 111.314L213.082 110.289C213.16 110.301 213.226 110.301 213.274 110.301C213.777 110.301 214.227 110.169 214.628 109.912C215.03 109.654 215.228 109.252 215.228 108.713C215.228 108.282 215.084 107.928 214.79 107.646C214.496 107.365 214.125 107.227 213.663 107.227C213.208 107.227 212.824 107.371 212.519 107.658C212.213 107.946 212.021 108.383 211.931 108.959L210.757 108.743C210.9 107.958 211.224 107.347 211.733 106.909C212.243 106.478 212.872 106.262 213.627 106.262C214.149 106.262 214.628 106.376 215.066 106.597C215.503 106.819 215.839 107.125 216.073 107.508C216.306 107.898 216.42 108.305 216.42 108.737C216.42 109.151 216.306 109.522 216.091 109.858C215.869 110.193 215.539 110.463 215.108 110.667C215.671 110.799 216.109 111.068 216.42 111.476C216.732 111.884 216.888 112.399 216.888 113.016C216.888 113.849 216.582 114.557 215.977 115.138C215.365 115.719 214.598 116.007 213.669 116.007C212.83 116.007 212.135 115.755 211.584 115.258C211.026 114.76 210.715 114.113 210.637 113.316H210.631Z" fill="#F2F1EF"/>
<path fill-rule="evenodd" clip-rule="evenodd" d="M214.047 13.3412H212.872V5.86748C212.59 6.13718 212.219 6.40688 211.763 6.67658C211.308 6.94628 210.894 7.15005 210.529 7.2819V6.14916C211.182 5.8435 211.757 5.47192 212.249 5.02841C212.74 4.5909 213.088 4.16537 213.292 3.75183H214.047V13.3412Z" fill="#F2F1EF"/>
<path d="M214.287 167.01V164.96H210.553V163.99L214.478 158.422H215.341V163.99H216.504V164.96H215.341V167.01H214.287ZM214.287 163.984V160.118L211.59 163.984H214.287Z" fill="#F2F1EF" stroke="#F2F1EF" stroke-width="0.28768" stroke-miterlimit="22.9256"/>
<path fill-rule="evenodd" clip-rule="evenodd" d="M201.323 220.459L202.552 220.363C202.618 220.776 202.737 221.118 202.911 221.394C202.989 221.514 203.079 221.621 203.181 221.711C203.511 222.011 203.912 222.161 204.386 222.161C204.955 222.161 205.434 221.945 205.824 221.526C206.214 221.1 206.405 220.537 206.405 219.829C206.405 219.158 206.22 218.631 205.848 218.247C205.476 217.858 204.985 217.666 204.374 217.666C203.996 217.666 203.654 217.75 203.349 217.924C203.049 218.097 202.815 218.319 202.642 218.595L201.533 218.433L202.45 213.524H207.185V214.645H203.385L202.875 217.222C203.445 216.821 204.044 216.623 204.673 216.623C205.506 216.623 206.208 216.911 206.777 217.492C206.885 217.6 206.981 217.714 207.065 217.834C207.442 218.355 207.634 218.984 207.634 219.722C207.634 220.585 207.382 221.334 206.879 221.963C206.268 222.736 205.434 223.126 204.374 223.126C203.505 223.126 202.797 222.88 202.252 222.395C201.701 221.909 201.389 221.262 201.311 220.459H201.323Z" fill="#F2F1EF"/>
<path d="M183.565 265.409L182.522 265.493C182.426 265.079 182.294 264.779 182.12 264.588C181.833 264.288 181.479 264.138 181.06 264.138C180.724 264.138 180.424 264.234 180.161 264.42C179.831 264.66 179.567 265.013 179.375 265.481C179.184 265.948 179.082 266.607 179.076 267.464C179.328 267.081 179.639 266.787 180.011 266.601C180.376 266.416 180.76 266.32 181.167 266.32C181.869 266.32 182.474 266.577 182.965 267.099C183.457 267.614 183.709 268.286 183.709 269.107C183.709 269.646 183.595 270.143 183.361 270.611C183.127 271.072 182.81 271.426 182.402 271.678C181.995 271.923 181.533 272.049 181.018 272.049C180.143 272.049 179.423 271.726 178.866 271.078C178.315 270.431 178.033 269.364 178.033 267.884C178.033 266.224 178.339 265.013 178.956 264.264C179.489 263.611 180.215 263.281 181.125 263.281C181.803 263.281 182.36 263.473 182.792 263.85C183.223 264.228 183.481 264.749 183.571 265.421L183.565 265.409ZM179.244 269.119C179.244 269.484 179.321 269.832 179.477 270.161C179.633 270.491 179.849 270.743 180.119 270.923C180.394 271.096 180.688 271.186 180.994 271.186C181.443 271.186 181.827 271.006 182.144 270.647C182.462 270.287 182.624 269.802 182.624 269.179C182.624 268.585 182.468 268.118 182.15 267.776C181.839 267.434 181.437 267.261 180.952 267.261C180.478 267.261 180.071 267.434 179.735 267.776C179.405 268.118 179.238 268.567 179.238 269.125L179.244 269.119Z" fill="#F2F1EF"/>
<path fill-rule="evenodd" clip-rule="evenodd" d="M142.181 308.381V307.26H148.354V308.165C147.749 308.812 147.143 309.669 146.55 310.748C145.951 311.821 145.489 312.924 145.166 314.063C144.932 314.86 144.782 315.741 144.716 316.688H143.517C143.529 315.939 143.679 315.027 143.961 313.961C144.243 312.894 144.644 311.869 145.172 310.88C145.699 309.891 146.256 309.058 146.85 308.381H142.181Z" fill="#F2F1EF"/>
<path d="M219.729 155.551C219.729 274.59 124.782 371.455 6.48581 374.535C4.89757 374.577 3.51911 374.038 2.38038 372.929C1.24164 371.82 0.666283 370.454 0.666283 368.866V328.554C0.666283 325.498 3.09958 322.987 6.15617 322.891C96.0861 319.996 168.102 246.182 168.102 155.545" stroke="#C5C6C6" stroke-width="1.33052" stroke-miterlimit="22.9256"/>
<path d="M99.8619 342.195C99.4244 342.033 99.1008 341.806 98.885 341.512C98.6752 341.212 98.5674 340.859 98.5674 340.445C98.5674 339.822 98.7891 339.294 99.2386 338.869C99.6881 338.443 100.281 338.228 101.031 338.228C101.78 338.228 102.385 338.443 102.841 338.881C103.296 339.318 103.524 339.846 103.524 340.475C103.524 340.871 103.422 341.218 103.212 341.518C103.002 341.812 102.691 342.039 102.259 342.201C102.787 342.375 103.182 342.651 103.458 343.034C103.734 343.418 103.871 343.873 103.871 344.407C103.871 345.138 103.614 345.755 103.092 346.259C102.571 346.756 101.888 347.008 101.043 347.008C100.198 347.008 99.5143 346.756 98.9929 346.259C98.4775 345.755 98.2137 345.132 98.2137 344.383C98.2137 343.825 98.3576 343.358 98.6393 342.98C98.921 342.603 99.3285 342.345 99.8499 342.213L99.8619 342.195ZM99.6522 340.403C99.6522 340.811 99.784 341.14 100.042 341.404C100.299 341.662 100.641 341.794 101.067 341.794C101.474 341.794 101.81 341.668 102.067 341.41C102.325 341.152 102.451 340.841 102.451 340.469C102.451 340.08 102.319 339.756 102.055 339.492C101.792 339.229 101.456 339.097 101.055 339.097C100.647 339.097 100.317 339.229 100.048 339.486C99.784 339.744 99.6522 340.05 99.6522 340.415V340.403ZM99.3045 344.377C99.3045 344.676 99.3765 344.97 99.5143 345.252C99.6521 345.534 99.8679 345.749 100.15 345.905C100.431 346.061 100.737 346.139 101.055 346.139C101.564 346.139 101.978 345.977 102.307 345.653C102.631 345.33 102.793 344.916 102.793 344.419C102.793 343.909 102.625 343.49 102.289 343.16C101.954 342.831 101.528 342.663 101.019 342.663C100.521 342.663 100.108 342.825 99.784 343.154C99.4604 343.484 99.2985 343.891 99.2985 344.383L99.3045 344.377Z" fill="#F2F1EF"/>
<path d="M47.0607 364.005L48.0675 363.921C48.1515 364.395 48.3193 364.742 48.559 364.958C48.7987 365.174 49.1104 365.282 49.494 365.282C49.8176 365.282 50.0993 365.21 50.345 365.06C50.5907 364.91 50.7885 364.712 50.9443 364.466C51.1002 364.221 51.226 363.885 51.3339 363.46C51.4418 363.04 51.4897 362.609 51.4897 362.171C51.4897 362.123 51.4897 362.051 51.4837 361.961C51.274 362.297 50.9863 362.573 50.6207 362.776C50.2551 362.986 49.8596 363.088 49.434 363.088C48.7268 363.088 48.1215 362.83 47.63 362.315C47.1386 361.799 46.8929 361.122 46.8929 360.277C46.8929 359.402 47.1506 358.707 47.66 358.173C48.1694 357.646 48.8167 357.376 49.5899 357.376C50.1472 357.376 50.6567 357.526 51.1182 357.826C51.5796 358.126 51.9332 358.551 52.173 359.114C52.4127 359.672 52.5326 360.475 52.5326 361.53C52.5326 362.626 52.4127 363.502 52.179 364.149C51.9392 364.802 51.5856 365.294 51.1122 365.635C50.6447 365.977 50.0933 366.145 49.458 366.145C48.7867 366.145 48.2354 365.959 47.8098 365.587C47.3843 365.216 47.1326 364.688 47.0427 364.011L47.0607 364.005ZM51.3699 360.217C51.3699 359.612 51.2081 359.132 50.8904 358.779C50.5728 358.425 50.1832 358.245 49.7277 358.245C49.2542 358.245 48.8467 358.437 48.5051 358.815C48.1574 359.198 47.9896 359.69 47.9896 360.301C47.9896 360.846 48.1515 361.29 48.4811 361.632C48.8107 361.973 49.2183 362.141 49.7037 362.141C50.1892 362.141 50.5907 361.973 50.9084 361.632C51.22 361.29 51.3759 360.817 51.3759 360.211L51.3699 360.217Z" fill="#F2F1EF"/>
</g>
<defs>
<clipPath id="clip0_25_39">
<rect width="220.395" height="375.207" fill="white"/>
</clipPath>
</defs>
</svg>
