<svg  viewBox="0 0 221 376" fill="none" xmlns="http://www.w3.org/2000/svg">
<path fill-rule="evenodd" clip-rule="evenodd" d="M181.548 51.6245V72.2879L160.884 51.6245H181.548ZM178.894 61.4656V62.4765H173.208C173.201 62.2238 173.245 61.9785 173.334 61.7406C173.483 61.3541 173.713 60.9751 174.033 60.596C174.353 60.2243 174.814 59.7932 175.416 59.3027C176.345 58.5371 176.976 57.9276 177.311 57.4816C177.645 57.0356 177.809 56.612 177.809 56.2106C177.809 55.7944 177.66 55.4376 177.356 55.1551C177.058 54.8727 176.664 54.724 176.181 54.724C175.668 54.724 175.26 54.8727 174.955 55.1774C174.65 55.4822 174.494 55.8984 174.494 56.441L173.416 56.3295C173.49 55.5193 173.773 54.9024 174.256 54.4787C174.739 54.0551 175.393 53.8395 176.211 53.8395C177.036 53.8395 177.69 54.0699 178.166 54.5233C178.649 54.9842 178.887 55.5491 178.887 56.2255C178.887 56.5674 178.82 56.9093 178.671 57.2363C178.53 57.5708 178.3 57.9201 177.972 58.2918C177.645 58.656 177.103 59.1614 176.345 59.8007C175.713 60.3358 175.304 60.6926 175.126 60.8859C174.947 61.0791 174.799 61.2649 174.68 61.4582H178.894V61.4656Z" fill="#C5C6C6"/>
<path fill-rule="evenodd" clip-rule="evenodd" d="M181.54 103.119V123.783L160.877 103.119H181.54ZM172.888 112.336L174.063 112.173C174.197 112.842 174.427 113.317 174.747 113.615C175.066 113.904 175.468 114.053 175.936 114.053C176.493 114.053 176.962 113.86 177.341 113.481C177.72 113.102 177.906 112.626 177.906 112.061C177.906 111.526 177.727 111.08 177.378 110.731C177.029 110.381 176.583 110.203 176.033 110.203C175.81 110.203 175.535 110.248 175.2 110.337L175.334 109.311C175.408 109.318 175.475 109.326 175.52 109.326C176.025 109.326 176.471 109.192 176.872 108.932C177.274 108.672 177.475 108.27 177.475 107.735C177.475 107.304 177.326 106.947 177.036 106.665C176.746 106.382 176.367 106.241 175.906 106.241C175.445 106.241 175.066 106.382 174.762 106.672C174.457 106.962 174.264 107.393 174.174 107.973L173 107.757C173.141 106.97 173.468 106.36 173.981 105.929C174.487 105.498 175.118 105.282 175.876 105.282C176.397 105.282 176.872 105.394 177.311 105.617C177.75 105.84 178.084 106.145 178.314 106.531C178.545 106.918 178.664 107.326 178.664 107.757C178.664 108.166 178.552 108.545 178.329 108.88C178.106 109.214 177.779 109.489 177.348 109.69C177.913 109.816 178.352 110.091 178.664 110.5C178.976 110.909 179.132 111.422 179.132 112.039C179.132 112.871 178.827 113.585 178.218 114.165C177.608 114.744 176.843 115.034 175.914 115.034C175.074 115.034 174.382 114.782 173.825 114.284C173.268 113.786 172.955 113.139 172.874 112.344L172.888 112.336Z" fill="#C5C6C6"/>
<path fill-rule="evenodd" clip-rule="evenodd" d="M181.54 155.179C181.54 162.188 181.206 167.837 180.507 174.817L160.869 155.179C167.76 155.179 174.643 155.179 181.533 155.179H181.54ZM176.404 166.789V164.507H172.257V163.43L176.62 157.246H177.579V163.43H178.872V164.507H177.579V166.789H176.404ZM176.404 163.43V159.133L173.409 163.43H176.404Z" fill="#C5C6C6"/>
<path fill-rule="evenodd" clip-rule="evenodd" d="M174.137 211.476C172.324 218.247 170.54 223.621 168.064 230.177L154.18 206.131C160.832 207.915 167.485 209.699 174.137 211.483V211.476ZM163.575 219.481L164.801 219.384C164.891 219.979 165.106 220.432 165.433 220.73C165.76 221.027 166.162 221.183 166.637 221.183C167.21 221.183 167.685 220.967 168.072 220.544C168.458 220.12 168.652 219.555 168.652 218.849C168.652 218.18 168.466 217.652 168.094 217.266C167.723 216.879 167.232 216.686 166.623 216.686C166.243 216.686 165.902 216.775 165.604 216.946C165.307 217.117 165.069 217.34 164.898 217.623L163.791 217.459L164.712 212.553H169.447V213.676H165.649L165.143 216.248C165.716 215.846 166.318 215.646 166.942 215.646C167.775 215.646 168.473 215.935 169.046 216.515C169.618 217.095 169.9 217.838 169.9 218.745C169.9 219.607 169.648 220.358 169.15 220.982C168.54 221.755 167.7 222.142 166.645 222.142C165.775 222.142 165.069 221.897 164.519 221.413C163.969 220.93 163.657 220.284 163.582 219.481H163.575Z" fill="#C5C6C6"/>
<path fill-rule="evenodd" clip-rule="evenodd" d="M152.158 264.331C148.657 270.403 145.535 275.131 141.447 280.824L134.26 253.999C140.228 257.441 146.19 260.889 152.158 264.331ZM146.078 264.769L144.919 264.866C144.814 264.405 144.666 264.071 144.473 263.862C144.153 263.528 143.759 263.357 143.298 263.357C142.927 263.357 142.592 263.461 142.302 263.669C141.931 263.937 141.648 264.331 141.433 264.844C141.217 265.364 141.105 266.1 141.098 267.051C141.381 266.62 141.73 266.3 142.139 266.092C142.547 265.884 142.971 265.78 143.425 265.78C144.205 265.78 144.874 266.07 145.424 266.642C145.974 267.215 146.249 267.958 146.249 268.872C146.249 269.474 146.123 270.024 145.863 270.545C145.602 271.058 145.246 271.451 144.8 271.726C144.346 272.001 143.833 272.135 143.261 272.135C142.287 272.135 141.485 271.779 140.868 271.058C140.251 270.337 139.946 269.155 139.946 267.505C139.946 265.661 140.288 264.316 140.972 263.483C141.566 262.755 142.369 262.391 143.38 262.391C144.131 262.391 144.748 262.599 145.231 263.023C145.714 263.439 145.996 264.026 146.093 264.762L146.078 264.769ZM141.276 268.887C141.276 269.288 141.366 269.675 141.537 270.047C141.708 270.418 141.945 270.693 142.25 270.887C142.555 271.08 142.882 271.176 143.224 271.176C143.722 271.176 144.153 270.976 144.502 270.574C144.859 270.173 145.03 269.63 145.03 268.947C145.03 268.285 144.852 267.765 144.502 267.386C144.153 267.007 143.707 266.813 143.172 266.813C142.644 266.813 142.191 267.007 141.826 267.386C141.455 267.765 141.276 268.263 141.276 268.88V268.887Z" fill="#C5C6C6"/>
<path fill-rule="evenodd" clip-rule="evenodd" d="M117.224 309.59C112.266 314.547 108.037 318.308 102.611 322.746V294.977C107.479 299.845 112.355 304.721 117.224 309.59ZM104.432 307.404V306.282H110.608V307.189C109.999 307.835 109.397 308.698 108.802 309.768C108.208 310.838 107.747 311.946 107.42 313.083C107.189 313.878 107.033 314.755 106.974 315.707H105.777C105.792 314.956 105.941 314.049 106.216 312.979C106.498 311.909 106.899 310.883 107.427 309.894C107.955 308.906 108.512 308.073 109.107 307.397H104.439L104.432 307.404Z" fill="#C5C6C6"/>
<path fill-rule="evenodd" clip-rule="evenodd" d="M72.017 344.383C65.9444 347.884 60.8826 350.426 54.4978 353.31L61.6853 326.484C65.1268 332.446 68.5756 338.414 72.017 344.383ZM61.6779 340.837C61.1948 340.659 60.8306 340.406 60.5927 340.072C60.3623 339.737 60.2434 339.343 60.2434 338.882C60.2434 338.184 60.4961 337.604 60.9866 337.128C61.4847 336.653 62.1462 336.415 62.9787 336.415C63.8111 336.415 64.4801 336.66 64.9855 337.143C65.491 337.626 65.7437 338.213 65.7437 338.912C65.7437 339.351 65.6248 339.745 65.3943 340.064C65.1639 340.391 64.8146 340.644 64.3389 340.822C64.9261 341.016 65.3646 341.32 65.6694 341.744C65.9741 342.168 66.1302 342.673 66.1302 343.268C66.1302 344.085 65.8403 344.769 65.268 345.327C64.6882 345.884 63.9301 346.159 62.9935 346.159C62.057 346.159 61.2988 345.884 60.7191 345.327C60.1467 344.769 59.8569 344.071 59.8569 343.238C59.8569 342.621 60.0129 342.101 60.3326 341.677C60.6447 341.261 61.0981 340.971 61.6779 340.822V340.837ZM61.4475 338.845C61.4475 339.299 61.5887 339.67 61.8786 339.953C62.1685 340.243 62.5475 340.384 63.0158 340.384C63.4692 340.384 63.8409 340.243 64.1233 339.96C64.4132 339.678 64.5544 339.328 64.5544 338.912C64.5544 338.481 64.4058 338.117 64.1159 337.827C63.826 337.537 63.4544 337.388 63.0084 337.388C62.555 337.388 62.1833 337.53 61.8935 337.819C61.6036 338.109 61.4549 338.451 61.4549 338.845H61.4475ZM61.061 343.26C61.061 343.595 61.1353 343.914 61.2914 344.234C61.4475 344.546 61.6853 344.784 61.9975 344.955C62.3097 345.126 62.6516 345.215 63.0084 345.215C63.5733 345.215 64.0341 345.037 64.3983 344.673C64.7625 344.316 64.9409 343.855 64.9409 343.298C64.9409 342.733 64.7551 342.264 64.3835 341.9C64.0118 341.529 63.5361 341.35 62.9712 341.35C62.4138 341.35 61.9604 341.536 61.6036 341.9C61.2468 342.264 61.061 342.718 61.061 343.268V343.26Z" fill="#C5C6C6"/>
<path fill-rule="evenodd" clip-rule="evenodd" d="M19.2363 365.938C12.4649 367.752 6.92 368.889 0 370.026L13.8846 345.981C15.6685 352.633 17.4524 359.286 19.2363 365.938ZM9.14242 362.727L10.2648 362.63C10.3614 363.158 10.5398 363.545 10.8148 363.783C11.0824 364.02 11.4317 364.139 11.848 364.139C12.2048 364.139 12.5244 364.058 12.7994 363.894C13.0744 363.731 13.2974 363.508 13.4684 363.233C13.6393 362.957 13.7805 362.586 13.8995 362.118C14.0184 361.649 14.0778 361.174 14.0778 360.683C14.0778 360.631 14.0778 360.549 14.0704 360.445C13.84 360.817 13.5204 361.122 13.1116 361.352C12.7102 361.582 12.2642 361.701 11.796 361.701C11.0081 361.701 10.3391 361.411 9.79652 360.839C9.25392 360.267 8.9789 359.516 8.9789 358.572C8.9789 357.606 9.26135 356.825 9.83368 356.231C10.406 355.644 11.1196 355.346 11.9743 355.346C12.5913 355.346 13.1562 355.51 13.6765 355.852C14.1893 356.186 14.5758 356.662 14.8434 357.279C15.111 357.896 15.2448 358.795 15.2448 359.962C15.2448 361.181 15.111 362.155 14.8509 362.876C14.5833 363.597 14.1893 364.147 13.669 364.526C13.1487 364.905 12.5392 365.091 11.8331 365.091C11.0898 365.091 10.4803 364.883 10.0046 364.466C9.53636 364.05 9.24648 363.463 9.14986 362.712L9.14242 362.727ZM13.9292 358.513C13.9292 357.844 13.7508 357.309 13.394 356.915C13.0372 356.521 12.6061 356.32 12.1007 356.32C11.573 356.32 11.1196 356.528 10.7405 356.959C10.354 357.383 10.1682 357.933 10.1682 358.609C10.1682 359.219 10.354 359.709 10.7108 360.088C11.075 360.467 11.5284 360.661 12.071 360.661C12.6136 360.661 13.0595 360.475 13.4089 360.088C13.7582 359.709 13.9292 359.182 13.9292 358.513Z" fill="#C5C6C6"/>
<path fill-rule="evenodd" clip-rule="evenodd" d="M181.54 5.67454V20.6666L160.877 0.00326538H175.869C178.991 0.00326538 181.54 2.55274 181.54 5.67454ZM176.3 12.3716H175.126V4.90152C174.843 5.16911 174.472 5.44412 174.018 5.71171C173.557 5.97929 173.149 6.17998 172.784 6.31377V5.18397C173.438 4.87922 174.011 4.50758 174.501 4.06161C174.992 3.62307 175.341 3.1994 175.542 2.78316H176.3V12.3716Z" fill="#C5C6C6"/>
</svg>
