<svg width="32" height="18" viewBox="0 0 32 18" fill="none" xmlns="http://www.w3.org/2000/svg">
<path fill-rule="evenodd" clip-rule="evenodd" d="M16.7517 -8.58438L23.5705 3.23645L30.3893 15.0573C30.5545 15.364 30.5545 15.6943 30.3893 16.0011C30.2242 16.3078 29.9174 16.473 29.5635 16.473H15.9259H2.2883C1.93438 16.473 1.65125 16.3078 1.46249 16.0011C1.29733 15.6943 1.29733 15.364 1.46249 15.0573L8.2813 3.23645L15.1001 -8.58438C15.2653 -8.89111 15.572 -9.05627 15.9259 -9.05627C16.2798 -9.05627 16.563 -8.89111 16.7517 -8.58438Z" stroke="#2B2A29" stroke-width="1.34489" stroke-miterlimit="22.9256"/>
<path fill-rule="evenodd" clip-rule="evenodd" d="M15.9731 -2.37903L20.3381 5.17121L24.7031 12.745H15.9731H7.24316L11.6081 5.17121L15.9731 -2.37903Z" stroke="#2B2A29" stroke-width="0.401106" stroke-miterlimit="22.9256"/>
<path d="M7.24314 12.7451L1.48608 15.9776" stroke="#2B2A29" stroke-width="0.401106" stroke-miterlimit="22.9256"/>
<path d="M24.7267 12.7451L30.3894 15.9776" stroke="#2B2A29" stroke-width="0.401106" stroke-miterlimit="22.9256"/>
</svg>
