<?xml version="1.0" encoding="utf-8"?>
<!-- Generator: Adobe Illustrator 16.0.0, SVG Export Plug-In . SVG Version: 6.00 Build 0)  -->
<!DOCTYPE svg PUBLIC "-//W3C//DTD SVG 1.1//EN" "http://www.w3.org/Graphics/SVG/1.1/DTD/svg11.dtd">
<svg version="1.1" id="Layer_1" xmlns="http://www.w3.org/2000/svg" xmlns:xlink="http://www.w3.org/1999/xlink" x="0px" y="0px"
	 width="245.027px" height="329.936px" viewBox="0 0 245.027 329.936" enable-background="new 0 0 245.027 329.936"
	 xml:space="preserve">
<g>
	<path fill-rule="evenodd" clip-rule="evenodd" fill="#82B8E8" d="M9.312,0h63.212c5.046,0,9.156,4.151,9.156,9.248v73.236H0.014
		V9.419C0.014,4.237,4.209,0,9.312,0L9.312,0z"/>
	<rect x="163.346" y="164.968" fill-rule="evenodd" clip-rule="evenodd" fill="#82B8E8" width="81.666" height="82.484"/>
	<path fill-rule="evenodd" clip-rule="evenodd" fill="#6278B1" d="M163.346,247.452H81.68H0.014v73.093
		c0,5.153,4.195,9.391,9.298,9.391H81.68v-82.483v-82.484H0.014V82.484H81.68v73.122c0.028,5.154,4.195,9.362,9.326,9.362h63.043
		c5.102,0,9.297-4.237,9.297-9.391l0,0V82.484h81.666v82.484h-81.666l0,0l0,0V247.452v82.483h72.511
		c5.046,0,9.155-4.151,9.155-9.247v-73.236H163.346z"/>
	<path fill-rule="evenodd" clip-rule="evenodd" fill="#FEFEFE" d="M72.383,247.452h9.297v-9.391
		C81.68,243.215,77.485,247.452,72.383,247.452L72.383,247.452z"/>
	<rect x="0.014" y="164.968" fill-rule="evenodd" clip-rule="evenodd" fill="#82B8E8" width="81.666" height="82.484"/>
	<path fill-rule="evenodd" clip-rule="evenodd" fill="#82B8E8" d="M81.822,329.936h81.524v-82.483H81.68v82.341
		C81.68,329.879,81.737,329.936,81.822,329.936L81.822,329.936z"/>
	<path fill-rule="evenodd" clip-rule="evenodd" fill="#82B8E8" d="M172.672,0h63.185c5.046,0,9.155,4.151,9.155,9.248v73.236
		h-81.666V9.419C163.346,4.237,167.542,0,172.672,0L172.672,0z"/>
</g>
</svg>
