<svg width="220" height="374" viewBox="0 0 220 374" fill="none" xmlns="http://www.w3.org/2000/svg">
<g clip-path="url(#clip0_9_27)">
<path fill-rule="evenodd" clip-rule="evenodd" d="M218.627 51.9323V72.5983L197.961 51.9323H218.627ZM215.973 61.7767V62.7841H210.285C210.279 62.5307 210.321 62.2834 210.411 62.0482C210.556 61.6621 210.791 61.2821 211.111 60.9081C211.431 60.5341 211.895 60.0998 212.492 59.6112C213.421 58.8451 214.055 58.2419 214.387 57.7895C214.718 57.3431 214.887 56.9149 214.887 56.5167C214.887 56.1005 214.736 55.7446 214.435 55.4611C214.133 55.1776 213.741 55.0328 213.259 55.0328C212.746 55.0328 212.342 55.1836 212.034 55.4913C211.726 55.7929 211.576 56.2151 211.57 56.752L210.49 56.6434C210.562 55.8351 210.846 55.2198 211.328 54.7976C211.817 54.3753 212.462 54.1642 213.283 54.1642C214.109 54.1642 214.761 54.3934 215.243 54.8519C215.726 55.3103 215.967 55.8773 215.967 56.5529C215.967 56.8968 215.895 57.2346 215.756 57.5663C215.617 57.8981 215.382 58.2479 215.056 58.6159C214.73 58.9839 214.188 59.4906 213.427 60.13C212.794 60.6608 212.384 61.0227 212.203 61.2097C212.022 61.3967 211.877 61.5897 211.757 61.7827H215.973V61.7767Z" fill="#C5C6C6"/>
<path fill-rule="evenodd" clip-rule="evenodd" d="M218.621 103.434V124.1L197.955 103.434H218.621ZM209.965 112.651L211.135 112.488C211.268 113.158 211.497 113.635 211.817 113.93C212.137 114.226 212.535 114.371 213.005 114.371C213.56 114.371 214.031 114.177 214.405 113.797C214.785 113.417 214.972 112.941 214.972 112.38C214.972 111.843 214.797 111.397 214.441 111.047C214.091 110.697 213.645 110.522 213.102 110.522C212.879 110.522 212.601 110.564 212.275 110.655L212.408 109.629C212.486 109.641 212.553 109.641 212.595 109.641C213.096 109.641 213.548 109.509 213.946 109.249C214.344 108.99 214.543 108.592 214.543 108.049C214.543 107.621 214.399 107.265 214.103 106.981C213.813 106.698 213.433 106.559 212.975 106.559C212.517 106.559 212.137 106.704 211.835 106.993C211.527 107.283 211.334 107.717 211.25 108.29L210.074 108.079C210.218 107.295 210.544 106.68 211.051 106.245C211.557 105.811 212.191 105.594 212.945 105.594C213.464 105.594 213.946 105.702 214.381 105.932C214.821 106.155 215.159 106.456 215.388 106.842C215.623 107.229 215.738 107.639 215.738 108.073C215.738 108.483 215.629 108.857 215.406 109.195C215.183 109.533 214.857 109.804 214.423 110.003C214.99 110.13 215.424 110.401 215.738 110.812C216.051 111.222 216.202 111.734 216.202 112.35C216.202 113.182 215.901 113.894 215.291 114.473C214.682 115.052 213.916 115.342 212.987 115.342C212.149 115.342 211.455 115.088 210.9 114.594C210.345 114.093 210.031 113.448 209.953 112.651H209.965Z" fill="#C5C6C6"/>
<path fill-rule="evenodd" clip-rule="evenodd" d="M218.621 155.497C218.621 162.507 218.283 168.159 217.59 175.132L197.955 155.497C204.844 155.497 211.732 155.497 218.621 155.497ZM213.482 167.103V164.823H209.338V163.743L213.699 157.554H214.658V163.743H215.949V164.823H214.658V167.103H213.488H213.482ZM213.482 163.743V159.448L210.49 163.743H213.482Z" fill="#C5C6C6"/>
<path fill-rule="evenodd" clip-rule="evenodd" d="M211.22 211.789C209.404 218.557 207.619 223.931 205.145 230.488L191.26 206.438C197.913 208.218 204.566 210.003 211.22 211.789ZM200.658 219.793L201.882 219.703C201.973 220.3 202.184 220.746 202.515 221.054C202.847 221.356 203.245 221.507 203.722 221.507C204.295 221.507 204.771 221.295 205.157 220.867C205.543 220.439 205.737 219.878 205.737 219.172C205.737 218.503 205.55 217.978 205.182 217.592C204.808 217.206 204.319 217.013 203.71 217.013C203.33 217.013 202.992 217.097 202.69 217.272C202.389 217.447 202.153 217.67 201.979 217.948L200.875 217.785L201.798 212.881H206.533V214.003H202.733L202.226 216.578C202.799 216.174 203.396 215.975 204.023 215.975C204.856 215.975 205.556 216.265 206.129 216.844C206.702 217.423 206.985 218.165 206.985 219.07C206.985 219.932 206.732 220.68 206.231 221.307C205.622 222.08 204.783 222.466 203.728 222.466C202.859 222.466 202.153 222.224 201.605 221.736C201.056 221.247 200.742 220.602 200.664 219.799L200.658 219.793Z" fill="#C5C6C6"/>
<path fill-rule="evenodd" clip-rule="evenodd" d="M189.239 264.648C185.734 270.716 182.616 275.445 178.532 281.14L171.348 254.315C177.313 257.759 183.279 261.204 189.245 264.648H189.239ZM183.158 265.082L182 265.173C181.898 264.714 181.747 264.377 181.554 264.165C181.234 263.828 180.842 263.665 180.378 263.665C180.004 263.665 179.672 263.767 179.382 263.978C179.014 264.25 178.725 264.636 178.508 265.155C178.297 265.673 178.182 266.409 178.176 267.362C178.459 266.934 178.803 266.614 179.213 266.409C179.624 266.198 180.046 266.096 180.498 266.096C181.282 266.096 181.946 266.385 182.501 266.958C183.05 267.531 183.327 268.273 183.327 269.19C183.327 269.787 183.201 270.348 182.941 270.861C182.682 271.374 182.326 271.772 181.874 272.043C181.421 272.315 180.908 272.454 180.335 272.454C179.358 272.454 178.562 272.092 177.947 271.374C177.331 270.656 177.024 269.474 177.024 267.821C177.024 265.975 177.368 264.636 178.049 263.798C178.646 263.068 179.449 262.706 180.456 262.706C181.204 262.706 181.825 262.917 182.308 263.339C182.79 263.761 183.074 264.34 183.17 265.082H183.158ZM178.357 269.202C178.357 269.606 178.441 269.992 178.616 270.36C178.785 270.728 179.026 271.012 179.334 271.205C179.642 271.398 179.967 271.494 180.311 271.494C180.812 271.494 181.24 271.295 181.59 270.897C181.946 270.499 182.121 269.956 182.121 269.269C182.121 268.611 181.946 268.086 181.596 267.706C181.246 267.326 180.8 267.133 180.263 267.133C179.732 267.133 179.286 267.326 178.912 267.706C178.544 268.086 178.357 268.587 178.357 269.202Z" fill="#C5C6C6"/>
<path fill-rule="evenodd" clip-rule="evenodd" d="M154.307 309.901C149.349 314.859 145.12 318.617 139.697 323.057V295.285C144.565 300.153 149.439 305.027 154.307 309.895V309.901ZM141.513 307.717V306.595H147.684V307.5C147.074 308.145 146.471 309.008 145.88 310.082C145.283 311.155 144.824 312.259 144.493 313.393C144.257 314.19 144.107 315.07 144.046 316.017H142.846C142.858 315.269 143.009 314.358 143.286 313.291C143.57 312.223 143.968 311.198 144.499 310.208C145.024 309.219 145.585 308.387 146.182 307.711H141.513V307.717Z" fill="#C5C6C6"/>
<path fill-rule="evenodd" clip-rule="evenodd" d="M109.102 344.694C103.034 348.198 97.9672 350.732 91.5852 353.621L98.7755 326.797C102.22 332.762 105.664 338.728 109.108 344.694H109.102ZM98.7634 341.147C98.2748 340.972 97.9189 340.713 97.6837 340.387C97.4484 340.055 97.3338 339.663 97.3338 339.199C97.3338 338.505 97.5811 337.92 98.0818 337.449C98.5825 336.973 99.246 336.738 100.072 336.738C100.905 336.738 101.574 336.979 102.081 337.461C102.588 337.944 102.841 338.535 102.841 339.229C102.841 339.669 102.727 340.055 102.497 340.387C102.268 340.719 101.918 340.972 101.442 341.147C102.027 341.34 102.467 341.648 102.775 342.07C103.082 342.492 103.233 342.999 103.233 343.59C103.233 344.404 102.944 345.092 102.371 345.647C101.792 346.202 101.038 346.479 100.097 346.479C99.1555 346.479 98.4015 346.202 97.8224 345.647C97.2494 345.092 96.9598 344.392 96.9598 343.56C96.9598 342.938 97.1167 342.42 97.4364 342.004C97.75 341.581 98.2024 341.298 98.7815 341.147H98.7634ZM98.5282 339.156C98.5282 339.609 98.6729 339.977 98.9565 340.266C99.246 340.556 99.626 340.695 100.09 340.695C100.549 340.695 100.917 340.55 101.2 340.266C101.49 339.983 101.629 339.633 101.629 339.217C101.629 338.788 101.484 338.42 101.188 338.131C100.893 337.835 100.525 337.691 100.078 337.691C99.626 337.691 99.2581 337.835 98.9625 338.119C98.6729 338.402 98.5221 338.746 98.5221 339.15L98.5282 339.156ZM98.1421 343.572C98.1421 343.91 98.2205 344.229 98.3774 344.543C98.5342 344.857 98.7695 345.098 99.0831 345.267C99.3968 345.436 99.7346 345.526 100.09 345.526C100.657 345.526 101.116 345.345 101.478 344.989C101.84 344.627 102.021 344.169 102.021 343.614C102.021 343.047 101.834 342.583 101.466 342.215C101.092 341.847 100.621 341.66 100.054 341.66C99.4993 341.66 99.0409 341.841 98.685 342.209C98.3231 342.571 98.1421 343.029 98.1421 343.578V343.572Z" fill="#C5C6C6"/>
<path fill-rule="evenodd" clip-rule="evenodd" d="M56.3156 366.253C49.5476 368.068 43.9981 369.208 37.0853 370.342L50.9712 346.292C52.7567 352.946 54.5362 359.599 56.3217 366.253H56.3156ZM46.2239 363.043L47.3459 362.953C47.4424 363.484 47.6234 363.864 47.8948 364.099C48.1663 364.334 48.5101 364.455 48.9324 364.455C49.2943 364.455 49.6079 364.371 49.8794 364.208C50.1508 364.045 50.374 363.822 50.5429 363.544C50.7118 363.267 50.8566 362.893 50.9772 362.428C51.0979 361.958 51.1522 361.481 51.1522 360.993C51.1522 360.944 51.1522 360.86 51.1461 360.757C50.9109 361.131 50.5912 361.433 50.187 361.668C49.7829 361.903 49.3425 362.018 48.872 362.018C48.0818 362.018 47.4183 361.734 46.8694 361.155C46.3265 360.582 46.049 359.828 46.049 358.893C46.049 357.922 46.3325 357.144 46.9056 356.553C47.4726 355.962 48.1904 355.666 49.047 355.666C49.6622 355.666 50.2293 355.835 50.748 356.167C51.2607 356.499 51.6528 356.975 51.9182 357.596C52.1837 358.212 52.3164 359.111 52.3164 360.281C52.3164 361.499 52.1837 362.47 51.9182 363.194C51.6528 363.918 51.2607 364.467 50.7359 364.847C50.2112 365.227 49.6019 365.414 48.9022 365.414C48.1542 365.414 47.545 365.209 47.0745 364.793C46.604 364.377 46.3205 363.791 46.2239 363.043ZM51.0134 358.833C51.0134 358.163 50.8385 357.627 50.4826 357.235C50.1267 356.842 49.6984 356.643 49.1917 356.643C48.6669 356.643 48.2145 356.855 47.8345 357.277C47.4485 357.699 47.2615 358.254 47.2615 358.93C47.2615 359.539 47.4424 360.027 47.8044 360.407C48.1663 360.787 48.6247 360.974 49.1616 360.974C49.7045 360.974 50.1508 360.787 50.4947 360.407C50.8445 360.027 51.0195 359.503 51.0195 358.833H51.0134Z" fill="#C5C6C6"/>
<path fill-rule="evenodd" clip-rule="evenodd" d="M218.621 5.9859V20.9817L197.955 0.315735H212.951C216.076 0.315735 218.621 2.86128 218.621 5.9859ZM213.379 12.6815H212.209V5.20776C211.925 5.4792 211.557 5.74462 211.099 6.01606C210.641 6.28751 210.23 6.48656 209.862 6.61927V5.48524C210.52 5.1776 211.093 4.80361 211.582 4.36327C212.07 3.92293 212.42 3.50068 212.625 3.0905H213.379V12.6755V12.6815Z" fill="#C5C6C6"/>
</g>
<defs>
<clipPath id="clip0_9_27">
<rect width="219.061" height="373.873" fill="white"/>
</clipPath>
</defs>
</svg>
