<?xml version="1.0" encoding="UTF-8"?>
<!-- Generator: Adobe Illustrator 16.0.0, SVG Export Plug-In . SVG Version: 6.00 Build 0)  -->
<!DOCTYPE svg PUBLIC "-//W3C//DTD SVG 1.1//EN" "http://www.w3.org/Graphics/SVG/1.1/DTD/svg11.dtd">
<svg version="1.1" id="Layer_1" xmlns="http://www.w3.org/2000/svg" xmlns:xlink="http://www.w3.org/1999/xlink" x="0px" y="0px" width="244.999px" height="412.42px" viewBox="0 0 244.999 412.42" enable-background="new 0 0 244.999 412.42" xml:space="preserve">
<g>
	<path fill-rule="evenodd" clip-rule="evenodd" fill="#AFB734" d="M172.658,0h63.185c5.045,0,9.156,4.151,9.156,9.248v73.236v73.093   c0,5.154-4.195,9.391-9.298,9.391h-63.042h-0.255l-0.227,0.028h-0.227l-0.255,0.029l-0.227,0.029l-0.227,0.028l-0.227,0.029   l-0.227,0.057l-0.227,0.057l-0.227,0.058l-0.227,0.057l-0.227,0.057l-0.198,0.086l-0.227,0.057l-0.198,0.086l-0.227,0.086   l-0.198,0.086l-0.198,0.115l-0.227,0.085l0,0l-0.198,0.115l0,0l-0.17,0.115l-0.199,0.114l-0.198,0.115l-0.199,0.143l0,0   l-0.17,0.114l-0.198,0.144l0,0l-0.17,0.143l-0.17,0.114l-0.17,0.172l-0.17,0.143l-0.17,0.143l0,0l-0.142,0.172l0,0l-0.17,0.143   l-0.142,0.172l-0.142,0.172l-0.17,0.172l0,0l-0.142,0.172l-0.113,0.172l-0.142,0.2l0,0l-0.113,0.172h-0.028l-0.114,0.2l0,0   l-0.113,0.201l0,0l-0.113,0.2l0,0l-0.113,0.172l-0.114,0.2l0,0l-0.085,0.229l-0.113,0.201l0,0l-0.085,0.2l-0.085,0.229l0,0   l-0.085,0.201l0,0l-0.057,0.229l0,0l-0.085,0.2l0,0l-0.057,0.229l0,0l-0.057,0.229l-0.057,0.229l0,0l-0.057,0.229l0,0l-0.057,0.229   l0,0l-0.028,0.229l0,0l-0.028,0.229l0,0l-0.028,0.229l0,0l-0.028,0.258l0,0v0.229l0,0l-0.028,0.229l0,0v0.257l0,0v63.674l0,0v0.229   l0,0l0.028,0.258l0,0v0.229l0,0l0.028,0.229l0,0l0.028,0.229l0,0l0.028,0.257l0,0l0.028,0.229l0,0l0.057,0.229l0,0l0.057,0.229l0,0   l0.057,0.229l0.057,0.2l0,0l0.057,0.229l0,0l0.085,0.229l0,0l0.057,0.201l0,0l0.085,0.229l0,0l0.085,0.2l0.085,0.229l0,0   l0.113,0.201l0.085,0.2l0,0l0.114,0.201l0.113,0.2l0,0l0.113,0.2l0,0l0.113,0.172l0,0l0.114,0.201h0.028l0.113,0.2l0,0l0.142,0.172   l0.113,0.172l0.142,0.172l0,0l0.17,0.171l0.142,0.172l0.142,0.172l0.17,0.172l0.142,0.143l0,0l0.17,0.172l0.17,0.143l0.17,0.143   l0.17,0.143l0.17,0.144l0,0l0.198,0.114l0.17,0.143l0,0l0.199,0.115l0.198,0.143l0.199,0.115l0.17,0.086l0,0l0.198,0.114l0,0   l0.227,0.114l0.198,0.086l0.198,0.086l0.227,0.086l0.198,0.086l0.227,0.086l0.198,0.057l0.227,0.086l0.227,0.057l0.227,0.058   l0.227,0.057l0.227,0.029l0.227,0.028l0.227,0.058l0.227,0.028h0.255l0.227,0.029h0.227h0.255h63.042   c5.103,0,9.298,4.237,9.298,9.419v73.064v73.265c0,5.068-4.11,9.22-9.156,9.22h-63.185c-5.131,0-9.326-4.209-9.326-9.391v-63.675   c0-5.182-4.195-9.419-9.298-9.419H90.992c-5.131,0-9.326,4.237-9.326,9.419v63.846c0,5.068-4.11,9.22-9.156,9.22H9.326   C4.195,412.42,0,408.211,0,403.03v-73.094v-73.064c0-5.182,4.195-9.419,9.326-9.419h63.042c5.102,0,9.297-4.237,9.297-9.391   v-63.674c0-5.182-4.195-9.419-9.297-9.419H9.326c-5.131,0-9.326-4.237-9.326-9.391V82.484V9.419C0,4.237,4.195,0,9.326,0H72.51   c5.046,0,9.156,4.151,9.156,9.248v63.846c0,5.153,4.195,9.391,9.326,9.391h63.042c5.103,0,9.298-4.237,9.298-9.391V9.419   C163.333,4.237,167.527,0,172.658,0L172.658,0z"/>
	<path fill-rule="evenodd" clip-rule="evenodd" fill="#AFB734" d="M154.035,82.484H90.992c-5.131,0-9.326-4.237-9.326-9.391V9.248   C81.666,4.151,77.556,0,72.51,0H9.326C4.195,0,0,4.237,0,9.419v73.064h72.369c5.102,0,9.297,4.237,9.297,9.419v73.065h81.667   V82.484l0,0h81.666V9.248c0-5.096-4.11-9.248-9.156-9.248h-63.185c-5.131,0-9.326,4.237-9.326,9.419v63.674   C163.333,78.247,159.137,82.484,154.035,82.484L154.035,82.484z"/>
	<path fill-rule="evenodd" clip-rule="evenodd" fill="#48567B" d="M235.701,247.452h-63.042h-0.255h-0.227l-0.227-0.029h-0.255   l-0.227-0.028l-0.227-0.058l-0.227-0.028l-0.227-0.029l-0.227-0.057l-0.227-0.058l-0.227-0.057l-0.227-0.086l-0.198-0.057   l-0.227-0.086l-0.198-0.086l-0.227-0.086l-0.198-0.086l-0.198-0.086l-0.227-0.114l0,0l-0.198-0.114l0,0l-0.17-0.086l-0.199-0.115   l-0.198-0.143l-0.199-0.115l0,0l-0.17-0.143l-0.198-0.114l0,0l-0.17-0.144l-0.17-0.143l-0.17-0.143l-0.17-0.143l-0.17-0.172l0,0   l-0.142-0.143l-0.17-0.172l-0.142-0.172l-0.142-0.172l-0.17-0.171l0,0l-0.142-0.172l-0.113-0.172l-0.142-0.172l0,0l-0.113-0.2   h-0.028l-0.114-0.201l0,0l-0.113-0.172l0,0l-0.113-0.2l0,0l-0.113-0.2l-0.114-0.201l0,0l-0.085-0.2l-0.113-0.201l0,0l-0.085-0.229   l-0.085-0.2l0,0l-0.085-0.229l0,0l-0.057-0.201l0,0l-0.085-0.229l0,0l-0.057-0.229l0,0l-0.057-0.2l-0.057-0.229l0,0l-0.057-0.229   l0,0l-0.057-0.229l0,0l-0.028-0.229l0,0l-0.028-0.257l0,0l-0.028-0.229l0,0l-0.028-0.229l0,0v-0.229l0,0l-0.028-0.258l0,0v-0.229   l0,0v-63.674l0,0v-0.257l0,0l0.028-0.229l0,0v-0.229l0,0l0.028-0.258l0,0l0.028-0.229l0,0l0.028-0.229l0,0l0.028-0.229l0,0   l0.057-0.229l0,0l0.057-0.229l0,0l0.057-0.229l0.057-0.229l0,0l0.057-0.229l0,0l0.085-0.2l0,0l0.057-0.229l0,0l0.085-0.201l0,0   l0.085-0.229l0.085-0.2l0,0l0.113-0.201l0.085-0.229l0,0l0.114-0.2l0.113-0.172l0,0l0.113-0.2l0,0l0.113-0.201l0,0l0.114-0.2h0.028   l0.113-0.172l0,0l0.142-0.2l0.113-0.172l0.142-0.172l0,0l0.17-0.172l0.142-0.172l0.142-0.172l0.17-0.143l0,0l0.142-0.172l0,0   l0.17-0.143l0.17-0.143l0.17-0.172l0.17-0.114l0.17-0.143l0,0l0.198-0.144l0.17-0.114l0,0l0.199-0.143l0.198-0.115l0.199-0.114   l0.17-0.115l0,0l0.198-0.115l0,0l0.227-0.085l0.198-0.115l0.198-0.086l0.227-0.086l0.198-0.086l0.227-0.057l0.198-0.086   l0.227-0.057l0.227-0.057l0.227-0.058l0.227-0.057l0.227-0.057l0.227-0.029l0.227-0.028l0.227-0.029l0.255-0.029h0.227l0.227-0.028   h0.255h63.042c5.103,0,9.298-4.237,9.298-9.391V82.484h-81.666v82.484H81.666V82.484H0v73.093c0,5.154,4.195,9.391,9.326,9.391   h63.042c5.102,0,9.297,4.237,9.297,9.419v63.674c0,5.153-4.195,9.391-9.297,9.391H9.326c-5.131,0-9.326,4.237-9.326,9.419v73.064   h81.666v-82.484h81.667v82.484h81.666v-73.064C244.999,251.689,240.803,247.452,235.701,247.452L235.701,247.452z"/>
	<path fill-rule="evenodd" clip-rule="evenodd" fill="#AFB734" d="M154.035,329.936H90.992c-5.131,0-9.326,4.237-9.326,9.419v63.846   c0,5.068-4.11,9.22-9.156,9.22H9.326C4.195,412.42,0,408.211,0,403.03v-73.094h81.666v-82.484h81.667v82.484l0,0h81.666v73.265   c0,5.068-4.11,9.22-9.156,9.22h-63.185c-5.131,0-9.326-4.209-9.326-9.391v-63.675C163.333,334.173,159.137,329.936,154.035,329.936   L154.035,329.936z"/>
</g>
</svg>