<?xml version="1.0" encoding="utf-8"?>
<!-- Generator: Adobe Illustrator 16.0.0, SVG Export Plug-In . SVG Version: 6.00 Build 0)  -->
<!DOCTYPE svg PUBLIC "-//W3C//DTD SVG 1.1//EN" "http://www.w3.org/Graphics/SVG/1.1/DTD/svg11.dtd">
<svg version="1.1" id="Layer_1" xmlns="http://www.w3.org/2000/svg" xmlns:xlink="http://www.w3.org/1999/xlink" x="0px" y="0px"
	 width="244.998px" height="329.936px" viewBox="0 0 244.998 329.936" enable-background="new 0 0 244.998 329.936"
	 xml:space="preserve">
<g>
	<path fill-rule="evenodd" clip-rule="evenodd" fill="#5CB300" d="M235.701,247.451h-63.043c-5.131,0-9.326,4.238-9.326,9.42v-9.42
		l0,0v73.094c0,5.154-4.195,9.391-9.297,9.391H90.992c-5.131,0-9.326-4.236-9.326-9.391v-63.73
		c-0.027-5.154-4.195-9.363-9.297-9.363H9.156c-5.045,0-9.156-4.15-9.156-9.246v-73.237l0,0V82.484V9.419C0,4.237,4.195,0,9.326,0
		h63.043c5.102,0,9.297,4.237,9.297,9.419v73.064v73.093c0,5.154,4.195,9.391,9.326,9.391h-9.326l0,0l0,0v82.483l0,0v-82.483h81.666
		l0,0h-9.297c5.102,0,9.297-4.236,9.297-9.391V82.484V9.419c0-5.182,4.195-9.419,9.326-9.419h63.043
		c5.131,0,9.297,4.237,9.297,9.419v73.064v82.484v73.093C244.998,243.215,240.832,247.451,235.701,247.451L235.701,247.451z"/>
	<path fill-rule="evenodd" clip-rule="evenodd" fill="#5CB300" d="M235.701,247.451h-63.043c-5.131,0-9.326,4.238-9.326,9.42v-9.42
		v-82.483h81.666v73.093C244.998,243.215,240.832,247.451,235.701,247.451L235.701,247.451z M72.369,247.451
		c5.102,0,9.27,4.209,9.297,9.363v63.73c0,5.154,4.195,9.391,9.326,9.391h63.043c5.102,0,9.297-4.236,9.297-9.391v-73.094H81.666
		l0,0v-82.483H0v73.237c0,5.096,4.11,9.246,9.156,9.246H72.369z"/>
	<path fill-rule="evenodd" clip-rule="evenodd" fill="#CED662" d="M163.332,82.484h81.666v82.484h-81.666v82.483H81.666v-82.483
		h81.666l0,0h-9.297c5.102,0,9.297-4.236,9.297-9.391V82.484z M90.992,164.968h-9.326l0,0H0V82.484h81.666v73.093
		C81.666,160.731,85.861,164.968,90.992,164.968L90.992,164.968z"/>
	<path fill-rule="evenodd" clip-rule="evenodd" fill="#5CB300" d="M244.998,9.419v73.064h-81.666V9.419
		c0-5.182,4.195-9.419,9.326-9.419h63.043C240.832,0,244.998,4.237,244.998,9.419L244.998,9.419z"/>
	<path fill-rule="evenodd" clip-rule="evenodd" fill="#5CB300" d="M81.666,9.419v73.064H0V9.419C0,4.237,4.195,0,9.326,0h63.043
		C77.471,0,81.666,4.237,81.666,9.419L81.666,9.419z"/>
</g>
</svg>
