<svg xmlns="http://www.w3.org/2000/svg" xmlns:xlink="http://www.w3.org/1999/xlink" version="1.1" id="Layer_1" x="0px" y="0px" width="244.63px" height="329.45px" viewBox="0 0 244.63 329.45" enable-background="new 0 0 244.63 329.45" xml:space="preserve">
<g>
	<path fill-rule="evenodd" clip-rule="evenodd" fill="#FFC1B9" d="M9.297,329.45h72.255v-82.37H0v72.979   C0,325.212,4.195,329.45,9.297,329.45L9.297,329.45z"/>
	<rect x="81.553" fill-rule="evenodd" clip-rule="evenodd" fill="#FFC1B9" width="81.524" height="82.37"/>
	<path fill-rule="evenodd" clip-rule="evenodd" fill="#FFC1B9" d="M163.077,164.71H81.553v82.369h81.524v82.37h72.255   c5.103,0,9.298-4.237,9.298-9.391V256.47c0-5.153-4.195-9.391-9.298-9.391h-62.958c-5.102,0-9.297-4.237-9.297-9.391v-63.588   c0-5.153,4.195-9.391,9.297-9.391H163.077L163.077,164.71V82.37h81.553v72.95c0,5.182-4.195,9.391-9.298,9.391H163.077z"/>
	<rect x="81.553" y="247.08" fill-rule="evenodd" clip-rule="evenodd" fill="#6C93E7" width="81.524" height="82.37"/>
	<path fill-rule="evenodd" clip-rule="evenodd" fill="#6C93E7" d="M235.332,0h-72.255v82.37h81.553V9.391   C244.63,4.237,240.435,0,235.332,0L235.332,0z"/>
	<path fill-rule="evenodd" clip-rule="evenodd" fill="#6C93E7" d="M9.297,164.71h62.958c5.103,0,9.298-4.208,9.298-9.391V91.76   c0-5.182-4.195-9.391-9.298-9.391H9.297C4.195,82.37,0,78.132,0,72.979V9.391C0,4.237,4.195,0,9.297,0h72.255v82.37h81.524v82.341   H81.553l0,0v82.369H0v-72.979C0,168.948,4.195,164.71,9.297,164.71L9.297,164.71z"/>
</g>
<deepl-alert xmlns=""/><deepl-alert xmlns=""/><deepl-alert xmlns=""/></svg>