<svg width="190" height="139" viewBox="0 0 190 139" fill="none" xmlns="http://www.w3.org/2000/svg">
<g clip-path="url(#clip0_21_8)">
<path fill-rule="evenodd" clip-rule="evenodd" d="M28.7043 84.5265C28.6564 84.5345 28.3692 84.6302 28.7043 84.5265ZM5.56056 52.7029C5.04998 52.6869 5.1138 52.6709 4.88244 52.3279C4.60322 51.9051 4.83457 52.0327 4.26815 51.8811C3.76554 52.3997 4.12455 52.1763 3.47036 52.5912C3.32676 52.4954 3.43845 52.5832 3.28687 52.4555C2.32953 51.6338 1.19668 52.4635 0.382935 52.2401C0.39889 51.2668 0.797783 51.4344 1.57961 51.4104C2.12211 51.3945 2.77629 51.1312 3.24698 51.195C3.47036 51.227 3.78948 51.3546 4.04477 51.3386C4.30006 51.3227 4.51546 51.219 4.8266 51.3307C4.98615 51.3865 5.03402 51.4424 5.13773 51.554C5.6882 52.1364 5.56056 52.2003 5.56056 52.7029ZM154.722 3.22423C154.962 3.32794 154.85 3.15243 154.922 3.46356C155.831 3.43963 155.401 2.79342 156.342 2.54611C157.028 2.36262 156.86 2.29082 157.81 1.69248C157.953 1.95575 158.424 2.41846 158.687 2.55409C159.054 2.73758 158.951 2.63387 159.27 2.49824C160.259 2.08339 161.256 1.69248 162.285 1.80417C162.82 1.86001 163.323 1.72439 163.801 1.8999C164.583 2.17913 164.28 2.01957 165.173 2.0435C165.772 2.05946 166.027 2.33869 166.538 2.26688C166.929 2.21104 167.311 1.94777 167.686 1.84406C168.588 1.59675 168.157 1.52494 168.7 1.14999C169.234 0.783005 169.266 1.27763 169.824 1.19785C170.359 1.12605 170.415 0.591536 170.981 0.79896C171.46 0.974473 171.508 1.29359 172.138 0.990429C172.689 0.719182 172.601 0.61547 173.43 0.631425C174.651 0.647381 174.117 0.424001 174.731 0.39209L175.92 0.751093C176.534 0.950539 176.51 1.02234 176.917 1.34145C176.917 2.17913 176.638 2.5142 176.239 2.89713C175.186 3.90234 175.433 3.39974 174.946 3.51941C174.691 3.58323 174.627 3.79065 174.412 4.03797C174.045 4.45282 173.542 4.4927 172.952 4.66822C170.223 5.466 172.21 5.27453 170.606 5.89681C169.92 6.16805 169.529 6.2239 169.106 6.47919C168.668 6.74246 167.032 7.22113 166.474 7.37271V7.72373C167 7.73969 167.144 7.9152 167.535 8.11465C168.644 8.68905 170.598 8.63321 171.149 8.78479C171.133 9.51875 170.997 9.34324 169.665 9.98147C169.641 9.98944 169.617 10.0054 169.593 10.0134C169.569 10.0214 169.545 10.0373 169.521 10.0453C168.708 10.4202 169.346 10.9069 169.434 10.9548C169.864 11.2021 169.944 10.8909 170.231 10.7553C170.686 10.5479 170.734 10.7952 171.069 10.6835C171.34 10.5958 171.372 10.4522 171.883 10.3564C172.322 10.2766 172.417 10.3484 172.736 10.4362V10.9069C171.811 11.1622 171.596 11.1702 171.404 11.8004C171.181 12.5344 171.109 12.9652 170.455 13.1487C170.455 13.9624 170.471 13.5954 170.75 14.098C171.308 14.098 171.627 13.9544 172.034 13.9863C172.641 14.0262 172.513 14.2257 173.175 13.9145C173.558 13.7311 173.758 13.5077 174.141 13.388C174.779 13.1886 174.356 13.6912 174.898 13.6672C174.938 13.6672 175.672 13.3561 175.959 13.3162C176.526 13.2205 176.462 13.396 177.013 13.2843C177.603 13.1646 177.459 13.029 177.946 12.7258L178.209 12.5663C178.935 12.0557 178.887 12.3589 179.262 12.7258C179.685 13.1327 180.028 13.396 180.595 13.396C180.595 12.9173 180.563 13.013 180.69 12.686C181.759 12.7179 181.217 13.4837 183.084 12.67C183.411 12.5264 183.467 12.5743 183.57 13.037C183.57 13.755 181.448 13.9784 181.081 13.9863C180.507 13.9943 180.076 14.2576 179.669 13.8986C179.438 13.6912 179.063 13.1567 178.792 13.045C178.281 13.5715 178.624 13.3003 178.369 13.9624C178.217 14.3613 178.409 14.098 178.058 14.3055L176.949 14.8799C176.59 15.0873 176.646 15.2867 176.502 15.6457C175.529 15.6457 175.6 15.6457 174.851 15.925L172.529 16.5632C172.306 16.8424 172.633 16.9302 172.505 17.3849C172.385 17.8237 172.298 17.6083 171.835 17.6562C171.34 17.712 171.588 17.72 171.229 18.0072C171.117 17.9354 171.109 17.9354 170.981 17.8317C170.55 17.4886 170.79 17.5445 170.335 17.5365C170.311 17.8955 170.239 18.1029 170.136 18.3662L171.667 18.43C172.066 18.4699 172.537 18.1667 172.736 18.5656C172.96 19.0044 172.768 18.7411 172.72 18.8289C172.545 19.6028 172.497 18.7651 172.322 19.5389C173.885 19.5389 174.292 18.6773 174.308 19.89C173.758 20.0415 173.375 20.0336 172.88 20.3208C172.585 20.4963 172.593 20.5441 172.234 20.6159C171.62 20.7356 171.707 20.5202 170.239 20.959L168.939 21.4217C168.604 21.7727 168.628 21.7488 168.133 21.8844C167.008 22.1956 166.761 22.5625 166.402 22.6742C166.075 22.7779 165.548 22.754 165.317 22.8019C164.671 22.9535 164.886 23.0492 164.479 23.2327C164.096 23.4082 163.873 23.2167 163.506 23.4959C163.123 23.7911 163.602 23.5757 163.179 23.8151C162.908 23.9746 161.974 24.0225 161.559 24.0225C161.312 24.2219 161.184 24.206 160.905 24.3097C160.427 24.4852 160.578 24.573 160.283 24.6448C158.632 25.0676 158.799 25.7617 158.512 25.9132C158.209 26.0728 158.472 25.7138 158.025 25.8494C157.658 25.9611 157.85 25.9771 157.69 26.3919C158.209 26.5355 158.64 26.5196 159.286 26.5196C160.187 26.5116 159.956 26.1765 160.674 26.1605C161.248 25.8335 162.118 25.9691 162.636 25.5303C162.956 25.259 162.94 25.0277 163.53 25.1154C164.144 25.2112 165.006 25.4027 165.564 24.9878C166.266 24.4772 166.29 24.8681 166.905 24.573C167.264 24.3974 167.056 24.4453 167.272 24.2937C167.583 24.0783 167.798 24.2698 168.237 24.2698C168.46 23.2885 168.604 24.214 170.032 23.9188C170.822 23.7512 171.34 23.7672 171.723 23.0891C172.377 23.2726 172.186 23.5997 172.848 23.0093C173.415 22.4987 173.901 22.7141 174.563 22.9136C176.063 23.3843 175.241 23.2646 176.303 23.129C176.669 23.0811 176.35 23.2646 176.861 23.0412C177.092 22.9375 177.172 22.7859 177.435 22.9295C177.922 23.1928 177.651 23.7672 177.284 23.8948L176.095 24.3735C175.457 24.4852 175.321 24.3256 175.018 24.8602C175.138 25.3947 175.361 25.4425 175.816 25.5702C175.959 25.2511 176.007 24.9718 176.215 24.7405C176.733 25.0676 176.574 25.3149 176.909 25.9212C177.619 25.9212 177.467 25.7138 178.002 25.5702C178.353 25.8494 178.584 26.1446 179.079 25.9212C179.342 25.8015 179.956 25.2032 179.98 25.9132C179.996 26.2882 179.805 26.3121 179.597 26.3999C178.768 26.7589 177.547 27.5487 176.701 27.5726C175.616 27.6045 176.247 27.8917 175.6 28.0433C175.305 28.1151 174.46 28.0433 174.109 28.0433C173.191 28.0513 173.582 28.2428 173.319 28.881C171.213 28.881 171.452 29.5352 171.332 30.1814C170.702 30.1814 170.207 29.7905 169.641 29.942C169.657 30.9951 170.535 30.8595 171.221 30.7638C172.353 30.6122 172.25 30.1814 173.119 30.1814C173.303 30.7797 173.75 30.4287 174.164 30.3409C174.643 30.2372 174.691 30.684 175.138 30.8675C175.497 31.0191 175.832 30.8834 176.358 30.8435C176.773 30.8116 177.148 31.0111 177.579 30.9712C178.385 30.8914 177.914 30.9473 178.592 31.3701C179.837 32.1439 180.116 33.1252 178.576 33.9549C178.09 34.2182 177.826 34.1145 177.372 34.29C176.829 34.5054 176.989 34.6171 176.215 34.6809C175.72 34.7208 175.353 34.8883 175.042 34.8564C174.316 34.7846 174.691 34.7926 174.117 35.1436C173.351 35.6143 171.253 35.8776 170.239 35.8616C169.593 35.8536 169.569 35.9334 169.043 36.1009C169.306 36.5238 169.202 36.2765 169.737 36.3403C170.223 36.4041 170.367 36.8429 170.83 37.0583C171.276 37.2737 171.436 37.5848 171.931 37.7603C172.704 38.0396 173.51 37.872 173.526 38.8214C172.569 39.0847 171.492 39.0288 170.558 39.5554C169.952 39.9064 169.25 39.5554 169.043 40.2415C169.952 40.2415 170.702 40.0021 171.532 40.0021C171.699 40.2973 171.763 40.5287 171.931 40.8318C172.417 40.8318 172.992 40.7042 173.223 40.8318C173.51 41.5498 173.024 42.0285 172.561 42.2918C172.074 42.579 171.731 42.8103 171.261 43.1135L168.341 44.4936C168.396 45.2914 168.644 45.2994 169.338 45.3233C170.16 45.3473 169.912 45.7222 170.63 45.802C171.324 45.8738 172.25 45.7382 172.792 45.2914C172.984 45.1319 172.848 45.2196 173.032 45.1079C173.079 45.076 173.247 45.0042 173.311 44.9723C173.71 45.2835 173.726 45.5467 174.316 45.3473C174.811 45.1797 174.946 45.092 175.457 45.3872C176.247 45.8419 176.47 45.3473 177.818 45.5387C178.568 45.6425 178.337 45.2436 179.015 45.6345C179.526 45.9376 180.674 46.2408 180.515 47.1503C180.283 48.4905 178.512 48.5863 178.257 48.7299C177.858 48.9373 178.321 48.7857 177.842 49.0729L176.063 49.5596C175.353 49.6952 175.569 49.6952 174.914 49.9665C174.117 50.3015 173.638 50.2776 173.071 51.0833C172.617 51.7296 172.218 51.5142 172.218 52.5513C172.784 52.8784 174.204 52.5832 174.404 53.5006C173.981 53.7639 171.468 54.5617 170.909 54.6654L169.824 55.0324C170.447 56.0376 172.226 53.6682 172.609 55.6228C172.928 55.6228 174.101 55.6148 174.204 55.7424C174.691 56.3248 173.351 57.3539 172.976 57.6013C172.361 58.0001 171.699 58.4708 171.045 58.7341C170.279 59.0453 169.801 59.484 168.955 59.6835C167.862 59.9388 167.591 60.4174 165.939 60.7126C165.477 60.8004 165.564 60.8961 165.285 60.9679C164.958 61.0557 164.998 60.8243 164.599 60.8961C164.104 60.9759 164.36 61.0557 163.953 61.1833C164.08 61.7657 164.695 61.8375 165.205 61.7338C165.58 61.662 166.306 61.5264 166.625 61.3987C167.24 61.1594 167.088 60.6807 167.655 60.8163C168.38 60.9918 168.109 60.8802 168.7 60.4254C169.362 59.9148 169.354 60.0425 169.952 60.1941C170.319 60.2898 171.939 60.3536 172.274 60.1781L172.545 60.0345C173.51 59.6835 173.247 59.3963 174.101 59.6356V60.3456L172.537 61.3269C172.106 61.5104 171.54 61.5184 171.205 61.8774C171.029 62.0689 171.085 61.9173 171.013 62.2364C171.308 62.755 171.412 62.5874 172.106 62.5874C172.138 62.1885 172.178 62.1566 172.306 61.8774C173.111 61.8774 173.032 62.0928 173.303 62.7071C174.691 62.7071 174.021 61.5742 175.289 62.5874C176.007 62.1327 176.717 61.3508 176.965 61.4306C177.587 61.6301 176.781 62.2284 176.55 62.4358L173.853 64.4383C173.191 64.7893 172.952 64.3904 172.513 64.6138C171.532 65.1244 173.016 65.4355 170.008 65.4275C169.434 65.8663 169.21 64.9808 169.21 66.8476C169.585 66.9513 169.633 67.1906 170.048 67.0231C170.407 66.8795 170.176 66.7199 170.742 66.7917C171.444 66.8795 171.883 66.7279 172.593 66.7279C172.792 66.3689 172.8 65.8105 173.789 65.7786C173.845 66.0578 173.885 66.1296 173.885 66.4886C175.249 66.4886 174.244 67.1428 175.321 66.7917C176.35 66.4567 176.454 66.3609 176.47 67.1986C175.959 67.3422 175.736 67.3422 175.098 67.2784C174.34 67.1986 174.851 67.5417 173.941 67.3661C173.438 67.2704 173.032 67.3901 172.633 67.3821C172.17 67.3741 172.01 67.5417 171.396 67.5496L170.128 67.6135C169.617 67.6613 169.537 67.8767 168.963 67.8368C168.747 67.8209 168.532 67.8209 168.373 67.8368C167.136 67.9645 168.396 68.0762 166.617 67.9007C165.86 67.9007 165.58 67.6693 165.126 67.5496C164.886 67.9725 164.79 68.3235 164.232 68.3793C164.12 69.9589 163.618 69.4563 163.434 70.2701C164.671 70.2701 164.447 70.3259 165.461 69.951C165.995 69.7515 165.78 70.0148 166.37 69.8632C166.841 69.7435 166.825 69.5122 167.311 69.7914C167.296 70.6371 166.984 70.2781 166.514 70.2781C166.234 70.2781 165.341 70.8126 165.038 70.9961C164.495 71.3311 164.025 71.395 163.506 71.371C162.828 71.3391 163.179 71.73 162.533 71.8098C161.942 71.8816 161.871 71.6263 161.384 71.8497C161.113 71.9694 160.227 72.831 159.645 72.9905C159.389 72.7911 159.334 72.7911 159.246 72.4002C158.831 72.4401 158.831 72.5517 158.648 72.8709C159.03 73.0384 158.711 72.9267 158.911 73.0304C159.022 73.0942 159.062 73.1102 159.198 73.1581C160.546 73.6447 160.482 73.2139 160.833 72.9905C161.4 72.6315 161.711 72.9506 161.926 73.1102C162.541 73.5809 161.926 73.2059 162.924 73.1022C163.522 73.0384 163.69 73.2937 164.208 73.2299C164.782 73.166 165.429 71.9375 166.179 72.7671C166.426 73.0384 166.697 73.2857 166.793 73.6926C167.694 73.6926 167.16 73.4213 167.79 73.2219C168.341 73.2777 168.085 73.541 168.708 73.6766C169.13 73.7644 171.061 73.2618 170.263 74.251C170.016 74.5622 168.213 74.634 168.117 74.618C167.99 74.5941 167.846 74.4983 167.655 74.4664C167.112 74.3787 167.678 74.4824 167.176 74.5143C166.418 74.5622 166.29 73.6527 165.804 73.2299C165.349 73.5171 165.548 73.3575 165.349 73.9878C165.094 74.8175 164.4 74.7377 163.969 74.9531C163.642 75.1126 163.737 75.336 163.394 75.4477C163.219 75.5036 162.636 75.5036 162.381 75.5434C161.017 75.7748 160.897 75.6073 159.637 75.9503C159.764 76.5965 159.78 76.4689 159.541 77.0193C159.038 77.0034 159.15 76.8598 158.592 76.9475C157.937 77.0592 158.265 77.0193 157.778 76.8598C157.259 76.6923 157.594 76.9156 157.068 76.9555L156.366 77.131C157.012 78.2798 158.624 76.8997 159.549 77.8411C160.714 79.4526 160.331 77.8411 161.735 77.8411C161.863 78.5032 161.775 78.4394 161.416 78.7585C160.562 79.5084 161.727 79.2691 160.076 79.5324C159.661 79.5962 159.23 79.7956 158.687 79.8994C158.161 79.9951 157.898 79.7398 157.307 79.8994L155.983 80.3381C155.752 80.4259 155.64 80.4977 155.361 80.5456C153.582 80.8647 154.419 81.0402 153.55 81.3433C152.983 81.5428 152.824 81.5189 152.393 81.8619V82.5719C152.959 82.6278 152.529 82.7953 153.286 82.8192L154.611 82.7714C155.233 82.7873 155.273 82.0374 155.584 82.6836C156.294 82.7076 155.879 82.8831 156.637 82.6437C157.084 82.5001 157.403 82.6278 157.85 82.532L158.871 82.4363C159.701 82.4602 159.485 81.7422 160.794 82.2767C161.153 82.4203 161.456 82.532 161.767 82.6677C162.485 82.9868 163.019 82.7953 163.745 82.7953C164.152 83.5213 164.695 83.5931 164.822 84.3111L164.639 84.5744C163.889 84.335 164.136 83.6569 163.091 83.9042C162.636 84.0159 162.684 84.0638 162.15 84.0957C161.504 84.1356 161.727 84.2074 161.256 84.335C161.28 84.6541 161.304 84.6541 161.36 84.9254C162.597 85.2684 161.783 84.5983 162.756 84.5664C162.932 84.9653 162.86 84.8057 162.916 85.1807L163.147 85.7471C163.61 85.7471 163.769 85.5636 164.128 85.6354C164.479 85.6992 164.447 85.8748 164.735 86.1061C164.934 86.0503 165.62 85.771 165.74 85.803C166.179 85.9306 165.875 86.4252 165.612 86.5609L164.128 87.0475C164.096 87.0635 163.945 87.1353 163.921 87.1512C163.442 87.4384 163.466 87.6299 162.668 87.4863C162.118 87.3906 162.293 87.3507 161.807 87.7017C161.105 88.2123 160.977 88.4915 160.458 88.9383C160.562 89.385 160.722 89.2414 160.538 89.7281L160.06 90.3583C159.509 90.1828 159.78 89.7759 158.911 89.9275L157.571 90.2386C157.586 91.0364 157.93 90.8928 157.674 91.539C157.196 91.3875 157.563 91.3396 157.076 91.18C156.837 91.3715 156.892 91.4114 156.605 91.563C156.43 91.6587 156.478 91.6108 156.31 91.6906C155.608 92.0257 155.496 91.898 155.289 92.2411C155.416 92.8155 155.744 92.7836 156.15 92.991C156.765 93.3021 157.658 93.2623 157.977 93.7808C157.81 94.5307 156.725 94.6504 156.19 94.9695C156.119 95.0094 155.831 95.2408 155.775 95.3205C155.688 95.4482 155.584 95.7194 155.648 95.879C155.799 96.222 156.214 95.8152 156.685 95.7992C156.924 97.0198 157.499 96.2141 157.93 96.4454C158.663 96.8443 157.722 98.1128 157.371 98.5117C156.533 99.461 155.656 100.355 154.698 101.128C154.411 101.36 154.355 101.328 154.028 101.519C153.286 101.958 153.382 102.357 152.225 102.692C150.446 103.211 150.67 104.024 150.031 104.694C149.928 104.806 149.872 104.822 149.736 104.942L149.449 105.181C148.739 105.508 148.46 104.312 147.622 105.859C147.399 106.266 146.88 106.705 146.441 106.689C145.739 106.665 145.604 106.521 144.87 106.96C143.075 108.045 143.737 108.859 142.819 108.851C141.918 108.843 141.559 109.497 140.817 109.84C140.314 110.072 140.067 110.47 139.588 110.742C139.277 110.925 139.301 110.877 139.006 111.109C138.783 111.284 138.607 111.42 138.368 111.539C138.128 111.659 137.921 111.667 137.682 111.787C137.243 112.002 137.506 111.954 137.115 112.297C136.533 112.816 135.895 113.119 135.248 113.51C134.052 114.244 134.323 113.885 133.916 113.638C133.326 113.287 132.847 113.765 132.432 113.949C131.89 114.188 132.121 114.204 131.81 114.396C131.435 114.627 131.18 114.364 130.741 114.89C130.478 115.209 130.589 114.89 130.103 115.074C130.031 115.098 128.667 115.887 127.997 116.007C127.638 116.071 127.526 115.983 127.199 116.119C126.696 116.318 126.345 116.55 125.739 116.629C123.904 116.877 123.441 117.124 121.806 117.627C121.487 117.73 121.367 117.698 121.072 117.818C120.872 117.898 120.585 118.065 120.362 118.161L116.748 119.549C116.253 119.773 115.743 119.86 115.28 120.06C114.817 120.259 114.347 120.395 113.82 120.57C113.66 120.618 113.644 120.642 113.437 120.714L107.972 122.732C106.935 123.091 106.042 123.514 105.02 123.833L102.787 124.615C102.475 124.727 102.38 124.751 102.093 124.855L98.3749 126.115C97.8563 126.314 97.2739 126.299 96.8272 126.53L89.3998 129.059C89.0966 129.163 88.8972 129.139 88.5461 129.226L86.2326 129.905C86.0251 129.968 85.7619 130.08 85.5465 130.152C85.012 130.335 84.5094 130.335 83.9988 130.559L82.3872 131.013C81.9804 131.109 81.9325 131.085 81.5735 131.229C80.2891 131.731 78.7892 131.739 77.6803 132.162L75.3348 132.8C74.7604 132.968 71.7767 133.71 71.3858 133.55C71.1943 133.885 71.5852 133.718 70.8912 133.798L66.7108 134.611C66.1364 134.635 66.2481 134.627 65.7694 134.795C64.2536 135.337 63.5356 135.122 62.9851 135.266C61.7087 135.601 61.6847 135.258 61.0704 135.585C60.7513 135.76 60.6636 135.864 60.2407 135.904C58.5016 136.055 58.9723 135.888 57.4006 136.43C57.0576 136.55 56.9698 136.654 56.6667 136.742C56.1242 136.127 56.555 136.271 55.47 136.271C54.8796 137.587 54.0579 136.797 53.675 136.742C52.6857 136.598 52.3826 137.013 51.4731 137.324C50.1647 137.771 50.5157 137.436 50.069 137.372C49.5983 137.308 49.5504 137.874 48.3697 137.252L46.6704 137.164C45.1626 137.515 46.2316 137.101 44.3888 137.428C43.232 137.635 43.2798 136.805 43.9101 136.726C44.6999 136.622 44.4286 137.037 45.4498 136.67L46.8539 136.207C47.4203 136.063 47.899 136.103 48.3936 135.904C48.7686 135.752 48.6569 135.649 48.992 135.617C50.2046 135.489 49.3749 135.561 50.1567 135.042C52.0475 133.782 49.4627 133.989 48.6888 134.005C48.1703 134.013 48.2101 133.909 48.1064 134.372C47.8671 134.221 47.6836 134.165 47.6118 133.901C47.1571 133.734 46.9656 133.59 46.6066 133.439C44.8914 132.697 44.8275 133.822 43.6628 133.518C42.5937 133.239 42.865 133.79 41.5407 133.782C40.352 133.774 40.8705 134.5 39.7536 134.5C39.6499 134.037 39.6898 134.244 39.4026 133.965C38.166 132.808 38.8521 134.061 37.8948 133.646C36.1556 132.88 35.7727 134.396 35.7727 132.84C36.4029 132.338 37.3124 132.354 38.0623 132.609C38.6128 132.8 38.8362 132.41 39.251 132.729C39.4106 132.856 39.3627 132.928 39.602 133.159C40.1764 133.71 40.1924 132.904 40.2802 132.633C40.5434 131.819 41.421 131.7 41.8199 131.508C42.873 131.013 42.123 130.886 43.0804 131.013C43.3995 131.053 43.5112 131.021 43.7027 130.798L44.1335 130.24C44.4526 130.439 44.4925 130.607 44.9312 130.607C45.394 130.607 45.3461 130.463 45.7211 130.359C46.0003 129.889 46.1917 129.944 46.3194 129.29C45.4977 129.37 45.1786 129.601 45.4179 128.357L45.035 128.221L44.6281 128.341C44.5324 128.349 44.3329 128.333 44.2292 128.333C44.1734 128.062 44.1494 128.062 44.1335 127.743C44.4925 127.543 45.1307 127.535 45.5376 127.399C46.0242 127.24 46.3673 127.264 46.9656 127.24C48.4495 127.192 48.2341 125.628 49.8217 125.038C50.7311 124.703 51.8002 124.974 52.6219 124.583C52.957 124.424 53.4675 124.16 53.7867 124.073C53.8824 123.754 53.4915 123.586 54.2813 123.363C54.4887 123.578 54.5525 123.562 54.5765 123.953C55.6136 123.953 56.6427 123.714 57.5363 123.331C58.9005 122.756 58.358 122.413 59.052 122.421C59.5227 122.429 59.4031 122.533 59.9695 122.445C60.8311 122.318 60.3923 122.126 60.7912 121.639C60.9986 121.384 61.0465 121.536 61.238 121.225C60.9029 120.634 60.9268 121.033 59.8738 121.129C59.5866 121.153 59.6424 121.185 59.2754 121.241C58.9005 121.296 58.717 121.161 58.3021 121.28C57.8953 121.392 57.4006 121.304 57.0496 121.456C56.2757 121.799 56.3555 121.584 55.4859 121.727C54.0818 121.951 53.2362 122.565 52.5341 122.453C51.9358 122.357 52.1911 122.501 51.7523 122.605C51.0822 122.764 50.9944 122.581 50.3562 123.083C50.1089 123.283 50.0131 123.267 49.9812 123.706C50.3163 123.738 50.3482 123.793 50.5796 123.945C50.1647 124.87 50.4041 124.129 49.5823 124.424C49.3988 124.488 49.2074 124.695 48.984 124.432C48.7925 124.2 48.9361 124.464 48.8962 124.113C48.8324 123.578 48.6888 123.482 48.0985 123.466C45.8647 123.411 47.3565 124.559 46.3034 124.663C46.0561 123.578 45.2743 124.208 44.5244 123.945C44.0218 123.77 43.934 123.793 43.5032 123.786C43.1203 123.778 42.9448 123.602 42.4182 123.602C41.7002 124.878 41.4848 123.825 40.9663 124.232C40.695 124.448 40.8147 124.504 40.6232 124.655C40.0967 125.07 39.9212 124.464 39.3787 124.831C38.5649 125.373 39.1712 125.086 38.3974 124.831C38.0304 124.711 37.0332 125.413 35.9402 125.485C35.31 125.525 32.9964 124.743 34.4563 123.004C35.0626 122.278 35.2382 122.565 35.7886 121.863C36.0679 121.512 36.3949 121.416 36.73 121.209C37.5358 120.714 37.6156 121.073 38.2299 120.267C38.4612 119.964 38.8442 119.852 39.2111 119.661C41.1817 118.616 39.8254 118.137 40.8306 118.033C40.3041 117.18 38.5171 117.499 37.8469 116.964C38.0304 116.143 38.8441 115.999 39.4425 115.664C39.4425 115.042 39.5223 115.289 39.2829 115.026C39.2111 114.946 39.1393 114.922 39.0356 114.85C38.7325 114.635 39.0276 114.659 38.549 114.595C38.166 114.547 38.0942 114.707 37.6555 114.715C37.4241 114.148 37.4799 113.805 37.7671 113.319C39.267 110.806 39.5063 111.412 40.3599 110.486C40.9663 109.832 41.6603 109.505 42.2986 108.883C43.1921 108.013 43.9819 108.005 44.1175 107.383C43.7027 107.495 43.5351 107.766 43.2878 107.83C42.9527 107.918 42.7613 107.742 42.3225 107.734C41.796 107.718 41.7561 107.862 41.3253 107.862C40.7748 107.862 40.9742 107.742 40.4078 107.822C39.3627 107.973 39.4186 107.614 38.6128 108.412C37.7352 109.282 38.3415 108.34 37.5517 109.752C36.754 109.752 36.738 109.378 36.3551 110.223C34.6318 110.223 34.951 110.798 33.6745 111.18C33.2597 111.308 33.3075 111.412 33.0443 111.492C32.4379 111.683 30.8663 111.643 30.9062 110.494C30.962 108.819 31.8715 108.875 32.1826 108.46C32.3183 108.277 32.3502 108.005 32.5018 107.774C32.9166 107.136 33.5229 106.952 34.0654 106.561C34.576 106.194 34.8712 105.221 35.8525 104.543C36.8178 103.873 36.7141 103.378 38.0464 103.011C37.9985 102.349 38.0623 102.804 37.831 102.732C37.7831 102.716 37.807 102.756 37.6156 102.7C37.1688 102.556 37.2246 102.429 36.6582 102.413C35.3179 102.381 32.7571 103.219 34.1372 101.799C34.6558 101.264 34.6239 101.128 35.2621 100.761V100.171L34.1771 99.828C33.6825 99.8839 34.0096 100.291 33.0762 100.291C32.9166 99.477 32.9964 98.9505 33.3554 98.376C33.6585 97.8894 33.9138 97.5862 34.225 97.0437C34.6717 96.2619 35.8923 95.3365 35.9562 94.3712C35.645 94.5467 35.6849 94.451 35.286 94.5228C35.1185 94.5547 34.8074 94.6504 34.6398 94.7062C33.1161 95.1769 32.3422 94.6823 32.0151 94.778C31.5285 94.9137 31.5444 95.3205 30.962 95.1131L29.7494 94.6424C29.191 94.4749 28.8798 94.7461 28.4729 94.7621C28.3293 94.7701 28.1538 94.7062 27.8267 94.7541C27.2523 94.8339 26.3349 94.8738 25.8004 94.7222V94.3712C26.3987 94.2036 26.7577 94.0521 27.4917 94.0122L30.4834 93.6053C30.6908 93.5654 30.5472 93.5973 30.6589 93.5255C30.6828 93.5096 30.7466 93.4457 30.7706 93.4298C30.8663 93.3739 30.8025 93.366 30.986 93.3261L31.68 93.3181C32.3821 93.3021 31.9912 93.2303 32.4698 93.0788C32.5815 92.991 32.422 93.0788 32.6613 92.9511C32.8528 92.8474 32.6932 92.9192 32.8847 92.8554C33.0762 92.7916 33.1799 92.8075 33.2437 92.8155C33.7064 92.8873 33.2995 93.0309 33.9617 92.8474C33.9298 92.4086 33.6506 91.8741 33.4671 91.547C32.781 91.547 31.6003 91.9698 31.0817 91.4273C30.986 91.2518 30.986 91.6986 30.986 91.0763H30.3876C30.3797 91.5151 30.3637 91.6348 30.0526 91.7465C28.9676 92.1374 28.8958 91.0524 27.9304 91.2199C26.6221 91.4433 27.3481 91.0604 26.4067 91.0604C25.7206 91.0604 25.5211 91.4513 25.0026 91.539C24.1489 91.6826 24.2846 91.1561 23.5347 91.196C23.048 91.2199 22.5294 91.4114 21.8593 91.2837C20.8222 91.0843 21.5402 91.0125 20.5749 91.4672C20.1201 91.6826 19.7532 91.7863 19.1548 91.7863C19.0032 91.0125 19.1389 91.2518 19.6814 90.9886C20.535 90.5737 19.5856 90.1349 21.3088 89.6084C22.0747 89.377 21.7795 89.8078 22.3699 89.2175C22.8486 88.7388 22.8725 89.0021 23.4389 89.0579C23.9495 89.1138 24.2287 88.9542 24.6595 88.8744L27.2124 88.5952C27.1805 88.1724 26.9252 87.7176 27.4119 87.6458C27.7709 87.59 27.8587 87.8932 28.2097 87.9969C28.5767 87.7097 28.4011 87.6698 28.7043 87.4065C29.2149 87.5501 29.8052 88.7069 29.901 87.4065C30.3876 87.4225 30.4514 87.606 30.7945 87.6139C30.9939 87.6139 31.3928 87.5262 31.7917 87.5262C31.5444 87.1273 31.8077 87.4863 31.4567 87.215C31.4407 87.1991 31.4168 87.1831 31.3928 87.1672C31.1216 86.9677 31.1375 86.9438 30.6589 86.8481C29.9728 86.7204 29.7893 86.9597 29.2468 87.1033C28.3932 87.3347 28.6245 86.8959 27.8666 86.9996C27.0848 87.1034 27.1008 86.6486 27.4119 86.0981C27.3002 86.0343 27.2683 86.0263 27.1327 85.9545C25.928 85.2844 25.944 86.6007 25.0185 85.8668C25.226 84.9254 26.2152 85.2286 26.9252 84.8137C27.7868 84.3031 27.4996 84.8456 28.3214 84.5823C28.465 84.5345 28.4809 84.5185 28.5527 84.4866C28.6644 84.4387 28.6804 84.4308 28.6644 84.4308C28.6724 84.4308 28.6804 84.4228 28.6883 84.4228C29.0154 84.3271 28.9596 84.4786 29.3106 84.5425C29.4303 84.5664 29.5739 84.5664 29.6936 84.5664C29.9887 84.5664 30.2999 84.5584 30.5951 84.5584C30.619 84.5026 30.7227 84.1835 30.7466 84.1515C31.0498 83.6968 30.7227 84.3031 31.321 83.6569C31.8795 83.0506 31.7838 83.6809 32.2146 83.1782C32.5177 82.8352 32.2465 82.8591 32.5496 82.5081C32.8528 82.1491 32.9007 82.4762 34.0016 81.9895C34.943 81.5747 35.0467 81.838 35.4695 81.5986C35.3738 81.3194 35.661 81.4311 35.1344 81.2795C34.6478 81.1359 34.2409 81.6226 33.9617 81.6704C33.6984 81.7103 33.5229 81.4869 33.0363 81.6704C32.6852 81.7981 32.8288 81.9656 32.2624 81.7582C31.2413 81.3832 31.6003 81.7422 30.3956 81.7183C29.0154 81.6944 29.7175 81.9975 29.183 82.1092C29.0474 82.1411 29.0952 82.1092 28.8479 82.0294C28.6564 81.9736 28.5846 81.9098 28.3134 81.9417C27.6432 82.0135 28.0741 82.3725 27.1008 82.4124C26.638 82.4363 26.8534 82.3964 26.638 82.2927L25.5291 81.83C23.5745 80.7849 22.3699 82.5241 22.7369 80.6493C23.5745 80.6493 23.6862 80.4179 24.3484 80.3142C24.9627 80.2185 25.3855 80.0908 25.5291 79.4685C25.0744 79.2133 24.9068 79.7079 24.133 79.7079C23.9655 79.3329 23.9655 79.0936 23.8378 78.7585H22.5454C22.4098 78.5272 22.3619 78.4314 22.2502 78.1682C21.5003 78.1682 21.1333 78.6149 20.5589 78.2878C20.6626 77.7453 20.7265 77.7772 21.2131 77.6416L24.0373 76.9874C24.5319 77.0353 24.5399 77.2587 25.0345 76.9874C25.3855 76.796 25.2339 76.7242 25.8801 76.7082C26.2232 76.7002 26.2551 76.8438 26.7338 76.8757C27.0688 76.8997 27.4837 76.8757 27.8347 76.8757C27.9544 76.6125 28.0022 76.5167 28.1299 76.2854C28.8718 76.2854 28.9436 76.5247 29.6936 76.1338C30.4116 75.7588 30.2281 75.3759 30.7147 75.2163C31.2413 74.8893 31.0578 75.0568 31.2173 74.267C31.6481 74.0197 31.5444 74.3468 31.8157 73.908C31.4646 73.3336 30.8503 73.4373 30.2201 73.4373C30.0685 72.6794 30.3717 72.2725 29.7654 72.3922C29.3266 72.4799 29.1032 72.9427 28.5288 72.6076C28.5767 71.9215 29.3744 71.6662 30.0286 71.3072C30.6748 71.1237 30.9142 70.7408 31.1934 70.5653C31.6322 70.294 32.3821 70.4775 32.7012 70.2302C33.0841 69.927 32.9804 69.5122 33.9617 69.6957C34.56 69.8074 34.9031 69.6638 35.3977 69.5281C35.4296 69.1293 35.4775 69.0973 35.5972 68.8181C36.4827 68.8181 36.5465 68.8101 37.0172 68.2597C37.3363 67.8847 37.6475 67.5815 37.8868 67.1587C38.2538 67.3661 39.0994 67.7491 39.4664 67.3821C39.626 67.2225 39.61 67.055 39.6738 66.9194C39.8813 66.5763 39.6579 66.696 40.1685 66.6801C40.1685 64.9967 40.3121 65.9461 40.3679 65.1403C39.6419 64.6776 39.8254 65.0047 39.0755 65.0207L38.6048 65.2919C38.1022 65.4594 37.5438 65.627 37.089 65.4993V65.0286C38.0384 64.7654 38.2139 64.9329 38.9638 64.3027C39.2271 64.0793 39.4824 63.9197 39.8174 63.7681C40.2642 63.5607 40.344 63.7203 40.695 63.6405C41.3093 63.4969 40.9902 63.3054 41.6603 63.2496C42.1709 63.2097 42.2986 63.2416 42.6496 63.0102C43.4075 62.5156 43.2559 62.747 43.4952 62.5954C43.7984 62.3959 43.6229 62.1805 44.0537 61.8375C44.7956 62.0449 44.1813 62.4438 45.1227 62.3002C45.9763 62.1646 45.5854 61.9971 45.9365 61.4785C46.2157 61.0716 46.6624 61.2392 47.0374 61.0158C47.2608 60.8881 47.2608 60.7525 47.4682 60.577C47.6756 60.4015 47.4762 60.5531 47.7235 60.4095L47.9309 60.3057C46.9257 60.3057 47.2608 60.0664 46.7183 59.9547C46.112 59.8271 46.1439 60.1701 45.5376 60.1861C45.1307 59.1729 45.7929 58.3352 46.4071 57.4337C48.1782 54.8649 48.5053 55.0244 50.2525 53.2533C50.6913 52.8145 50.6753 52.8465 51.1859 52.5912C51.4731 52.4476 51.497 52.3678 51.7762 52.2242C52.223 51.9928 52.0315 52.3279 52.2948 51.8971C50.9306 51.8971 51.7683 51.5142 49.6142 52.0247C48.8803 52.2003 47.8432 52.304 47.0135 52.3678L43.7027 52.9342C42.6336 53.3092 42.6017 52.9183 41.8039 53.1576C40.4796 53.5565 40.5275 53.381 39.2032 53.6123C38.7005 53.7001 38.2618 53.6283 37.7751 53.6921C37.3284 53.7559 37.1927 53.8756 36.5705 53.9235C35.1903 54.0272 35.31 53.9554 33.9617 54.3702C33.4112 54.5378 32.7092 54.4979 31.9433 54.5777C31.4646 54.6255 31.7199 54.5298 31.3928 54.5457C31.0019 54.5617 30.8982 54.8569 30.2041 54.8728C29.4143 54.8888 29.518 55.0005 28.9197 55.1281C28.082 55.3036 27.6273 54.3862 26.7896 55.0723C26.5024 55.3036 26.7896 55.2717 26.287 55.4233C25.3217 55.7025 24.9707 55.4313 24.4202 55.3675C22.8565 55.168 22.9124 55.543 21.9471 55.8302C21.5641 55.9498 21.1174 55.9897 20.6786 56.0934C19.9845 56.269 19.9686 56.2051 19.442 55.9578C18.9155 55.7025 19.0112 56.0615 18.4528 56.2929C18.1895 56.4046 18.2453 56.3966 17.99 56.2769C17.0088 55.8302 17.4635 56.261 16.8412 55.8621C16.0514 55.3515 16.0115 55.9179 15.2856 55.91C14.9505 55.91 15.126 55.8062 14.6314 55.8701C14.1128 55.9419 13.1236 56.0695 12.6928 55.8222C12.7326 55.2159 13.0358 55.2797 13.5863 55.2318L16.0674 54.9925C16.4503 54.9606 16.8173 54.7372 17.0886 54.7213C17.2481 54.7133 17.3997 54.817 17.5513 54.801C17.7507 54.7771 17.7746 54.6495 17.998 54.5856C18.1815 54.5298 18.6522 54.6016 19.0431 54.5138C19.5697 54.3862 19.4979 53.8676 21.0456 54.2905L21.253 53.8198C21.6758 53.8198 22.8166 53.732 23.1836 53.6283C23.3272 53.5884 23.8857 53.4288 23.9335 53.365C24.0771 53.1815 23.8538 53.1257 23.8378 52.5194H22.8406C22.7608 53.6602 21.8832 52.7986 21.7476 52.7587C21.5163 53.3331 21.62 53.3331 21.1493 53.7081C20.5669 52.6709 20.8302 52.7507 19.3543 52.7667C17.4635 52.7906 18.3012 51.57 17.5433 52.1284C17.1284 52.4316 17.5433 52.2401 17.28 52.663C17.0726 52.998 17.2401 52.8225 16.8732 52.9023C15.6685 53.1576 15.9318 52.2401 14.9824 52.288C14.3841 52.3119 14.5755 52.4875 13.9533 52.3359C12.6289 52.0008 12.613 52.5832 11.887 52.663C11.3684 52.7188 11.2009 52.5513 10.6983 52.5353C10.3074 52.5194 9.89253 52.5353 9.50162 52.5353C5.99934 52.5353 8.50439 52.6231 6.15092 53.1895C5.68023 53.3012 5.56056 53.1975 5.52067 52.655C6.18283 52.5912 6.17485 52.5593 6.46206 52.0008C6.83702 51.2748 7.02051 51.4025 7.28378 51.3227C7.92998 51.1232 7.45131 51.0435 8.20921 50.9397C8.76766 50.8679 8.80754 50.5568 9.08677 50.3893C9.39791 50.2058 9.98029 50.3095 10.4031 50.2935L12.2859 50.0462C13.0358 49.9585 12.1742 49.8149 14.1846 49.8149C14.1766 49.2405 13.9293 48.682 14.4958 48.8336C15.0781 48.9932 14.775 49.3202 15.477 49.3362C15.5329 49.049 15.5807 48.8575 15.6765 48.6262C16.0594 48.7458 16.2987 49.0969 16.6737 49.3362C16.8891 49.0969 17.0168 48.8256 17.272 48.6262C17.5273 48.698 17.5273 48.7698 17.7188 48.8176C18.1257 48.9214 17.9821 48.8256 18.1815 48.7618C18.8197 48.5544 18.4687 48.9852 18.9713 48.7618C19.1069 48.698 19.1309 48.6022 19.3862 48.5384C19.5697 48.4905 19.7292 48.5065 19.9287 48.4746C20.2238 48.4267 20.4552 48.2831 20.8541 48.2672V48.0278C20.3116 48.1794 19.9287 48.0119 19.1708 48.1714C18.357 48.339 18.4049 47.9002 17.5672 47.9002C16.211 47.9082 16.5381 48.4427 14.1846 47.7885C14.2325 47.1184 14.4399 47.3417 14.4958 47.1343C14.5277 47.0306 14.7032 47.0785 14.3521 46.903C14.1687 46.8152 14.2006 46.8471 13.9931 46.8312C13.5544 46.7992 12.5651 47.0864 12.597 46.4881C12.613 46.0972 12.8443 46.169 13.1076 46.169C14.5676 46.161 14.5356 45.7621 15.1739 45.7701C15.6446 45.7781 15.485 45.8898 15.9318 45.8419C17.0726 45.7143 17.272 45.8977 18.1735 45.5467C18.7479 45.3233 18.724 45.5786 19.1309 45.3872C20.7584 44.6053 19.3862 45.2037 20.8142 44.9005C21.2769 44.8048 21.7237 44.6213 22.1864 44.5176C23.2475 44.2862 22.8007 44.7729 24.5399 44.2463C24.8191 44.1586 24.9228 44.1506 25.2339 44.1267C26.0557 44.0549 25.9679 43.8474 26.5583 43.6959C27.0768 43.5602 27.6752 43.6719 28.2177 43.656C28.7681 43.64 29.1351 43.4725 29.6616 43.3608C30.1802 43.2491 30.6429 43.2411 31.1615 43.1294C32.047 42.9459 31.7758 43.0895 32.1986 42.3476C32.7571 42.4035 32.4938 42.571 33.0921 42.3556C33.4751 42.212 34.6957 42.1801 35.7807 41.8769C35.8046 41.5578 35.8285 41.5578 35.8764 41.2865C37.2725 41.2865 37.2645 41.6296 36.6742 40.5765C36.3471 40.6084 35.9562 40.7201 35.6769 40.8238C35.0547 41.0472 35.3179 40.8398 34.7834 40.8318C33.7702 40.8079 33.4591 41.4302 33.1879 41.6456C32.7411 41.3663 32.4778 41.0791 31.7279 41.1988C31.5763 41.2227 31.1774 41.2706 30.9301 41.3185C30.6988 41.3663 30.5233 41.478 30.244 41.5738C29.5819 41.7892 29.3824 41.6136 28.6165 41.6376C26.4785 41.7094 27.6512 42.6907 26.0636 42.196C25.7844 42.1083 26.0876 42.1721 25.7685 42.0843L24.2527 41.9966C23.5027 42.0524 23.9814 42.3556 22.6491 42.3556C21.7157 42.3476 21.9949 42.7146 21.1573 42.7146C21.0535 42.2359 21.1333 42.3715 20.6626 42.3556C20.3754 43.632 19.7053 42.571 18.8756 42.579L16.9769 42.8263C16.5939 42.8981 16.6897 42.7066 16.5859 43.1853C15.3095 43.1853 15.6924 42.6508 15.0702 43.1454C14.2963 43.7597 13.7777 43.4326 12.8523 43.1374C12.4534 43.0098 12.5571 42.9858 12.2221 42.8183C11.0334 42.22 9.62129 43.1853 9.31015 42.4832C8.99103 41.7413 9.99624 41.9487 10.4191 41.7732C11.7354 41.2227 11.0573 41.6535 11.879 41.5099C12.4454 41.4142 12.7247 41.0951 12.597 40.4648C12.0226 40.4648 12.0625 40.3851 11.6875 40.6802C11.2887 41.0073 11.6078 40.9355 10.9057 40.9355C10.818 40.4808 10.81 40.4648 10.81 39.8665C10.3473 39.8665 10.084 39.8904 9.66915 39.9383C9.13464 40.0101 9.20644 39.7947 8.8953 39.5314C8.29696 39.0448 7.73851 40.026 7.03646 39.6272C7.07635 39.0687 7.16411 39.1325 7.61884 39.0208C8.26505 38.8613 8.24112 38.7017 9.35004 38.4783C9.88455 38.3746 9.77286 38.3507 10.1319 38.2231C10.9376 37.9279 11.5998 38.3028 11.7115 38.3028C12.0785 38.3108 12.1263 38.0316 12.4295 37.872C13.1874 37.4811 13.339 38.0555 14.0969 38.0954C15.2377 38.1513 15.2058 37.4731 15.6845 37.4332C15.844 37.4173 16.1472 37.513 16.5461 37.4492C18.1895 37.178 17.3997 37.0902 17.9262 36.5876C18.365 36.1727 19.0671 36.787 19.4739 36.8987C20.2637 36.2685 19.9366 36.5956 20.5031 36.2286C21.0775 35.8616 20.8701 35.5824 21.261 35.2393C21.4125 34.984 21.2689 35.0878 21.5561 35V34.641C21.0456 34.4974 20.9419 34.282 20.0643 34.282L19.7851 34.4336C19.458 34.5612 19.3144 34.5293 19.0112 34.4735C18.5884 34.3937 18.3331 34.4017 17.8704 34.4017C17.9422 33.3406 18.0459 34.4575 19.6494 33.7953C22.4098 32.6545 21.5003 33.8831 22.6172 33.2927C23.3193 32.9178 22.9044 33.3566 24.0452 33.2369L24.5478 33.1172C25.0983 32.9018 24.8829 32.9816 25.6328 32.9816C25.6408 32.5189 25.6089 32.7024 25.7286 32.3912H26.3269C26.3987 32.7502 26.4785 32.846 26.6221 33.1013C27.2922 33.0375 26.654 32.8619 28.0182 32.8619C28.7282 31.6014 28.8878 32.4152 29.7255 32.0482C30.1882 31.8488 29.9887 31.7211 30.5312 31.761C32.1587 31.8886 31.5604 31.5296 32.43 31.2504C33.132 31.0191 37.2805 30.5883 37.6634 30.7239C38.3256 30.9712 38.9558 30.9712 39.5382 30.7079L41.5167 30.2133C42.1071 30.1096 42.9448 30.0617 43.5351 29.8942C43.5351 29.1203 43.4553 29.4793 43.7824 29.1283C44.1016 28.7853 43.926 29.0485 44.1255 28.5938C44.5563 28.5938 45.2583 28.4981 45.4897 28.5459C45.8327 28.6097 46.0481 28.873 46.4949 28.873C48.4654 28.865 47.6996 29.0246 48.4973 28.1231C49.1196 28.1869 48.9441 28.4103 49.2951 28.5938C49.5584 28.7374 49.4387 28.6496 50.0929 28.3624C50.5955 28.1391 50.4519 28.1231 50.7631 27.7402C51.489 26.8546 51.6247 27.5407 52.231 27.7082C52.7655 27.8598 53.1006 27.6125 53.5314 27.4849C55.2865 26.9743 53.9303 27.1817 54.5605 26.9344C55.1987 26.6871 55.0073 27.6444 56.0205 26.8945L56.2119 26.7669C57.2251 26.2164 57.2092 26.9105 57.9431 26.9344C58.0229 26.5754 57.9351 26.719 58.2223 26.5515C58.9005 26.1685 59.3153 26.5515 59.5068 26.6153C60.2726 26.8786 61.3018 25.4425 62.0836 25.7936C62.7139 26.0728 61.9161 26.2962 62.6102 26.4079C63.3042 26.5275 63.8068 26.2004 64.118 25.5143C64.8918 25.5143 64.5887 25.6659 65.0275 25.4106C65.8492 24.9399 66.6868 25.7856 67.2772 24.6527C67.2772 24.6448 67.3091 24.0225 68.0032 24.3017C68.3542 24.4453 68.1229 24.4453 68.4898 24.565C68.6494 24.4214 68.4499 24.4453 68.8887 24.4453C68.9446 24.2379 68.6414 24.4294 69.1121 24.2379C69.495 24.0783 69.7424 24.2538 69.886 23.6156C70.4045 23.6316 70.3886 23.7672 70.7555 23.9028C71.306 24.1023 71.0826 23.9188 71.4097 23.6475C72.3272 22.8976 72.3591 25.1154 73.468 23.1449C74.553 23.4481 76.2682 22.6822 77.441 22.6662C77.8399 22.6583 78.2467 22.6902 78.6456 22.6742C79.1482 22.6583 79.1642 22.5306 79.6349 22.5546C80.329 22.5785 79.8663 22.746 80.5045 22.5226C81.3182 22.2354 81.2225 22.7939 81.2225 22.7939C81.7012 22.746 81.6692 22.5625 82.132 22.4508C82.475 22.3711 82.7223 22.3551 83.0574 22.2434C83.5201 22.0918 83.4802 22.052 84.0147 21.9642C84.8684 21.8286 84.6769 20.9271 85.363 21.5414C85.8496 21.9722 85.6422 21.8924 86.2725 21.5813C87.2059 21.1185 88.0755 21.6531 89.2562 20.9749C89.6471 20.7516 90.5007 21.0228 92.0963 20.5681L93.9392 20.0415C94.2822 19.9378 94.6332 20.0176 95.0401 19.9298C95.3672 19.866 95.3911 19.7464 95.5268 19.5549C95.5347 19.5389 95.5587 19.499 95.5667 19.4911C95.5826 19.4751 95.6305 19.3874 95.6544 19.3554C96.6437 19.9777 98.2552 19.531 99.6433 19.3634C100.561 19.2517 100.481 18.6295 101.239 18.5337C101.757 18.4699 101.702 18.7092 102.292 18.6215C103.68 18.422 103.337 18.0231 103.896 17.7918C104.183 17.6721 104.382 17.7998 104.805 17.8237C106.137 17.8955 105.954 17.345 106.608 17.2413C107.111 17.1615 107.19 17.2493 107.677 17.0897C107.805 17.0498 107.948 16.986 108.14 16.9302C109.201 16.619 108.642 16.6031 109.376 16.3877C110.573 16.0367 110.07 16.3478 110.653 16.3318C111.889 16.2999 111.227 16.6589 112.049 16.4994C112.304 16.4515 112.695 16.2281 112.982 16.2122C113.429 16.1962 113.238 16.3637 113.828 16.1244C115.32 15.5181 114.362 16.26 115.559 15.6936C115.878 15.542 116.74 15.5261 117.482 15.2628C117.968 15.0873 117.976 15.1591 118.519 15.0713C119.484 14.9198 119.748 14.7762 120.37 14.5847L121.12 14.3852C122.348 13.8826 122.292 14.1459 122.907 13.7869C123.728 13.3082 123.936 13.8986 124.518 13.1008C124.662 13.5316 124.813 13.4598 125.611 13.4598C125.795 13.1327 125.771 13.1008 125.906 12.7498C126.313 12.8774 126.249 13.1247 126.513 13.3401C126.975 13.7151 127.311 13.2444 127.311 13.2444C127.845 12.9093 127.709 13.2364 128.188 13.2125C128.563 13.1886 128.563 12.9891 128.826 12.8056C129.209 12.5344 129.313 12.7258 129.688 12.5264C130.143 12.2871 129.903 12.0796 130.31 11.9839C130.589 11.9201 130.693 12.1913 131.156 12.1355L132.783 11.585C133.382 11.4095 133.039 11.3138 133.509 11.1462C133.82 11.0345 134.203 11.1303 134.538 11.0665C134.746 11.0266 135.065 10.9149 135.352 10.8511C135.679 10.7713 135.895 10.6755 136.214 10.5798C136.621 10.4601 136.828 10.5479 137.243 10.5C137.977 10.4043 137.746 10.0612 138.543 9.56662C138.535 9.00817 138.432 9.1757 138.543 8.85659C139.046 9.01615 138.783 8.9603 138.743 9.56662C140.29 9.13581 140.083 8.8167 140.442 8.39387C141.064 7.65991 141.288 8.29814 141.83 6.96584C142.173 7.07753 142.221 7.5562 144.016 7.5562C144.224 7.04562 143.952 7.10944 144.415 6.96584C144.742 7.24506 144.622 7.02168 144.511 7.5562C145.029 7.50833 144.686 7.46047 145.5 6.84617C145.987 6.47919 145.811 6.16805 146.298 6.02445L146.41 5.99254C146.425 5.99254 146.457 5.98456 146.473 5.98456C147.686 5.81703 147.295 5.56971 147.877 5.28251C148.412 5.01924 148.252 5.59365 149.258 4.56451C149.601 4.21348 149.633 3.87841 150.175 3.87841C150.805 3.87841 150.877 4.3491 151.348 3.86246C151.547 3.65503 151.539 3.56727 151.779 3.4157L152.146 3.25614C153.342 2.68173 152.592 3.03276 153.382 3.1604C153.821 3.2322 153.893 2.96096 154.443 3.08063C154.667 3.12849 154.547 3.0886 154.667 3.17636L154.722 3.22423ZM176.119 65.603C176.223 66.1296 176.318 65.994 175.92 66.3131C175.8 66.0977 175.72 66.1056 175.72 65.8424C175.72 65.603 175.928 65.627 176.119 65.603ZM162.485 88.2123L163.769 88.2841C163.897 88.2841 164.033 88.2123 164.28 88.2123C165.157 88.2123 164.575 89.5127 164.184 89.5127C162.756 89.5127 163.386 89.1616 162.892 89.1616C161.607 89.1616 162.222 90.1589 161.2 89.5127C161.711 88.6112 161.145 88.2123 162.493 88.2123H162.485ZM16.3067 89.6323C16.9689 89.6323 17.2561 89.8717 17.7986 89.8717C18.1975 89.8717 18.1097 89.5206 18.6203 90.0711C19.5138 91.0205 19.0272 91.7066 18.4209 90.9008C18.1097 90.486 18.2453 90.462 17.5912 90.462C17.5194 90.7732 17.3518 90.8928 17.3518 90.8848C17.3438 90.8689 17.3119 90.9168 17.296 90.9327C16.4663 90.7014 16.8971 90.462 15.4052 90.462C14.8548 90.462 14.408 90.7811 14.2006 90.3583C13.7299 89.4089 15.8919 89.6323 16.2987 89.6323H16.3067ZM139.198 8.19443C139.198 7.96307 139.493 7.87531 139.692 8.07476C139.557 8.68108 139.198 8.61725 139.198 8.19443ZM45.1626 124.312C45.2903 124.623 45.4418 124.799 44.8674 125.261C44.7478 125.046 44.668 125.054 44.668 124.791C44.668 124.551 44.9711 124.376 45.1626 124.32V124.312ZM183.881 68.8022C183.674 67.7571 183.929 68.2118 184.576 68.2118C185.357 68.2118 185.349 67.7411 185.668 67.7411C186.227 67.7411 185.924 67.789 186.051 67.9964C186.211 68.2357 186.187 68.4671 186.761 68.9218C187.184 68.7862 186.937 68.6825 187.256 68.6825C187.735 68.6825 187.424 68.7702 187.83 68.9537C188.525 69.2649 188.812 69.0415 189.251 68.9218C189.314 69.233 189.546 69.8712 189.051 69.8712L186.562 69.7515C186.235 69.1691 185.972 68.4511 185.166 68.4511C184.839 68.4511 185.286 68.8022 183.873 68.8022H183.881ZM168.261 83.3617C168.732 83.5133 168.588 83.7527 168.907 83.8963C169.186 84.0239 169.426 83.8324 169.848 83.8324C170.136 83.8324 170.255 84.1356 170.742 84.1914C171.077 84.2313 171.58 84.1914 171.939 84.1914C171.627 85.5716 169.705 85.0211 168.755 85.0211C168.684 84.8456 168.684 84.726 168.66 84.6621C168.42 84 168.157 84.4467 168.157 83.7207C168.157 83.4894 168.189 83.5133 168.253 83.3617H168.261ZM178.409 74.1314C178.409 73.7245 179.669 73.5809 179.916 73.549C180.291 73.5091 180.555 73.6048 180.682 73.6128C181.217 73.6527 182.214 73.1501 182.286 74.1234C181.775 74.1234 181.552 74.1074 181.169 74.2191C180.666 74.3707 179.677 74.2989 179.111 74.3787C178.839 74.4186 178.409 74.6739 178.409 74.1234V74.1314ZM163.259 77.8889C164.886 77.7613 164.033 77.7214 164.671 78.2798C165.684 78.0006 165.054 78.0884 165.668 78.2798C165.62 78.9899 165.285 78.9659 164.775 79.1095C164.743 79.0537 164.495 78.6468 164.487 78.6309C164.2 78.2559 164.583 78.5192 164.096 78.3756C163.466 78.1921 163.618 78.5192 163.091 78.5192C162.461 78.5192 162.684 77.8411 162.692 77.8092C162.987 77.8411 162.987 77.9129 163.267 77.8969L163.259 77.8889ZM180.196 64.4303L181.273 64.5819C181.704 64.6936 182.334 64.3665 182.788 64.6696C182.788 65.4834 182.262 65.0366 181.592 65.0446C181.041 65.0446 180.483 65.5233 179.901 65.3797C179.908 64.8292 180.02 64.7574 180.196 64.4303ZM173.327 10.3405C173.646 10.0852 173.574 10.1251 174.069 10.0214C174.396 9.95753 174.619 9.9336 174.619 10.3405C174.619 10.8191 173.989 10.8191 173.526 10.8112L173.319 10.3405H173.327ZM182.677 69.9988H182.972V70.3578H182.677V69.9988ZM182.007 71.2673C181.967 71.028 182.07 70.9482 182.278 70.9482C182.509 70.9482 182.469 71.2753 182.477 71.5386C182.206 71.5306 182.055 71.5705 182.007 71.2673ZM174.946 84.2951C175.608 84.718 175.018 85.0371 174.523 85.0371C174.188 85.0371 174.26 84.8855 174.308 84.6861C174.332 84.5983 174.484 84.1835 174.523 84.0877L174.946 84.2951ZM176.909 77.2188C178.209 77.2188 177.866 76.8598 178.305 77.0991C178.01 77.6257 178.129 77.3943 177.515 77.4741C177.132 77.522 177.435 77.6257 177.132 77.5299C176.885 77.4501 176.989 77.4661 176.909 77.2188ZM178.6 67.6294C178.6 67.3821 179.198 66.9673 179.198 67.6294C179.198 68.4751 178.6 68.0602 178.6 67.6294ZM177.005 82.7794C177.443 82.915 177.443 83.1144 177.005 83.25V82.7794ZM176.51 84.0797C176.646 84.0797 176.709 84.2393 176.709 84.4308V85.0211H176.31V84.5504C176.31 84.2632 176.087 84.0797 176.51 84.0797ZM166.258 84.6701C166.258 84.5584 166.833 83.7527 166.857 84.9094C166.689 84.9573 166.258 85.2605 166.258 84.6701ZM167.152 77.8092C167.527 77.8092 167.399 78.7825 166.657 78.2798C166.729 77.9687 166.849 77.8092 167.152 77.8092ZM169.936 77.4502C170.215 77.6735 170.367 77.7932 170.136 78.2798C169.936 78.2798 169.737 78.3357 169.737 77.9288C169.737 77.6656 169.817 77.6655 169.936 77.4581V77.4502ZM173.718 77.3305C173.718 77.1071 173.973 76.9874 174.324 77.2188L174.212 77.6895C173.821 77.6815 173.981 77.7214 173.718 77.5698V77.3305ZM178.991 85.6195C179.047 85.2206 179.43 85.4519 179.613 85.4679C180.132 85.5158 179.885 85.1328 180.188 85.6195C179.645 85.6195 179.326 85.8109 178.991 85.6195ZM167.551 86.9199C167.974 87.0555 167.926 87.2071 167.846 87.6458L167.455 87.5102C167.455 87.0714 167.439 87.2071 167.559 86.9199H167.551ZM177.603 63.9596C177.603 63.9596 177.826 63.4809 177.898 64.3186C177.26 64.2388 177.595 63.9756 177.603 63.9596ZM170.144 76.3891C170.144 76.1498 170.351 76.1737 170.543 76.1498C170.535 76.7561 170.63 76.4928 170.343 76.7401C170.183 76.6045 170.144 76.7162 170.144 76.3891ZM173.829 16.7307C174.563 16.8025 174.42 16.8344 174.428 17.3211C173.965 16.9142 174.531 16.986 173.829 16.9621V16.7227V16.7307ZM173.032 84.1994C173.207 84.1994 173.191 84.3749 173.231 84.5504C172.84 84.5425 173 84.5823 172.736 84.4308C172.76 84.2553 172.856 84.1914 173.032 84.1914V84.1994ZM175.521 86.5688C175.409 87.0555 175.449 86.9837 175.122 86.8082C175.162 86.5609 175.289 86.5928 175.521 86.5688ZM178.999 71.2115C178.768 71.0519 178.959 71.1237 178.999 71.0679C179.071 70.9881 178.967 70.8445 179.119 71.0679C179.238 71.2354 179.095 71.2833 178.991 71.2194L178.999 71.2115ZM180.81 71.1237C181.057 71.02 180.794 71.3072 180.698 71.1875C180.531 70.9881 180.81 71.1237 180.81 71.1237ZM180.946 72.815C181.161 72.815 180.922 72.6156 180.946 72.815ZM180.946 72.815C180.946 72.823 180.946 72.8389 180.954 72.8469C181.017 73.1102 180.802 72.9826 180.802 72.8469C180.802 72.6076 180.786 72.7991 180.914 72.815C180.93 72.815 180.946 72.815 180.954 72.815H180.946ZM184.528 78.2559C184.743 78.2639 184.504 78.0565 184.528 78.2559ZM184.528 78.2559C184.528 78.2639 184.528 78.2798 184.536 78.2878C184.599 78.5511 184.384 78.4234 184.384 78.2878C184.384 78.0485 184.368 78.24 184.496 78.2559C184.512 78.2559 184.528 78.2559 184.536 78.2559H184.528ZM174.38 74.1154C174.595 74.1234 174.356 73.916 174.38 74.1154ZM174.228 74.1473C174.228 73.908 174.212 74.0995 174.34 74.1154C174.356 74.1154 174.372 74.1154 174.38 74.1154C174.38 74.1234 174.38 74.1393 174.388 74.1473C174.452 74.4106 174.236 74.2829 174.236 74.1473H174.228ZM144.192 4.69215C144.838 4.44484 144.335 4.31719 145.269 4.31719C145.229 4.89958 144.997 4.90755 143.873 4.90755C143.769 5.35431 143.33 5.72129 143.274 4.90755C143.545 4.82777 143.96 4.77991 144.192 4.69215ZM161.192 76.1577C161.551 76.1577 161.488 76.4529 161.488 76.8678C161.081 76.9715 160.738 76.9635 160.69 76.2774C160.81 76.2216 161.033 76.1577 161.184 76.1577H161.192ZM25.7605 87.9969C25.7365 88.3319 25.7605 88.4676 25.4653 88.4676H25.1701C25.1701 87.6857 25.2978 87.949 25.7685 87.9969H25.7605ZM133.142 116.183C133.565 115.935 133.797 115.832 134.124 116.047C134.012 116.558 133.98 116.406 133.597 116.605C133.23 116.789 133.063 117.044 132.632 116.757C132.783 116.486 132.903 116.318 133.142 116.183ZM131.244 117.355C131.252 116.964 131.419 117.012 131.738 117.004V117.355H131.244ZM130.645 117.355H131.14C131.044 117.459 131.228 117.395 130.901 117.547C130.733 117.627 130.797 117.579 130.637 117.595V117.355H130.645ZM23.6703 94.7461C23.6703 94.2675 25.0664 94.1877 25.0664 94.8658C25.0664 95.1769 23.6703 95.3604 23.6703 94.7461ZM10.8339 55.5669C11.4642 55.5669 11.6556 55.4791 11.9269 55.9259C11.5918 56.5163 11.6636 56.237 11.2089 56.1892C10.7621 56.1413 11.0254 56.3248 10.435 56.1573C10.459 55.8062 10.5068 55.5669 10.8339 55.5669ZM11.9269 49.057C12.3657 49.1766 12.4215 49.0729 12.5252 49.5277C12.1503 49.6234 11.9748 49.6792 11.9269 49.057Z" fill="#393185"/>
<path d="M180.946 72.815C180.922 72.6156 181.161 72.815 180.946 72.815ZM180.946 72.815C180.946 72.823 180.946 72.8389 180.954 72.8469C181.017 73.1102 180.802 72.9826 180.802 72.8469C180.802 72.6076 180.786 72.7991 180.914 72.815C180.93 72.815 180.946 72.815 180.954 72.815H180.946ZM184.528 78.2559C184.504 78.0565 184.743 78.2639 184.528 78.2559ZM184.528 78.2559C184.528 78.2639 184.528 78.2798 184.536 78.2878C184.599 78.5511 184.384 78.4234 184.384 78.2878C184.384 78.0485 184.368 78.24 184.496 78.2559C184.512 78.2559 184.528 78.2559 184.536 78.2559H184.528ZM174.38 74.1154C174.356 73.916 174.595 74.1234 174.38 74.1154ZM174.38 74.1154C174.372 74.1154 174.356 74.1154 174.34 74.1154C174.212 74.0995 174.228 73.908 174.228 74.1473H174.236C174.236 74.2829 174.452 74.4106 174.388 74.1473C174.38 74.1393 174.38 74.1234 174.38 74.1154ZM28.7043 84.5265C28.3692 84.6302 28.6564 84.5345 28.7043 84.5265ZM5.56056 52.7029C5.04998 52.6869 5.1138 52.6709 4.88244 52.3279C4.60322 51.9051 4.83457 52.0327 4.26815 51.8811C3.76554 52.3997 4.12455 52.1763 3.47036 52.5912C3.32676 52.4954 3.43845 52.5832 3.28687 52.4555C2.32953 51.6338 1.19668 52.4635 0.382935 52.2401C0.39889 51.2668 0.797783 51.4344 1.57961 51.4104C2.12211 51.3945 2.77629 51.1312 3.24698 51.195C3.47036 51.227 3.78948 51.3546 4.04477 51.3386C4.30006 51.3227 4.51546 51.219 4.8266 51.3307C4.98615 51.3865 5.03402 51.4424 5.13773 51.554C5.6882 52.1364 5.56056 52.2003 5.56056 52.7029ZM154.722 3.22423C154.962 3.32794 154.85 3.15243 154.922 3.46356C155.831 3.43963 155.401 2.79342 156.342 2.54611C157.028 2.36262 156.86 2.29082 157.81 1.69248C157.953 1.95575 158.424 2.41846 158.687 2.55409C159.054 2.73758 158.951 2.63387 159.27 2.49824C160.259 2.08339 161.256 1.69248 162.285 1.80417C162.82 1.86001 163.323 1.72439 163.801 1.8999C164.583 2.17913 164.28 2.01957 165.173 2.0435C165.772 2.05946 166.027 2.33869 166.538 2.26688C166.929 2.21104 167.311 1.94777 167.686 1.84406C168.588 1.59675 168.157 1.52494 168.7 1.14999C169.234 0.783005 169.266 1.27763 169.824 1.19785C170.359 1.12605 170.415 0.591536 170.981 0.79896C171.46 0.974473 171.508 1.29359 172.138 0.990429C172.689 0.719182 172.601 0.61547 173.43 0.631425C174.651 0.647381 174.117 0.424001 174.731 0.39209L175.92 0.751093C176.534 0.950539 176.51 1.02234 176.917 1.34145C176.917 2.17913 176.638 2.5142 176.239 2.89713C175.186 3.90234 175.433 3.39974 174.946 3.51941C174.691 3.58323 174.627 3.79065 174.412 4.03797C174.045 4.45282 173.542 4.4927 172.952 4.66822C170.223 5.466 172.21 5.27453 170.606 5.89681C169.92 6.16805 169.529 6.2239 169.106 6.47919C168.668 6.74246 167.032 7.22113 166.474 7.37271V7.72373C167 7.73969 167.144 7.9152 167.535 8.11465C168.644 8.68905 170.598 8.63321 171.149 8.78479C171.133 9.51875 170.997 9.34324 169.665 9.98147C169.641 9.98944 169.617 10.0054 169.593 10.0134C169.569 10.0214 169.545 10.0373 169.521 10.0453C168.708 10.4202 169.346 10.9069 169.434 10.9548C169.864 11.2021 169.944 10.8909 170.231 10.7553C170.686 10.5479 170.734 10.7952 171.069 10.6835C171.34 10.5958 171.372 10.4522 171.883 10.3564C172.322 10.2766 172.417 10.3484 172.736 10.4362V10.9069C171.811 11.1622 171.596 11.1702 171.404 11.8004C171.181 12.5344 171.109 12.9652 170.455 13.1487C170.455 13.9624 170.471 13.5954 170.75 14.098C171.308 14.098 171.627 13.9544 172.034 13.9863C172.641 14.0262 172.513 14.2257 173.175 13.9145C173.558 13.7311 173.758 13.5077 174.141 13.388C174.779 13.1886 174.356 13.6912 174.898 13.6672C174.938 13.6672 175.672 13.3561 175.959 13.3162C176.526 13.2205 176.462 13.396 177.013 13.2843C177.603 13.1646 177.459 13.029 177.946 12.7258L178.209 12.5663C178.935 12.0557 178.887 12.3589 179.262 12.7258C179.685 13.1327 180.028 13.396 180.595 13.396C180.595 12.9173 180.563 13.013 180.69 12.686C181.759 12.7179 181.217 13.4837 183.084 12.67C183.411 12.5264 183.467 12.5743 183.57 13.037C183.57 13.755 181.448 13.9784 181.081 13.9863C180.507 13.9943 180.076 14.2576 179.669 13.8986C179.438 13.6912 179.063 13.1567 178.792 13.045C178.281 13.5715 178.624 13.3003 178.369 13.9624C178.217 14.3613 178.409 14.098 178.058 14.3055L176.949 14.8799C176.59 15.0873 176.646 15.2867 176.502 15.6457C175.529 15.6457 175.6 15.6457 174.851 15.925L172.529 16.5632C172.306 16.8424 172.633 16.9302 172.505 17.3849C172.385 17.8237 172.298 17.6083 171.835 17.6562C171.34 17.712 171.588 17.72 171.229 18.0072C171.117 17.9354 171.109 17.9354 170.981 17.8317C170.55 17.4886 170.79 17.5445 170.335 17.5365C170.311 17.8955 170.239 18.1029 170.136 18.3662L171.667 18.43C172.066 18.4699 172.537 18.1667 172.736 18.5656C172.96 19.0044 172.768 18.7411 172.72 18.8289C172.545 19.6028 172.497 18.7651 172.322 19.5389C173.885 19.5389 174.292 18.6773 174.308 19.89C173.758 20.0415 173.375 20.0336 172.88 20.3208C172.585 20.4963 172.593 20.5441 172.234 20.6159C171.62 20.7356 171.707 20.5202 170.239 20.959L168.939 21.4217C168.604 21.7727 168.628 21.7488 168.133 21.8844C167.008 22.1956 166.761 22.5625 166.402 22.6742C166.075 22.7779 165.548 22.754 165.317 22.8019C164.671 22.9535 164.886 23.0492 164.479 23.2327C164.096 23.4082 163.873 23.2167 163.506 23.4959C163.123 23.7911 163.602 23.5757 163.179 23.8151C162.908 23.9746 161.974 24.0225 161.559 24.0225C161.312 24.2219 161.184 24.206 160.905 24.3097C160.427 24.4852 160.578 24.573 160.283 24.6448C158.632 25.0676 158.799 25.7617 158.512 25.9132C158.209 26.0728 158.472 25.7138 158.025 25.8494C157.658 25.9611 157.85 25.9771 157.69 26.3919C158.209 26.5355 158.64 26.5196 159.286 26.5196C160.187 26.5116 159.956 26.1765 160.674 26.1605C161.248 25.8335 162.118 25.9691 162.636 25.5303C162.956 25.259 162.94 25.0277 163.53 25.1154C164.144 25.2112 165.006 25.4027 165.564 24.9878C166.266 24.4772 166.29 24.8681 166.905 24.573C167.264 24.3974 167.056 24.4453 167.272 24.2937C167.583 24.0783 167.798 24.2698 168.237 24.2698C168.46 23.2885 168.604 24.214 170.032 23.9188C170.822 23.7512 171.34 23.7672 171.723 23.0891C172.377 23.2726 172.186 23.5997 172.848 23.0093C173.415 22.4987 173.901 22.7141 174.563 22.9136C176.063 23.3843 175.241 23.2646 176.303 23.129C176.669 23.0811 176.35 23.2646 176.861 23.0412C177.092 22.9375 177.172 22.7859 177.435 22.9295C177.922 23.1928 177.651 23.7672 177.284 23.8948L176.095 24.3735C175.457 24.4852 175.321 24.3256 175.018 24.8602C175.138 25.3947 175.361 25.4425 175.816 25.5702C175.959 25.2511 176.007 24.9718 176.215 24.7405C176.733 25.0676 176.574 25.3149 176.909 25.9212C177.619 25.9212 177.467 25.7138 178.002 25.5702C178.353 25.8494 178.584 26.1446 179.079 25.9212C179.342 25.8015 179.956 25.2032 179.98 25.9132C179.996 26.2882 179.805 26.3121 179.597 26.3999C178.768 26.7589 177.547 27.5487 176.701 27.5726C175.616 27.6045 176.247 27.8917 175.6 28.0433C175.305 28.1151 174.46 28.0433 174.109 28.0433C173.191 28.0513 173.582 28.2428 173.319 28.881C171.213 28.881 171.452 29.5352 171.332 30.1814C170.702 30.1814 170.207 29.7905 169.641 29.942C169.657 30.9951 170.535 30.8595 171.221 30.7638C172.353 30.6122 172.25 30.1814 173.119 30.1814C173.303 30.7797 173.75 30.4287 174.164 30.3409C174.643 30.2372 174.691 30.684 175.138 30.8675C175.497 31.0191 175.832 30.8834 176.358 30.8435C176.773 30.8116 177.148 31.0111 177.579 30.9712C178.385 30.8914 177.914 30.9473 178.592 31.3701C179.837 32.1439 180.116 33.1252 178.576 33.9549C178.09 34.2182 177.826 34.1145 177.372 34.29C176.829 34.5054 176.989 34.6171 176.215 34.6809C175.72 34.7208 175.353 34.8883 175.042 34.8564C174.316 34.7846 174.691 34.7926 174.117 35.1436C173.351 35.6143 171.253 35.8776 170.239 35.8616C169.593 35.8536 169.569 35.9334 169.043 36.1009C169.306 36.5238 169.202 36.2765 169.737 36.3403C170.223 36.4041 170.367 36.8429 170.83 37.0583C171.276 37.2737 171.436 37.5848 171.931 37.7603C172.704 38.0396 173.51 37.872 173.526 38.8214C172.569 39.0847 171.492 39.0288 170.558 39.5554C169.952 39.9064 169.25 39.5554 169.043 40.2415C169.952 40.2415 170.702 40.0021 171.532 40.0021C171.699 40.2973 171.763 40.5287 171.931 40.8318C172.417 40.8318 172.992 40.7042 173.223 40.8318C173.51 41.5498 173.024 42.0285 172.561 42.2918C172.074 42.579 171.731 42.8103 171.261 43.1135L168.341 44.4936C168.396 45.2914 168.644 45.2994 169.338 45.3233C170.16 45.3473 169.912 45.7222 170.63 45.802C171.324 45.8738 172.25 45.7382 172.792 45.2914C172.984 45.1319 172.848 45.2196 173.032 45.1079C173.079 45.076 173.247 45.0042 173.311 44.9723C173.71 45.2835 173.726 45.5467 174.316 45.3473C174.811 45.1797 174.946 45.092 175.457 45.3872C176.247 45.8419 176.47 45.3473 177.818 45.5387C178.568 45.6425 178.337 45.2436 179.015 45.6345C179.526 45.9376 180.674 46.2408 180.515 47.1503C180.283 48.4905 178.512 48.5863 178.257 48.7299C177.858 48.9373 178.321 48.7857 177.842 49.0729L176.063 49.5596C175.353 49.6952 175.569 49.6952 174.914 49.9665C174.117 50.3015 173.638 50.2776 173.071 51.0833C172.617 51.7296 172.218 51.5142 172.218 52.5513C172.784 52.8784 174.204 52.5832 174.404 53.5006C173.981 53.7639 171.468 54.5617 170.909 54.6654L169.824 55.0324C170.447 56.0376 172.226 53.6682 172.609 55.6228C172.928 55.6228 174.101 55.6148 174.204 55.7424C174.691 56.3248 173.351 57.3539 172.976 57.6013C172.361 58.0001 171.699 58.4708 171.045 58.7341C170.279 59.0453 169.801 59.484 168.955 59.6835C167.862 59.9388 167.591 60.4174 165.939 60.7126C165.477 60.8004 165.564 60.8961 165.285 60.9679C164.958 61.0557 164.998 60.8243 164.599 60.8961C164.104 60.9759 164.36 61.0557 163.953 61.1833C164.08 61.7657 164.695 61.8375 165.205 61.7338C165.58 61.662 166.306 61.5264 166.625 61.3987C167.24 61.1594 167.088 60.6807 167.655 60.8163C168.38 60.9918 168.109 60.8802 168.7 60.4254C169.362 59.9148 169.354 60.0425 169.952 60.1941C170.319 60.2898 171.939 60.3536 172.274 60.1781L172.545 60.0345C173.51 59.6835 173.247 59.3963 174.101 59.6356V60.3456L172.537 61.3269C172.106 61.5104 171.54 61.5184 171.205 61.8774C171.029 62.0689 171.085 61.9173 171.013 62.2364C171.308 62.755 171.412 62.5874 172.106 62.5874C172.138 62.1885 172.178 62.1566 172.306 61.8774C173.111 61.8774 173.032 62.0928 173.303 62.7071C174.691 62.7071 174.021 61.5742 175.289 62.5874C176.007 62.1327 176.717 61.3508 176.965 61.4306C177.587 61.6301 176.781 62.2284 176.55 62.4358L173.853 64.4383C173.191 64.7893 172.952 64.3904 172.513 64.6138C171.532 65.1244 173.016 65.4355 170.008 65.4275C169.434 65.8663 169.21 64.9808 169.21 66.8476C169.585 66.9513 169.633 67.1906 170.048 67.0231C170.407 66.8795 170.176 66.7199 170.742 66.7917C171.444 66.8795 171.883 66.7279 172.593 66.7279C172.792 66.3689 172.8 65.8105 173.789 65.7786C173.845 66.0578 173.885 66.1296 173.885 66.4886C175.249 66.4886 174.244 67.1428 175.321 66.7917C176.35 66.4567 176.454 66.3609 176.47 67.1986C175.959 67.3422 175.736 67.3422 175.098 67.2784C174.34 67.1986 174.851 67.5417 173.941 67.3661C173.438 67.2704 173.032 67.3901 172.633 67.3821C172.17 67.3741 172.01 67.5417 171.396 67.5496L170.128 67.6135C169.617 67.6613 169.537 67.8767 168.963 67.8368C168.747 67.8209 168.532 67.8209 168.373 67.8368C167.136 67.9645 168.396 68.0762 166.617 67.9007C165.86 67.9007 165.58 67.6693 165.126 67.5496C164.886 67.9725 164.79 68.3235 164.232 68.3793C164.12 69.9589 163.618 69.4563 163.434 70.2701C164.671 70.2701 164.447 70.3259 165.461 69.951C165.995 69.7515 165.78 70.0148 166.37 69.8632C166.841 69.7435 166.825 69.5122 167.311 69.7914C167.296 70.6371 166.984 70.2781 166.514 70.2781C166.234 70.2781 165.341 70.8126 165.038 70.9961C164.495 71.3311 164.025 71.395 163.506 71.371C162.828 71.3391 163.179 71.73 162.533 71.8098C161.942 71.8816 161.871 71.6263 161.384 71.8497C161.113 71.9694 160.227 72.831 159.645 72.9905C159.389 72.7911 159.334 72.7911 159.246 72.4002C158.831 72.4401 158.831 72.5517 158.648 72.8709C159.03 73.0384 158.711 72.9267 158.911 73.0304C159.022 73.0942 159.062 73.1102 159.198 73.1581C160.546 73.6447 160.482 73.2139 160.833 72.9905C161.4 72.6315 161.711 72.9506 161.926 73.1102C162.541 73.5809 161.926 73.2059 162.924 73.1022C163.522 73.0384 163.69 73.2937 164.208 73.2299C164.782 73.166 165.429 71.9375 166.179 72.7671C166.426 73.0384 166.697 73.2857 166.793 73.6926C167.694 73.6926 167.16 73.4213 167.79 73.2219C168.341 73.2777 168.085 73.541 168.708 73.6766C169.13 73.7644 171.061 73.2618 170.263 74.251C170.016 74.5622 168.213 74.634 168.117 74.618C167.99 74.5941 167.846 74.4983 167.655 74.4664C167.112 74.3787 167.678 74.4824 167.176 74.5143C166.418 74.5622 166.29 73.6527 165.804 73.2299C165.349 73.5171 165.548 73.3575 165.349 73.9878C165.094 74.8175 164.4 74.7377 163.969 74.9531C163.642 75.1126 163.737 75.336 163.394 75.4477C163.219 75.5036 162.636 75.5036 162.381 75.5434C161.017 75.7748 160.897 75.6073 159.637 75.9503C159.764 76.5965 159.78 76.4689 159.541 77.0193C159.038 77.0034 159.15 76.8598 158.592 76.9475C157.937 77.0592 158.265 77.0193 157.778 76.8598C157.259 76.6923 157.594 76.9156 157.068 76.9555L156.366 77.131C157.012 78.2798 158.624 76.8997 159.549 77.8411C160.714 79.4526 160.331 77.8411 161.735 77.8411C161.863 78.5032 161.775 78.4394 161.416 78.7585C160.562 79.5084 161.727 79.2691 160.076 79.5324C159.661 79.5962 159.23 79.7956 158.687 79.8994C158.161 79.9951 157.898 79.7398 157.307 79.8994L155.983 80.3381C155.752 80.4259 155.64 80.4977 155.361 80.5456C153.582 80.8647 154.419 81.0402 153.55 81.3433C152.983 81.5428 152.824 81.5189 152.393 81.8619V82.5719C152.959 82.6278 152.529 82.7953 153.286 82.8192L154.611 82.7714C155.233 82.7873 155.273 82.0374 155.584 82.6836C156.294 82.7076 155.879 82.8831 156.637 82.6437C157.084 82.5001 157.403 82.6278 157.85 82.532L158.871 82.4363C159.701 82.4602 159.485 81.7422 160.794 82.2767C161.153 82.4203 161.456 82.532 161.767 82.6677C162.485 82.9868 163.019 82.7953 163.745 82.7953C164.152 83.5213 164.695 83.5931 164.822 84.3111L164.639 84.5744C163.889 84.335 164.136 83.6569 163.091 83.9042C162.636 84.0159 162.684 84.0638 162.15 84.0957C161.504 84.1356 161.727 84.2074 161.256 84.335C161.28 84.6541 161.304 84.6541 161.36 84.9254C162.597 85.2684 161.783 84.5983 162.756 84.5664C162.932 84.9653 162.86 84.8057 162.916 85.1807L163.147 85.7471C163.61 85.7471 163.769 85.5636 164.128 85.6354C164.479 85.6992 164.447 85.8748 164.735 86.1061C164.934 86.0503 165.62 85.771 165.74 85.803C166.179 85.9306 165.875 86.4252 165.612 86.5609L164.128 87.0475C164.096 87.0635 163.945 87.1353 163.921 87.1512C163.442 87.4384 163.466 87.6299 162.668 87.4863C162.118 87.3906 162.293 87.3507 161.807 87.7017C161.105 88.2123 160.977 88.4915 160.458 88.9383C160.562 89.385 160.722 89.2414 160.538 89.7281L160.06 90.3583C159.509 90.1828 159.78 89.7759 158.911 89.9275L157.571 90.2386C157.586 91.0364 157.93 90.8928 157.674 91.539C157.196 91.3875 157.563 91.3396 157.076 91.18C156.837 91.3715 156.892 91.4114 156.605 91.563C156.43 91.6587 156.478 91.6108 156.31 91.6906C155.608 92.0257 155.496 91.898 155.289 92.2411C155.416 92.8155 155.744 92.7836 156.15 92.991C156.765 93.3021 157.658 93.2623 157.977 93.7808C157.81 94.5307 156.725 94.6504 156.19 94.9695C156.119 95.0094 155.831 95.2408 155.775 95.3205C155.688 95.4482 155.584 95.7194 155.648 95.879C155.799 96.222 156.214 95.8152 156.685 95.7992C156.924 97.0198 157.499 96.2141 157.93 96.4454C158.663 96.8443 157.722 98.1128 157.371 98.5117C156.533 99.461 155.656 100.355 154.698 101.128C154.411 101.36 154.355 101.328 154.028 101.519C153.286 101.958 153.382 102.357 152.225 102.692C150.446 103.211 150.67 104.024 150.031 104.694C149.928 104.806 149.872 104.822 149.736 104.942L149.449 105.181C148.739 105.508 148.46 104.312 147.622 105.859C147.399 106.266 146.88 106.705 146.441 106.689C145.739 106.665 145.604 106.521 144.87 106.96C143.075 108.045 143.737 108.859 142.819 108.851C141.918 108.843 141.559 109.497 140.817 109.84C140.314 110.072 140.067 110.47 139.588 110.742C139.277 110.925 139.301 110.877 139.006 111.109C138.783 111.284 138.607 111.42 138.368 111.539C138.128 111.659 137.921 111.667 137.682 111.787C137.243 112.002 137.506 111.954 137.115 112.297C136.533 112.816 135.895 113.119 135.248 113.51C134.052 114.244 134.323 113.885 133.916 113.638C133.326 113.287 132.847 113.765 132.432 113.949C131.89 114.188 132.121 114.204 131.81 114.396C131.435 114.627 131.18 114.364 130.741 114.89C130.478 115.209 130.589 114.89 130.103 115.074C130.031 115.098 128.667 115.887 127.997 116.007C127.638 116.071 127.526 115.983 127.199 116.119C126.696 116.318 126.345 116.55 125.739 116.629C123.904 116.877 123.441 117.124 121.806 117.627C121.487 117.73 121.367 117.698 121.072 117.818C120.872 117.898 120.585 118.065 120.362 118.161L116.748 119.549C116.253 119.773 115.743 119.86 115.28 120.06C114.817 120.259 114.347 120.395 113.82 120.57C113.66 120.618 113.644 120.642 113.437 120.714L107.972 122.732C106.935 123.091 106.042 123.514 105.02 123.833L102.787 124.615C102.475 124.727 102.38 124.751 102.093 124.855L98.3749 126.115C97.8563 126.314 97.2739 126.299 96.8272 126.53L89.3998 129.059C89.0966 129.163 88.8972 129.139 88.5461 129.226L86.2326 129.905C86.0251 129.968 85.7619 130.08 85.5465 130.152C85.012 130.335 84.5094 130.335 83.9988 130.559L82.3872 131.013C81.9804 131.109 81.9325 131.085 81.5735 131.229C80.2891 131.731 78.7892 131.739 77.6803 132.162L75.3348 132.8C74.7604 132.968 71.7767 133.71 71.3858 133.55C71.1943 133.885 71.5852 133.718 70.8912 133.798L66.7108 134.611C66.1364 134.635 66.2481 134.627 65.7694 134.795C64.2536 135.337 63.5356 135.122 62.9851 135.266C61.7087 135.601 61.6847 135.258 61.0704 135.585C60.7513 135.76 60.6636 135.864 60.2407 135.904C58.5016 136.055 58.9723 135.888 57.4006 136.43C57.0576 136.55 56.9698 136.654 56.6667 136.742C56.1242 136.127 56.555 136.271 55.47 136.271C54.8796 137.587 54.0579 136.797 53.675 136.742C52.6857 136.598 52.3826 137.013 51.4731 137.324C50.1647 137.771 50.5157 137.436 50.069 137.372C49.5983 137.308 49.5504 137.874 48.3697 137.252L46.6704 137.164C45.1626 137.515 46.2316 137.101 44.3888 137.428C43.232 137.635 43.2798 136.805 43.9101 136.726C44.6999 136.622 44.4286 137.037 45.4498 136.67L46.8539 136.207C47.4203 136.063 47.899 136.103 48.3936 135.904C48.7686 135.752 48.6569 135.649 48.992 135.617C50.2046 135.489 49.3749 135.561 50.1567 135.042C52.0475 133.782 49.4627 133.989 48.6888 134.005C48.1703 134.013 48.2101 133.909 48.1064 134.372C47.8671 134.221 47.6836 134.165 47.6118 133.901C47.1571 133.734 46.9656 133.59 46.6066 133.439C44.8914 132.697 44.8275 133.822 43.6628 133.518C42.5937 133.239 42.865 133.79 41.5407 133.782C40.352 133.774 40.8705 134.5 39.7536 134.5C39.6499 134.037 39.6898 134.244 39.4026 133.965C38.166 132.808 38.8521 134.061 37.8948 133.646C36.1556 132.88 35.7727 134.396 35.7727 132.84C36.4029 132.338 37.3124 132.354 38.0623 132.609C38.6128 132.8 38.8362 132.41 39.251 132.729C39.4106 132.856 39.3627 132.928 39.602 133.159C40.1764 133.71 40.1924 132.904 40.2802 132.633C40.5434 131.819 41.421 131.7 41.8199 131.508C42.873 131.013 42.123 130.886 43.0804 131.013C43.3995 131.053 43.5112 131.021 43.7027 130.798L44.1335 130.24C44.4526 130.439 44.4925 130.607 44.9312 130.607C45.394 130.607 45.3461 130.463 45.7211 130.359C46.0003 129.889 46.1917 129.944 46.3194 129.29C45.4977 129.37 45.1786 129.601 45.4179 128.357L45.035 128.221L44.6281 128.341C44.5324 128.349 44.3329 128.333 44.2292 128.333C44.1734 128.062 44.1494 128.062 44.1335 127.743C44.4925 127.543 45.1307 127.535 45.5376 127.399C46.0242 127.24 46.3673 127.264 46.9656 127.24C48.4495 127.192 48.2341 125.628 49.8217 125.038C50.7311 124.703 51.8002 124.974 52.6219 124.583C52.957 124.424 53.4675 124.16 53.7867 124.073C53.8824 123.754 53.4915 123.586 54.2813 123.363C54.4887 123.578 54.5525 123.562 54.5765 123.953C55.6136 123.953 56.6427 123.714 57.5363 123.331C58.9005 122.756 58.358 122.413 59.052 122.421C59.5227 122.429 59.4031 122.533 59.9695 122.445C60.8311 122.318 60.3923 122.126 60.7912 121.639C60.9986 121.384 61.0465 121.536 61.238 121.225C60.9029 120.634 60.9268 121.033 59.8738 121.129C59.5866 121.153 59.6424 121.185 59.2754 121.241C58.9005 121.296 58.717 121.161 58.3021 121.28C57.8953 121.392 57.4006 121.304 57.0496 121.456C56.2757 121.799 56.3555 121.584 55.4859 121.727C54.0818 121.951 53.2362 122.565 52.5341 122.453C51.9358 122.357 52.1911 122.501 51.7523 122.605C51.0822 122.764 50.9944 122.581 50.3562 123.083C50.1089 123.283 50.0131 123.267 49.9812 123.706C50.3163 123.738 50.3482 123.793 50.5796 123.945C50.1647 124.87 50.4041 124.129 49.5823 124.424C49.3988 124.488 49.2074 124.695 48.984 124.432C48.7925 124.2 48.9361 124.464 48.8962 124.113C48.8324 123.578 48.6888 123.482 48.0985 123.466C45.8647 123.411 47.3565 124.559 46.3034 124.663C46.0561 123.578 45.2743 124.208 44.5244 123.945C44.0218 123.77 43.934 123.793 43.5032 123.786C43.1203 123.778 42.9448 123.602 42.4182 123.602C41.7002 124.878 41.4848 123.825 40.9663 124.232C40.695 124.448 40.8147 124.504 40.6232 124.655C40.0967 125.07 39.9212 124.464 39.3787 124.831C38.5649 125.373 39.1712 125.086 38.3974 124.831C38.0304 124.711 37.0332 125.413 35.9402 125.485C35.31 125.525 32.9964 124.743 34.4563 123.004C35.0626 122.278 35.2382 122.565 35.7886 121.863C36.0679 121.512 36.3949 121.416 36.73 121.209C37.5358 120.714 37.6156 121.073 38.2299 120.267C38.4612 119.964 38.8442 119.852 39.2111 119.661C41.1817 118.616 39.8254 118.137 40.8306 118.033C40.3041 117.18 38.5171 117.499 37.8469 116.964C38.0304 116.143 38.8441 115.999 39.4425 115.664C39.4425 115.042 39.5223 115.289 39.2829 115.026C39.2111 114.946 39.1393 114.922 39.0356 114.85C38.7325 114.635 39.0276 114.659 38.549 114.595C38.166 114.547 38.0942 114.707 37.6555 114.715C37.4241 114.148 37.4799 113.805 37.7671 113.319C39.267 110.806 39.5063 111.412 40.3599 110.486C40.9663 109.832 41.6603 109.505 42.2986 108.883C43.1921 108.013 43.9819 108.005 44.1175 107.383C43.7027 107.495 43.5351 107.766 43.2878 107.83C42.9527 107.918 42.7613 107.742 42.3225 107.734C41.796 107.718 41.7561 107.862 41.3253 107.862C40.7748 107.862 40.9742 107.742 40.4078 107.822C39.3627 107.973 39.4186 107.614 38.6128 108.412C37.7352 109.282 38.3415 108.34 37.5517 109.752C36.754 109.752 36.738 109.378 36.3551 110.223C34.6318 110.223 34.951 110.798 33.6745 111.18C33.2597 111.308 33.3075 111.412 33.0443 111.492C32.4379 111.683 30.8663 111.643 30.9062 110.494C30.962 108.819 31.8715 108.875 32.1826 108.46C32.3183 108.277 32.3502 108.005 32.5018 107.774C32.9166 107.136 33.5229 106.952 34.0654 106.561C34.576 106.194 34.8712 105.221 35.8525 104.543C36.8178 103.873 36.7141 103.378 38.0464 103.011C37.9985 102.349 38.0623 102.804 37.831 102.732C37.7831 102.716 37.807 102.756 37.6156 102.7C37.1688 102.556 37.2246 102.429 36.6582 102.413C35.3179 102.381 32.7571 103.219 34.1372 101.799C34.6558 101.264 34.6239 101.128 35.2621 100.761V100.171L34.1771 99.828C33.6825 99.8839 34.0096 100.291 33.0762 100.291C32.9166 99.477 32.9964 98.9505 33.3554 98.376C33.6585 97.8894 33.9138 97.5862 34.225 97.0437C34.6717 96.2619 35.8923 95.3365 35.9562 94.3712C35.645 94.5467 35.6849 94.451 35.286 94.5228C35.1185 94.5547 34.8074 94.6504 34.6398 94.7062C33.1161 95.1769 32.3422 94.6823 32.0151 94.778C31.5285 94.9137 31.5444 95.3205 30.962 95.1131L29.7494 94.6424C29.191 94.4749 28.8798 94.7461 28.4729 94.7621C28.3293 94.7701 28.1538 94.7062 27.8267 94.7541C27.2523 94.8339 26.3349 94.8738 25.8004 94.7222V94.3712C26.3987 94.2036 26.7577 94.0521 27.4917 94.0122L30.4834 93.6053C30.6908 93.5654 30.5472 93.5973 30.6589 93.5255C30.6828 93.5096 30.7466 93.4457 30.7706 93.4298C30.8663 93.3739 30.8025 93.366 30.986 93.3261L31.68 93.3181C32.3821 93.3021 31.9912 93.2303 32.4698 93.0788C32.5815 92.991 32.422 93.0788 32.6613 92.9511C32.8528 92.8474 32.6932 92.9192 32.8847 92.8554C33.0762 92.7916 33.1799 92.8075 33.2437 92.8155C33.7064 92.8873 33.2995 93.0309 33.9617 92.8474C33.9298 92.4086 33.6506 91.8741 33.4671 91.547C32.781 91.547 31.6003 91.9698 31.0817 91.4273C30.986 91.2518 30.986 91.6986 30.986 91.0763H30.3876C30.3797 91.5151 30.3637 91.6348 30.0526 91.7465C28.9676 92.1374 28.8958 91.0524 27.9304 91.2199C26.6221 91.4433 27.3481 91.0604 26.4067 91.0604C25.7206 91.0604 25.5211 91.4513 25.0026 91.539C24.1489 91.6826 24.2846 91.1561 23.5347 91.196C23.048 91.2199 22.5294 91.4114 21.8593 91.2837C20.8222 91.0843 21.5402 91.0125 20.5749 91.4672C20.1201 91.6826 19.7532 91.7863 19.1548 91.7863C19.0032 91.0125 19.1389 91.2518 19.6814 90.9886C20.535 90.5737 19.5856 90.1349 21.3088 89.6084C22.0747 89.377 21.7795 89.8078 22.3699 89.2175C22.8486 88.7388 22.8725 89.0021 23.4389 89.0579C23.9495 89.1138 24.2287 88.9542 24.6595 88.8744L27.2124 88.5952C27.1805 88.1724 26.9252 87.7176 27.4119 87.6458C27.7709 87.59 27.8587 87.8932 28.2097 87.9969C28.5767 87.7097 28.4011 87.6698 28.7043 87.4065C29.2149 87.5501 29.8052 88.7069 29.901 87.4065C30.3876 87.4225 30.4514 87.606 30.7945 87.6139C30.9939 87.6139 31.3928 87.5262 31.7917 87.5262C31.5444 87.1273 31.8077 87.4863 31.4567 87.215C31.4407 87.1991 31.4168 87.1831 31.3928 87.1672C31.1216 86.9677 31.1375 86.9438 30.6589 86.8481C29.9728 86.7204 29.7893 86.9597 29.2468 87.1033C28.3932 87.3347 28.6245 86.8959 27.8666 86.9996C27.0848 87.1034 27.1008 86.6486 27.4119 86.0981C27.3002 86.0343 27.2683 86.0263 27.1327 85.9545C25.928 85.2844 25.944 86.6007 25.0185 85.8668C25.226 84.9254 26.2152 85.2286 26.9252 84.8137C27.7868 84.3031 27.4996 84.8456 28.3214 84.5823C28.465 84.5345 28.4809 84.5185 28.5527 84.4866C28.6644 84.4387 28.6804 84.4308 28.6644 84.4308C28.6724 84.4308 28.6804 84.4228 28.6883 84.4228C29.0154 84.3271 28.9596 84.4786 29.3106 84.5425C29.4303 84.5664 29.5739 84.5664 29.6936 84.5664C29.9887 84.5664 30.2999 84.5584 30.5951 84.5584C30.619 84.5026 30.7227 84.1835 30.7466 84.1515C31.0498 83.6968 30.7227 84.3031 31.321 83.6569C31.8795 83.0506 31.7838 83.6809 32.2146 83.1782C32.5177 82.8352 32.2465 82.8591 32.5496 82.5081C32.8528 82.1491 32.9007 82.4762 34.0016 81.9895C34.943 81.5747 35.0467 81.838 35.4695 81.5986C35.3738 81.3194 35.661 81.4311 35.1344 81.2795C34.6478 81.1359 34.2409 81.6226 33.9617 81.6704C33.6984 81.7103 33.5229 81.4869 33.0363 81.6704C32.6852 81.7981 32.8288 81.9656 32.2624 81.7582C31.2413 81.3832 31.6003 81.7422 30.3956 81.7183C29.0154 81.6944 29.7175 81.9975 29.183 82.1092C29.0474 82.1411 29.0952 82.1092 28.8479 82.0294C28.6564 81.9736 28.5846 81.9098 28.3134 81.9417C27.6432 82.0135 28.0741 82.3725 27.1008 82.4124C26.638 82.4363 26.8534 82.3964 26.638 82.2927L25.5291 81.83C23.5745 80.7849 22.3699 82.5241 22.7369 80.6493C23.5745 80.6493 23.6862 80.4179 24.3484 80.3142C24.9627 80.2185 25.3855 80.0908 25.5291 79.4685C25.0744 79.2133 24.9068 79.7079 24.133 79.7079C23.9655 79.3329 23.9655 79.0936 23.8378 78.7585H22.5454C22.4098 78.5272 22.3619 78.4314 22.2502 78.1682C21.5003 78.1682 21.1333 78.6149 20.5589 78.2878C20.6626 77.7453 20.7265 77.7772 21.2131 77.6416L24.0373 76.9874C24.5319 77.0353 24.5399 77.2587 25.0345 76.9874C25.3855 76.796 25.2339 76.7242 25.8801 76.7082C26.2232 76.7002 26.2551 76.8438 26.7338 76.8757C27.0688 76.8997 27.4837 76.8757 27.8347 76.8757C27.9544 76.6125 28.0022 76.5167 28.1299 76.2854C28.8718 76.2854 28.9436 76.5247 29.6936 76.1338C30.4116 75.7588 30.2281 75.3759 30.7147 75.2163C31.2413 74.8893 31.0578 75.0568 31.2173 74.267C31.6481 74.0197 31.5444 74.3468 31.8157 73.908C31.4646 73.3336 30.8503 73.4373 30.2201 73.4373C30.0685 72.6794 30.3717 72.2725 29.7654 72.3922C29.3266 72.4799 29.1032 72.9427 28.5288 72.6076C28.5767 71.9215 29.3744 71.6662 30.0286 71.3072C30.6748 71.1237 30.9142 70.7408 31.1934 70.5653C31.6322 70.294 32.3821 70.4775 32.7012 70.2302C33.0841 69.927 32.9804 69.5122 33.9617 69.6957C34.56 69.8074 34.9031 69.6638 35.3977 69.5281C35.4296 69.1293 35.4775 69.0973 35.5972 68.8181C36.4827 68.8181 36.5465 68.8101 37.0172 68.2597C37.3363 67.8847 37.6475 67.5815 37.8868 67.1587C38.2538 67.3661 39.0994 67.7491 39.4664 67.3821C39.626 67.2225 39.61 67.055 39.6738 66.9194C39.8813 66.5763 39.6579 66.696 40.1685 66.6801C40.1685 64.9967 40.3121 65.9461 40.3679 65.1403C39.6419 64.6776 39.8254 65.0047 39.0755 65.0207L38.6048 65.2919C38.1022 65.4594 37.5438 65.627 37.089 65.4993V65.0286C38.0384 64.7654 38.2139 64.9329 38.9638 64.3027C39.2271 64.0793 39.4824 63.9197 39.8174 63.7681C40.2642 63.5607 40.344 63.7203 40.695 63.6405C41.3093 63.4969 40.9902 63.3054 41.6603 63.2496C42.1709 63.2097 42.2986 63.2416 42.6496 63.0102C43.4075 62.5156 43.2559 62.747 43.4952 62.5954C43.7984 62.3959 43.6229 62.1805 44.0537 61.8375C44.7956 62.0449 44.1813 62.4438 45.1227 62.3002C45.9763 62.1646 45.5854 61.9971 45.9365 61.4785C46.2157 61.0716 46.6624 61.2392 47.0374 61.0158C47.2608 60.8881 47.2608 60.7525 47.4682 60.577C47.6756 60.4015 47.4762 60.5531 47.7235 60.4095L47.9309 60.3057C46.9257 60.3057 47.2608 60.0664 46.7183 59.9547C46.112 59.8271 46.1439 60.1701 45.5376 60.1861C45.1307 59.1729 45.7929 58.3352 46.4071 57.4337C48.1782 54.8649 48.5053 55.0244 50.2525 53.2533C50.6913 52.8145 50.6753 52.8465 51.1859 52.5912C51.4731 52.4476 51.497 52.3678 51.7762 52.2242C52.223 51.9928 52.0315 52.3279 52.2948 51.8971C50.9306 51.8971 51.7683 51.5142 49.6142 52.0247C48.8803 52.2003 47.8432 52.304 47.0135 52.3678L43.7027 52.9342C42.6336 53.3092 42.6017 52.9183 41.8039 53.1576C40.4796 53.5565 40.5275 53.381 39.2032 53.6123C38.7005 53.7001 38.2618 53.6283 37.7751 53.6921C37.3284 53.7559 37.1927 53.8756 36.5705 53.9235C35.1903 54.0272 35.31 53.9554 33.9617 54.3702C33.4112 54.5378 32.7092 54.4979 31.9433 54.5777C31.4646 54.6255 31.7199 54.5298 31.3928 54.5457C31.0019 54.5617 30.8982 54.8569 30.2041 54.8728C29.4143 54.8888 29.518 55.0005 28.9197 55.1281C28.082 55.3036 27.6273 54.3862 26.7896 55.0723C26.5024 55.3036 26.7896 55.2717 26.287 55.4233C25.3217 55.7025 24.9707 55.4313 24.4202 55.3675C22.8565 55.168 22.9124 55.543 21.9471 55.8302C21.5641 55.9498 21.1174 55.9897 20.6786 56.0934C19.9845 56.269 19.9686 56.2051 19.442 55.9578C18.9155 55.7025 19.0112 56.0615 18.4528 56.2929C18.1895 56.4046 18.2453 56.3966 17.99 56.2769C17.0088 55.8302 17.4635 56.261 16.8412 55.8621C16.0514 55.3515 16.0115 55.9179 15.2856 55.91C14.9505 55.91 15.126 55.8062 14.6314 55.8701C14.1128 55.9419 13.1236 56.0695 12.6928 55.8222C12.7326 55.2159 13.0358 55.2797 13.5863 55.2318L16.0674 54.9925C16.4503 54.9606 16.8173 54.7372 17.0886 54.7213C17.2481 54.7133 17.3997 54.817 17.5513 54.801C17.7507 54.7771 17.7746 54.6495 17.998 54.5856C18.1815 54.5298 18.6522 54.6016 19.0431 54.5138C19.5697 54.3862 19.4979 53.8676 21.0456 54.2905L21.253 53.8198C21.6758 53.8198 22.8166 53.732 23.1836 53.6283C23.3272 53.5884 23.8857 53.4288 23.9335 53.365C24.0771 53.1815 23.8538 53.1257 23.8378 52.5194H22.8406C22.7608 53.6602 21.8832 52.7986 21.7476 52.7587C21.5163 53.3331 21.62 53.3331 21.1493 53.7081C20.5669 52.6709 20.8302 52.7507 19.3543 52.7667C17.4635 52.7906 18.3012 51.57 17.5433 52.1284C17.1284 52.4316 17.5433 52.2401 17.28 52.663C17.0726 52.998 17.2401 52.8225 16.8732 52.9023C15.6685 53.1576 15.9318 52.2401 14.9824 52.288C14.3841 52.3119 14.5755 52.4875 13.9533 52.3359C12.6289 52.0008 12.613 52.5832 11.887 52.663C11.3684 52.7188 11.2009 52.5513 10.6983 52.5353C10.3074 52.5194 9.89253 52.5353 9.50162 52.5353C5.99934 52.5353 8.50439 52.6231 6.15092 53.1895C5.68023 53.3012 5.56056 53.1975 5.52067 52.655C6.18283 52.5912 6.17485 52.5593 6.46206 52.0008C6.83702 51.2748 7.02051 51.4025 7.28378 51.3227C7.92998 51.1232 7.45131 51.0435 8.20921 50.9397C8.76766 50.8679 8.80754 50.5568 9.08677 50.3893C9.39791 50.2058 9.98029 50.3095 10.4031 50.2935L12.2859 50.0462C13.0358 49.9585 12.1742 49.8149 14.1846 49.8149C14.1766 49.2405 13.9293 48.682 14.4958 48.8336C15.0781 48.9932 14.775 49.3202 15.477 49.3362C15.5329 49.049 15.5807 48.8575 15.6765 48.6262C16.0594 48.7458 16.2987 49.0969 16.6737 49.3362C16.8891 49.0969 17.0168 48.8256 17.272 48.6262C17.5273 48.698 17.5273 48.7698 17.7188 48.8176C18.1257 48.9214 17.9821 48.8256 18.1815 48.7618C18.8197 48.5544 18.4687 48.9852 18.9713 48.7618C19.1069 48.698 19.1309 48.6022 19.3862 48.5384C19.5697 48.4905 19.7292 48.5065 19.9287 48.4746C20.2238 48.4267 20.4552 48.2831 20.8541 48.2672V48.0278C20.3116 48.1794 19.9287 48.0119 19.1708 48.1714C18.357 48.339 18.4049 47.9002 17.5672 47.9002C16.211 47.9082 16.5381 48.4427 14.1846 47.7885C14.2325 47.1184 14.4399 47.3417 14.4958 47.1343C14.5277 47.0306 14.7032 47.0785 14.3521 46.903C14.1687 46.8152 14.2006 46.8471 13.9931 46.8312C13.5544 46.7992 12.5651 47.0864 12.597 46.4881C12.613 46.0972 12.8443 46.169 13.1076 46.169C14.5676 46.161 14.5356 45.7621 15.1739 45.7701C15.6446 45.7781 15.485 45.8898 15.9318 45.8419C17.0726 45.7143 17.272 45.8977 18.1735 45.5467C18.7479 45.3233 18.724 45.5786 19.1309 45.3872C20.7584 44.6053 19.3862 45.2037 20.8142 44.9005C21.2769 44.8048 21.7237 44.6213 22.1864 44.5176C23.2475 44.2862 22.8007 44.7729 24.5399 44.2463C24.8191 44.1586 24.9228 44.1506 25.2339 44.1267C26.0557 44.0549 25.9679 43.8474 26.5583 43.6959C27.0768 43.5602 27.6752 43.6719 28.2177 43.656C28.7681 43.64 29.1351 43.4725 29.6616 43.3608C30.1802 43.2491 30.6429 43.2411 31.1615 43.1294C32.047 42.9459 31.7758 43.0895 32.1986 42.3476C32.7571 42.4035 32.4938 42.571 33.0921 42.3556C33.4751 42.212 34.6957 42.1801 35.7807 41.8769C35.8046 41.5578 35.8285 41.5578 35.8764 41.2865C37.2725 41.2865 37.2645 41.6296 36.6742 40.5765C36.3471 40.6084 35.9562 40.7201 35.6769 40.8238C35.0547 41.0472 35.3179 40.8398 34.7834 40.8318C33.7702 40.8079 33.4591 41.4302 33.1879 41.6456C32.7411 41.3663 32.4778 41.0791 31.7279 41.1988C31.5763 41.2227 31.1774 41.2706 30.9301 41.3185C30.6988 41.3663 30.5233 41.478 30.244 41.5738C29.5819 41.7892 29.3824 41.6136 28.6165 41.6376C26.4785 41.7094 27.6512 42.6907 26.0636 42.196C25.7844 42.1083 26.0876 42.1721 25.7685 42.0843L24.2527 41.9966C23.5027 42.0524 23.9814 42.3556 22.6491 42.3556C21.7157 42.3476 21.9949 42.7146 21.1573 42.7146C21.0535 42.2359 21.1333 42.3715 20.6626 42.3556C20.3754 43.632 19.7053 42.571 18.8756 42.579L16.9769 42.8263C16.5939 42.8981 16.6897 42.7066 16.5859 43.1853C15.3095 43.1853 15.6924 42.6508 15.0702 43.1454C14.2963 43.7597 13.7777 43.4326 12.8523 43.1374C12.4534 43.0098 12.5571 42.9858 12.2221 42.8183C11.0334 42.22 9.62129 43.1853 9.31015 42.4832C8.99103 41.7413 9.99624 41.9487 10.4191 41.7732C11.7354 41.2227 11.0573 41.6535 11.879 41.5099C12.4454 41.4142 12.7247 41.0951 12.597 40.4648C12.0226 40.4648 12.0625 40.3851 11.6875 40.6802C11.2887 41.0073 11.6078 40.9355 10.9057 40.9355C10.818 40.4808 10.81 40.4648 10.81 39.8665C10.3473 39.8665 10.084 39.8904 9.66915 39.9383C9.13464 40.0101 9.20644 39.7947 8.8953 39.5314C8.29696 39.0448 7.73851 40.026 7.03646 39.6272C7.07635 39.0687 7.16411 39.1325 7.61884 39.0208C8.26505 38.8613 8.24112 38.7017 9.35004 38.4783C9.88455 38.3746 9.77286 38.3507 10.1319 38.2231C10.9376 37.9279 11.5998 38.3028 11.7115 38.3028C12.0785 38.3108 12.1263 38.0316 12.4295 37.872C13.1874 37.4811 13.339 38.0555 14.0969 38.0954C15.2377 38.1513 15.2058 37.4731 15.6845 37.4332C15.844 37.4173 16.1472 37.513 16.5461 37.4492C18.1895 37.178 17.3997 37.0902 17.9262 36.5876C18.365 36.1727 19.0671 36.787 19.4739 36.8987C20.2637 36.2685 19.9366 36.5956 20.5031 36.2286C21.0775 35.8616 20.8701 35.5824 21.261 35.2393C21.4125 34.984 21.2689 35.0878 21.5561 35V34.641C21.0456 34.4974 20.9419 34.282 20.0643 34.282L19.7851 34.4336C19.458 34.5612 19.3144 34.5293 19.0112 34.4735C18.5884 34.3937 18.3331 34.4017 17.8704 34.4017C17.9422 33.3406 18.0459 34.4575 19.6494 33.7953C22.4098 32.6545 21.5003 33.8831 22.6172 33.2927C23.3193 32.9178 22.9044 33.3566 24.0452 33.2369L24.5478 33.1172C25.0983 32.9018 24.8829 32.9816 25.6328 32.9816C25.6408 32.5189 25.6089 32.7024 25.7286 32.3912H26.3269C26.3987 32.7502 26.4785 32.846 26.6221 33.1013C27.2922 33.0375 26.654 32.8619 28.0182 32.8619C28.7282 31.6014 28.8878 32.4152 29.7255 32.0482C30.1882 31.8488 29.9887 31.7211 30.5312 31.761C32.1587 31.8886 31.5604 31.5296 32.43 31.2504C33.132 31.0191 37.2805 30.5883 37.6634 30.7239C38.3256 30.9712 38.9558 30.9712 39.5382 30.7079L41.5167 30.2133C42.1071 30.1096 42.9448 30.0617 43.5351 29.8942C43.5351 29.1203 43.4553 29.4793 43.7824 29.1283C44.1016 28.7853 43.926 29.0485 44.1255 28.5938C44.5563 28.5938 45.2583 28.4981 45.4897 28.5459C45.8327 28.6097 46.0481 28.873 46.4949 28.873C48.4654 28.865 47.6996 29.0246 48.4973 28.1231C49.1196 28.1869 48.9441 28.4103 49.2951 28.5938C49.5584 28.7374 49.4387 28.6496 50.0929 28.3624C50.5955 28.1391 50.4519 28.1231 50.7631 27.7402C51.489 26.8546 51.6247 27.5407 52.231 27.7082C52.7655 27.8598 53.1006 27.6125 53.5314 27.4849C55.2865 26.9743 53.9303 27.1817 54.5605 26.9344C55.1987 26.6871 55.0073 27.6444 56.0205 26.8945L56.2119 26.7669C57.2251 26.2164 57.2092 26.9105 57.9431 26.9344C58.0229 26.5754 57.9351 26.719 58.2223 26.5515C58.9005 26.1685 59.3153 26.5515 59.5068 26.6153C60.2726 26.8786 61.3018 25.4425 62.0836 25.7936C62.7139 26.0728 61.9161 26.2962 62.6102 26.4079C63.3042 26.5275 63.8068 26.2004 64.118 25.5143C64.8918 25.5143 64.5887 25.6659 65.0275 25.4106C65.8492 24.9399 66.6868 25.7856 67.2772 24.6527C67.2772 24.6448 67.3091 24.0225 68.0032 24.3017C68.3542 24.4453 68.1229 24.4453 68.4898 24.565C68.6494 24.4214 68.4499 24.4453 68.8887 24.4453C68.9446 24.2379 68.6414 24.4294 69.1121 24.2379C69.495 24.0783 69.7424 24.2538 69.886 23.6156C70.4045 23.6316 70.3886 23.7672 70.7555 23.9028C71.306 24.1023 71.0826 23.9188 71.4097 23.6475C72.3272 22.8976 72.3591 25.1154 73.468 23.1449C74.553 23.4481 76.2682 22.6822 77.441 22.6662C77.8399 22.6583 78.2467 22.6902 78.6456 22.6742C79.1482 22.6583 79.1642 22.5306 79.6349 22.5546C80.329 22.5785 79.8663 22.746 80.5045 22.5226C81.3182 22.2354 81.2225 22.7939 81.2225 22.7939C81.7012 22.746 81.6692 22.5625 82.132 22.4508C82.475 22.3711 82.7223 22.3551 83.0574 22.2434C83.5201 22.0918 83.4802 22.052 84.0147 21.9642C84.8684 21.8286 84.6769 20.9271 85.363 21.5414C85.8496 21.9722 85.6422 21.8924 86.2725 21.5813C87.2059 21.1185 88.0755 21.6531 89.2562 20.9749C89.6471 20.7516 90.5007 21.0228 92.0963 20.5681L93.9392 20.0415C94.2822 19.9378 94.6332 20.0176 95.0401 19.9298C95.3672 19.866 95.3911 19.7464 95.5268 19.5549C95.5347 19.5389 95.5587 19.499 95.5667 19.4911C95.5826 19.4751 95.6305 19.3874 95.6544 19.3554C96.6437 19.9777 98.2552 19.531 99.6433 19.3634C100.561 19.2517 100.481 18.6295 101.239 18.5337C101.757 18.4699 101.702 18.7092 102.292 18.6215C103.68 18.422 103.337 18.0231 103.896 17.7918C104.183 17.6721 104.382 17.7998 104.805 17.8237C106.137 17.8955 105.954 17.345 106.608 17.2413C107.111 17.1615 107.19 17.2493 107.677 17.0897C107.805 17.0498 107.948 16.986 108.14 16.9302C109.201 16.619 108.642 16.6031 109.376 16.3877C110.573 16.0367 110.07 16.3478 110.653 16.3318C111.889 16.2999 111.227 16.6589 112.049 16.4994C112.304 16.4515 112.695 16.2281 112.982 16.2122C113.429 16.1962 113.238 16.3637 113.828 16.1244C115.32 15.5181 114.362 16.26 115.559 15.6936C115.878 15.542 116.74 15.5261 117.482 15.2628C117.968 15.0873 117.976 15.1591 118.519 15.0713C119.484 14.9198 119.748 14.7762 120.37 14.5847L121.12 14.3852C122.348 13.8826 122.292 14.1459 122.907 13.7869C123.728 13.3082 123.936 13.8986 124.518 13.1008C124.662 13.5316 124.813 13.4598 125.611 13.4598C125.795 13.1327 125.771 13.1008 125.906 12.7498C126.313 12.8774 126.249 13.1247 126.513 13.3401C126.975 13.7151 127.311 13.2444 127.311 13.2444C127.845 12.9093 127.709 13.2364 128.188 13.2125C128.563 13.1886 128.563 12.9891 128.826 12.8056C129.209 12.5344 129.313 12.7258 129.688 12.5264C130.143 12.2871 129.903 12.0796 130.31 11.9839C130.589 11.9201 130.693 12.1913 131.156 12.1355L132.783 11.585C133.382 11.4095 133.039 11.3138 133.509 11.1462C133.82 11.0345 134.203 11.1303 134.538 11.0665C134.746 11.0266 135.065 10.9149 135.352 10.8511C135.679 10.7713 135.895 10.6755 136.214 10.5798C136.621 10.4601 136.828 10.5479 137.243 10.5C137.977 10.4043 137.746 10.0612 138.543 9.56662C138.535 9.00817 138.432 9.1757 138.543 8.85659C139.046 9.01615 138.783 8.9603 138.743 9.56662C140.29 9.13581 140.083 8.8167 140.442 8.39387C141.064 7.65991 141.288 8.29814 141.83 6.96584C142.173 7.07753 142.221 7.5562 144.016 7.5562C144.224 7.04562 143.952 7.10944 144.415 6.96584C144.742 7.24506 144.622 7.02168 144.511 7.5562C145.029 7.50833 144.686 7.46047 145.5 6.84617C145.987 6.47919 145.811 6.16805 146.298 6.02445L146.41 5.99254C146.425 5.99254 146.457 5.98456 146.473 5.98456C147.686 5.81703 147.295 5.56971 147.877 5.28251C148.412 5.01924 148.252 5.59365 149.258 4.56451C149.601 4.21348 149.633 3.87841 150.175 3.87841C150.805 3.87841 150.877 4.3491 151.348 3.86246C151.547 3.65503 151.539 3.56727 151.779 3.4157L152.146 3.25614C153.342 2.68173 152.592 3.03276 153.382 3.1604C153.821 3.2322 153.893 2.96096 154.443 3.08063C154.667 3.12849 154.547 3.0886 154.667 3.17636L154.722 3.22423ZM176.119 65.603C176.223 66.1296 176.318 65.994 175.92 66.3131C175.8 66.0977 175.72 66.1056 175.72 65.8424C175.72 65.603 175.928 65.627 176.119 65.603ZM162.485 88.2123L163.769 88.2841C163.897 88.2841 164.033 88.2123 164.28 88.2123C165.157 88.2123 164.575 89.5127 164.184 89.5127C162.756 89.5127 163.386 89.1616 162.892 89.1616C161.607 89.1616 162.222 90.1589 161.2 89.5127C161.711 88.6112 161.145 88.2123 162.493 88.2123H162.485ZM16.3067 89.6323C16.9689 89.6323 17.2561 89.8717 17.7986 89.8717C18.1975 89.8717 18.1097 89.5206 18.6203 90.0711C19.5138 91.0205 19.0272 91.7066 18.4209 90.9008C18.1097 90.486 18.2453 90.462 17.5912 90.462C17.5194 90.7732 17.3518 90.8928 17.3518 90.8848C17.3438 90.8689 17.3119 90.9168 17.296 90.9327C16.4663 90.7014 16.8971 90.462 15.4052 90.462C14.8548 90.462 14.408 90.7811 14.2006 90.3583C13.7299 89.4089 15.8919 89.6323 16.2987 89.6323H16.3067ZM139.198 8.19443C139.198 7.96307 139.493 7.87531 139.692 8.07476C139.557 8.68108 139.198 8.61725 139.198 8.19443ZM45.1626 124.312C45.2903 124.623 45.4418 124.799 44.8674 125.261C44.7478 125.046 44.668 125.054 44.668 124.791C44.668 124.551 44.9711 124.376 45.1626 124.32V124.312ZM183.881 68.8022C183.674 67.7571 183.929 68.2118 184.576 68.2118C185.357 68.2118 185.349 67.7411 185.668 67.7411C186.227 67.7411 185.924 67.789 186.051 67.9964C186.211 68.2357 186.187 68.4671 186.761 68.9218C187.184 68.7862 186.937 68.6825 187.256 68.6825C187.735 68.6825 187.424 68.7702 187.83 68.9537C188.525 69.2649 188.812 69.0415 189.251 68.9218C189.314 69.233 189.546 69.8712 189.051 69.8712L186.562 69.7515C186.235 69.1691 185.972 68.4511 185.166 68.4511C184.839 68.4511 185.286 68.8022 183.873 68.8022H183.881ZM168.261 83.3617C168.732 83.5133 168.588 83.7527 168.907 83.8963C169.186 84.0239 169.426 83.8324 169.848 83.8324C170.136 83.8324 170.255 84.1356 170.742 84.1914C171.077 84.2313 171.58 84.1914 171.939 84.1914C171.627 85.5716 169.705 85.0211 168.755 85.0211C168.684 84.8456 168.684 84.726 168.66 84.6621C168.42 84 168.157 84.4467 168.157 83.7207C168.157 83.4894 168.189 83.5133 168.253 83.3617H168.261ZM178.409 74.1314C178.409 73.7245 179.669 73.5809 179.916 73.549C180.291 73.5091 180.555 73.6048 180.682 73.6128C181.217 73.6527 182.214 73.1501 182.286 74.1234C181.775 74.1234 181.552 74.1074 181.169 74.2191C180.666 74.3707 179.677 74.2989 179.111 74.3787C178.839 74.4186 178.409 74.6739 178.409 74.1234V74.1314ZM163.259 77.8889C164.886 77.7613 164.033 77.7214 164.671 78.2798C165.684 78.0006 165.054 78.0884 165.668 78.2798C165.62 78.9899 165.285 78.9659 164.775 79.1095C164.743 79.0537 164.495 78.6468 164.487 78.6309C164.2 78.2559 164.583 78.5192 164.096 78.3756C163.466 78.1921 163.618 78.5192 163.091 78.5192C162.461 78.5192 162.684 77.8411 162.692 77.8092C162.987 77.8411 162.987 77.9129 163.267 77.8969L163.259 77.8889ZM180.196 64.4303L181.273 64.5819C181.704 64.6936 182.334 64.3665 182.788 64.6696C182.788 65.4834 182.262 65.0366 181.592 65.0446C181.041 65.0446 180.483 65.5233 179.901 65.3797C179.908 64.8292 180.02 64.7574 180.196 64.4303ZM173.327 10.3405C173.646 10.0852 173.574 10.1251 174.069 10.0214C174.396 9.95753 174.619 9.9336 174.619 10.3405C174.619 10.8191 173.989 10.8191 173.526 10.8112L173.319 10.3405H173.327ZM182.677 69.9988H182.972V70.3578H182.677V69.9988ZM182.007 71.2673C181.967 71.028 182.07 70.9482 182.278 70.9482C182.509 70.9482 182.469 71.2753 182.477 71.5386C182.206 71.5306 182.055 71.5705 182.007 71.2673ZM174.946 84.2951C175.608 84.718 175.018 85.0371 174.523 85.0371C174.188 85.0371 174.26 84.8855 174.308 84.6861C174.332 84.5983 174.484 84.1835 174.523 84.0877L174.946 84.2951ZM176.909 77.2188C178.209 77.2188 177.866 76.8598 178.305 77.0991C178.01 77.6257 178.129 77.3943 177.515 77.4741C177.132 77.522 177.435 77.6257 177.132 77.5299C176.885 77.4501 176.989 77.4661 176.909 77.2188ZM178.6 67.6294C178.6 67.3821 179.198 66.9673 179.198 67.6294C179.198 68.4751 178.6 68.0602 178.6 67.6294ZM177.005 82.7794C177.443 82.915 177.443 83.1144 177.005 83.25V82.7794ZM176.51 84.0797C176.646 84.0797 176.709 84.2393 176.709 84.4308V85.0211H176.31V84.5504C176.31 84.2632 176.087 84.0797 176.51 84.0797ZM166.258 84.6701C166.258 84.5584 166.833 83.7527 166.857 84.9094C166.689 84.9573 166.258 85.2605 166.258 84.6701ZM167.152 77.8092C167.527 77.8092 167.399 78.7825 166.657 78.2798C166.729 77.9687 166.849 77.8092 167.152 77.8092ZM169.936 77.4502C170.215 77.6735 170.367 77.7932 170.136 78.2798C169.936 78.2798 169.737 78.3357 169.737 77.9288C169.737 77.6656 169.817 77.6655 169.936 77.4581V77.4502ZM173.718 77.3305C173.718 77.1071 173.973 76.9874 174.324 77.2188L174.212 77.6895C173.821 77.6815 173.981 77.7214 173.718 77.5698V77.3305ZM178.991 85.6195C179.047 85.2206 179.43 85.4519 179.613 85.4679C180.132 85.5158 179.885 85.1328 180.188 85.6195C179.645 85.6195 179.326 85.8109 178.991 85.6195ZM167.551 86.9199C167.974 87.0555 167.926 87.2071 167.846 87.6458L167.455 87.5102C167.455 87.0714 167.439 87.2071 167.559 86.9199H167.551ZM177.603 63.9596C177.603 63.9596 177.826 63.4809 177.898 64.3186C177.26 64.2388 177.595 63.9756 177.603 63.9596ZM170.144 76.3891C170.144 76.1498 170.351 76.1737 170.543 76.1498C170.535 76.7561 170.63 76.4928 170.343 76.7401C170.183 76.6045 170.144 76.7162 170.144 76.3891ZM173.829 16.7307C174.563 16.8025 174.42 16.8344 174.428 17.3211C173.965 16.9142 174.531 16.986 173.829 16.9621V16.7227V16.7307ZM173.032 84.1994C173.207 84.1994 173.191 84.3749 173.231 84.5504C172.84 84.5425 173 84.5823 172.736 84.4308C172.76 84.2553 172.856 84.1914 173.032 84.1914V84.1994ZM175.521 86.5688C175.409 87.0555 175.449 86.9837 175.122 86.8082C175.162 86.5609 175.289 86.5928 175.521 86.5688ZM178.999 71.2115C178.768 71.0519 178.959 71.1237 178.999 71.0679C179.071 70.9881 178.967 70.8445 179.119 71.0679C179.238 71.2354 179.095 71.2833 178.991 71.2194L178.999 71.2115ZM180.81 71.1237C181.057 71.02 180.794 71.3072 180.698 71.1875C180.531 70.9881 180.81 71.1237 180.81 71.1237ZM144.192 4.69215C144.838 4.44484 144.335 4.31719 145.269 4.31719C145.229 4.89958 144.997 4.90755 143.873 4.90755C143.769 5.35431 143.33 5.72129 143.274 4.90755C143.545 4.82777 143.96 4.77991 144.192 4.69215ZM161.192 76.1577C161.551 76.1577 161.488 76.4529 161.488 76.8678C161.081 76.9715 160.738 76.9635 160.69 76.2774C160.81 76.2216 161.033 76.1577 161.184 76.1577H161.192ZM25.7605 87.9969C25.7365 88.3319 25.7605 88.4676 25.4653 88.4676H25.1701C25.1701 87.6857 25.2978 87.949 25.7685 87.9969H25.7605ZM133.142 116.183C133.565 115.935 133.797 115.832 134.124 116.047C134.012 116.558 133.98 116.406 133.597 116.605C133.23 116.789 133.063 117.044 132.632 116.757C132.783 116.486 132.903 116.318 133.142 116.183ZM131.244 117.355C131.252 116.964 131.419 117.012 131.738 117.004V117.355H131.244ZM130.645 117.355H131.14C131.044 117.459 131.228 117.395 130.901 117.547C130.733 117.627 130.797 117.579 130.637 117.595V117.355H130.645ZM23.6703 94.7461C23.6703 94.2675 25.0664 94.1877 25.0664 94.8658C25.0664 95.1769 23.6703 95.3604 23.6703 94.7461ZM10.8339 55.5669C11.4642 55.5669 11.6556 55.4791 11.9269 55.9259C11.5918 56.5163 11.6636 56.237 11.2089 56.1892C10.7621 56.1413 11.0254 56.3248 10.435 56.1573C10.459 55.8062 10.5068 55.5669 10.8339 55.5669ZM11.9269 49.057C12.3657 49.1766 12.4215 49.0729 12.5252 49.5277C12.1503 49.6234 11.9748 49.6792 11.9269 49.057Z" stroke="#393185" stroke-width="0.757896" stroke-miterlimit="22.9256"/>
</g>
<defs>
<clipPath id="clip0_21_8">
<rect width="189.737" height="138.043" fill="white"/>
</clipPath>
</defs>
</svg>
