<svg viewBox="0 0 29 28" fill="none" xmlns="http://www.w3.org/2000/svg">
<g clip-path="url(#clip0_21_11)">
<path fill-rule="evenodd" clip-rule="evenodd" d="M14.3533 0.667633C21.6138 0.667633 27.539 6.59285 27.539 13.8533C27.539 21.1138 21.6138 27.039 14.3533 27.039C7.09282 27.039 1.1676 21.1138 1.1676 13.8533C1.1676 6.59285 7.09282 0.667633 14.3533 0.667633Z" stroke="#2B2A29" stroke-width="1.33526" stroke-miterlimit="22.9256"/>
<path fill-rule="evenodd" clip-rule="evenodd" d="M14.3533 5.00723C19.2771 5.00723 23.1994 9.01301 23.1994 13.8533C23.1994 18.7771 19.1936 22.6994 14.3533 22.6994C9.42953 22.6994 5.5072 18.6937 5.5072 13.8533C5.5072 8.92956 9.51298 5.00723 14.3533 5.00723Z" stroke="#2B2A29" stroke-width="0.417269" stroke-miterlimit="22.9256"/>
<path d="M1.1676 13.8533H5.5072" stroke="#2B2A29" stroke-width="0.417269" stroke-miterlimit="22.9256"/>
<path d="M14.3533 5.00723V0.667633" stroke="#2B2A29" stroke-width="0.417269" stroke-miterlimit="22.9256"/>
<path d="M23.2828 13.8533H27.6224" stroke="#2B2A29" stroke-width="0.417269" stroke-miterlimit="22.9256"/>
<path d="M14.3533 22.7829V27.1225" stroke="#2B2A29" stroke-width="0.417269" stroke-miterlimit="22.9256"/>
</g>
<defs>
<clipPath id="clip0_21_11">
<rect width="27.7901" height="27.7901" fill="white" transform="translate(0.5)"/>
</clipPath>
</defs>
</svg>
