<svg width="190" height="139" viewBox="0 0 190 139" fill="none" xmlns="http://www.w3.org/2000/svg">
<g clip-path="url(#clip0_21_5)">
<path fill-rule="evenodd" clip-rule="evenodd" d="M28.7043 84.5261C28.6584 84.5353 28.3738 84.6271 28.7043 84.5261ZM5.56453 52.6997C5.05031 52.6905 5.11459 52.663 4.88503 52.3232C4.60037 51.9008 4.83911 52.0294 4.2698 51.8733C3.76477 52.3967 4.12288 52.1763 3.47093 52.5803C3.32401 52.4885 3.44338 52.5712 3.28728 52.4426C2.32312 51.6254 1.20286 52.4518 0.38562 52.2222C0.403985 51.2489 0.798831 51.4142 1.57934 51.3958C2.12111 51.3866 2.77306 51.1203 3.24137 51.1846C3.46174 51.2122 3.78313 51.3499 4.03106 51.3315C4.28817 51.3132 4.49936 51.2122 4.81157 51.3223C4.96767 51.3774 5.02276 51.4417 5.12377 51.5519C5.67472 52.1304 5.54616 52.2039 5.54616 52.6997H5.56453ZM154.724 3.22462C154.963 3.32562 154.853 3.15116 154.926 3.46336C155.836 3.43581 155.404 2.79304 156.341 2.54512C157.029 2.36147 156.855 2.28801 157.81 1.69115C157.957 1.95744 158.425 2.41656 158.691 2.5543C159.059 2.73795 158.948 2.63694 159.279 2.4992C160.271 2.08599 161.262 1.69115 162.3 1.80134C162.833 1.85643 163.338 1.71869 163.815 1.89316C164.596 2.17782 164.293 2.01253 165.183 2.04008C165.789 2.05845 166.037 2.33392 166.551 2.26046C166.937 2.20536 167.332 1.93907 167.699 1.83807C168.608 1.59014 168.168 1.51668 168.719 1.1402C169.251 0.772901 169.288 1.26875 169.839 1.19529C170.371 1.12183 170.426 0.589252 170.996 0.800448C171.473 0.974915 171.519 1.2963 172.153 0.984098C172.704 0.717806 172.621 0.607617 173.447 0.625982C174.669 0.644346 174.136 0.414785 174.751 0.387238L175.945 0.745354C176.56 0.947368 176.533 1.01164 176.937 1.34221C176.937 2.17782 176.661 2.51757 176.257 2.90323C175.201 3.90412 175.449 3.40827 174.963 3.52764C174.705 3.59192 174.65 3.80311 174.43 4.04186C174.063 4.45507 173.558 4.4918 172.97 4.66626C170.243 5.46514 172.226 5.27231 170.619 5.89671C169.931 6.16301 169.536 6.22728 169.123 6.48439C168.691 6.75068 167.047 7.22817 166.496 7.38427V7.74239C167.02 7.76075 167.167 7.93522 167.562 8.13723C168.673 8.70655 170.628 8.66063 171.179 8.80755C171.161 9.54215 171.032 9.3585 169.701 10.0013C169.673 10.0105 169.655 10.0196 169.628 10.038C169.6 10.0472 169.572 10.0564 169.554 10.0656C168.737 10.442 169.38 10.9287 169.462 10.9746C169.894 11.2225 169.976 10.9103 170.261 10.7726C170.72 10.5614 170.757 10.8093 171.097 10.6991C171.372 10.6073 171.4 10.4696 171.914 10.3686C172.355 10.2859 172.447 10.3594 172.768 10.4512V10.9287C171.841 11.1858 171.62 11.195 171.427 11.8286C171.207 12.5632 171.133 12.9948 170.472 13.1784C170.472 13.9956 170.491 13.6283 170.775 14.1242C171.335 14.1242 171.657 13.9773 172.061 14.014C172.667 14.0599 172.538 14.2528 173.209 13.9406C173.594 13.7569 173.787 13.5365 174.173 13.4171C174.806 13.2151 174.384 13.7202 174.935 13.6926C174.981 13.6926 175.716 13.3804 176 13.3345C176.569 13.2427 176.505 13.4171 177.056 13.307C177.653 13.1876 177.497 13.0499 177.993 12.7468L178.25 12.5815C178.975 12.0765 178.929 12.3703 179.306 12.7376C179.728 13.1509 180.077 13.408 180.637 13.408C180.637 12.9305 180.601 13.0315 180.738 12.7009C181.804 12.7285 181.262 13.4998 183.135 12.6917C183.456 12.554 183.521 12.5999 183.622 13.059C183.622 13.7753 181.5 14.0048 181.133 14.0048C180.564 14.014 180.123 14.2803 179.719 13.913C179.49 13.711 179.113 13.1784 178.847 13.059C178.333 13.5916 178.681 13.3161 178.424 13.9773C178.268 14.3813 178.461 14.115 178.112 14.317L177.001 14.8863C176.643 15.0884 176.698 15.2904 176.551 15.6577C175.578 15.6577 175.651 15.6577 174.898 15.9423L172.584 16.5851C172.364 16.8606 172.685 16.9524 172.557 17.4115C172.437 17.8523 172.355 17.6319 171.886 17.687C171.391 17.7421 171.639 17.7513 171.28 18.0359C171.17 17.9625 171.161 17.9625 171.032 17.8615C170.601 17.5217 170.84 17.5768 170.39 17.5676C170.362 17.9349 170.298 18.1369 170.188 18.394L171.721 18.4583C172.116 18.5042 172.584 18.192 172.786 18.5961C173.007 19.0368 172.814 18.7797 172.768 18.8623C172.593 19.6429 172.548 18.7981 172.373 19.5694C173.934 19.5694 174.338 18.7154 174.366 19.9275C173.815 20.0836 173.429 20.0744 172.942 20.3591C172.649 20.5336 172.658 20.5795 172.29 20.6529C171.675 20.7723 171.767 20.5519 170.298 21.0019L168.994 21.4702C168.654 21.8191 168.682 21.8007 168.195 21.9385C167.075 22.2415 166.818 22.618 166.469 22.7282C166.138 22.8292 165.615 22.8016 165.385 22.8567C164.742 23.0036 164.954 23.1046 164.55 23.2883C164.164 23.4628 163.944 23.2699 163.576 23.5546C163.191 23.8484 163.668 23.628 163.246 23.876C162.979 24.0321 162.034 24.0872 161.63 24.0872C161.382 24.2892 161.253 24.2708 160.969 24.3718C160.491 24.5463 160.638 24.6381 160.344 24.7116C158.691 25.134 158.857 25.8227 158.572 25.9788C158.269 26.144 158.526 25.7767 158.085 25.9145C157.718 26.0247 157.911 26.043 157.745 26.4562C158.26 26.6032 158.691 26.5848 159.343 26.5848C160.243 26.5756 160.014 26.245 160.73 26.2267C161.299 25.9053 162.171 26.0339 162.686 25.6023C163.007 25.336 162.989 25.0972 163.585 25.1891C164.201 25.2809 165.055 25.4737 165.615 25.0605C166.313 24.5463 166.34 24.9411 166.955 24.6473C167.314 24.4728 167.112 24.5187 167.323 24.3626C167.635 24.1423 167.855 24.3351 168.287 24.3351C168.507 23.3526 168.654 24.28 170.078 23.9862C170.867 23.8209 171.381 23.8392 171.767 23.1597C172.419 23.3434 172.235 23.6648 172.887 23.0771C173.457 22.5629 173.943 22.7741 174.595 22.9853C176.092 23.4536 175.275 23.3342 176.34 23.1965C176.707 23.1506 176.395 23.325 176.9 23.1046C177.13 23.0036 177.212 22.8475 177.479 22.9945C177.965 23.2607 177.699 23.8301 177.322 23.9678L176.138 24.4453C175.504 24.5555 175.357 24.3994 175.054 24.932C175.174 25.4645 175.394 25.5196 175.853 25.639C176 25.3176 176.046 25.0421 176.248 24.8126C176.772 25.1432 176.606 25.3911 176.946 25.9971C177.662 25.9971 177.506 25.7859 178.039 25.639C178.388 25.9145 178.626 26.2175 179.122 25.9879C179.389 25.8686 180.004 25.2717 180.022 25.9788C180.031 26.3552 179.848 26.3736 179.636 26.4654C178.81 26.8327 177.58 27.6132 176.744 27.6408C175.66 27.6683 176.294 27.9622 175.642 28.1091C175.348 28.1734 174.503 28.1091 174.145 28.1091C173.236 28.1183 173.613 28.3019 173.356 28.9447C171.244 28.9447 171.492 29.5966 171.363 30.2486C170.729 30.2486 170.243 29.8538 169.673 30.0099C169.692 31.0658 170.573 30.9281 171.253 30.8363C172.382 30.6802 172.281 30.2486 173.154 30.2486C173.337 30.8455 173.787 30.4965 174.2 30.4047C174.678 30.3037 174.724 30.7445 175.174 30.9373C175.532 31.0842 175.872 30.9557 176.395 30.9097C176.808 30.873 177.185 31.075 177.616 31.0383C178.424 30.9557 177.947 31.0107 178.636 31.4331C179.884 32.2045 180.16 33.1962 178.617 34.0134C178.131 34.2705 177.864 34.1695 177.405 34.3532C176.863 34.5644 177.019 34.6837 176.248 34.748C175.752 34.7939 175.385 34.95 175.073 34.9225C174.347 34.849 174.724 34.8582 174.145 35.2071C173.383 35.6754 171.28 35.9417 170.27 35.9234C169.628 35.9142 169.6 35.9968 169.077 36.1621C169.334 36.5845 169.242 36.3366 169.765 36.4009C170.252 36.4651 170.399 36.8967 170.858 37.1171C171.308 37.3283 171.464 37.6405 171.96 37.8241C172.731 38.0996 173.539 37.9343 173.558 38.8801C172.603 39.1464 171.519 39.0913 170.592 39.6147C169.986 39.9636 169.288 39.6147 169.077 40.3034C169.986 40.3034 170.739 40.0647 171.565 40.0647C171.73 40.3677 171.795 40.5972 171.96 40.8911C172.447 40.8911 173.025 40.7625 173.255 40.8911C173.548 41.6165 173.053 42.0848 172.593 42.3511C172.107 42.6357 171.758 42.8653 171.299 43.1775L168.379 44.5641C168.434 45.3629 168.682 45.3721 169.38 45.3905C170.206 45.418 169.949 45.7853 170.674 45.868C171.372 45.9414 172.29 45.8037 172.832 45.3629C173.025 45.2068 172.887 45.2895 173.071 45.1793C173.117 45.1517 173.291 45.0783 173.356 45.0415C173.75 45.3537 173.769 45.62 174.357 45.418C174.852 45.2436 174.99 45.1701 175.495 45.4548C176.285 45.9047 176.505 45.4088 177.864 45.6017C178.617 45.7119 178.388 45.3078 179.058 45.7027C179.572 46.0057 180.72 46.3087 180.564 47.2178C180.325 48.5584 178.562 48.6594 178.305 48.7972C177.91 49.0084 178.369 48.8523 177.892 49.1369L176.11 49.6236C175.394 49.7613 175.615 49.7613 174.963 50.0276C174.164 50.3582 173.686 50.3398 173.117 51.1479C172.658 51.7907 172.263 51.5795 172.263 52.6171C172.832 52.9385 174.246 52.6446 174.448 53.5629C174.026 53.8292 171.51 54.6189 170.95 54.729L169.866 55.0963C170.491 56.1064 172.272 53.7282 172.649 55.684C172.97 55.684 174.136 55.6748 174.237 55.8034C174.724 56.3911 173.383 57.4195 173.016 57.6582C172.401 58.0531 171.74 58.5306 171.088 58.7969C170.316 59.1091 169.839 59.5498 168.994 59.7427C167.901 59.9998 167.635 60.4773 165.982 60.7711C165.523 60.8537 165.606 60.9548 165.321 61.0282C165 61.1109 165.036 60.8905 164.632 60.9547C164.136 61.0374 164.394 61.1109 163.98 61.2394C164.109 61.8179 164.724 61.8914 165.229 61.7904C165.606 61.7169 166.331 61.5792 166.652 61.4598C167.268 61.221 167.112 60.7344 167.681 60.8721C168.406 61.0466 168.14 60.9364 168.719 60.4864C169.38 59.9814 169.38 60.1008 169.976 60.2569C170.344 60.3487 171.969 60.413 172.3 60.2477L172.575 60.1008C173.539 59.7518 173.273 59.458 174.136 59.6968V60.4038L172.575 61.3863C172.144 61.57 171.583 61.5792 171.244 61.9373C171.069 62.1209 171.124 61.974 171.051 62.3046C171.345 62.8188 171.446 62.6627 172.144 62.6627C172.171 62.2587 172.217 62.2311 172.346 61.9556C173.154 61.9556 173.071 62.176 173.337 62.7821C174.733 62.7821 174.054 61.6526 175.33 62.6627C176.055 62.2127 176.762 61.4231 177.01 61.5057C177.635 61.7077 176.827 62.3046 176.597 62.5158L173.907 64.5175C173.245 64.8665 173.007 64.4624 172.566 64.692C171.583 65.197 173.071 65.5184 170.059 65.5001C169.481 65.9408 169.26 65.0501 169.26 66.9233C169.637 67.0244 169.683 67.2631 170.096 67.0978C170.454 66.9509 170.224 66.7948 170.785 66.8683C171.482 66.9601 171.923 66.804 172.639 66.804C172.841 66.4459 172.851 65.8857 173.833 65.8582C173.888 66.1337 173.925 66.2071 173.934 66.5652C175.302 66.5652 174.292 67.2172 175.376 66.8683C176.404 66.5377 176.505 66.4367 176.524 67.2723C176.009 67.41 175.789 67.4192 175.155 67.3549C174.393 67.2815 174.907 67.612 173.998 67.4467C173.493 67.3549 173.089 67.4743 172.685 67.4651C172.226 67.4559 172.061 67.6212 171.446 67.6304L170.179 67.6947C169.664 67.7406 169.591 67.961 169.012 67.9151C168.792 67.8967 168.581 67.8967 168.425 67.9151C167.185 68.0436 168.452 68.1538 166.671 67.9793C165.909 67.9793 165.633 67.7498 165.183 67.6212C164.945 68.0436 164.853 68.3925 164.283 68.4476C164.173 70.027 163.668 69.522 163.484 70.3392C164.724 70.3392 164.495 70.3943 165.514 70.0178C166.056 69.8158 165.835 70.0821 166.423 69.9352C166.891 69.8158 166.873 69.5863 167.369 69.8617C167.35 70.7065 167.047 70.3484 166.57 70.3484C166.294 70.3484 165.394 70.881 165.091 71.0646C164.55 71.3952 164.081 71.4595 163.558 71.4411C162.878 71.4044 163.237 71.7992 162.585 71.8819C161.988 71.9553 161.923 71.6982 161.437 71.9186C161.171 72.038 160.28 72.9011 159.701 73.0572C159.444 72.8552 159.389 72.8552 159.306 72.4696C158.893 72.5063 158.893 72.6165 158.71 72.947C159.095 73.1123 158.774 73.0021 158.976 73.1123C159.095 73.1766 159.123 73.1858 159.27 73.2409C160.62 73.7276 160.555 73.296 160.904 73.0756C161.474 72.7175 161.786 73.0297 161.997 73.195C162.612 73.6633 161.997 73.2868 162.998 73.195C163.604 73.1307 163.769 73.3786 164.283 73.3235C164.853 73.2592 165.505 72.0288 166.258 72.8644C166.506 73.1307 166.781 73.3786 166.873 73.7918C167.773 73.7918 167.24 73.5164 167.865 73.3143C168.415 73.3694 168.158 73.6357 168.783 73.7643C169.205 73.8561 171.133 73.3511 170.344 74.3428C170.096 74.655 168.287 74.7284 168.195 74.7101C168.067 74.6825 167.92 74.5907 167.736 74.554C167.194 74.4713 167.754 74.5723 167.258 74.5999C166.496 74.6458 166.377 73.7367 165.881 73.3143C165.431 73.599 165.624 73.4429 165.422 74.0765C165.165 74.9029 164.476 74.8295 164.045 75.0406C163.723 75.1967 163.815 75.4263 163.466 75.5365C163.292 75.5916 162.704 75.5916 162.456 75.6283C161.088 75.8579 160.968 75.6926 159.71 76.0324C159.839 76.6751 159.857 76.5466 159.61 77.0975C159.104 77.0883 159.215 76.9322 158.655 77.0332C158.003 77.1434 158.324 77.1067 157.837 76.9414C157.323 76.7761 157.654 76.9965 157.13 77.0424L156.423 77.2169C157.075 78.3647 158.682 76.9781 159.61 77.9239C160.776 79.5401 160.39 77.9239 161.795 77.9239C161.923 78.5943 161.832 78.5208 161.474 78.8422C160.62 79.5951 161.786 79.3472 160.133 79.6135C159.72 79.6778 159.288 79.8798 158.737 79.9808C158.214 80.0818 157.947 79.8247 157.36 79.9808L156.038 80.4216C155.808 80.5042 155.698 80.5777 155.413 80.6328C153.632 80.9541 154.467 81.1286 153.595 81.4316C153.026 81.6337 152.87 81.6061 152.438 81.9459V82.6529C152.998 82.708 152.576 82.8733 153.329 82.9008L154.651 82.8549C155.275 82.8641 155.312 82.1203 155.624 82.7723C156.331 82.7998 155.918 82.9743 156.68 82.7355C157.13 82.5978 157.452 82.7172 157.892 82.6254L158.921 82.5335C159.747 82.5611 159.536 81.8448 160.84 82.3774C161.198 82.5244 161.501 82.6254 161.813 82.7631C162.53 83.0845 163.062 82.8916 163.788 82.8916C164.201 83.6171 164.742 83.6905 164.862 84.4068L164.678 84.6639C163.925 84.4251 164.173 83.7456 163.126 83.9935C162.667 84.1037 162.722 84.1496 162.19 84.1864C161.547 84.2231 161.767 84.2966 161.299 84.4251C161.317 84.7465 161.345 84.7465 161.4 85.0128C162.631 85.3526 161.822 84.6822 162.796 84.6547C162.97 85.0587 162.897 84.8934 162.961 85.2699L163.2 85.8392C163.668 85.8392 163.824 85.6556 164.182 85.729C164.531 85.7933 164.495 85.9678 164.788 86.1973C164.99 86.1422 165.679 85.8576 165.798 85.8943C166.239 86.0229 165.936 86.5187 165.67 86.6473L164.182 87.1339C164.146 87.1523 163.999 87.2258 163.971 87.235C163.494 87.5196 163.512 87.7124 162.713 87.5747C162.162 87.4829 162.337 87.437 161.85 87.7951C161.152 88.3093 161.024 88.5848 160.5 89.0347C160.601 89.4847 160.757 89.3377 160.583 89.8244L160.105 90.458C159.554 90.2835 159.821 89.8795 158.958 90.0264L157.617 90.3386C157.635 91.1375 157.975 90.9906 157.718 91.6425C157.231 91.4864 157.599 91.4405 157.121 91.2844C156.882 91.4773 156.937 91.514 156.653 91.6701C156.478 91.7619 156.524 91.716 156.359 91.7986C155.652 92.1292 155.551 92.0098 155.34 92.3496C155.468 92.9189 155.79 92.8913 156.203 93.1025C156.818 93.4148 157.709 93.378 158.03 93.8922C157.865 94.6452 156.772 94.7646 156.24 95.0768C156.166 95.1227 155.881 95.3431 155.826 95.4257C155.734 95.5543 155.633 95.8206 155.698 95.9767C155.845 96.3164 156.267 95.9124 156.735 95.9032C156.974 97.1153 157.553 96.3164 157.984 96.546C158.719 96.95 157.782 98.208 157.424 98.612C156.579 99.567 155.707 100.458 154.752 101.229C154.467 101.459 154.412 101.422 154.082 101.615C153.338 102.055 153.439 102.45 152.282 102.79C150.5 103.313 150.73 104.131 150.087 104.792C149.977 104.902 149.931 104.92 149.793 105.04L149.509 105.278C148.793 105.6 148.517 104.406 147.681 105.958C147.461 106.362 146.938 106.803 146.497 106.784C145.799 106.757 145.652 106.61 144.927 107.06C143.127 108.143 143.797 108.961 142.879 108.951C141.979 108.942 141.621 109.603 140.877 109.943C140.381 110.173 140.124 110.568 139.647 110.843C139.335 111.027 139.362 110.981 139.059 111.21C138.83 111.385 138.664 111.523 138.426 111.642C138.187 111.761 137.976 111.77 137.737 111.89C137.305 112.101 137.562 112.064 137.177 112.404C136.598 112.918 135.955 113.221 135.313 113.616C134.119 114.351 134.394 113.993 133.981 113.745C133.394 113.396 132.916 113.873 132.503 114.057C131.961 114.296 132.191 114.314 131.878 114.498C131.502 114.727 131.245 114.47 130.813 114.994C130.547 115.315 130.657 114.994 130.171 115.177C130.106 115.205 128.738 115.994 128.068 116.114C127.71 116.178 127.599 116.095 127.269 116.224C126.764 116.426 126.415 116.656 125.809 116.738C123.972 116.986 123.513 117.234 121.87 117.739C121.548 117.84 121.429 117.813 121.135 117.932C120.933 118.015 120.648 118.18 120.428 118.272L116.819 119.658C116.323 119.879 115.818 119.97 115.359 120.163C114.9 120.356 114.423 120.503 113.899 120.668C113.743 120.723 113.716 120.742 113.523 120.806L108.059 122.826C107.022 123.184 106.122 123.607 105.102 123.928L102.871 124.709C102.559 124.819 102.458 124.846 102.182 124.947L98.4635 126.205C97.9493 126.407 97.3616 126.389 96.9208 126.619L89.5014 129.153C89.1984 129.254 88.9964 129.236 88.6474 129.318L86.3335 129.998C86.1223 130.062 85.8651 130.172 85.6448 130.246C85.1122 130.429 84.6072 130.429 84.0929 130.65L82.486 131.1C82.082 131.191 82.0361 131.173 81.6688 131.311C80.3832 131.816 78.8773 131.816 77.7754 132.247L75.4247 132.89C74.8554 133.055 71.8619 133.799 71.4762 133.643C71.2926 133.983 71.6783 133.818 70.9804 133.891L66.8024 134.708C66.2239 134.727 66.3341 134.727 65.8658 134.892C64.3506 135.434 63.6344 135.222 63.0835 135.369C61.8071 135.709 61.7796 135.36 61.1643 135.691C60.8429 135.865 60.7511 135.966 60.3379 136.003C58.6024 136.15 59.0707 135.985 57.4913 136.526C57.1424 136.646 57.0598 136.747 56.7568 136.839C56.215 136.223 56.6466 136.361 55.563 136.361C54.9754 137.683 54.1489 136.885 53.7725 136.829C52.7807 136.683 52.4777 137.105 51.5778 137.408C50.2647 137.849 50.6229 137.518 50.1729 137.454C49.7046 137.39 49.6495 137.95 48.4742 137.334L46.7754 137.252C45.2695 137.601 46.3347 137.188 44.4982 137.509C43.3412 137.711 43.3871 136.894 44.0207 136.811C44.8104 136.71 44.5441 137.123 45.5633 136.756L46.9682 136.297C47.5284 136.15 48.0059 136.196 48.5109 135.994C48.8874 135.847 48.768 135.737 49.1078 135.7C50.3198 135.571 49.4842 135.645 50.2648 135.121C52.1563 133.863 49.5669 134.066 48.7956 134.084C48.2722 134.093 48.3089 133.992 48.2079 134.451C47.9691 134.295 47.7855 134.24 47.712 133.974C47.2621 133.808 47.0693 133.661 46.7111 133.515C44.994 132.78 44.9389 133.9 43.7636 133.588C42.6892 133.303 42.9647 133.863 41.6424 133.854C40.4487 133.845 40.9721 134.571 39.8518 134.571C39.7508 134.111 39.7876 134.313 39.5029 134.038C38.2725 132.881 38.952 134.139 37.997 133.717C36.2523 132.954 35.8758 134.46 35.8758 132.909C36.5002 132.413 37.4185 132.422 38.1623 132.679C38.7132 132.872 38.9336 132.477 39.3468 132.798C39.5029 132.927 39.457 132.991 39.7049 133.23C40.2742 133.781 40.2926 132.973 40.3844 132.707C40.6415 131.889 41.523 131.77 41.9179 131.586C42.9647 131.09 42.2209 130.962 43.1851 131.09C43.5065 131.136 43.6166 131.1 43.8095 130.87L44.2411 130.31C44.5624 130.512 44.5992 130.677 45.0307 130.677C45.4991 130.677 45.444 130.539 45.8204 130.429C46.0959 129.961 46.2979 130.016 46.4173 129.364C45.6001 129.447 45.2787 129.676 45.5174 128.437L45.1409 128.299L44.7277 128.418C44.6267 128.427 44.4339 128.418 44.3237 128.418C44.2686 128.152 44.2502 128.143 44.2227 127.831C44.5808 127.629 45.2144 127.619 45.6276 127.491C46.1143 127.335 46.454 127.353 47.0601 127.335C48.5476 127.28 48.3273 125.719 49.9158 125.14C50.8249 124.8 51.8992 125.076 52.7165 124.681C53.047 124.516 53.5613 124.259 53.8826 124.167C53.9745 123.855 53.5888 123.68 54.3785 123.46C54.5805 123.671 54.654 123.662 54.6815 124.047C55.7191 124.047 56.7476 123.809 57.6383 123.423C58.9973 122.845 58.4647 122.505 59.1534 122.514C59.6309 122.514 59.5023 122.624 60.0716 122.542C60.9348 122.413 60.494 122.22 60.898 121.743C61.1092 121.486 61.1551 121.642 61.348 121.329C61.0174 120.742 61.0358 121.137 59.989 121.238C59.7043 121.265 59.7594 121.293 59.3921 121.357C59.0156 121.412 58.832 121.274 58.4188 121.394C58.0056 121.504 57.5189 121.412 57.1608 121.568C56.3803 121.908 56.4629 121.697 55.5998 121.834C54.1948 122.064 53.3501 122.67 52.643 122.56C52.0461 122.468 52.2941 122.615 51.8625 122.716C51.1922 122.872 51.1004 122.698 50.4668 123.193C50.2188 123.386 50.127 123.377 50.0995 123.818C50.4392 123.855 50.4668 123.91 50.6963 124.057C50.2831 124.984 50.5219 124.24 49.7046 124.534C49.521 124.598 49.3281 124.81 49.1078 124.543C48.9149 124.305 49.0618 124.571 49.0251 124.222C48.9608 123.68 48.8139 123.588 48.2262 123.579C45.9949 123.524 47.4825 124.672 46.4265 124.773C46.1786 123.689 45.398 124.314 44.6451 124.057C44.14 123.882 44.0574 123.901 43.6258 123.901C43.2402 123.901 43.0657 123.717 42.5423 123.717C41.8261 124.993 41.6057 123.937 41.0915 124.35C40.816 124.562 40.9354 124.617 40.7425 124.773C40.2191 125.186 40.0447 124.58 39.5029 124.947C38.6948 125.489 39.2917 125.195 38.5204 124.947C38.1531 124.828 37.1614 125.526 36.0595 125.599C35.4259 125.636 33.1119 124.855 34.5811 123.12C35.1871 122.395 35.3616 122.679 35.9126 121.981C36.188 121.623 36.5186 121.531 36.8584 121.329C37.6664 120.834 37.7399 121.192 38.3551 120.393C38.5847 120.09 38.9703 119.98 39.3376 119.787C41.3119 118.74 39.9528 118.262 40.9537 118.161C40.4211 117.308 38.6398 117.629 37.9694 117.096C38.1531 116.279 38.9703 116.132 39.558 115.792C39.558 115.168 39.6406 115.416 39.3927 115.159C39.3193 115.085 39.2458 115.058 39.1448 114.984C38.8418 114.773 39.1356 114.792 38.6581 114.727C38.2725 114.681 38.199 114.837 37.7674 114.847C37.5379 114.277 37.593 113.938 37.8868 113.451C39.3927 110.935 39.6315 111.55 40.4854 110.613C41.0915 109.952 41.7893 109.631 42.4229 109.007C43.3136 108.134 44.1033 108.134 44.2411 107.501C43.8278 107.611 43.6534 107.877 43.4146 107.941C43.0749 108.033 42.8912 107.85 42.4505 107.84C41.9271 107.831 41.8903 107.969 41.4588 107.969C40.9078 107.969 41.1098 107.85 40.5405 107.932C39.4937 108.079 39.558 107.721 38.7408 108.529C37.8592 109.392 38.4653 108.465 37.6756 109.87C36.8767 109.87 36.8584 109.493 36.4819 110.347C34.7648 110.347 35.077 110.917 33.8006 111.302C33.3874 111.431 33.4333 111.532 33.167 111.614C32.561 111.807 30.9908 111.77 31.0275 110.613C31.0826 108.933 31.9917 108.988 32.3039 108.575C32.4416 108.391 32.4691 108.125 32.6252 107.886C33.0385 107.253 33.6445 107.069 34.1954 106.674C34.7005 106.307 35.0035 105.334 35.986 104.654C36.9502 103.984 36.8492 103.488 38.1806 103.121C38.1347 102.459 38.199 102.909 37.9603 102.845C37.9143 102.836 37.9327 102.873 37.7399 102.808C37.2899 102.671 37.345 102.533 36.7849 102.524C35.4443 102.487 32.8824 103.332 34.2689 101.909C34.7923 101.367 34.7556 101.238 35.3892 100.871V100.283L34.3056 99.9435C33.8098 99.9986 34.1403 100.403 33.2037 100.403C33.0476 99.5854 33.1211 99.062 33.4884 98.4927C33.7914 98.006 34.0485 97.703 34.3607 97.1612C34.8107 96.3807 36.0228 95.4533 36.0962 94.4891C35.784 94.6727 35.8299 94.5626 35.4259 94.6452C35.2606 94.6727 34.9484 94.7738 34.7831 94.8288C33.2588 95.2972 32.4875 94.8105 32.1569 94.9023C31.6703 95.0309 31.6886 95.4441 31.1101 95.2329L29.8981 94.7646C29.3379 94.5993 29.0257 94.8656 28.6217 94.8839C28.484 94.8931 28.3095 94.8288 27.9697 94.8748C27.4004 94.9574 26.473 94.9941 25.9496 94.8472V94.4891C26.5465 94.3238 26.9137 94.1677 27.6392 94.131L30.6326 93.7178C30.8438 93.6719 30.6969 93.7086 30.8071 93.6351C30.8347 93.6168 30.8898 93.5525 30.9173 93.5433C31.0091 93.4882 30.954 93.479 31.1285 93.4331L31.8172 93.4239C32.5242 93.4147 32.1294 93.3321 32.6069 93.1852C32.7171 93.0934 32.561 93.1852 32.7997 93.0566C32.9925 92.9556 32.8273 93.0199 33.0201 92.9556C33.2129 92.8914 33.3139 92.9005 33.3782 92.9097C33.8465 92.9832 33.4333 93.1209 34.0944 92.9373C34.0669 92.5057 33.7822 91.9639 33.5986 91.6334C32.9099 91.6334 31.7345 92.0557 31.2111 91.514C31.1101 91.3395 31.1101 91.7895 31.1101 91.1559H30.5133C30.5041 91.5966 30.4949 91.716 30.1827 91.8262C29.0992 92.221 29.0257 91.1375 28.0616 91.3028C26.7485 91.5232 27.4831 91.1467 26.5373 91.1467C25.8578 91.1467 25.6558 91.5415 25.1324 91.6242C24.2784 91.7711 24.4161 91.2385 23.6632 91.2752C23.1765 91.2936 22.6623 91.4956 21.9828 91.3579C20.9452 91.1559 21.6614 91.0824 20.6972 91.5415C20.2381 91.7527 19.8708 91.8629 19.2739 91.8629C19.1178 91.0916 19.2556 91.3303 19.7973 91.064C20.6513 90.6508 19.6963 90.2101 21.4226 89.6867C22.1848 89.4571 21.8909 89.8887 22.4878 89.2918C22.9653 88.8143 22.9837 89.0714 23.5622 89.1357C24.0764 89.1908 24.3518 89.0347 24.7834 88.9521L27.3361 88.6674C27.3086 88.245 27.0515 87.7951 27.529 87.7216C27.8871 87.6665 27.9789 87.9695 28.3278 88.0797C28.6951 87.7859 28.5207 87.7584 28.8237 87.4921C29.3379 87.6298 29.9256 88.796 30.0174 87.4921C30.5041 87.5012 30.5684 87.6941 30.9081 87.7033C31.1101 87.7033 31.505 87.6114 31.909 87.6114C31.6611 87.2166 31.9274 87.5747 31.5693 87.2992C31.5509 87.29 31.5233 87.2717 31.505 87.2533C31.2295 87.0513 31.2479 87.0238 30.7704 86.9319C30.0909 86.8034 29.898 87.0421 29.3563 87.189C28.5023 87.4186 28.7319 86.987 27.9789 87.088C27.1984 87.189 27.2168 86.7391 27.529 86.1882C27.4188 86.1239 27.3821 86.1147 27.2535 86.0412C26.0506 85.3709 26.069 86.684 25.1415 85.9494C25.3527 85.0128 26.3444 85.3066 27.0423 84.8934C27.9055 84.3884 27.6116 84.921 28.438 84.6547C28.5758 84.6088 28.5941 84.5904 28.6676 84.5629C28.7778 84.5169 28.7962 84.5078 28.7778 84.5078C28.787 84.5078 28.7962 84.5078 28.8053 84.4986C29.1359 84.3976 29.0716 84.5537 29.4297 84.618C29.5491 84.6455 29.6869 84.6363 29.8154 84.6455C30.1092 84.6455 30.4215 84.6363 30.7153 84.6363C30.7337 84.5812 30.8438 84.2598 30.8714 84.2231C31.1744 83.764 30.853 84.37 31.4499 83.7273C32.01 83.1212 31.909 83.7456 32.3406 83.2498C32.6436 82.9008 32.3773 82.9376 32.6712 82.5794C32.9742 82.2213 33.0201 82.5427 34.122 82.056C35.0678 81.6428 35.1688 81.9091 35.582 81.6704C35.4902 81.3949 35.7656 81.4959 35.2514 81.349C34.7648 81.2113 34.3515 81.6888 34.0761 81.7347C33.819 81.7806 33.6353 81.551 33.1486 81.7347C32.7997 81.8632 32.9374 82.0285 32.3681 81.8265C31.3489 81.45 31.707 81.8081 30.5041 81.7898C29.1267 81.7622 29.8246 82.0652 29.292 82.1846C29.1543 82.2121 29.2094 82.1846 28.9523 82.1111C28.7594 82.056 28.6951 81.9918 28.4197 82.0193C27.7494 82.0928 28.1809 82.4509 27.2076 82.4876C26.7485 82.506 26.9597 82.4693 26.7393 82.3682L25.6282 81.8999C23.6723 80.8531 22.4694 82.5886 22.8367 80.7154C23.6723 80.7154 23.7917 80.4858 24.4437 80.3757C25.0589 80.2746 25.4813 80.1461 25.619 79.5309C25.1691 79.2738 25.0038 79.7696 24.2233 79.7696C24.058 79.4023 24.058 79.1544 23.9203 78.8238H22.6255C22.497 78.5851 22.4419 78.4932 22.3225 78.2361C21.5696 78.2361 21.2114 78.6861 20.6329 78.3555C20.7431 77.8138 20.7982 77.8413 21.2849 77.7127L24.1039 77.0608C24.5998 77.1067 24.5998 77.3271 25.1048 77.0608C25.4537 76.868 25.3068 76.7945 25.9496 76.7853C26.2893 76.7761 26.3261 76.9231 26.8036 76.9506C27.1433 76.969 27.5565 76.9506 27.9055 76.9506C28.0248 76.6843 28.0707 76.5925 28.2085 76.3629C28.9523 76.3629 29.0165 76.6017 29.7695 76.2068C30.4857 75.8303 30.3021 75.4447 30.7887 75.2886C31.3121 74.958 31.1285 75.1325 31.2846 74.3428C31.7162 74.0949 31.6152 74.4254 31.8815 73.9847C31.5233 73.4062 30.9173 73.5072 30.2929 73.5072C30.146 72.745 30.449 72.341 29.8338 72.4604C29.393 72.543 29.1726 73.0113 28.6033 72.6808C28.6492 71.9921 29.4481 71.7441 30.1001 71.3768C30.7428 71.1932 30.9908 70.8075 31.2662 70.6331C31.707 70.3668 32.46 70.5412 32.7722 70.2933C33.1486 69.9903 33.0476 69.5771 34.0302 69.7607C34.627 69.8709 34.9668 69.7332 35.4626 69.5954C35.4902 69.1914 35.5361 69.1639 35.6646 68.8884C36.5462 68.8884 36.6104 68.8792 37.0879 68.3283C37.4093 67.961 37.7215 67.6488 37.9603 67.2264C38.3276 67.4376 39.1723 67.814 39.5396 67.4467C39.6957 67.2906 39.6774 67.1162 39.7508 66.9876C39.962 66.6387 39.7325 66.7673 40.2467 66.7489C40.2467 65.0685 40.3936 66.0143 40.4487 65.2062C39.7233 64.7471 39.9069 65.0685 39.154 65.0869L38.6857 65.3531C38.1806 65.5184 37.6205 65.6837 37.1706 65.5552V65.0777C38.1164 64.8114 38.3 64.9859 39.0438 64.3523C39.3009 64.1319 39.5672 63.9666 39.8978 63.8197C40.3477 63.6085 40.4212 63.7738 40.7793 63.6911C41.3945 63.5442 41.0823 63.3606 41.7434 63.3055C42.2485 63.2687 42.3862 63.2963 42.7351 63.0667C43.4881 62.5709 43.3412 62.8004 43.5799 62.6443C43.8829 62.4423 43.7085 62.2219 44.1309 61.8822C44.8746 62.0842 44.2594 62.4882 45.196 62.3413C46.05 62.2127 45.6643 62.0383 46.0133 61.5241C46.2887 61.12 46.7387 61.2853 47.1152 61.0558C47.3355 60.9272 47.3447 60.7895 47.5467 60.615C47.7488 60.4405 47.5559 60.5875 47.8039 60.4497L48.015 60.3395C47.005 60.3395 47.3447 60.1008 46.803 59.9906C46.1969 59.862 46.2245 60.2018 45.6276 60.2202C45.2236 59.2101 45.8847 58.3653 46.4999 57.4746C48.263 54.9035 48.6027 55.0688 50.3474 53.2966C50.779 52.8558 50.7698 52.8926 51.284 52.6354C51.5687 52.4885 51.5962 52.4151 51.8717 52.2681C52.3216 52.0386 52.1196 52.3783 52.3951 51.9376C51.0269 51.9376 51.8717 51.5611 49.7138 52.0661C48.9792 52.2406 47.9416 52.3416 47.1152 52.4059L43.8095 52.966C42.7351 53.3425 42.7076 52.9476 41.9087 53.1864C40.5864 53.5904 40.6323 53.4068 39.3009 53.6363C38.7959 53.7282 38.3643 53.6455 37.8776 53.719C37.4277 53.7832 37.2899 53.9026 36.6747 53.9485C35.2882 54.0495 35.4167 53.9853 34.0669 54.3985C33.5159 54.5638 32.8181 54.527 32.0467 54.6097C31.5693 54.6556 31.8264 54.5638 31.4958 54.5729C31.101 54.5913 30.9999 54.876 30.3021 54.8943C29.5124 54.9127 29.6134 55.0229 29.0165 55.1514C28.1809 55.3259 27.7218 54.4077 26.8862 55.0963C26.6015 55.3259 26.8862 55.2984 26.3812 55.4453C25.417 55.7207 25.0681 55.4545 24.5171 55.3902C22.9561 55.1882 23.0112 55.5646 22.047 55.8493C21.6614 55.9687 21.2114 56.0054 20.7799 56.1156C20.0912 56.2901 20.0728 56.2258 19.5402 55.9779C19.0168 55.7299 19.1087 56.0789 18.5485 56.3176C18.2822 56.4278 18.3465 56.4278 18.0802 56.3084C17.0977 55.8677 17.5568 56.2901 16.9324 55.886C16.1427 55.381 16.0968 55.9411 15.3714 55.9319C15.0408 55.9319 15.2061 55.8309 14.7194 55.8952C14.196 55.9687 13.2135 56.0972 12.7819 55.8493C12.8279 55.2433 13.1217 55.3075 13.6818 55.2616L16.1611 55.0229C16.5376 54.9953 16.9049 54.7658 17.1803 54.7566C17.3456 54.7474 17.4834 54.8484 17.6395 54.83C17.8415 54.8025 17.8598 54.6831 18.0894 54.6097C18.2731 54.5546 18.7414 54.628 19.1362 54.5362C19.6596 54.4077 19.5861 53.8934 21.138 54.3158L21.34 53.8475C21.7624 53.8475 22.901 53.7649 23.2683 53.6547C23.4152 53.6088 23.9662 53.4527 24.0213 53.3976C24.1682 53.2139 23.9386 53.1588 23.9294 52.5528H22.9377C22.8551 53.6914 21.9736 52.8283 21.845 52.7915C21.6155 53.3609 21.7165 53.3609 21.2482 53.7373C20.6697 52.6997 20.9268 52.7732 19.4576 52.7915C17.566 52.8099 18.4016 51.5978 17.6486 52.1488C17.2354 52.4518 17.6486 52.259 17.3824 52.6814C17.1803 53.0119 17.3456 52.8466 16.9783 52.9201C15.7754 53.1772 16.0417 52.259 15.0867 52.3049C14.4899 52.3324 14.6827 52.5069 14.0583 52.3508C12.736 52.0202 12.7177 52.5987 11.9923 52.6722C11.4689 52.7273 11.3036 52.562 10.8077 52.5436C10.4221 52.5253 9.99966 52.5436 9.61399 52.5436C6.10629 52.5436 8.61311 52.6354 6.2624 53.1956C5.79409 53.3058 5.66554 53.2048 5.62881 52.663C6.28994 52.5987 6.28076 52.5712 6.5746 52.011C6.95108 51.2856 7.13473 51.4142 7.39184 51.3315C8.03461 51.1295 7.55712 51.0469 8.31927 50.9459C8.87021 50.8724 8.91613 50.5694 9.20078 50.3949C9.51299 50.2113 10.0915 50.3123 10.5139 50.3031L12.3963 50.0552C13.1492 49.9633 12.2861 49.8256 14.2879 49.8256C14.2787 49.2471 14.0308 48.687 14.6001 48.8431C15.1877 49.0084 14.8847 49.3298 15.5826 49.3481C15.6377 49.0635 15.6836 48.8706 15.7846 48.6411C16.1703 48.7604 16.3998 49.1094 16.7763 49.3481C16.9875 49.1094 17.1252 48.8339 17.3732 48.6411C17.6303 48.7145 17.6303 48.788 17.8231 48.8339C18.2363 48.9349 18.0894 48.8431 18.2822 48.7788C18.9158 48.5768 18.5761 48.9992 19.0719 48.7788C19.2097 48.7145 19.228 48.6227 19.4851 48.5492C19.6688 48.5033 19.8341 48.5217 20.0269 48.485C20.3207 48.4299 20.5503 48.2921 20.9543 48.283V48.0442C20.4126 48.1911 20.0269 48.0258 19.2739 48.1819C18.4567 48.3564 18.5118 47.9065 17.6762 47.9157C16.3172 47.9248 16.6478 48.4574 14.2879 47.8055C14.3338 47.1351 14.545 47.3555 14.6001 47.1535C14.6276 47.0525 14.8113 47.0892 14.4623 46.9239C14.2787 46.8321 14.3062 46.8689 14.1042 46.8597C13.6635 46.8321 12.6809 47.1076 12.7085 46.5199C12.7268 46.1343 12.9564 46.1985 13.2227 46.1985C14.6827 46.1894 14.6552 45.7853 15.2888 45.8037C15.7571 45.8129 15.601 45.9231 16.0417 45.8771C17.1803 45.7486 17.3824 45.9322 18.2822 45.5833C18.8515 45.3629 18.8332 45.62 19.2372 45.418C20.8625 44.6375 19.4943 45.2344 20.9176 44.9314C21.3767 44.8304 21.8267 44.6559 22.2858 44.5457C23.351 44.3069 22.901 44.8028 24.6457 44.2702C24.9303 44.1876 25.0313 44.1784 25.3435 44.1508C26.1608 44.0866 26.0781 43.8754 26.675 43.7193C27.1892 43.5815 27.7953 43.6917 28.337 43.6825C28.888 43.6642 29.2553 43.4989 29.7787 43.3887C30.2929 43.2785 30.7612 43.2693 31.2754 43.1591C32.1661 42.9755 31.8906 43.1224 32.313 42.3786C32.864 42.4337 32.6069 42.6082 33.2037 42.3786C33.5802 42.2317 34.8107 42.2042 35.8942 41.9011C35.9126 41.5798 35.9401 41.5798 35.9952 41.3135C37.3909 41.3135 37.3818 41.6532 36.7941 40.6064C36.4635 40.6431 36.0778 40.7442 35.8024 40.8543C35.1872 41.0839 35.4443 40.8727 34.9117 40.8635C33.9016 40.8452 33.5894 41.4604 33.3231 41.6808C32.8824 41.4053 32.6069 41.1206 31.8631 41.2308C31.7162 41.2584 31.3122 41.3043 31.0642 41.3502C30.8347 41.3961 30.6602 41.5155 30.3755 41.5981C29.7144 41.8093 29.5124 41.6349 28.7502 41.6624C26.6107 41.7359 27.7861 42.7184 26.1975 42.2225C25.922 42.1399 26.2251 42.195 25.8945 42.1032L24.3794 42.0205C23.6264 42.0756 24.1131 42.3786 22.7816 42.3786C21.845 42.3786 22.1297 42.7367 21.2941 42.7367C21.1839 42.2593 21.2665 42.397 20.7982 42.3786C20.5136 43.655 19.8433 42.599 19.0077 42.599L17.1069 42.8469C16.7212 42.9204 16.8222 42.7276 16.712 43.2051C15.4357 43.2051 15.8213 42.6633 15.1969 43.1683C14.4164 43.7835 13.9114 43.453 12.9748 43.1591C12.5707 43.0306 12.6809 43.003 12.3504 42.8378C11.1658 42.2409 9.75173 43.2051 9.43953 42.5072C9.11814 41.7634 10.1282 41.9746 10.5506 41.791C11.8729 41.24 11.1842 41.6716 12.0106 41.5338C12.5707 41.442 12.8554 41.1206 12.736 40.487C12.1667 40.487 12.1943 40.4044 11.827 40.7074C11.4229 41.0288 11.7443 40.9645 11.0465 40.9645C10.9546 40.5146 10.9455 40.4962 10.9455 39.8994C10.4771 39.8994 10.22 39.9177 9.80683 39.9728C9.27424 40.0371 9.3477 39.8259 9.02632 39.5688C8.42946 39.0821 7.86933 40.0647 7.16228 39.6606C7.19901 39.1005 7.29083 39.1648 7.74995 39.0546C8.39273 38.8985 8.37436 38.7332 9.48544 38.5128C10.018 38.4026 9.90783 38.3843 10.2659 38.2557C11.074 37.9619 11.7351 38.3384 11.8453 38.3384C12.2126 38.3475 12.2585 38.0629 12.5616 37.9068C13.3145 37.5211 13.4706 38.0904 14.2328 38.1272C15.3714 38.1822 15.3347 37.5027 15.8213 37.466C15.9866 37.4568 16.2896 37.5487 16.6845 37.4844C18.3281 37.2089 17.5385 37.1263 18.0619 36.6212C18.5026 36.208 19.2005 36.8232 19.6137 36.9334C20.4034 36.309 20.082 36.6304 20.6421 36.2631C21.2206 35.8958 21.0094 35.6112 21.4043 35.2714C21.5604 35.0235 21.4135 35.1153 21.7073 35.0327V34.6745C21.1931 34.5368 21.0921 34.3164 20.2106 34.3164L19.9351 34.4634C19.6045 34.5919 19.4668 34.5644 19.1638 34.5093C18.7414 34.4358 18.4842 34.4358 18.0251 34.4358C18.0986 33.3798 18.1996 34.4909 19.8065 33.8298C22.5704 32.6911 21.6614 33.9216 22.7725 33.3339C23.4795 32.9666 23.0571 33.3982 24.2049 33.2788L24.71 33.1594C25.2609 32.9391 25.0497 33.0217 25.7935 33.0217C25.8027 32.5534 25.7659 32.7462 25.8945 32.434H26.4914C26.5648 32.7921 26.6475 32.8932 26.7852 33.1411C27.4555 33.0768 26.8127 32.9023 28.1809 32.9023C28.888 31.6443 29.0533 32.4616 29.8889 32.0943C30.348 31.8923 30.146 31.7637 30.6969 31.8096C32.3222 31.9382 31.7254 31.5801 32.5977 31.2954C33.3047 31.0658 37.4552 30.6343 37.8317 30.772C38.4928 31.0199 39.1264 31.0199 39.7141 30.7628L41.6883 30.267C42.276 30.166 43.1116 30.1109 43.7085 29.9456C43.7085 29.1743 43.6258 29.5324 43.9564 29.1834C44.2778 28.8437 44.0941 29.11 44.3053 28.6509C44.7369 28.6509 45.4348 28.559 45.6735 28.6049C46.0225 28.6692 46.2336 28.9263 46.6836 28.9263C48.6578 28.9171 47.8957 29.0824 48.6854 28.1825C49.3006 28.2468 49.1261 28.4672 49.4842 28.66C49.7413 28.7978 49.6312 28.7151 50.2831 28.4213C50.7881 28.2009 50.6412 28.1825 50.9534 27.7969C51.6788 26.9062 51.8166 27.5949 52.4226 27.7693C52.9644 27.9163 53.295 27.6683 53.7265 27.549C55.4896 27.0439 54.1214 27.2459 54.755 26.998C55.3886 26.7501 55.2049 27.7051 56.215 26.9613L56.4078 26.8327C57.4179 26.2818 57.4087 26.9796 58.1433 26.998C58.2259 26.6399 58.1341 26.7776 58.4188 26.6215C59.0983 26.2359 59.5115 26.6215 59.7043 26.6858C60.4756 26.9521 61.4949 25.5105 62.2846 25.8594C62.909 26.144 62.1193 26.3552 62.808 26.4746C63.5059 26.594 64.0017 26.2726 64.3139 25.5747C65.0852 25.5747 64.7822 25.7216 65.223 25.4737C66.0494 25.0054 66.885 25.8502 67.4727 24.7208C67.4727 24.7116 67.5094 24.0872 68.1981 24.3718C68.547 24.5096 68.3175 24.5187 68.6848 24.6381C68.8409 24.5004 68.648 24.5187 69.0796 24.5187C69.1347 24.3167 68.8317 24.5096 69.3 24.3167C69.6857 24.1606 69.9336 24.3351 70.0713 23.6923C70.5947 23.7015 70.5672 23.8392 70.9437 23.977C71.4946 24.179 71.265 23.9862 71.5956 23.7199C72.5139 22.9669 72.5414 25.1799 73.6525 23.2148C74.736 23.5179 76.4531 22.7465 77.6285 22.7373C78.0233 22.7282 78.4365 22.7557 78.8314 22.7465C79.3364 22.7282 79.3548 22.6088 79.8231 22.6272C80.5118 22.6547 80.0527 22.82 80.6954 22.5904C81.5127 22.3058 81.4208 22.8659 81.4208 22.8659C81.8983 22.82 81.8708 22.6363 82.3299 22.5262C82.6697 22.4435 82.9176 22.4343 83.2482 22.3241C83.7073 22.168 83.6705 22.1313 84.2031 22.0487C85.0571 21.9109 84.8643 21.011 85.5529 21.6263C86.0396 22.0578 85.8376 21.9752 86.462 21.663C87.3986 21.1947 88.2618 21.7365 89.4463 21.057C89.832 20.8366 90.6951 21.1029 92.2837 20.6529L94.1294 20.1295C94.4783 20.0285 94.8272 20.102 95.2313 20.0193C95.5618 19.9551 95.5802 19.8357 95.7179 19.652C95.7271 19.6337 95.7547 19.5969 95.7638 19.5878C95.773 19.5694 95.8281 19.4776 95.8465 19.45C96.8382 20.0744 98.4451 19.6245 99.8317 19.4592C100.75 19.349 100.676 18.7246 101.429 18.6328C101.944 18.5685 101.889 18.8073 102.485 18.7246C103.872 18.5226 103.532 18.1278 104.092 17.889C104.377 17.7696 104.579 17.8982 105.001 17.9257C106.333 17.9992 106.149 17.4482 106.801 17.3381C107.306 17.2554 107.389 17.3472 107.866 17.182C107.995 17.136 108.142 17.081 108.325 17.0259C109.391 16.7137 108.821 16.6953 109.565 16.4841C110.759 16.1352 110.263 16.4474 110.841 16.429C112.081 16.4014 111.411 16.7504 112.237 16.5943C112.494 16.5484 112.88 16.3188 113.174 16.3096C113.624 16.2913 113.422 16.4657 114.019 16.2178C115.506 15.6118 114.56 16.3555 115.745 15.7862C116.066 15.6301 116.92 15.6209 117.673 15.3546C118.16 15.1802 118.169 15.2536 118.711 15.1618C119.675 15.0149 119.932 14.868 120.556 14.6751L121.309 14.4731C122.54 13.9681 122.485 14.2344 123.1 13.8671C123.917 13.3896 124.128 13.9773 124.707 13.1784C124.854 13.61 125.001 13.5365 125.8 13.5365C125.983 13.206 125.956 13.1784 126.103 12.8295C126.507 12.958 126.442 13.206 126.709 13.4171C127.177 13.7936 127.508 13.3161 127.508 13.3161C128.04 12.9856 127.902 13.3161 128.38 13.2886C128.756 13.2702 128.756 13.0682 129.023 12.8754C129.399 12.5999 129.509 12.7927 129.886 12.5999C130.336 12.3612 130.097 12.1592 130.51 12.0581C130.795 11.9939 130.887 12.2602 131.355 12.2142L132.99 11.6633C133.586 11.4888 133.247 11.397 133.715 11.2225C134.027 11.1032 134.413 11.2042 134.743 11.1491C134.955 11.1124 135.267 11.0022 135.551 10.9287C135.873 10.8461 136.093 10.7542 136.415 10.6532C136.819 10.5339 137.03 10.6257 137.443 10.5706C138.178 10.4788 137.948 10.139 138.747 9.63398C138.738 9.07385 138.637 9.23913 138.747 8.92693C139.252 9.08303 138.986 9.03712 138.949 9.63398C140.492 9.2024 140.29 8.88101 140.648 8.45862C141.272 7.72402 141.502 8.35761 142.034 7.02616C142.374 7.13635 142.429 7.61383 144.22 7.61383C144.422 7.1088 144.155 7.17308 144.615 7.02616C144.936 7.31081 144.817 7.08125 144.716 7.61383C145.23 7.55874 144.89 7.52201 145.707 6.8976C146.194 6.5303 146.019 6.2181 146.506 6.08036L146.616 6.05282C146.635 6.05282 146.662 6.04363 146.681 6.04363C147.893 5.86917 147.498 5.63042 148.086 5.34577C148.618 5.07948 148.462 5.65797 149.463 4.62953C149.803 4.2806 149.839 3.94085 150.381 3.94085C151.015 3.94085 151.079 4.40916 151.556 3.93167C151.758 3.72047 151.749 3.63783 151.988 3.49091L152.355 3.33481C153.558 2.75631 152.805 3.11443 153.595 3.2338C154.036 3.29808 154.1 3.03179 154.651 3.15116C154.871 3.19707 154.752 3.16034 154.871 3.25217L154.724 3.22462ZM176.12 65.6011C176.221 66.1245 176.322 65.9959 175.918 66.3081C175.798 66.0969 175.716 66.0969 175.716 65.8306C175.716 65.5919 175.918 65.6103 176.11 65.5919L176.12 65.6011ZM162.484 88.2083L163.769 88.2818C163.898 88.2818 164.035 88.2083 164.283 88.2083C165.156 88.2083 164.577 89.5122 164.182 89.5122C162.759 89.5122 163.383 89.1541 162.888 89.1541C161.611 89.1541 162.217 90.155 161.198 89.5122C161.703 88.6123 161.143 88.2083 162.493 88.2083H162.484ZM16.308 89.6316C16.9691 89.6316 17.263 89.8703 17.8047 89.8703C18.1996 89.8703 18.1078 89.5214 18.6312 90.0723C19.5219 91.0181 19.0352 91.7068 18.4383 90.9079C18.1261 90.4947 18.2639 90.4672 17.6119 90.4672C17.5385 90.7794 17.3732 90.8988 17.3732 90.8896C17.364 90.8712 17.3364 90.9263 17.3181 90.9447C16.4917 90.7151 16.9232 90.4672 15.4265 90.4672C14.8755 90.4672 14.4348 90.7886 14.2236 90.357C13.7553 89.4112 15.9132 89.6316 16.3264 89.6316H16.308ZM139.206 8.19233C139.206 7.95359 139.5 7.87094 139.702 8.07296C139.564 8.679 139.206 8.61472 139.206 8.19233ZM45.1685 124.305C45.297 124.617 45.4531 124.791 44.8655 125.25C44.7461 125.039 44.6634 125.039 44.6634 124.773C44.6634 124.534 44.9665 124.36 45.1593 124.295L45.1685 124.305ZM183.888 68.7874C183.686 67.7406 183.934 68.1997 184.586 68.1997C185.375 68.1997 185.366 67.7222 185.679 67.7222C186.239 67.7222 185.926 67.7773 186.064 67.9793C186.22 68.2181 186.202 68.4476 186.78 68.9068C187.203 68.769 186.955 68.668 187.276 68.668C187.754 68.668 187.451 68.7507 187.846 68.9343C188.534 69.2465 188.828 69.0261 189.269 68.9068C189.333 69.219 189.563 69.8526 189.067 69.8526L186.578 69.7332C186.248 69.1547 185.982 68.4293 185.183 68.4293C184.852 68.4293 185.302 68.7874 183.888 68.7874ZM168.269 83.3416C168.737 83.4885 168.599 83.7273 168.921 83.8742C169.205 84.0027 169.435 83.8099 169.866 83.8099C170.16 83.8099 170.27 84.1129 170.766 84.168C171.106 84.2047 171.602 84.168 171.96 84.168C171.648 85.5454 169.719 84.9944 168.774 84.9944C168.7 84.82 168.7 84.7006 168.682 84.6363C168.443 83.9752 168.177 84.4159 168.177 83.6905C168.177 83.461 168.204 83.4793 168.278 83.3324L168.269 83.3416ZM178.415 74.1132C178.415 73.7092 179.673 73.5623 179.921 73.5347C180.298 73.4888 180.564 73.5898 180.692 73.599C181.225 73.6449 182.226 73.1307 182.299 74.1132C181.785 74.1132 181.565 74.0949 181.179 74.205C180.674 74.352 179.682 74.2785 179.122 74.3703C178.856 74.4071 178.415 74.6642 178.415 74.1132ZM163.264 77.8688C164.889 77.7403 164.035 77.7036 164.678 78.2545C165.697 77.9699 165.055 78.0617 165.67 78.2545C165.624 78.9616 165.284 78.9432 164.77 79.0809C164.742 79.0258 164.495 78.6218 164.476 78.5943C164.192 78.2178 164.577 78.4841 164.081 78.3371C163.457 78.1535 163.604 78.4841 163.071 78.4841C162.438 78.4841 162.667 77.8046 162.676 77.777C162.97 77.8046 162.97 77.8872 163.255 77.8597L163.264 77.8688ZM180.206 64.4074L181.28 64.5543C181.712 64.6645 182.336 64.3339 182.795 64.6461C182.795 65.4633 182.272 65.0134 181.601 65.0226C181.051 65.0226 180.49 65.5001 179.912 65.3623C179.921 64.8114 180.031 64.7379 180.215 64.4165L180.206 64.4074ZM173.337 10.3135C173.649 10.0656 173.585 10.0931 174.081 9.99209C174.402 9.92781 174.632 9.90945 174.632 10.3135C174.632 10.791 173.998 10.791 173.539 10.7818L173.337 10.3135ZM182.694 69.9719H182.997V70.33H182.694V69.9719ZM182.024 71.2391C181.987 71.0004 182.088 70.9177 182.299 70.9177C182.529 70.9177 182.492 71.2483 182.501 71.5054C182.226 71.4962 182.079 71.5329 182.024 71.2299V71.2391ZM174.963 84.269C175.624 84.6914 175.036 85.0128 174.54 85.0128C174.2 85.0128 174.274 84.8567 174.329 84.6639C174.357 84.572 174.503 84.1588 174.54 84.067L174.963 84.2782V84.269ZM176.928 77.1985C178.222 77.1985 177.892 76.8404 178.323 77.0792C178.03 77.6117 178.149 77.373 177.534 77.4556C177.157 77.5015 177.451 77.6026 177.148 77.5107C176.9 77.4373 177.001 77.4465 176.928 77.1985ZM178.617 67.612C178.617 67.3641 179.214 66.9509 179.214 67.612C179.214 68.4568 178.617 68.0436 178.617 67.612ZM177.029 82.7631C177.469 82.9008 177.469 83.0937 177.029 83.2406V82.7631ZM176.533 84.067C176.671 84.067 176.735 84.2323 176.735 84.4251V85.0128H176.34V84.5353C176.34 84.2507 176.12 84.0578 176.542 84.0578L176.533 84.067ZM166.285 84.6547C166.285 84.5445 166.864 83.7364 166.882 84.8934C166.708 84.9393 166.285 85.2424 166.285 84.6547ZM167.185 77.7862C167.562 77.7862 167.433 78.7595 166.689 78.2637C166.763 77.9515 166.882 77.7862 167.185 77.7862ZM169.967 77.4281C170.243 77.6485 170.399 77.7678 170.169 78.2545C169.967 78.2545 169.774 78.3096 169.774 77.8964C169.774 77.6301 169.857 77.6393 169.976 77.4189L169.967 77.4281ZM173.75 77.3087C173.75 77.0883 174.008 76.969 174.357 77.1985L174.246 77.6668C173.851 77.6576 174.017 77.6944 173.75 77.5475V77.3087ZM179.021 85.5913C179.076 85.1964 179.462 85.426 179.636 85.4444C180.16 85.4903 179.912 85.1046 180.215 85.5913C179.673 85.5913 179.361 85.7841 179.021 85.5913ZM167.58 86.8952C168.002 87.0329 167.956 87.1799 167.874 87.6206L167.479 87.4921C167.479 87.0513 167.46 87.189 167.58 86.9044V86.8952ZM177.625 63.9299C177.625 63.9299 177.846 63.4524 177.929 64.288C177.286 64.2053 177.625 63.9391 177.625 63.9299ZM170.16 76.3629C170.16 76.1242 170.362 76.1425 170.555 76.1242C170.546 76.7302 170.647 76.4639 170.353 76.7119C170.197 76.5741 170.151 76.6935 170.151 76.3537L170.16 76.3629ZM173.842 16.7045C174.577 16.7779 174.43 16.8055 174.439 17.2921C173.971 16.8881 174.549 16.9524 173.842 16.934V16.6953V16.7045ZM173.043 84.168C173.218 84.168 173.209 84.3425 173.245 84.5261C172.851 84.5169 173.016 84.5629 172.75 84.4068C172.777 84.2323 172.869 84.168 173.053 84.168H173.043ZM175.532 86.5371C175.422 87.0238 175.458 86.9503 175.137 86.7758C175.174 86.5279 175.302 86.5646 175.532 86.5371ZM179.012 71.1748C178.782 71.0187 178.966 71.083 179.012 71.0279C179.076 70.9453 178.975 70.8075 179.131 71.0279C179.251 71.1932 179.104 71.2391 179.003 71.1748H179.012ZM180.821 71.083C181.069 70.9728 180.812 71.2667 180.702 71.1473C180.536 70.9453 180.812 71.083 180.821 71.083ZM180.95 72.7726C181.17 72.7726 180.922 72.5706 180.95 72.7726ZM180.95 72.7726C180.95 72.7818 180.95 72.7909 180.959 72.8001C181.023 73.0664 180.803 72.9379 180.803 72.8001C180.803 72.5614 180.784 72.7542 180.913 72.7634C180.931 72.7634 180.94 72.7634 180.95 72.7634V72.7726ZM184.531 78.2178C184.751 78.2178 184.503 78.0158 184.531 78.2178ZM184.531 78.2178C184.531 78.227 184.531 78.2361 184.54 78.2545C184.604 78.5208 184.384 78.3922 184.384 78.2545C184.384 78.0158 184.365 78.2086 184.494 78.2178C184.512 78.2178 184.522 78.2178 184.531 78.2178ZM174.384 74.0765C174.604 74.0765 174.357 73.8745 174.384 74.0765ZM174.237 74.1132C174.237 73.8745 174.219 74.0673 174.347 74.0765C174.366 74.0765 174.375 74.0765 174.384 74.0765C174.384 74.0857 174.384 74.0949 174.393 74.1132C174.458 74.3795 174.237 74.251 174.237 74.1132ZM144.201 4.65708C144.844 4.40916 144.348 4.2806 145.276 4.2806C145.239 4.8591 145 4.86828 143.88 4.86828C143.779 5.31822 143.338 5.67634 143.283 4.86828C143.559 4.79482 143.972 4.73972 144.201 4.65708ZM161.198 76.1242C161.556 76.1242 161.501 76.4272 161.501 76.8312C161.097 76.9322 160.757 76.923 160.702 76.2435C160.822 76.1885 161.042 76.1242 161.198 76.1242ZM25.7659 87.9604C25.7384 88.2909 25.7659 88.4379 25.4629 88.4379H25.1691C25.1691 87.6573 25.2976 87.9145 25.7659 87.9604ZM133.146 116.141C133.568 115.893 133.798 115.792 134.128 116.013C134.009 116.527 133.99 116.371 133.605 116.573C133.237 116.757 133.063 117.014 132.641 116.729C132.797 116.463 132.907 116.297 133.146 116.151V116.141ZM131.245 117.308C131.254 116.913 131.419 116.959 131.741 116.949V117.308H131.245ZM130.648 117.308H131.144C131.043 117.409 131.236 117.353 130.905 117.5C130.74 117.574 130.804 117.528 130.648 117.546V117.308ZM23.6723 94.7003C23.6723 94.2228 25.0681 94.1402 25.0681 94.8197C25.0681 95.1319 23.6723 95.3155 23.6723 94.7003ZM10.8353 55.5187C11.4689 55.5187 11.6525 55.4269 11.928 55.8768C11.5974 56.4645 11.6709 56.1891 11.2117 56.1431C10.7618 56.0972 11.0281 56.2809 10.4312 56.1156C10.4588 55.7667 10.5047 55.5279 10.8261 55.5279L10.8353 55.5187ZM11.928 49.0084C12.3595 49.1277 12.4238 49.0267 12.5248 49.4859C12.1484 49.5777 11.9739 49.6328 11.928 49.0084Z" fill="#E31E24"/>
<path d="M180.95 72.7726C180.922 72.5706 181.17 72.7726 180.95 72.7726ZM180.95 72.7726C180.95 72.7818 180.95 72.7909 180.959 72.8001C181.023 73.0664 180.803 72.9379 180.803 72.8001C180.803 72.5614 180.784 72.7542 180.913 72.7634C180.931 72.7634 180.94 72.7634 180.95 72.7634V72.7726ZM184.531 78.2178C184.503 78.0158 184.751 78.2178 184.531 78.2178ZM184.531 78.2178C184.531 78.227 184.531 78.2361 184.54 78.2545C184.604 78.5208 184.384 78.3922 184.384 78.2545C184.384 78.0158 184.365 78.2086 184.494 78.2178C184.512 78.2178 184.522 78.2178 184.531 78.2178ZM174.384 74.0765C174.357 73.8745 174.604 74.0765 174.384 74.0765ZM174.384 74.0765C174.375 74.0765 174.366 74.0765 174.347 74.0765C174.219 74.0673 174.237 73.8745 174.237 74.1132C174.237 74.251 174.458 74.3795 174.393 74.1132C174.384 74.0949 174.384 74.0857 174.384 74.0765ZM28.7043 84.5261C28.3738 84.6271 28.6584 84.5353 28.7043 84.5261ZM5.56453 52.6997C5.05031 52.6905 5.11459 52.663 4.88503 52.3232C4.60037 51.9008 4.83911 52.0294 4.2698 51.8733C3.76477 52.3967 4.12288 52.1763 3.47093 52.5803C3.32401 52.4885 3.44338 52.5712 3.28728 52.4426C2.32312 51.6254 1.20286 52.4518 0.38562 52.2222C0.403985 51.2489 0.798831 51.4142 1.57934 51.3958C2.12111 51.3866 2.77306 51.1203 3.24137 51.1846C3.46174 51.2122 3.78313 51.3499 4.03106 51.3315C4.28817 51.3132 4.49936 51.2122 4.81157 51.3223C4.96767 51.3774 5.02276 51.4417 5.12377 51.5519C5.67472 52.1304 5.54616 52.2039 5.54616 52.6997H5.56453ZM154.724 3.22462C154.963 3.32562 154.853 3.15116 154.926 3.46336C155.836 3.43581 155.404 2.79304 156.341 2.54512C157.029 2.36147 156.855 2.28801 157.81 1.69115C157.957 1.95744 158.425 2.41656 158.691 2.5543C159.059 2.73795 158.948 2.63694 159.279 2.4992C160.271 2.08599 161.262 1.69115 162.3 1.80134C162.833 1.85643 163.338 1.71869 163.815 1.89316C164.596 2.17782 164.293 2.01253 165.183 2.04008C165.789 2.05845 166.037 2.33392 166.551 2.26046C166.937 2.20536 167.332 1.93907 167.699 1.83807C168.608 1.59014 168.168 1.51668 168.719 1.1402C169.251 0.772901 169.288 1.26875 169.839 1.19529C170.371 1.12183 170.426 0.589252 170.996 0.800448C171.473 0.974915 171.519 1.2963 172.153 0.984098C172.704 0.717806 172.621 0.607617 173.447 0.625982C174.669 0.644346 174.136 0.414785 174.751 0.387238L175.945 0.745354C176.56 0.947368 176.533 1.01164 176.937 1.34221C176.937 2.17782 176.661 2.51757 176.257 2.90323C175.201 3.90412 175.449 3.40827 174.963 3.52764C174.705 3.59192 174.65 3.80311 174.43 4.04186C174.063 4.45507 173.558 4.4918 172.97 4.66626C170.243 5.46514 172.226 5.27231 170.619 5.89671C169.931 6.16301 169.536 6.22728 169.123 6.48439C168.691 6.75068 167.047 7.22817 166.496 7.38427V7.74239C167.02 7.76075 167.167 7.93522 167.562 8.13723C168.673 8.70655 170.628 8.66063 171.179 8.80755C171.161 9.54215 171.032 9.3585 169.701 10.0013C169.673 10.0105 169.655 10.0196 169.628 10.038C169.6 10.0472 169.572 10.0564 169.554 10.0656C168.737 10.442 169.38 10.9287 169.462 10.9746C169.894 11.2225 169.976 10.9103 170.261 10.7726C170.72 10.5614 170.757 10.8093 171.097 10.6991C171.372 10.6073 171.4 10.4696 171.914 10.3686C172.355 10.2859 172.447 10.3594 172.768 10.4512V10.9287C171.841 11.1858 171.62 11.195 171.427 11.8286C171.207 12.5632 171.133 12.9948 170.472 13.1784C170.472 13.9956 170.491 13.6283 170.775 14.1242C171.335 14.1242 171.657 13.9773 172.061 14.014C172.667 14.0599 172.538 14.2528 173.209 13.9406C173.594 13.7569 173.787 13.5365 174.173 13.4171C174.806 13.2151 174.384 13.7202 174.935 13.6926C174.981 13.6926 175.716 13.3804 176 13.3345C176.569 13.2427 176.505 13.4171 177.056 13.307C177.653 13.1876 177.497 13.0499 177.993 12.7468L178.25 12.5815C178.975 12.0765 178.929 12.3703 179.306 12.7376C179.728 13.1509 180.077 13.408 180.637 13.408C180.637 12.9305 180.601 13.0315 180.738 12.7009C181.804 12.7285 181.262 13.4998 183.135 12.6917C183.456 12.554 183.521 12.5999 183.622 13.059C183.622 13.7753 181.5 14.0048 181.133 14.0048C180.564 14.014 180.123 14.2803 179.719 13.913C179.49 13.711 179.113 13.1784 178.847 13.059C178.333 13.5916 178.681 13.3161 178.424 13.9773C178.268 14.3813 178.461 14.115 178.112 14.317L177.001 14.8863C176.643 15.0884 176.698 15.2904 176.551 15.6577C175.578 15.6577 175.651 15.6577 174.898 15.9423L172.584 16.5851C172.364 16.8606 172.685 16.9524 172.557 17.4115C172.437 17.8523 172.355 17.6319 171.886 17.687C171.391 17.7421 171.639 17.7513 171.28 18.0359C171.17 17.9625 171.161 17.9625 171.032 17.8615C170.601 17.5217 170.84 17.5768 170.39 17.5676C170.362 17.9349 170.298 18.1369 170.188 18.394L171.721 18.4583C172.116 18.5042 172.584 18.192 172.786 18.5961C173.007 19.0368 172.814 18.7797 172.768 18.8623C172.593 19.6429 172.548 18.7981 172.373 19.5694C173.934 19.5694 174.338 18.7154 174.366 19.9275C173.815 20.0836 173.429 20.0744 172.942 20.3591C172.649 20.5336 172.658 20.5795 172.29 20.6529C171.675 20.7723 171.767 20.5519 170.298 21.0019L168.994 21.4702C168.654 21.8191 168.682 21.8007 168.195 21.9385C167.075 22.2415 166.818 22.618 166.469 22.7282C166.138 22.8292 165.615 22.8016 165.385 22.8567C164.742 23.0036 164.954 23.1046 164.55 23.2883C164.164 23.4628 163.944 23.2699 163.576 23.5546C163.191 23.8484 163.668 23.628 163.246 23.876C162.979 24.0321 162.034 24.0872 161.63 24.0872C161.382 24.2892 161.253 24.2708 160.969 24.3718C160.491 24.5463 160.638 24.6381 160.344 24.7116C158.691 25.134 158.857 25.8227 158.572 25.9788C158.269 26.144 158.526 25.7767 158.085 25.9145C157.718 26.0247 157.911 26.043 157.745 26.4562C158.26 26.6032 158.691 26.5848 159.343 26.5848C160.243 26.5756 160.014 26.245 160.73 26.2267C161.299 25.9053 162.171 26.0339 162.686 25.6023C163.007 25.336 162.989 25.0972 163.585 25.1891C164.201 25.2809 165.055 25.4737 165.615 25.0605C166.313 24.5463 166.34 24.9411 166.955 24.6473C167.314 24.4728 167.112 24.5187 167.323 24.3626C167.635 24.1423 167.855 24.3351 168.287 24.3351C168.507 23.3526 168.654 24.28 170.078 23.9862C170.867 23.8209 171.381 23.8392 171.767 23.1597C172.419 23.3434 172.235 23.6648 172.887 23.0771C173.457 22.5629 173.943 22.7741 174.595 22.9853C176.092 23.4536 175.275 23.3342 176.34 23.1965C176.707 23.1506 176.395 23.325 176.9 23.1046C177.13 23.0036 177.212 22.8475 177.479 22.9945C177.965 23.2607 177.699 23.8301 177.322 23.9678L176.138 24.4453C175.504 24.5555 175.357 24.3994 175.054 24.932C175.174 25.4645 175.394 25.5196 175.853 25.639C176 25.3176 176.046 25.0421 176.248 24.8126C176.772 25.1432 176.606 25.3911 176.946 25.9971C177.662 25.9971 177.506 25.7859 178.039 25.639C178.388 25.9145 178.626 26.2175 179.122 25.9879C179.389 25.8686 180.004 25.2717 180.022 25.9788C180.031 26.3552 179.848 26.3736 179.636 26.4654C178.81 26.8327 177.58 27.6132 176.744 27.6408C175.66 27.6683 176.294 27.9622 175.642 28.1091C175.348 28.1734 174.503 28.1091 174.145 28.1091C173.236 28.1183 173.613 28.3019 173.356 28.9447C171.244 28.9447 171.492 29.5966 171.363 30.2486C170.729 30.2486 170.243 29.8538 169.673 30.0099C169.692 31.0658 170.573 30.9281 171.253 30.8363C172.382 30.6802 172.281 30.2486 173.154 30.2486C173.337 30.8455 173.787 30.4965 174.2 30.4047C174.678 30.3037 174.724 30.7445 175.174 30.9373C175.532 31.0842 175.872 30.9557 176.395 30.9097C176.808 30.873 177.185 31.075 177.616 31.0383C178.424 30.9557 177.947 31.0107 178.636 31.4331C179.884 32.2045 180.16 33.1962 178.617 34.0134C178.131 34.2705 177.864 34.1695 177.405 34.3532C176.863 34.5644 177.019 34.6837 176.248 34.748C175.752 34.7939 175.385 34.95 175.073 34.9225C174.347 34.849 174.724 34.8582 174.145 35.2071C173.383 35.6754 171.28 35.9417 170.27 35.9234C169.628 35.9142 169.6 35.9968 169.077 36.1621C169.334 36.5845 169.242 36.3366 169.765 36.4009C170.252 36.4651 170.399 36.8967 170.858 37.1171C171.308 37.3283 171.464 37.6405 171.96 37.8241C172.731 38.0996 173.539 37.9343 173.558 38.8801C172.603 39.1464 171.519 39.0913 170.592 39.6147C169.986 39.9636 169.288 39.6147 169.077 40.3034C169.986 40.3034 170.739 40.0647 171.565 40.0647C171.73 40.3677 171.795 40.5972 171.96 40.8911C172.447 40.8911 173.025 40.7625 173.255 40.8911C173.548 41.6165 173.053 42.0848 172.593 42.3511C172.107 42.6357 171.758 42.8653 171.299 43.1775L168.379 44.5641C168.434 45.3629 168.682 45.3721 169.38 45.3905C170.206 45.418 169.949 45.7853 170.674 45.868C171.372 45.9414 172.29 45.8037 172.832 45.3629C173.025 45.2068 172.887 45.2895 173.071 45.1793C173.117 45.1517 173.291 45.0783 173.356 45.0415C173.75 45.3537 173.769 45.62 174.357 45.418C174.852 45.2436 174.99 45.1701 175.495 45.4548C176.285 45.9047 176.505 45.4088 177.864 45.6017C178.617 45.7119 178.388 45.3078 179.058 45.7027C179.572 46.0057 180.72 46.3087 180.564 47.2178C180.325 48.5584 178.562 48.6594 178.305 48.7972C177.91 49.0084 178.369 48.8523 177.892 49.1369L176.11 49.6236C175.394 49.7613 175.615 49.7613 174.963 50.0276C174.164 50.3582 173.686 50.3398 173.117 51.1479C172.658 51.7907 172.263 51.5795 172.263 52.6171C172.832 52.9385 174.246 52.6446 174.448 53.5629C174.026 53.8292 171.51 54.6189 170.95 54.729L169.866 55.0963C170.491 56.1064 172.272 53.7282 172.649 55.684C172.97 55.684 174.136 55.6748 174.237 55.8034C174.724 56.3911 173.383 57.4195 173.016 57.6582C172.401 58.0531 171.74 58.5306 171.088 58.7969C170.316 59.1091 169.839 59.5498 168.994 59.7427C167.901 59.9998 167.635 60.4773 165.982 60.7711C165.523 60.8537 165.606 60.9548 165.321 61.0282C165 61.1109 165.036 60.8905 164.632 60.9547C164.136 61.0374 164.394 61.1109 163.98 61.2394C164.109 61.8179 164.724 61.8914 165.229 61.7904C165.606 61.7169 166.331 61.5792 166.652 61.4598C167.268 61.221 167.112 60.7344 167.681 60.8721C168.406 61.0466 168.14 60.9364 168.719 60.4864C169.38 59.9814 169.38 60.1008 169.976 60.2569C170.344 60.3487 171.969 60.413 172.3 60.2477L172.575 60.1008C173.539 59.7518 173.273 59.458 174.136 59.6968V60.4038L172.575 61.3863C172.144 61.57 171.583 61.5792 171.244 61.9373C171.069 62.1209 171.124 61.974 171.051 62.3046C171.345 62.8188 171.446 62.6627 172.144 62.6627C172.171 62.2587 172.217 62.2311 172.346 61.9556C173.154 61.9556 173.071 62.176 173.337 62.7821C174.733 62.7821 174.054 61.6526 175.33 62.6627C176.055 62.2127 176.762 61.4231 177.01 61.5057C177.635 61.7077 176.827 62.3046 176.597 62.5158L173.907 64.5175C173.245 64.8665 173.007 64.4624 172.566 64.692C171.583 65.197 173.071 65.5184 170.059 65.5001C169.481 65.9408 169.26 65.0501 169.26 66.9233C169.637 67.0244 169.683 67.2631 170.096 67.0978C170.454 66.9509 170.224 66.7948 170.785 66.8683C171.482 66.9601 171.923 66.804 172.639 66.804C172.841 66.4459 172.851 65.8857 173.833 65.8582C173.888 66.1337 173.925 66.2071 173.934 66.5652C175.302 66.5652 174.292 67.2172 175.376 66.8683C176.404 66.5377 176.505 66.4367 176.524 67.2723C176.009 67.41 175.789 67.4192 175.155 67.3549C174.393 67.2815 174.907 67.612 173.998 67.4467C173.493 67.3549 173.089 67.4743 172.685 67.4651C172.226 67.4559 172.061 67.6212 171.446 67.6304L170.179 67.6947C169.664 67.7406 169.591 67.961 169.012 67.9151C168.792 67.8967 168.581 67.8967 168.425 67.9151C167.185 68.0436 168.452 68.1538 166.671 67.9793C165.909 67.9793 165.633 67.7498 165.183 67.6212C164.945 68.0436 164.853 68.3925 164.283 68.4476C164.173 70.027 163.668 69.522 163.484 70.3392C164.724 70.3392 164.495 70.3943 165.514 70.0178C166.056 69.8158 165.835 70.0821 166.423 69.9352C166.891 69.8158 166.873 69.5863 167.369 69.8617C167.35 70.7065 167.047 70.3484 166.57 70.3484C166.294 70.3484 165.394 70.881 165.091 71.0646C164.55 71.3952 164.081 71.4595 163.558 71.4411C162.878 71.4044 163.237 71.7992 162.585 71.8819C161.988 71.9553 161.923 71.6982 161.437 71.9186C161.171 72.038 160.28 72.9011 159.701 73.0572C159.444 72.8552 159.389 72.8552 159.306 72.4696C158.893 72.5063 158.893 72.6165 158.71 72.947C159.095 73.1123 158.774 73.0021 158.976 73.1123C159.095 73.1766 159.123 73.1858 159.27 73.2409C160.62 73.7276 160.555 73.296 160.904 73.0756C161.474 72.7175 161.786 73.0297 161.997 73.195C162.612 73.6633 161.997 73.2868 162.998 73.195C163.604 73.1307 163.769 73.3786 164.283 73.3235C164.853 73.2592 165.505 72.0288 166.258 72.8644C166.506 73.1307 166.781 73.3786 166.873 73.7918C167.773 73.7918 167.24 73.5164 167.865 73.3143C168.415 73.3694 168.158 73.6357 168.783 73.7643C169.205 73.8561 171.133 73.3511 170.344 74.3428C170.096 74.655 168.287 74.7284 168.195 74.7101C168.067 74.6825 167.92 74.5907 167.736 74.554C167.194 74.4713 167.754 74.5723 167.258 74.5999C166.496 74.6458 166.377 73.7367 165.881 73.3143C165.431 73.599 165.624 73.4429 165.422 74.0765C165.165 74.9029 164.476 74.8295 164.045 75.0406C163.723 75.1967 163.815 75.4263 163.466 75.5365C163.292 75.5916 162.704 75.5916 162.456 75.6283C161.088 75.8579 160.968 75.6926 159.71 76.0324C159.839 76.6751 159.857 76.5466 159.61 77.0975C159.104 77.0883 159.215 76.9322 158.655 77.0332C158.003 77.1434 158.324 77.1067 157.837 76.9414C157.323 76.7761 157.654 76.9965 157.13 77.0424L156.423 77.2169C157.075 78.3647 158.682 76.9781 159.61 77.9239C160.776 79.5401 160.39 77.9239 161.795 77.9239C161.923 78.5943 161.832 78.5208 161.474 78.8422C160.62 79.5951 161.786 79.3472 160.133 79.6135C159.72 79.6778 159.288 79.8798 158.737 79.9808C158.214 80.0818 157.947 79.8247 157.36 79.9808L156.038 80.4216C155.808 80.5042 155.698 80.5777 155.413 80.6328C153.632 80.9541 154.467 81.1286 153.595 81.4316C153.026 81.6337 152.87 81.6061 152.438 81.9459V82.6529C152.998 82.708 152.576 82.8733 153.329 82.9008L154.651 82.8549C155.275 82.8641 155.312 82.1203 155.624 82.7723C156.331 82.7998 155.918 82.9743 156.68 82.7355C157.13 82.5978 157.452 82.7172 157.892 82.6254L158.921 82.5335C159.747 82.5611 159.536 81.8448 160.84 82.3774C161.198 82.5244 161.501 82.6254 161.813 82.7631C162.53 83.0845 163.062 82.8916 163.788 82.8916C164.201 83.6171 164.742 83.6905 164.862 84.4068L164.678 84.6639C163.925 84.4251 164.173 83.7456 163.126 83.9935C162.667 84.1037 162.722 84.1496 162.19 84.1864C161.547 84.2231 161.767 84.2966 161.299 84.4251C161.317 84.7465 161.345 84.7465 161.4 85.0128C162.631 85.3526 161.822 84.6822 162.796 84.6547C162.97 85.0587 162.897 84.8934 162.961 85.2699L163.2 85.8392C163.668 85.8392 163.824 85.6556 164.182 85.729C164.531 85.7933 164.495 85.9678 164.788 86.1973C164.99 86.1422 165.679 85.8576 165.798 85.8943C166.239 86.0229 165.936 86.5187 165.67 86.6473L164.182 87.1339C164.146 87.1523 163.999 87.2258 163.971 87.235C163.494 87.5196 163.512 87.7124 162.713 87.5747C162.162 87.4829 162.337 87.437 161.85 87.7951C161.152 88.3093 161.024 88.5848 160.5 89.0347C160.601 89.4847 160.757 89.3377 160.583 89.8244L160.105 90.458C159.554 90.2835 159.821 89.8795 158.958 90.0264L157.617 90.3386C157.635 91.1375 157.975 90.9906 157.718 91.6425C157.231 91.4864 157.599 91.4405 157.121 91.2844C156.882 91.4773 156.937 91.514 156.653 91.6701C156.478 91.7619 156.524 91.716 156.359 91.7986C155.652 92.1292 155.551 92.0098 155.34 92.3496C155.468 92.9189 155.79 92.8913 156.203 93.1025C156.818 93.4148 157.709 93.378 158.03 93.8922C157.865 94.6452 156.772 94.7646 156.24 95.0768C156.166 95.1227 155.881 95.3431 155.826 95.4257C155.734 95.5543 155.633 95.8206 155.698 95.9767C155.845 96.3164 156.267 95.9124 156.735 95.9032C156.974 97.1153 157.553 96.3164 157.984 96.546C158.719 96.95 157.782 98.208 157.424 98.612C156.579 99.567 155.707 100.458 154.752 101.229C154.467 101.459 154.412 101.422 154.082 101.615C153.338 102.055 153.439 102.45 152.282 102.79C150.5 103.313 150.73 104.131 150.087 104.792C149.977 104.902 149.931 104.92 149.793 105.04L149.509 105.278C148.793 105.6 148.517 104.406 147.681 105.958C147.461 106.362 146.938 106.803 146.497 106.784C145.799 106.757 145.652 106.61 144.927 107.06C143.127 108.143 143.797 108.961 142.879 108.951C141.979 108.942 141.621 109.603 140.877 109.943C140.381 110.173 140.124 110.568 139.647 110.843C139.335 111.027 139.362 110.981 139.059 111.21C138.83 111.385 138.664 111.523 138.426 111.642C138.187 111.761 137.976 111.77 137.737 111.89C137.305 112.101 137.562 112.064 137.177 112.404C136.598 112.918 135.955 113.221 135.313 113.616C134.119 114.351 134.394 113.993 133.981 113.745C133.394 113.396 132.916 113.873 132.503 114.057C131.961 114.296 132.191 114.314 131.878 114.498C131.502 114.727 131.245 114.47 130.813 114.994C130.547 115.315 130.657 114.994 130.171 115.177C130.106 115.205 128.738 115.994 128.068 116.114C127.71 116.178 127.599 116.095 127.269 116.224C126.764 116.426 126.415 116.656 125.809 116.738C123.972 116.986 123.513 117.234 121.87 117.739C121.548 117.84 121.429 117.813 121.135 117.932C120.933 118.015 120.648 118.18 120.428 118.272L116.819 119.658C116.323 119.879 115.818 119.97 115.359 120.163C114.9 120.356 114.423 120.503 113.899 120.668C113.743 120.723 113.716 120.742 113.523 120.806L108.059 122.826C107.022 123.184 106.122 123.607 105.102 123.928L102.871 124.709C102.559 124.819 102.458 124.846 102.182 124.947L98.4635 126.205C97.9493 126.407 97.3616 126.389 96.9208 126.619L89.5014 129.153C89.1984 129.254 88.9964 129.236 88.6474 129.318L86.3335 129.998C86.1223 130.062 85.8651 130.172 85.6448 130.246C85.1122 130.429 84.6072 130.429 84.0929 130.65L82.486 131.1C82.082 131.191 82.0361 131.173 81.6688 131.311C80.3832 131.816 78.8773 131.816 77.7754 132.247L75.4247 132.89C74.8554 133.055 71.8619 133.799 71.4762 133.643C71.2926 133.983 71.6783 133.818 70.9804 133.891L66.8024 134.708C66.2239 134.727 66.3341 134.727 65.8658 134.892C64.3506 135.434 63.6344 135.222 63.0835 135.369C61.8071 135.709 61.7796 135.36 61.1643 135.691C60.8429 135.865 60.7511 135.966 60.3379 136.003C58.6024 136.15 59.0707 135.985 57.4913 136.526C57.1424 136.646 57.0598 136.747 56.7568 136.839C56.215 136.223 56.6466 136.361 55.563 136.361C54.9754 137.683 54.1489 136.885 53.7725 136.829C52.7807 136.683 52.4777 137.105 51.5778 137.408C50.2647 137.849 50.6229 137.518 50.1729 137.454C49.7046 137.39 49.6495 137.95 48.4742 137.334L46.7754 137.252C45.2695 137.601 46.3347 137.188 44.4982 137.509C43.3412 137.711 43.3871 136.894 44.0207 136.811C44.8104 136.71 44.5441 137.123 45.5633 136.756L46.9682 136.297C47.5284 136.15 48.0059 136.196 48.5109 135.994C48.8874 135.847 48.768 135.737 49.1078 135.7C50.3198 135.571 49.4842 135.645 50.2648 135.121C52.1563 133.863 49.5669 134.066 48.7956 134.084C48.2722 134.093 48.3089 133.992 48.2079 134.451C47.9691 134.295 47.7855 134.24 47.712 133.974C47.2621 133.808 47.0693 133.661 46.7111 133.515C44.994 132.78 44.9389 133.9 43.7636 133.588C42.6892 133.303 42.9647 133.863 41.6424 133.854C40.4487 133.845 40.9721 134.571 39.8518 134.571C39.7508 134.111 39.7876 134.313 39.5029 134.038C38.2725 132.881 38.952 134.139 37.997 133.717C36.2523 132.954 35.8758 134.46 35.8758 132.909C36.5002 132.413 37.4185 132.422 38.1623 132.679C38.7132 132.872 38.9336 132.477 39.3468 132.798C39.5029 132.927 39.457 132.991 39.7049 133.23C40.2742 133.781 40.2926 132.973 40.3844 132.707C40.6415 131.889 41.523 131.77 41.9179 131.586C42.9647 131.09 42.2209 130.962 43.1851 131.09C43.5065 131.136 43.6166 131.1 43.8095 130.87L44.2411 130.31C44.5624 130.512 44.5992 130.677 45.0307 130.677C45.4991 130.677 45.444 130.539 45.8204 130.429C46.0959 129.961 46.2979 130.016 46.4173 129.364C45.6001 129.447 45.2787 129.676 45.5174 128.437L45.1409 128.299L44.7277 128.418C44.6267 128.427 44.4339 128.418 44.3237 128.418C44.2686 128.152 44.2502 128.143 44.2227 127.831C44.5808 127.629 45.2144 127.619 45.6276 127.491C46.1143 127.335 46.454 127.353 47.0601 127.335C48.5476 127.28 48.3273 125.719 49.9158 125.14C50.8249 124.8 51.8992 125.076 52.7165 124.681C53.047 124.516 53.5613 124.259 53.8826 124.167C53.9745 123.855 53.5888 123.68 54.3785 123.46C54.5805 123.671 54.654 123.662 54.6815 124.047C55.7191 124.047 56.7476 123.809 57.6383 123.423C58.9973 122.845 58.4647 122.505 59.1534 122.514C59.6309 122.514 59.5023 122.624 60.0716 122.542C60.9348 122.413 60.494 122.22 60.898 121.743C61.1092 121.486 61.1551 121.642 61.348 121.329C61.0174 120.742 61.0358 121.137 59.989 121.238C59.7043 121.265 59.7594 121.293 59.3921 121.357C59.0156 121.412 58.832 121.274 58.4188 121.394C58.0056 121.504 57.5189 121.412 57.1608 121.568C56.3803 121.908 56.4629 121.697 55.5998 121.834C54.1948 122.064 53.3501 122.67 52.643 122.56C52.0461 122.468 52.2941 122.615 51.8625 122.716C51.1922 122.872 51.1004 122.698 50.4668 123.193C50.2188 123.386 50.127 123.377 50.0995 123.818C50.4392 123.855 50.4668 123.91 50.6963 124.057C50.2831 124.984 50.5219 124.24 49.7046 124.534C49.521 124.598 49.3281 124.81 49.1078 124.543C48.9149 124.305 49.0618 124.571 49.0251 124.222C48.9608 123.68 48.8139 123.588 48.2262 123.579C45.9949 123.524 47.4825 124.672 46.4265 124.773C46.1786 123.689 45.398 124.314 44.6451 124.057C44.14 123.882 44.0574 123.901 43.6258 123.901C43.2402 123.901 43.0657 123.717 42.5423 123.717C41.8261 124.993 41.6057 123.937 41.0915 124.35C40.816 124.562 40.9354 124.617 40.7425 124.773C40.2191 125.186 40.0447 124.58 39.5029 124.947C38.6948 125.489 39.2917 125.195 38.5204 124.947C38.1531 124.828 37.1614 125.526 36.0595 125.599C35.4259 125.636 33.1119 124.855 34.5811 123.12C35.1871 122.395 35.3616 122.679 35.9126 121.981C36.188 121.623 36.5186 121.531 36.8584 121.329C37.6664 120.834 37.7399 121.192 38.3551 120.393C38.5847 120.09 38.9703 119.98 39.3376 119.787C41.3119 118.74 39.9528 118.262 40.9537 118.161C40.4211 117.308 38.6398 117.629 37.9694 117.096C38.1531 116.279 38.9703 116.132 39.558 115.792C39.558 115.168 39.6406 115.416 39.3927 115.159C39.3193 115.085 39.2458 115.058 39.1448 114.984C38.8418 114.773 39.1356 114.792 38.6581 114.727C38.2725 114.681 38.199 114.837 37.7674 114.847C37.5379 114.277 37.593 113.938 37.8868 113.451C39.3927 110.935 39.6315 111.55 40.4854 110.613C41.0915 109.952 41.7893 109.631 42.4229 109.007C43.3136 108.134 44.1033 108.134 44.2411 107.501C43.8278 107.611 43.6534 107.877 43.4146 107.941C43.0749 108.033 42.8912 107.85 42.4505 107.84C41.9271 107.831 41.8903 107.969 41.4588 107.969C40.9078 107.969 41.1098 107.85 40.5405 107.932C39.4937 108.079 39.558 107.721 38.7408 108.529C37.8592 109.392 38.4653 108.465 37.6756 109.87C36.8767 109.87 36.8584 109.493 36.4819 110.347C34.7648 110.347 35.077 110.917 33.8006 111.302C33.3874 111.431 33.4333 111.532 33.167 111.614C32.561 111.807 30.9908 111.77 31.0275 110.613C31.0826 108.933 31.9917 108.988 32.3039 108.575C32.4416 108.391 32.4691 108.125 32.6252 107.886C33.0385 107.253 33.6445 107.069 34.1954 106.674C34.7005 106.307 35.0035 105.334 35.986 104.654C36.9502 103.984 36.8492 103.488 38.1806 103.121C38.1347 102.459 38.199 102.909 37.9603 102.845C37.9143 102.836 37.9327 102.873 37.7399 102.808C37.2899 102.671 37.345 102.533 36.7849 102.524C35.4443 102.487 32.8824 103.332 34.2689 101.909C34.7923 101.367 34.7556 101.238 35.3892 100.871V100.283L34.3056 99.9435C33.8098 99.9986 34.1403 100.403 33.2037 100.403C33.0476 99.5854 33.1211 99.062 33.4884 98.4927C33.7914 98.006 34.0485 97.703 34.3607 97.1612C34.8107 96.3807 36.0228 95.4533 36.0962 94.4891C35.784 94.6727 35.8299 94.5626 35.4259 94.6452C35.2606 94.6727 34.9484 94.7738 34.7831 94.8288C33.2588 95.2972 32.4875 94.8105 32.1569 94.9023C31.6703 95.0309 31.6886 95.4441 31.1101 95.2329L29.8981 94.7646C29.3379 94.5993 29.0257 94.8656 28.6217 94.8839C28.484 94.8931 28.3095 94.8288 27.9697 94.8748C27.4004 94.9574 26.473 94.9941 25.9496 94.8472V94.4891C26.5465 94.3238 26.9137 94.1677 27.6392 94.131L30.6326 93.7178C30.8438 93.6719 30.6969 93.7086 30.8071 93.6351C30.8347 93.6168 30.8898 93.5525 30.9173 93.5433C31.0091 93.4882 30.954 93.479 31.1285 93.4331L31.8172 93.4239C32.5242 93.4147 32.1294 93.3321 32.6069 93.1852C32.7171 93.0934 32.561 93.1852 32.7997 93.0566C32.9925 92.9556 32.8273 93.0199 33.0201 92.9556C33.2129 92.8914 33.3139 92.9005 33.3782 92.9097C33.8465 92.9832 33.4333 93.1209 34.0944 92.9373C34.0669 92.5057 33.7822 91.9639 33.5986 91.6334C32.9099 91.6334 31.7345 92.0557 31.2111 91.514C31.1101 91.3395 31.1101 91.7895 31.1101 91.1559H30.5133C30.5041 91.5966 30.4949 91.716 30.1827 91.8262C29.0992 92.221 29.0257 91.1375 28.0616 91.3028C26.7485 91.5232 27.4831 91.1467 26.5373 91.1467C25.8578 91.1467 25.6558 91.5415 25.1324 91.6242C24.2784 91.7711 24.4161 91.2385 23.6632 91.2752C23.1765 91.2936 22.6623 91.4956 21.9828 91.3579C20.9452 91.1559 21.6614 91.0824 20.6972 91.5415C20.2381 91.7527 19.8708 91.8629 19.2739 91.8629C19.1178 91.0916 19.2556 91.3303 19.7973 91.064C20.6513 90.6508 19.6963 90.2101 21.4226 89.6867C22.1848 89.4571 21.8909 89.8887 22.4878 89.2918C22.9653 88.8143 22.9837 89.0714 23.5622 89.1357C24.0764 89.1908 24.3518 89.0347 24.7834 88.9521L27.3361 88.6674C27.3086 88.245 27.0515 87.7951 27.529 87.7216C27.8871 87.6665 27.9789 87.9695 28.3278 88.0797C28.6951 87.7859 28.5207 87.7584 28.8237 87.4921C29.3379 87.6298 29.9256 88.796 30.0174 87.4921C30.5041 87.5012 30.5684 87.6941 30.9081 87.7033C31.1101 87.7033 31.505 87.6114 31.909 87.6114C31.6611 87.2166 31.9274 87.5747 31.5693 87.2992C31.5509 87.29 31.5233 87.2717 31.505 87.2533C31.2295 87.0513 31.2479 87.0238 30.7704 86.9319C30.0909 86.8034 29.898 87.0421 29.3563 87.189C28.5023 87.4186 28.7319 86.987 27.9789 87.088C27.1984 87.189 27.2168 86.7391 27.529 86.1882C27.4188 86.1239 27.3821 86.1147 27.2535 86.0412C26.0506 85.3709 26.069 86.684 25.1415 85.9494C25.3527 85.0128 26.3444 85.3066 27.0423 84.8934C27.9055 84.3884 27.6116 84.921 28.438 84.6547C28.5758 84.6088 28.5941 84.5904 28.6676 84.5629C28.7778 84.5169 28.7962 84.5078 28.7778 84.5078C28.787 84.5078 28.7962 84.5078 28.8053 84.4986C29.1359 84.3976 29.0716 84.5537 29.4297 84.618C29.5491 84.6455 29.6869 84.6363 29.8154 84.6455C30.1092 84.6455 30.4215 84.6363 30.7153 84.6363C30.7337 84.5812 30.8438 84.2598 30.8714 84.2231C31.1744 83.764 30.853 84.37 31.4499 83.7273C32.01 83.1212 31.909 83.7456 32.3406 83.2498C32.6436 82.9008 32.3773 82.9376 32.6712 82.5794C32.9742 82.2213 33.0201 82.5427 34.122 82.056C35.0678 81.6428 35.1688 81.9091 35.582 81.6704C35.4902 81.3949 35.7656 81.4959 35.2514 81.349C34.7648 81.2113 34.3515 81.6888 34.0761 81.7347C33.819 81.7806 33.6353 81.551 33.1486 81.7347C32.7997 81.8632 32.9374 82.0285 32.3681 81.8265C31.3489 81.45 31.707 81.8081 30.5041 81.7898C29.1267 81.7622 29.8246 82.0652 29.292 82.1846C29.1543 82.2121 29.2094 82.1846 28.9523 82.1111C28.7594 82.056 28.6951 81.9918 28.4197 82.0193C27.7494 82.0928 28.1809 82.4509 27.2076 82.4876C26.7485 82.506 26.9597 82.4693 26.7393 82.3682L25.6282 81.8999C23.6723 80.8531 22.4694 82.5886 22.8367 80.7154C23.6723 80.7154 23.7917 80.4858 24.4437 80.3757C25.0589 80.2746 25.4813 80.1461 25.619 79.5309C25.1691 79.2738 25.0038 79.7696 24.2233 79.7696C24.058 79.4023 24.058 79.1544 23.9203 78.8238H22.6255C22.497 78.5851 22.4419 78.4932 22.3225 78.2361C21.5696 78.2361 21.2114 78.6861 20.6329 78.3555C20.7431 77.8138 20.7982 77.8413 21.2849 77.7127L24.1039 77.0608C24.5998 77.1067 24.5998 77.3271 25.1048 77.0608C25.4537 76.868 25.3068 76.7945 25.9496 76.7853C26.2893 76.7761 26.3261 76.9231 26.8036 76.9506C27.1433 76.969 27.5565 76.9506 27.9055 76.9506C28.0248 76.6843 28.0707 76.5925 28.2085 76.3629C28.9523 76.3629 29.0165 76.6017 29.7695 76.2068C30.4857 75.8303 30.3021 75.4447 30.7887 75.2886C31.3121 74.958 31.1285 75.1325 31.2846 74.3428C31.7162 74.0949 31.6152 74.4254 31.8815 73.9847C31.5233 73.4062 30.9173 73.5072 30.2929 73.5072C30.146 72.745 30.449 72.341 29.8338 72.4604C29.393 72.543 29.1726 73.0113 28.6033 72.6808C28.6492 71.9921 29.4481 71.7441 30.1001 71.3768C30.7428 71.1932 30.9908 70.8075 31.2662 70.6331C31.707 70.3668 32.46 70.5412 32.7722 70.2933C33.1486 69.9903 33.0476 69.5771 34.0302 69.7607C34.627 69.8709 34.9668 69.7332 35.4626 69.5954C35.4902 69.1914 35.5361 69.1639 35.6646 68.8884C36.5462 68.8884 36.6104 68.8792 37.0879 68.3283C37.4093 67.961 37.7215 67.6488 37.9603 67.2264C38.3276 67.4376 39.1723 67.814 39.5396 67.4467C39.6957 67.2906 39.6774 67.1162 39.7508 66.9876C39.962 66.6387 39.7325 66.7673 40.2467 66.7489C40.2467 65.0685 40.3936 66.0143 40.4487 65.2062C39.7233 64.7471 39.9069 65.0685 39.154 65.0869L38.6857 65.3531C38.1806 65.5184 37.6205 65.6837 37.1706 65.5552V65.0777C38.1164 64.8114 38.3 64.9859 39.0438 64.3523C39.3009 64.1319 39.5672 63.9666 39.8978 63.8197C40.3477 63.6085 40.4212 63.7738 40.7793 63.6911C41.3945 63.5442 41.0823 63.3606 41.7434 63.3055C42.2485 63.2687 42.3862 63.2963 42.7351 63.0667C43.4881 62.5709 43.3412 62.8004 43.5799 62.6443C43.8829 62.4423 43.7085 62.2219 44.1309 61.8822C44.8746 62.0842 44.2594 62.4882 45.196 62.3413C46.05 62.2127 45.6643 62.0383 46.0133 61.5241C46.2887 61.12 46.7387 61.2853 47.1152 61.0558C47.3355 60.9272 47.3447 60.7895 47.5467 60.615C47.7488 60.4405 47.5559 60.5875 47.8039 60.4497L48.015 60.3395C47.005 60.3395 47.3447 60.1008 46.803 59.9906C46.1969 59.862 46.2245 60.2018 45.6276 60.2202C45.2236 59.2101 45.8847 58.3653 46.4999 57.4746C48.263 54.9035 48.6027 55.0688 50.3474 53.2966C50.779 52.8558 50.7698 52.8926 51.284 52.6354C51.5687 52.4885 51.5962 52.4151 51.8717 52.2681C52.3216 52.0386 52.1196 52.3783 52.3951 51.9376C51.0269 51.9376 51.8717 51.5611 49.7138 52.0661C48.9792 52.2406 47.9416 52.3416 47.1152 52.4059L43.8095 52.966C42.7351 53.3425 42.7076 52.9476 41.9087 53.1864C40.5864 53.5904 40.6323 53.4068 39.3009 53.6363C38.7959 53.7282 38.3643 53.6455 37.8776 53.719C37.4277 53.7832 37.2899 53.9026 36.6747 53.9485C35.2882 54.0495 35.4167 53.9853 34.0669 54.3985C33.5159 54.5638 32.8181 54.527 32.0467 54.6097C31.5693 54.6556 31.8264 54.5638 31.4958 54.5729C31.101 54.5913 30.9999 54.876 30.3021 54.8943C29.5124 54.9127 29.6134 55.0229 29.0165 55.1514C28.1809 55.3259 27.7218 54.4077 26.8862 55.0963C26.6015 55.3259 26.8862 55.2984 26.3812 55.4453C25.417 55.7207 25.0681 55.4545 24.5171 55.3902C22.9561 55.1882 23.0112 55.5646 22.047 55.8493C21.6614 55.9687 21.2114 56.0054 20.7799 56.1156C20.0912 56.2901 20.0728 56.2258 19.5402 55.9779C19.0168 55.7299 19.1087 56.0789 18.5485 56.3176C18.2822 56.4278 18.3465 56.4278 18.0802 56.3084C17.0977 55.8677 17.5568 56.2901 16.9324 55.886C16.1427 55.381 16.0968 55.9411 15.3714 55.9319C15.0408 55.9319 15.2061 55.8309 14.7194 55.8952C14.196 55.9687 13.2135 56.0972 12.7819 55.8493C12.8279 55.2433 13.1217 55.3075 13.6818 55.2616L16.1611 55.0229C16.5376 54.9953 16.9049 54.7658 17.1803 54.7566C17.3456 54.7474 17.4834 54.8484 17.6395 54.83C17.8415 54.8025 17.8598 54.6831 18.0894 54.6097C18.2731 54.5546 18.7414 54.628 19.1362 54.5362C19.6596 54.4077 19.5861 53.8934 21.138 54.3158L21.34 53.8475C21.7624 53.8475 22.901 53.7649 23.2683 53.6547C23.4152 53.6088 23.9662 53.4527 24.0213 53.3976C24.1682 53.2139 23.9386 53.1588 23.9294 52.5528H22.9377C22.8551 53.6914 21.9736 52.8283 21.845 52.7915C21.6155 53.3609 21.7165 53.3609 21.2482 53.7373C20.6697 52.6997 20.9268 52.7732 19.4576 52.7915C17.566 52.8099 18.4016 51.5978 17.6486 52.1488C17.2354 52.4518 17.6486 52.259 17.3824 52.6814C17.1803 53.0119 17.3456 52.8466 16.9783 52.9201C15.7754 53.1772 16.0417 52.259 15.0867 52.3049C14.4899 52.3324 14.6827 52.5069 14.0583 52.3508C12.736 52.0202 12.7177 52.5987 11.9923 52.6722C11.4689 52.7273 11.3036 52.562 10.8077 52.5436C10.4221 52.5253 9.99966 52.5436 9.61399 52.5436C6.10629 52.5436 8.61311 52.6354 6.2624 53.1956C5.79409 53.3058 5.66554 53.2048 5.62881 52.663C6.28994 52.5987 6.28076 52.5712 6.5746 52.011C6.95108 51.2856 7.13473 51.4142 7.39184 51.3315C8.03461 51.1295 7.55712 51.0469 8.31927 50.9459C8.87021 50.8724 8.91613 50.5694 9.20078 50.3949C9.51299 50.2113 10.0915 50.3123 10.5139 50.3031L12.3963 50.0552C13.1492 49.9633 12.2861 49.8256 14.2879 49.8256C14.2787 49.2471 14.0308 48.687 14.6001 48.8431C15.1877 49.0084 14.8847 49.3298 15.5826 49.3481C15.6377 49.0635 15.6836 48.8706 15.7846 48.6411C16.1703 48.7604 16.3998 49.1094 16.7763 49.3481C16.9875 49.1094 17.1252 48.8339 17.3732 48.6411C17.6303 48.7145 17.6303 48.788 17.8231 48.8339C18.2363 48.9349 18.0894 48.8431 18.2822 48.7788C18.9158 48.5768 18.5761 48.9992 19.0719 48.7788C19.2097 48.7145 19.228 48.6227 19.4851 48.5492C19.6688 48.5033 19.8341 48.5217 20.0269 48.485C20.3207 48.4299 20.5503 48.2921 20.9543 48.283V48.0442C20.4126 48.1911 20.0269 48.0258 19.2739 48.1819C18.4567 48.3564 18.5118 47.9065 17.6762 47.9157C16.3172 47.9248 16.6478 48.4574 14.2879 47.8055C14.3338 47.1351 14.545 47.3555 14.6001 47.1535C14.6276 47.0525 14.8113 47.0892 14.4623 46.9239C14.2787 46.8321 14.3062 46.8689 14.1042 46.8597C13.6635 46.8321 12.6809 47.1076 12.7085 46.5199C12.7268 46.1343 12.9564 46.1985 13.2227 46.1985C14.6827 46.1894 14.6552 45.7853 15.2888 45.8037C15.7571 45.8129 15.601 45.9231 16.0417 45.8771C17.1803 45.7486 17.3824 45.9322 18.2822 45.5833C18.8515 45.3629 18.8332 45.62 19.2372 45.418C20.8625 44.6375 19.4943 45.2344 20.9176 44.9314C21.3767 44.8304 21.8267 44.6559 22.2858 44.5457C23.351 44.3069 22.901 44.8028 24.6457 44.2702C24.9303 44.1876 25.0313 44.1784 25.3435 44.1508C26.1608 44.0866 26.0781 43.8754 26.675 43.7193C27.1892 43.5815 27.7953 43.6917 28.337 43.6825C28.888 43.6642 29.2553 43.4989 29.7787 43.3887C30.2929 43.2785 30.7612 43.2693 31.2754 43.1591C32.1661 42.9755 31.8906 43.1224 32.313 42.3786C32.864 42.4337 32.6069 42.6082 33.2037 42.3786C33.5802 42.2317 34.8107 42.2042 35.8942 41.9011C35.9126 41.5798 35.9401 41.5798 35.9952 41.3135C37.3909 41.3135 37.3818 41.6532 36.7941 40.6064C36.4635 40.6431 36.0778 40.7442 35.8024 40.8543C35.1872 41.0839 35.4443 40.8727 34.9117 40.8635C33.9016 40.8452 33.5894 41.4604 33.3231 41.6808C32.8824 41.4053 32.6069 41.1206 31.8631 41.2308C31.7162 41.2584 31.3122 41.3043 31.0642 41.3502C30.8347 41.3961 30.6602 41.5155 30.3755 41.5981C29.7144 41.8093 29.5124 41.6349 28.7502 41.6624C26.6107 41.7359 27.7861 42.7184 26.1975 42.2225C25.922 42.1399 26.2251 42.195 25.8945 42.1032L24.3794 42.0205C23.6264 42.0756 24.1131 42.3786 22.7816 42.3786C21.845 42.3786 22.1297 42.7367 21.2941 42.7367C21.1839 42.2593 21.2665 42.397 20.7982 42.3786C20.5136 43.655 19.8433 42.599 19.0077 42.599L17.1069 42.8469C16.7212 42.9204 16.8222 42.7276 16.712 43.2051C15.4357 43.2051 15.8213 42.6633 15.1969 43.1683C14.4164 43.7835 13.9114 43.453 12.9748 43.1591C12.5707 43.0306 12.6809 43.003 12.3504 42.8378C11.1658 42.2409 9.75173 43.2051 9.43953 42.5072C9.11814 41.7634 10.1282 41.9746 10.5506 41.791C11.8729 41.24 11.1842 41.6716 12.0106 41.5338C12.5707 41.442 12.8554 41.1206 12.736 40.487C12.1667 40.487 12.1943 40.4044 11.827 40.7074C11.4229 41.0288 11.7443 40.9645 11.0465 40.9645C10.9546 40.5146 10.9455 40.4962 10.9455 39.8994C10.4771 39.8994 10.22 39.9177 9.80683 39.9728C9.27424 40.0371 9.3477 39.8259 9.02632 39.5688C8.42946 39.0821 7.86933 40.0647 7.16228 39.6606C7.19901 39.1005 7.29083 39.1648 7.74995 39.0546C8.39273 38.8985 8.37436 38.7332 9.48544 38.5128C10.018 38.4026 9.90783 38.3843 10.2659 38.2557C11.074 37.9619 11.7351 38.3384 11.8453 38.3384C12.2126 38.3475 12.2585 38.0629 12.5616 37.9068C13.3145 37.5211 13.4706 38.0904 14.2328 38.1272C15.3714 38.1822 15.3347 37.5027 15.8213 37.466C15.9866 37.4568 16.2896 37.5487 16.6845 37.4844C18.3281 37.2089 17.5385 37.1263 18.0619 36.6212C18.5026 36.208 19.2005 36.8232 19.6137 36.9334C20.4034 36.309 20.082 36.6304 20.6421 36.2631C21.2206 35.8958 21.0094 35.6112 21.4043 35.2714C21.5604 35.0235 21.4135 35.1153 21.7073 35.0327V34.6745C21.1931 34.5368 21.0921 34.3164 20.2106 34.3164L19.9351 34.4634C19.6045 34.5919 19.4668 34.5644 19.1638 34.5093C18.7414 34.4358 18.4842 34.4358 18.0251 34.4358C18.0986 33.3798 18.1996 34.4909 19.8065 33.8298C22.5704 32.6911 21.6614 33.9216 22.7725 33.3339C23.4795 32.9666 23.0571 33.3982 24.2049 33.2788L24.71 33.1594C25.2609 32.9391 25.0497 33.0217 25.7935 33.0217C25.8027 32.5534 25.7659 32.7462 25.8945 32.434H26.4914C26.5648 32.7921 26.6475 32.8932 26.7852 33.1411C27.4555 33.0768 26.8127 32.9023 28.1809 32.9023C28.888 31.6443 29.0533 32.4616 29.8889 32.0943C30.348 31.8923 30.146 31.7637 30.6969 31.8096C32.3222 31.9382 31.7254 31.5801 32.5977 31.2954C33.3047 31.0658 37.4552 30.6343 37.8317 30.772C38.4928 31.0199 39.1264 31.0199 39.7141 30.7628L41.6883 30.267C42.276 30.166 43.1116 30.1109 43.7085 29.9456C43.7085 29.1743 43.6258 29.5324 43.9564 29.1834C44.2778 28.8437 44.0941 29.11 44.3053 28.6509C44.7369 28.6509 45.4348 28.559 45.6735 28.6049C46.0225 28.6692 46.2336 28.9263 46.6836 28.9263C48.6578 28.9171 47.8957 29.0824 48.6854 28.1825C49.3006 28.2468 49.1261 28.4672 49.4842 28.66C49.7413 28.7978 49.6312 28.7151 50.2831 28.4213C50.7881 28.2009 50.6412 28.1825 50.9534 27.7969C51.6788 26.9062 51.8166 27.5949 52.4226 27.7693C52.9644 27.9163 53.295 27.6683 53.7265 27.549C55.4896 27.0439 54.1214 27.2459 54.755 26.998C55.3886 26.7501 55.2049 27.7051 56.215 26.9613L56.4078 26.8327C57.4179 26.2818 57.4087 26.9796 58.1433 26.998C58.2259 26.6399 58.1341 26.7776 58.4188 26.6215C59.0983 26.2359 59.5115 26.6215 59.7043 26.6858C60.4756 26.9521 61.4949 25.5105 62.2846 25.8594C62.909 26.144 62.1193 26.3552 62.808 26.4746C63.5059 26.594 64.0017 26.2726 64.3139 25.5747C65.0852 25.5747 64.7822 25.7216 65.223 25.4737C66.0494 25.0054 66.885 25.8502 67.4727 24.7208C67.4727 24.7116 67.5094 24.0872 68.1981 24.3718C68.547 24.5096 68.3175 24.5187 68.6848 24.6381C68.8409 24.5004 68.648 24.5187 69.0796 24.5187C69.1347 24.3167 68.8317 24.5096 69.3 24.3167C69.6857 24.1606 69.9336 24.3351 70.0713 23.6923C70.5947 23.7015 70.5672 23.8392 70.9437 23.977C71.4946 24.179 71.265 23.9862 71.5956 23.7199C72.5139 22.9669 72.5414 25.1799 73.6525 23.2148C74.736 23.5179 76.4531 22.7465 77.6285 22.7373C78.0233 22.7282 78.4365 22.7557 78.8314 22.7465C79.3364 22.7282 79.3548 22.6088 79.8231 22.6272C80.5118 22.6547 80.0527 22.82 80.6954 22.5904C81.5127 22.3058 81.4208 22.8659 81.4208 22.8659C81.8983 22.82 81.8708 22.6363 82.3299 22.5262C82.6697 22.4435 82.9176 22.4343 83.2482 22.3241C83.7073 22.168 83.6705 22.1313 84.2031 22.0487C85.0571 21.9109 84.8643 21.011 85.5529 21.6263C86.0396 22.0578 85.8376 21.9752 86.462 21.663C87.3986 21.1947 88.2618 21.7365 89.4463 21.057C89.832 20.8366 90.6951 21.1029 92.2837 20.6529L94.1294 20.1295C94.4783 20.0285 94.8272 20.102 95.2313 20.0193C95.5618 19.9551 95.5802 19.8357 95.7179 19.652C95.7271 19.6337 95.7547 19.5969 95.7638 19.5878C95.773 19.5694 95.8281 19.4776 95.8465 19.45C96.8382 20.0744 98.4451 19.6245 99.8317 19.4592C100.75 19.349 100.676 18.7246 101.429 18.6328C101.944 18.5685 101.889 18.8073 102.485 18.7246C103.872 18.5226 103.532 18.1278 104.092 17.889C104.377 17.7696 104.579 17.8982 105.001 17.9257C106.333 17.9992 106.149 17.4482 106.801 17.3381C107.306 17.2554 107.389 17.3472 107.866 17.182C107.995 17.136 108.142 17.081 108.325 17.0259C109.391 16.7137 108.821 16.6953 109.565 16.4841C110.759 16.1352 110.263 16.4474 110.841 16.429C112.081 16.4014 111.411 16.7504 112.237 16.5943C112.494 16.5484 112.88 16.3188 113.174 16.3096C113.624 16.2913 113.422 16.4657 114.019 16.2178C115.506 15.6118 114.56 16.3555 115.745 15.7862C116.066 15.6301 116.92 15.6209 117.673 15.3546C118.16 15.1802 118.169 15.2536 118.711 15.1618C119.675 15.0149 119.932 14.868 120.556 14.6751L121.309 14.4731C122.54 13.9681 122.485 14.2344 123.1 13.8671C123.917 13.3896 124.128 13.9773 124.707 13.1784C124.854 13.61 125.001 13.5365 125.8 13.5365C125.983 13.206 125.956 13.1784 126.103 12.8295C126.507 12.958 126.442 13.206 126.709 13.4171C127.177 13.7936 127.508 13.3161 127.508 13.3161C128.04 12.9856 127.902 13.3161 128.38 13.2886C128.756 13.2702 128.756 13.0682 129.023 12.8754C129.399 12.5999 129.509 12.7927 129.886 12.5999C130.336 12.3612 130.097 12.1592 130.51 12.0581C130.795 11.9939 130.887 12.2602 131.355 12.2142L132.99 11.6633C133.586 11.4888 133.247 11.397 133.715 11.2225C134.027 11.1032 134.413 11.2042 134.743 11.1491C134.955 11.1124 135.267 11.0022 135.551 10.9287C135.873 10.8461 136.093 10.7542 136.415 10.6532C136.819 10.5339 137.03 10.6257 137.443 10.5706C138.178 10.4788 137.948 10.139 138.747 9.63398C138.738 9.07385 138.637 9.23913 138.747 8.92693C139.252 9.08303 138.986 9.03712 138.949 9.63398C140.492 9.2024 140.29 8.88101 140.648 8.45862C141.272 7.72402 141.502 8.35761 142.034 7.02616C142.374 7.13635 142.429 7.61383 144.22 7.61383C144.422 7.1088 144.155 7.17308 144.615 7.02616C144.936 7.31081 144.817 7.08125 144.716 7.61383C145.23 7.55874 144.89 7.52201 145.707 6.8976C146.194 6.5303 146.019 6.2181 146.506 6.08036L146.616 6.05282C146.635 6.05282 146.662 6.04363 146.681 6.04363C147.893 5.86917 147.498 5.63042 148.086 5.34577C148.618 5.07948 148.462 5.65797 149.463 4.62953C149.803 4.2806 149.839 3.94085 150.381 3.94085C151.015 3.94085 151.079 4.40916 151.556 3.93167C151.758 3.72047 151.749 3.63783 151.988 3.49091L152.355 3.33481C153.558 2.75631 152.805 3.11443 153.595 3.2338C154.036 3.29808 154.1 3.03179 154.651 3.15116C154.871 3.19707 154.752 3.16034 154.871 3.25217L154.724 3.22462ZM176.12 65.6011C176.221 66.1245 176.322 65.9959 175.918 66.3081C175.798 66.0969 175.716 66.0969 175.716 65.8306C175.716 65.5919 175.918 65.6103 176.11 65.5919L176.12 65.6011ZM162.484 88.2083L163.769 88.2818C163.898 88.2818 164.035 88.2083 164.283 88.2083C165.156 88.2083 164.577 89.5122 164.182 89.5122C162.759 89.5122 163.383 89.1541 162.888 89.1541C161.611 89.1541 162.217 90.155 161.198 89.5122C161.703 88.6123 161.143 88.2083 162.493 88.2083H162.484ZM16.308 89.6316C16.9691 89.6316 17.263 89.8703 17.8047 89.8703C18.1996 89.8703 18.1078 89.5214 18.6312 90.0723C19.5219 91.0181 19.0352 91.7068 18.4383 90.9079C18.1261 90.4947 18.2639 90.4672 17.6119 90.4672C17.5385 90.7794 17.3732 90.8988 17.3732 90.8896C17.364 90.8712 17.3364 90.9263 17.3181 90.9447C16.4917 90.7151 16.9232 90.4672 15.4265 90.4672C14.8755 90.4672 14.4348 90.7886 14.2236 90.357C13.7553 89.4112 15.9132 89.6316 16.3264 89.6316H16.308ZM139.206 8.19233C139.206 7.95359 139.5 7.87094 139.702 8.07296C139.564 8.679 139.206 8.61472 139.206 8.19233ZM45.1685 124.305C45.297 124.617 45.4531 124.791 44.8655 125.25C44.7461 125.039 44.6634 125.039 44.6634 124.773C44.6634 124.534 44.9665 124.36 45.1593 124.295L45.1685 124.305ZM183.888 68.7874C183.686 67.7406 183.934 68.1997 184.586 68.1997C185.375 68.1997 185.366 67.7222 185.679 67.7222C186.239 67.7222 185.926 67.7773 186.064 67.9793C186.22 68.2181 186.202 68.4476 186.78 68.9068C187.203 68.769 186.955 68.668 187.276 68.668C187.754 68.668 187.451 68.7507 187.846 68.9343C188.534 69.2465 188.828 69.0261 189.269 68.9068C189.333 69.219 189.563 69.8526 189.067 69.8526L186.578 69.7332C186.248 69.1547 185.982 68.4293 185.183 68.4293C184.852 68.4293 185.302 68.7874 183.888 68.7874ZM168.269 83.3416C168.737 83.4885 168.599 83.7273 168.921 83.8742C169.205 84.0027 169.435 83.8099 169.866 83.8099C170.16 83.8099 170.27 84.1129 170.766 84.168C171.106 84.2047 171.602 84.168 171.96 84.168C171.648 85.5454 169.719 84.9944 168.774 84.9944C168.7 84.82 168.7 84.7006 168.682 84.6363C168.443 83.9752 168.177 84.4159 168.177 83.6905C168.177 83.461 168.204 83.4793 168.278 83.3324L168.269 83.3416ZM178.415 74.1132C178.415 73.7092 179.673 73.5623 179.921 73.5347C180.298 73.4888 180.564 73.5898 180.692 73.599C181.225 73.6449 182.226 73.1307 182.299 74.1132C181.785 74.1132 181.565 74.0949 181.179 74.205C180.674 74.352 179.682 74.2785 179.122 74.3703C178.856 74.4071 178.415 74.6642 178.415 74.1132ZM163.264 77.8688C164.889 77.7403 164.035 77.7036 164.678 78.2545C165.697 77.9699 165.055 78.0617 165.67 78.2545C165.624 78.9616 165.284 78.9432 164.77 79.0809C164.742 79.0258 164.495 78.6218 164.476 78.5943C164.192 78.2178 164.577 78.4841 164.081 78.3371C163.457 78.1535 163.604 78.4841 163.071 78.4841C162.438 78.4841 162.667 77.8046 162.676 77.777C162.97 77.8046 162.97 77.8872 163.255 77.8597L163.264 77.8688ZM180.206 64.4074L181.28 64.5543C181.712 64.6645 182.336 64.3339 182.795 64.6461C182.795 65.4633 182.272 65.0134 181.601 65.0226C181.051 65.0226 180.49 65.5001 179.912 65.3623C179.921 64.8114 180.031 64.7379 180.215 64.4165L180.206 64.4074ZM173.337 10.3135C173.649 10.0656 173.585 10.0931 174.081 9.99209C174.402 9.92781 174.632 9.90945 174.632 10.3135C174.632 10.791 173.998 10.791 173.539 10.7818L173.337 10.3135ZM182.694 69.9719H182.997V70.33H182.694V69.9719ZM182.024 71.2391C181.987 71.0004 182.088 70.9177 182.299 70.9177C182.529 70.9177 182.492 71.2483 182.501 71.5054C182.226 71.4962 182.079 71.5329 182.024 71.2299V71.2391ZM174.963 84.269C175.624 84.6914 175.036 85.0128 174.54 85.0128C174.2 85.0128 174.274 84.8567 174.329 84.6639C174.357 84.572 174.503 84.1588 174.54 84.067L174.963 84.2782V84.269ZM176.928 77.1985C178.222 77.1985 177.892 76.8404 178.323 77.0792C178.03 77.6117 178.149 77.373 177.534 77.4556C177.157 77.5015 177.451 77.6026 177.148 77.5107C176.9 77.4373 177.001 77.4465 176.928 77.1985ZM178.617 67.612C178.617 67.3641 179.214 66.9509 179.214 67.612C179.214 68.4568 178.617 68.0436 178.617 67.612ZM177.029 82.7631C177.469 82.9008 177.469 83.0937 177.029 83.2406V82.7631ZM176.533 84.067C176.671 84.067 176.735 84.2323 176.735 84.4251V85.0128H176.34V84.5353C176.34 84.2507 176.12 84.0578 176.542 84.0578L176.533 84.067ZM166.285 84.6547C166.285 84.5445 166.864 83.7364 166.882 84.8934C166.708 84.9393 166.285 85.2424 166.285 84.6547ZM167.185 77.7862C167.562 77.7862 167.433 78.7595 166.689 78.2637C166.763 77.9515 166.882 77.7862 167.185 77.7862ZM169.967 77.4281C170.243 77.6485 170.399 77.7678 170.169 78.2545C169.967 78.2545 169.774 78.3096 169.774 77.8964C169.774 77.6301 169.857 77.6393 169.976 77.4189L169.967 77.4281ZM173.75 77.3087C173.75 77.0883 174.008 76.969 174.357 77.1985L174.246 77.6668C173.851 77.6576 174.017 77.6944 173.75 77.5475V77.3087ZM179.021 85.5913C179.076 85.1964 179.462 85.426 179.636 85.4444C180.16 85.4903 179.912 85.1046 180.215 85.5913C179.673 85.5913 179.361 85.7841 179.021 85.5913ZM167.58 86.8952C168.002 87.0329 167.956 87.1799 167.874 87.6206L167.479 87.4921C167.479 87.0513 167.46 87.189 167.58 86.9044V86.8952ZM177.625 63.9299C177.625 63.9299 177.846 63.4524 177.929 64.288C177.286 64.2053 177.625 63.9391 177.625 63.9299ZM170.16 76.3629C170.16 76.1242 170.362 76.1425 170.555 76.1242C170.546 76.7302 170.647 76.4639 170.353 76.7119C170.197 76.5741 170.151 76.6935 170.151 76.3537L170.16 76.3629ZM173.842 16.7045C174.577 16.7779 174.43 16.8055 174.439 17.2921C173.971 16.8881 174.549 16.9524 173.842 16.934V16.6953V16.7045ZM173.043 84.168C173.218 84.168 173.209 84.3425 173.245 84.5261C172.851 84.5169 173.016 84.5629 172.75 84.4068C172.777 84.2323 172.869 84.168 173.053 84.168H173.043ZM175.532 86.5371C175.422 87.0238 175.458 86.9503 175.137 86.7758C175.174 86.5279 175.302 86.5646 175.532 86.5371ZM179.012 71.1748C178.782 71.0187 178.966 71.083 179.012 71.0279C179.076 70.9453 178.975 70.8075 179.131 71.0279C179.251 71.1932 179.104 71.2391 179.003 71.1748H179.012ZM180.821 71.083C181.069 70.9728 180.812 71.2667 180.702 71.1473C180.536 70.9453 180.812 71.083 180.821 71.083ZM144.201 4.65708C144.844 4.40916 144.348 4.2806 145.276 4.2806C145.239 4.8591 145 4.86828 143.88 4.86828C143.779 5.31822 143.338 5.67634 143.283 4.86828C143.559 4.79482 143.972 4.73972 144.201 4.65708ZM161.198 76.1242C161.556 76.1242 161.501 76.4272 161.501 76.8312C161.097 76.9322 160.757 76.923 160.702 76.2435C160.822 76.1885 161.042 76.1242 161.198 76.1242ZM25.7659 87.9604C25.7384 88.2909 25.7659 88.4379 25.4629 88.4379H25.1691C25.1691 87.6573 25.2976 87.9145 25.7659 87.9604ZM133.146 116.141C133.568 115.893 133.798 115.792 134.128 116.013C134.009 116.527 133.99 116.371 133.605 116.573C133.237 116.757 133.063 117.014 132.641 116.729C132.797 116.463 132.907 116.297 133.146 116.151V116.141ZM131.245 117.308C131.254 116.913 131.419 116.959 131.741 116.949V117.308H131.245ZM130.648 117.308H131.144C131.043 117.409 131.236 117.353 130.905 117.5C130.74 117.574 130.804 117.528 130.648 117.546V117.308ZM23.6723 94.7003C23.6723 94.2228 25.0681 94.1402 25.0681 94.8197C25.0681 95.1319 23.6723 95.3155 23.6723 94.7003ZM10.8353 55.5187C11.4689 55.5187 11.6525 55.4269 11.928 55.8768C11.5974 56.4645 11.6709 56.1891 11.2117 56.1431C10.7618 56.0972 11.0281 56.2809 10.4312 56.1156C10.4588 55.7667 10.5047 55.5279 10.8261 55.5279L10.8353 55.5187ZM11.928 49.0084C12.3595 49.1277 12.4238 49.0267 12.5248 49.4859C12.1484 49.5777 11.9739 49.6328 11.928 49.0084Z" stroke="#E31E24" stroke-width="0.752962" stroke-miterlimit="22.9256"/>
</g>
<defs>
<clipPath id="clip0_21_5">
<rect width="189.737" height="138.043" fill="white"/>
</clipPath>
</defs>
</svg>
