<svg width="190" height="139" viewBox="0 0 190 139" fill="none" xmlns="http://www.w3.org/2000/svg">
<g clip-path="url(#clip0_21_2)">
<path fill-rule="evenodd" clip-rule="evenodd" d="M28.6989 84.5291C28.647 84.5395 28.3665 84.633 28.6989 84.5291ZM5.55695 52.7037C5.04799 52.6933 5.11031 52.6726 4.8818 52.3298C4.60135 51.9039 4.82986 52.039 4.26897 51.8832C3.76001 52.4025 4.12356 52.1844 3.46918 52.5895C3.32377 52.496 3.43802 52.5791 3.2926 52.4544C2.33701 51.6339 1.20484 52.4648 0.384277 52.2363C0.405051 51.26 0.799753 51.4261 1.57877 51.4054C2.12927 51.395 2.77326 51.1249 3.24067 51.1976C3.46918 51.2288 3.78079 51.3638 4.03007 51.343C4.27936 51.3223 4.49748 51.2184 4.80909 51.3327C4.96489 51.3846 5.01683 51.4469 5.1207 51.5612C5.6712 52.1428 5.54656 52.2052 5.54656 52.7141L5.55695 52.7037ZM154.723 3.231C154.962 3.33487 154.858 3.1583 154.92 3.4699C155.824 3.44913 155.398 2.79476 156.333 2.55586C157.018 2.37928 156.852 2.29619 157.797 1.69375C157.943 1.95342 158.41 2.42083 158.68 2.55586C159.054 2.74282 158.94 2.63895 159.262 2.50392C160.249 2.08845 161.246 1.69375 162.274 1.808C162.814 1.87032 163.313 1.72491 163.791 1.90148C164.57 2.18193 164.269 2.02613 165.162 2.0469C165.764 2.05729 166.014 2.33773 166.522 2.26502C166.907 2.21309 167.301 1.94303 167.665 1.84955C168.569 1.60026 168.132 1.52756 168.683 1.15363C169.213 0.790087 169.254 1.27827 169.805 1.20556C170.334 1.13285 170.397 0.603123 170.968 0.810861C171.446 0.987438 171.498 1.30943 172.121 0.997825C172.672 0.727766 172.588 0.623897 173.409 0.634284C174.624 0.644671 174.095 0.426546 174.707 0.395386L175.902 0.74854C176.515 0.956277 176.494 1.0186 176.899 1.34059C176.899 2.18193 176.619 2.51431 176.213 2.89862C175.154 3.90615 175.403 3.40758 174.915 3.52184C174.655 3.58416 174.603 3.7919 174.385 4.04118C174.011 4.45666 173.513 4.4982 172.921 4.66439C170.189 5.46418 172.173 5.26683 170.573 5.90043C169.888 6.17049 169.493 6.22243 169.078 6.4821C168.641 6.75216 167 7.22995 166.45 7.37537V7.72853C166.969 7.73891 167.125 7.91549 167.509 8.12323C168.621 8.69451 170.573 8.64257 171.124 8.79837C171.113 9.53584 170.978 9.34888 169.639 9.99287C169.618 10.0033 169.587 10.0136 169.566 10.024C169.545 10.0344 169.514 10.0448 169.493 10.0552C168.683 10.4291 169.317 10.9173 169.4 10.9692C169.826 11.2185 169.909 10.9069 170.199 10.7719C170.656 10.5641 170.698 10.8134 171.041 10.6992C171.311 10.6057 171.342 10.4707 171.861 10.3772C172.298 10.2941 172.391 10.3668 172.713 10.4603V10.9381C171.789 11.1977 171.571 11.2081 171.373 11.8313C171.145 12.5688 171.082 13.0051 170.418 13.1816C170.418 13.9918 170.438 13.6283 170.719 14.1268C171.28 14.1268 171.602 13.9814 172.007 14.0126C172.609 14.0541 172.485 14.2515 173.149 13.9399C173.534 13.7633 173.731 13.5348 174.115 13.4101C174.749 13.2128 174.333 13.7114 174.874 13.6906C174.915 13.6906 175.653 13.379 175.933 13.3374C176.504 13.244 176.442 13.4205 176.992 13.3063C177.585 13.1816 177.439 13.0466 177.927 12.7454L178.187 12.5792C178.914 12.0702 178.862 12.3715 179.246 12.735C179.672 13.1401 180.015 13.3998 180.576 13.3998C180.576 12.922 180.545 13.0154 180.68 12.6935C181.75 12.7246 181.199 13.4932 183.079 12.6831C183.401 12.548 183.463 12.5896 183.567 13.0466C183.567 13.7633 181.438 13.9918 181.075 13.9918C180.503 14.0022 180.067 14.2619 179.662 13.8983C179.433 13.6906 179.059 13.1609 178.789 13.0466C178.28 13.5763 178.623 13.3063 178.374 13.971C178.218 14.3761 178.415 14.1061 178.062 14.3138L176.951 14.8851C176.598 15.0928 176.65 15.2902 176.504 15.6537C175.538 15.6537 175.601 15.6537 174.853 15.9342L172.536 16.5781C172.308 16.8586 172.64 16.9417 172.516 17.3987C172.391 17.835 172.308 17.6168 171.841 17.6688C171.342 17.7311 171.591 17.7311 171.238 18.0115C171.124 17.9388 171.113 17.9388 170.989 17.835C170.563 17.4922 170.791 17.5441 170.345 17.5337C170.324 17.8973 170.251 18.105 170.147 18.3647L171.685 18.427C172.079 18.4686 172.547 18.157 172.755 18.562C172.973 18.9983 172.786 18.7386 172.744 18.8321C172.568 19.6111 172.516 18.7698 172.35 19.5384C173.918 19.5384 174.313 18.6763 174.344 19.8916C173.793 20.0474 173.409 20.037 172.921 20.3278C172.63 20.5044 172.64 20.5563 172.266 20.6186C171.654 20.7329 171.747 20.5148 170.272 20.9614L168.974 21.4288C168.641 21.782 168.662 21.7612 168.174 21.8962C167.052 22.2078 166.803 22.5714 166.45 22.6856C166.117 22.7895 165.598 22.7583 165.37 22.8207C164.726 22.9661 164.933 23.07 164.539 23.2465C164.154 23.4231 163.926 23.2361 163.562 23.5166C163.178 23.8074 163.656 23.5893 163.24 23.8386C162.97 23.9944 162.035 24.0463 161.62 24.0463C161.371 24.2437 161.246 24.2333 160.965 24.3268C160.488 24.5033 160.633 24.5864 160.342 24.6695C158.691 25.0954 158.857 25.7809 158.566 25.9367C158.265 26.1029 158.525 25.7394 158.078 25.8744C157.714 25.9783 157.901 26.0094 157.735 26.4145C158.255 26.5599 158.68 26.5392 159.335 26.5392C160.238 26.5392 160.01 26.1964 160.727 26.1756C161.298 25.8536 162.17 25.9783 162.69 25.5524C163.012 25.2824 162.991 25.0435 163.583 25.1369C164.196 25.2304 165.058 25.4174 165.619 25.0123C166.315 24.5033 166.346 24.8877 166.959 24.5968C167.312 24.4202 167.115 24.4722 167.333 24.3164C167.644 24.0983 167.862 24.2852 168.299 24.2852C168.517 23.2985 168.662 24.2333 170.096 23.9321C170.885 23.7659 171.404 23.7866 171.789 23.1011C172.443 23.2777 172.256 23.6101 172.91 23.018C173.482 22.5091 173.959 22.7168 174.624 22.9245C176.12 23.3919 175.299 23.2777 176.369 23.1323C176.733 23.0907 176.421 23.2673 176.93 23.0388C177.159 22.9349 177.242 22.7791 177.501 22.9245C177.99 23.1842 177.72 23.7659 177.346 23.8905L176.162 24.3683C175.528 24.4826 175.382 24.3164 175.081 24.8565C175.206 25.3966 175.424 25.4382 175.881 25.5628C176.026 25.2408 176.078 24.9708 176.276 24.7319C176.795 25.0642 176.629 25.3135 176.972 25.916C177.688 25.916 177.533 25.7082 178.062 25.5628C178.415 25.8433 178.644 26.1341 179.143 25.916C179.413 25.7913 180.025 25.1993 180.046 25.916C180.057 26.2899 179.87 26.3107 179.662 26.4041C178.831 26.7677 177.605 27.5571 176.764 27.5779C175.684 27.609 176.307 27.8999 175.663 28.0453C175.362 28.118 174.52 28.0453 174.167 28.0453C173.253 28.0557 173.637 28.2426 173.378 28.8866C171.269 28.8866 171.519 29.541 171.384 30.185C170.75 30.185 170.262 29.7903 169.69 29.9461C169.711 30.9951 170.584 30.8601 171.269 30.7666C172.401 30.6108 172.298 30.185 173.17 30.185C173.347 30.777 173.804 30.4343 174.209 30.3408C174.687 30.2369 174.738 30.6835 175.175 30.8705C175.528 31.0263 175.871 30.8913 176.4 30.8497C176.816 30.8186 177.19 31.0159 177.626 30.9744C178.436 30.8913 177.958 30.9432 178.644 31.3691C179.89 32.1377 180.171 33.1245 178.634 33.9554C178.145 34.2151 177.886 34.1112 177.429 34.2982C176.889 34.5163 177.044 34.6306 176.265 34.6929C175.777 34.7344 175.403 34.9006 175.092 34.8694C174.365 34.7967 174.738 34.8071 174.167 35.1603C173.399 35.6277 171.3 35.8978 170.293 35.877C169.649 35.8666 169.628 35.9497 169.098 36.1159C169.358 36.5417 169.265 36.2925 169.794 36.3548C170.283 36.4171 170.428 36.8533 170.885 37.0715C171.332 37.2792 171.487 37.6012 171.986 37.7778C172.755 38.0582 173.565 37.8816 173.586 38.8372C172.63 39.0969 171.55 39.045 170.625 39.5747C170.012 39.9175 169.317 39.5747 169.109 40.2602C170.023 40.2602 170.771 40.0213 171.591 40.0213C171.757 40.3226 171.82 40.5511 171.986 40.8523C172.474 40.8523 173.045 40.7277 173.284 40.8523C173.575 41.569 173.087 42.0468 172.62 42.3168C172.131 42.5973 171.789 42.8362 171.321 43.1374L168.403 44.5189C168.454 45.3187 168.704 45.329 169.4 45.3498C170.22 45.3706 169.971 45.7445 170.688 45.8276C171.384 45.9003 172.308 45.7549 172.848 45.3187C173.045 45.1629 172.91 45.2459 173.087 45.1317C173.139 45.1005 173.305 45.0278 173.367 44.9967C173.762 45.3083 173.783 45.5783 174.375 45.3706C174.874 45.2044 175.009 45.1213 175.518 45.4121C176.307 45.8692 176.535 45.3706 177.886 45.5576C178.634 45.6614 178.405 45.2563 179.08 45.6614C179.589 45.9626 180.742 46.2742 180.586 47.1779C180.347 48.5178 178.592 48.6217 178.322 48.7567C177.927 48.9644 178.384 48.8086 177.906 49.0995L176.13 49.5877C175.414 49.7227 175.632 49.7227 174.977 49.9928C174.178 50.3251 173.7 50.3044 173.129 51.1145C172.672 51.7585 172.277 51.5404 172.277 52.5791C172.848 52.9011 174.261 52.6102 174.468 53.5243C174.043 53.7943 171.529 54.5838 170.968 54.6876L169.888 55.0615C170.511 56.0691 172.287 53.7009 172.672 55.6536C172.994 55.6536 174.157 55.6432 174.261 55.7679C174.749 56.3495 173.409 57.3778 173.035 57.6271C172.422 58.0218 171.757 58.4996 171.103 58.7593C170.334 59.0709 169.857 59.5071 169.015 59.7045C167.925 59.9642 167.655 60.4316 166.003 60.7328C165.536 60.8159 165.629 60.9198 165.349 60.9925C165.027 61.0756 165.068 60.847 164.663 60.9198C164.165 61.0028 164.424 61.0756 164.009 61.2106C164.144 61.7923 164.746 61.865 165.266 61.7611C165.64 61.6884 166.367 61.5534 166.689 61.4287C167.301 61.1898 167.156 60.712 167.717 60.847C168.444 61.0236 168.174 60.9094 168.756 60.4627C169.42 59.9538 169.41 60.0784 170.012 60.2342C170.376 60.3277 171.996 60.39 172.339 60.2238L172.609 60.0784C173.575 59.7253 173.305 59.4344 174.167 59.6733V60.3796L172.609 61.3664C172.183 61.5534 171.612 61.5534 171.28 61.9169C171.103 62.1039 171.155 61.9584 171.093 62.2804C171.384 62.7998 171.487 62.6336 172.183 62.6336C172.214 62.2285 172.256 62.1973 172.381 61.9273C173.191 61.9273 173.108 62.1454 173.378 62.7582C174.77 62.7582 174.095 61.6261 175.372 62.644C176.089 62.187 176.805 61.4079 177.055 61.4806C177.678 61.678 176.868 62.2804 176.639 62.4882L173.949 64.4928C173.284 64.846 173.045 64.4409 172.609 64.6694C171.622 65.1784 173.118 65.49 170.106 65.4796C169.524 65.9158 169.306 65.033 169.306 66.9026C169.68 67.0065 169.732 67.2454 170.147 67.0792C170.511 66.9338 170.283 66.778 170.843 66.8403C171.55 66.9338 171.986 66.778 172.692 66.778C172.89 66.4248 172.9 65.8535 173.887 65.8327C173.939 66.1132 173.98 66.1859 173.991 66.5391C175.362 66.5391 174.354 67.1934 175.434 66.8507C176.463 66.5183 176.567 66.4248 176.587 67.2558C176.078 67.4012 175.85 67.4012 175.216 67.3389C174.458 67.2661 174.967 67.5985 174.063 67.4323C173.565 67.3388 173.16 67.4531 172.755 67.4531C172.287 67.4427 172.131 67.6089 171.519 67.6193L170.251 67.6816C169.732 67.7232 169.659 67.9413 169.088 67.9101C168.87 67.8997 168.662 67.8894 168.506 67.9101C167.27 68.0348 168.538 68.149 166.751 67.9725C165.993 67.9725 165.712 67.7439 165.255 67.6193C165.016 68.0452 164.923 68.3879 164.362 68.4502C164.248 70.0291 163.749 69.5305 163.562 70.3407C164.798 70.3407 164.57 70.403 165.588 70.0187C166.128 69.8213 165.91 70.081 166.502 69.9356C166.969 69.8213 166.948 69.5824 167.447 69.8629C167.426 70.7146 167.125 70.351 166.647 70.351C166.367 70.351 165.473 70.8912 165.172 71.0677C164.632 71.4001 164.165 71.4624 163.635 71.4417C162.96 71.4105 163.313 71.8052 162.659 71.8883C162.067 71.961 161.994 71.7013 161.516 71.9299C161.246 72.0545 160.363 72.9062 159.781 73.0724C159.532 72.8751 159.47 72.8647 159.387 72.4804C158.971 72.5219 158.971 72.6258 158.795 72.9582C159.179 73.1243 158.857 73.0101 159.054 73.1243C159.169 73.1867 159.2 73.197 159.345 73.249C160.695 73.7372 160.633 73.3009 160.986 73.0828C161.558 72.7193 161.869 73.0413 162.077 73.2074C162.69 73.6749 162.077 73.3009 163.074 73.2074C163.676 73.1451 163.843 73.3944 164.362 73.3321C164.933 73.2594 165.577 72.0441 166.336 72.8647C166.585 73.1347 166.855 73.384 166.948 73.7891C167.852 73.7891 167.312 73.519 167.945 73.3113C168.496 73.3632 168.236 73.6333 168.86 73.7579C169.275 73.841 171.207 73.3425 170.418 74.3292C170.168 74.6408 168.361 74.7135 168.267 74.6928C168.143 74.672 167.997 74.5681 167.81 74.537C167.27 74.4539 167.831 74.5577 167.333 74.5889C166.574 74.6304 166.45 73.7268 165.962 73.3009C165.505 73.5814 165.702 73.4256 165.505 74.0592C165.245 74.8901 164.559 74.807 164.123 75.0251C163.801 75.1809 163.895 75.4095 163.541 75.5237C163.365 75.586 162.783 75.5757 162.524 75.6172C161.163 75.8457 161.038 75.6795 159.781 76.0223C159.906 76.6663 159.927 76.5416 159.678 77.0921C159.179 77.0817 159.283 76.9259 158.722 77.0194C158.068 77.1337 158.39 77.0921 157.901 76.9259C157.382 76.7598 157.714 76.9779 157.195 77.0194L156.489 77.196C157.133 78.3489 158.753 76.9571 159.678 77.9023C160.841 79.5123 160.457 77.9023 161.869 77.9023C162.004 78.5671 161.9 78.5047 161.547 78.8164C160.695 79.5746 161.859 79.3253 160.207 79.585C159.792 79.6473 159.366 79.855 158.815 79.9485C158.286 80.042 158.026 79.7927 157.434 79.9485L156.115 80.3952C155.886 80.4783 155.772 80.551 155.492 80.6029C153.715 80.9249 154.546 81.0911 153.674 81.4027C153.113 81.6 152.947 81.5793 152.521 81.922V82.6283C153.082 82.6803 152.656 82.8569 153.414 82.8776L154.733 82.8257C155.357 82.8361 155.398 82.0882 155.699 82.7426C156.406 82.7634 155.99 82.9503 156.759 82.7011C157.205 82.5556 157.527 82.6907 157.974 82.5972L159.002 82.5037C159.833 82.5245 159.615 81.8078 160.924 82.3479C161.287 82.4933 161.589 82.5972 161.89 82.7322C162.607 83.0542 163.136 82.8672 163.863 82.8672C164.269 83.5943 164.819 83.667 164.933 84.3837L164.757 84.6434C163.998 84.4045 164.258 83.719 163.209 83.9786C162.752 84.0929 162.804 84.1344 162.274 84.176C161.63 84.2175 161.848 84.2799 161.381 84.4149C161.402 84.7369 161.433 84.7369 161.485 85.0069C162.721 85.3497 161.911 84.6746 162.877 84.6538C163.053 85.0589 162.981 84.8927 163.043 85.2666L163.282 85.8379C163.749 85.8379 163.905 85.6613 164.269 85.7236C164.622 85.786 164.58 85.9625 164.881 86.191C165.079 86.1391 165.764 85.8587 165.889 85.8898C166.325 86.0145 166.024 86.513 165.764 86.6481L164.279 87.1362C164.248 87.1466 164.092 87.2297 164.071 87.2401C163.593 87.5206 163.614 87.7179 162.814 87.5725C162.264 87.479 162.44 87.4375 161.952 87.7906C161.246 88.2996 161.121 88.58 160.602 89.0267C160.706 89.4733 160.862 89.3279 160.685 89.8161L160.207 90.4497C159.657 90.2731 159.927 89.868 159.054 90.0134L157.714 90.325C157.725 91.1248 158.078 90.9794 157.818 91.6234C157.34 91.4676 157.704 91.426 157.226 91.2702C156.987 91.4572 157.039 91.4987 156.759 91.6545C156.582 91.748 156.624 91.7065 156.458 91.7792C155.751 92.1116 155.647 91.9869 155.44 92.3297C155.564 92.901 155.897 92.8698 156.302 93.0775C156.915 93.3892 157.808 93.3476 158.13 93.867C157.964 94.6148 156.873 94.7394 156.343 95.0511C156.271 95.0926 155.98 95.3211 155.928 95.4042C155.834 95.5288 155.731 95.7989 155.803 95.9547C155.949 96.2975 156.374 95.8924 156.842 95.882C157.081 97.0973 157.652 96.2975 158.088 96.526C158.826 96.9207 157.881 98.1879 157.527 98.593C156.686 99.5486 155.814 100.431 154.858 101.21C154.567 101.439 154.515 101.408 154.193 101.595C153.456 102.031 153.549 102.426 152.396 102.769C150.62 103.288 150.849 104.108 150.205 104.773C150.101 104.887 150.049 104.898 149.903 105.012L149.623 105.251C148.906 105.573 148.636 104.378 147.795 105.926C147.577 106.331 147.047 106.767 146.611 106.757C145.905 106.736 145.769 106.591 145.042 107.027C143.245 108.118 143.91 108.928 142.996 108.918C142.103 108.907 141.739 109.562 141.002 109.904C140.503 110.133 140.244 110.528 139.776 110.808C139.465 110.995 139.485 110.943 139.195 111.182C138.966 111.358 138.8 111.493 138.561 111.608C138.322 111.722 138.114 111.743 137.875 111.857C137.439 112.065 137.699 112.023 137.315 112.366C136.733 112.885 136.089 113.187 135.445 113.581C134.25 114.308 134.52 113.955 134.115 113.706C133.523 113.353 133.046 113.831 132.63 114.017C132.08 114.256 132.318 114.267 132.007 114.464C131.633 114.693 131.373 114.433 130.937 114.952C130.667 115.274 130.781 114.952 130.293 115.139C130.22 115.17 128.86 115.949 128.184 116.074C127.821 116.136 127.717 116.053 127.385 116.188C126.876 116.386 126.533 116.625 125.931 116.697C124.092 116.947 123.635 117.185 121.994 117.694C121.672 117.798 121.558 117.767 121.256 117.892C121.059 117.975 120.768 118.141 120.55 118.235L116.935 119.616C116.437 119.834 115.938 119.928 115.471 120.125C115.014 120.322 114.536 120.457 114.006 120.634C113.851 120.686 113.83 120.707 113.622 120.769L108.159 122.794C107.12 123.158 106.227 123.573 105.209 123.895L102.976 124.674C102.664 124.778 102.57 124.809 102.28 124.913L98.5611 126.17C98.0417 126.368 97.4601 126.357 97.0134 126.586L89.5868 129.12C89.2856 129.224 89.0779 129.203 88.7351 129.286L86.4188 129.961C86.2111 130.024 85.9514 130.138 85.7333 130.211C85.2036 130.398 84.6946 130.398 84.1856 130.616L82.5757 131.073C82.1706 131.166 82.129 131.145 81.7551 131.291C80.4775 131.8 78.9714 131.8 77.86 132.226L75.5126 132.87C74.9413 133.036 71.9499 133.773 71.5656 133.618C71.3786 133.96 71.7733 133.784 71.067 133.867L66.8811 134.687C66.2994 134.708 66.4137 134.708 65.9463 134.874C64.4298 135.414 63.7131 135.196 63.1626 135.352C61.885 135.685 61.8642 135.342 61.241 135.674C60.919 135.851 60.8359 135.955 60.4101 135.986C58.6755 136.131 59.1429 135.965 57.5641 136.515C57.2213 136.64 57.1382 136.734 56.8266 136.827C56.2761 136.214 56.7123 136.349 55.6321 136.349C55.0401 137.668 54.2195 136.879 53.8456 136.817C52.8484 136.671 52.5576 137.087 51.6435 137.398C50.3348 137.845 50.688 137.502 50.2309 137.44C49.7635 137.378 49.7116 137.938 48.5379 137.326L46.8448 137.243C45.3387 137.596 46.4086 137.18 44.5597 137.502C43.4067 137.71 43.4483 136.879 44.0819 136.806C44.8713 136.702 44.6012 137.118 45.6295 136.754L47.0318 136.297C47.5927 136.152 48.0705 136.193 48.569 135.996C48.943 135.851 48.8287 135.736 49.1611 135.705C50.3763 135.581 49.5454 135.653 50.3244 135.124C52.2148 133.867 49.6285 134.075 48.8495 134.085C48.3301 134.095 48.3717 133.991 48.2678 134.448C48.0289 134.293 47.8419 134.241 47.7692 133.971C47.3122 133.805 47.1253 133.659 46.7617 133.503C45.0479 132.766 44.9856 133.888 43.8118 133.576C42.742 133.296 43.012 133.846 41.6929 133.836C40.4984 133.825 41.0281 134.552 39.9064 134.552C39.8025 134.095 39.844 134.293 39.5532 134.023C38.3172 132.859 39.0027 134.116 38.0471 133.701C36.3021 132.942 35.9282 134.448 35.9282 132.901C36.5514 132.402 37.4655 132.413 38.2133 132.672C38.7638 132.859 38.9819 132.475 39.3974 132.797C39.5532 132.922 39.5117 132.994 39.7506 133.223C40.3218 133.773 40.3426 132.974 40.4257 132.704C40.6854 131.893 41.5683 131.769 41.963 131.582C43.012 131.083 42.2642 130.959 43.2302 131.083C43.5522 131.125 43.656 131.094 43.8534 130.865L44.2792 130.304C44.6012 130.501 44.6324 130.668 45.0686 130.668C45.5361 130.668 45.4841 130.522 45.8581 130.418C46.1385 129.951 46.3358 130.003 46.4605 129.349C45.6399 129.432 45.3179 129.66 45.5568 128.414L45.1829 128.279L44.7778 128.403C44.6843 128.414 44.487 128.403 44.3727 128.403C44.3208 128.133 44.3 128.133 44.2689 127.811C44.622 127.604 45.266 127.604 45.6711 127.469C46.1593 127.313 46.502 127.333 47.1045 127.313C48.5898 127.261 48.3717 125.703 49.9609 125.111C50.8749 124.778 51.9448 125.048 52.7549 124.654C53.0873 124.487 53.5963 124.228 53.9183 124.145C54.0118 123.833 53.6171 123.657 54.4168 123.438C54.6246 123.646 54.6869 123.636 54.7181 124.03C55.7568 124.03 56.7851 123.792 57.6783 123.407C59.039 122.826 58.4989 122.493 59.1948 122.493C59.6726 122.493 59.548 122.607 60.1192 122.524C60.9814 122.389 60.5451 122.202 60.9398 121.725C61.1475 121.475 61.1995 121.621 61.3864 121.309C61.0541 120.717 61.0748 121.122 60.0258 121.216C59.7349 121.247 59.7972 121.278 59.4233 121.33C59.0494 121.392 58.8624 121.247 58.4573 121.361C58.0523 121.475 57.5537 121.382 57.2005 121.538C56.4215 121.88 56.5046 121.662 55.6321 121.808C54.2299 122.036 53.3782 122.649 52.6822 122.535C52.0798 122.441 52.3395 122.587 51.9032 122.691C51.2281 122.846 51.145 122.67 50.5114 123.168C50.2621 123.366 50.1686 123.345 50.1374 123.792C50.4802 123.823 50.501 123.885 50.7295 124.03C50.314 124.955 50.5529 124.207 49.7324 124.508C49.5454 124.571 49.3584 124.778 49.1299 124.508C48.9326 124.269 49.0884 124.539 49.0468 124.186C48.9845 123.646 48.8391 123.553 48.247 123.542C46.0139 123.48 47.4992 124.633 46.4501 124.737C46.2112 123.657 45.4218 124.28 44.6739 124.02C44.165 123.843 44.0819 123.864 43.656 123.864C43.2717 123.864 43.0951 123.677 42.5758 123.677C41.8591 124.955 41.641 123.906 41.1216 124.311C40.8516 124.529 40.9658 124.581 40.7789 124.737C40.2595 125.152 40.0726 124.55 39.5324 124.913C38.7223 125.453 39.3247 125.163 38.5457 124.913C38.1821 124.799 37.185 125.495 36.084 125.568C35.4504 125.609 33.1445 124.83 34.5987 123.085C35.2011 122.358 35.3881 122.649 35.9282 121.943C36.2086 121.59 36.541 121.496 36.8734 121.288C37.6836 120.79 37.7563 121.153 38.3691 120.354C38.608 120.052 38.9819 119.938 39.3559 119.751C41.3294 118.712 39.9687 118.224 40.9762 118.12C40.4465 117.269 38.6599 117.591 37.9952 117.05C38.1821 116.23 38.9923 116.084 39.5844 115.752C39.5844 115.129 39.6675 115.378 39.4182 115.119C39.3455 115.046 39.2728 115.015 39.1689 114.942C38.8677 114.724 39.1585 114.745 38.6807 114.682C38.2964 114.63 38.2237 114.797 37.7874 114.807C37.5589 114.236 37.6109 113.893 37.9017 113.405C39.4078 110.891 39.6467 111.504 40.4984 110.569C41.1009 109.915 41.7968 109.593 42.4304 108.969C43.3237 108.097 44.1131 108.097 44.2481 107.463C43.8326 107.578 43.6664 107.848 43.4171 107.91C43.0848 108.003 42.8874 107.827 42.4512 107.817C41.9318 107.806 41.8903 107.941 41.454 107.941C40.9035 107.941 41.1009 107.827 40.54 107.9C39.4909 108.045 39.5532 107.692 38.743 108.492C37.8705 109.354 38.473 108.419 37.6732 109.832C36.8734 109.832 36.8526 109.458 36.4787 110.309C34.7545 110.309 35.0765 110.881 33.7989 111.265C33.3834 111.39 33.425 111.493 33.1653 111.577C32.5628 111.764 30.984 111.732 31.0256 110.579C31.0775 108.897 31.9916 108.959 32.3032 108.544C32.4382 108.357 32.4694 108.087 32.6252 107.858C33.0406 107.224 33.6431 107.038 34.1936 106.643C34.7025 106.269 34.9934 105.303 35.9801 104.628C36.9461 103.963 36.8422 103.464 38.1718 103.091C38.1198 102.436 38.1925 102.883 37.9536 102.81C37.9121 102.8 37.9329 102.841 37.7355 102.779C37.2889 102.633 37.3408 102.509 36.7799 102.498C35.44 102.467 32.8744 103.309 34.2559 101.886C34.7752 101.346 34.7441 101.21 35.3777 100.847V100.255L34.2871 99.9121C33.7885 99.9744 34.1209 100.38 33.1861 100.38C33.0303 99.5693 33.103 99.0396 33.4665 98.4683C33.7781 97.9802 34.0274 97.6789 34.339 97.1388C34.7856 96.3598 36.0009 95.425 36.0736 94.4694C35.762 94.646 35.8035 94.5421 35.4088 94.6252C35.2427 94.6564 34.9311 94.7602 34.7649 94.8018C33.238 95.2692 32.4694 94.781 32.137 94.8745C31.6488 95.0095 31.6696 95.425 31.0879 95.2069L29.8726 94.7394C29.3117 94.5733 29.0001 94.8433 28.5951 94.8641C28.4496 94.8745 28.2834 94.8122 27.9407 94.8537C27.3694 94.9368 26.445 94.968 25.9152 94.8225V94.4694C26.5073 94.3032 26.8708 94.1474 27.6083 94.1162L30.5997 93.7008C30.8075 93.6592 30.662 93.6904 30.7763 93.6177C30.7971 93.6073 30.8594 93.5346 30.8906 93.5242C30.984 93.4619 30.9217 93.4619 31.1087 93.4203L31.8046 93.4099C32.5109 93.3995 32.1162 93.3164 32.594 93.171C32.7083 93.0775 32.5421 93.171 32.7914 93.036C32.9783 92.9321 32.8225 93.0048 33.0095 92.9425C33.1964 92.8802 33.3003 92.8906 33.3626 92.901C33.83 92.9737 33.4146 93.1191 34.0793 92.9321C34.0482 92.4959 33.7677 91.9662 33.5808 91.6338C32.8952 91.6338 31.7111 92.0596 31.1918 91.5091C31.0879 91.3325 31.0879 91.7792 31.0879 91.156H30.4959C30.4855 91.6026 30.4751 91.7169 30.1635 91.8311C29.0728 92.2258 29.0105 91.1352 28.0342 91.3014C26.7254 91.5195 27.4525 91.1456 26.5073 91.1456C25.8218 91.1456 25.6244 91.5403 25.0947 91.6234C24.2429 91.7688 24.378 91.2391 23.6301 91.2806C23.1419 91.3014 22.633 91.4987 21.9474 91.3637C20.9088 91.1664 21.6255 91.0936 20.6595 91.5403C20.2024 91.7584 19.8389 91.8623 19.2365 91.8623C19.0807 91.0833 19.2261 91.3325 19.7662 91.0625C20.6179 90.647 19.6727 90.2108 21.3866 89.681C22.1552 89.4525 21.854 89.8784 22.446 89.2863C22.9238 88.8085 22.9446 89.0682 23.5159 89.1305C24.0248 89.1825 24.3053 89.0267 24.7415 88.9436L27.2863 88.6631C27.2551 88.2373 26.9955 87.7906 27.4837 87.7179C27.8472 87.666 27.9303 87.9672 28.2834 88.0711C28.647 87.7802 28.4704 87.7491 28.782 87.479C29.291 87.6244 29.883 88.7878 29.9765 87.479C30.4647 87.4894 30.527 87.6764 30.8698 87.6868C31.0671 87.6868 31.4722 87.5933 31.8669 87.5933C31.6176 87.1986 31.8773 87.5517 31.5242 87.2817C31.5034 87.2713 31.4826 87.2505 31.4618 87.2401C31.1918 87.0428 31.2125 87.0116 30.7244 86.9181C30.0388 86.7831 29.8519 87.0324 29.3117 87.1674C28.46 87.3959 28.6885 86.9597 27.9303 87.0635C27.1513 87.1674 27.172 86.7104 27.4733 86.1599C27.359 86.0976 27.3279 86.0872 27.1928 86.0145C25.9879 85.3393 26.0087 86.6585 25.0843 85.921C25.292 84.9862 26.2788 85.277 26.9851 84.8719C27.8472 84.3629 27.5564 84.9031 28.3769 84.633C28.5223 84.5915 28.5327 84.5707 28.6054 84.5395C28.7197 84.498 28.7405 84.4876 28.7197 84.4876C28.7301 84.4876 28.7301 84.4876 28.7405 84.4772C29.0728 84.3733 29.0105 84.5291 29.3637 84.6018C29.4883 84.6226 29.6234 84.6226 29.748 84.6226C30.0492 84.6226 30.3504 84.6122 30.6517 84.6122C30.6724 84.5603 30.7763 84.2383 30.8075 84.1968C31.1087 83.7397 30.7867 84.3422 31.3891 83.6982C31.95 83.0958 31.8461 83.719 32.2824 83.2204C32.5836 82.8776 32.3136 82.9088 32.6148 82.5556C32.916 82.2025 32.9679 82.5245 34.0689 82.0363C35.0141 81.6208 35.118 81.8909 35.5335 81.652C35.44 81.3715 35.7205 81.4858 35.2011 81.33C34.7129 81.1846 34.3078 81.6727 34.0274 81.7143C33.7677 81.7558 33.5911 81.5377 33.103 81.7143C32.7498 81.8389 32.8952 82.0155 32.3239 81.8078C31.306 81.4339 31.6592 81.787 30.4543 81.7662C29.0728 81.7455 29.7792 82.0467 29.239 82.1609C29.104 82.1921 29.1559 82.1609 28.9067 82.0882C28.7197 82.0259 28.647 81.974 28.3665 82.0051C27.7018 82.0778 28.1276 82.431 27.1513 82.4829C26.6943 82.5037 26.902 82.4725 26.6839 82.3583L25.5725 81.8909C23.6197 80.8418 22.4149 82.5868 22.7888 80.7068C23.6197 80.7068 23.7444 80.4783 24.3987 80.3744C25.0116 80.2809 25.4374 80.1459 25.5725 79.5227C25.1154 79.263 24.9493 79.7616 24.1806 79.7616C24.0144 79.3876 24.0144 79.1487 23.8794 78.8164H22.581C22.446 78.5775 22.4045 78.484 22.2798 78.2243C21.532 78.2243 21.1684 78.6709 20.5868 78.3386C20.6906 77.7984 20.753 77.8296 21.2411 77.6946L24.0664 77.0402C24.5546 77.0921 24.5649 77.3103 25.0635 77.0402C25.4167 76.8532 25.2609 76.7701 25.9048 76.7598C26.2476 76.7494 26.2788 76.8948 26.7566 76.9259C27.0993 76.9467 27.5044 76.9259 27.8576 76.9259C27.9718 76.6663 28.0238 76.5728 28.1588 76.3339C28.9067 76.3339 28.969 76.5728 29.7272 76.1781C30.4439 75.8042 30.257 75.4198 30.7451 75.264C31.2749 74.9317 31.0879 75.1082 31.2437 74.3188C31.68 74.0696 31.5761 74.4019 31.8358 73.9657C31.4826 73.3944 30.8698 73.4879 30.2466 73.4879C30.1011 72.7296 30.4024 72.3246 29.7895 72.4388C29.3429 72.5219 29.1352 72.9893 28.5535 72.6569C28.6054 71.9714 29.4052 71.7117 30.0492 71.3586C30.6932 71.1716 30.9425 70.7873 31.2125 70.6211C31.6488 70.351 32.407 70.538 32.7186 70.2887C33.103 69.9875 32.9991 69.572 33.9755 69.759C34.5675 69.8733 34.9207 69.7278 35.4088 69.5928C35.44 69.1877 35.4816 69.1566 35.6062 68.8865C36.4891 68.8865 36.5514 68.8761 37.0292 68.3256C37.3512 67.9517 37.6628 67.6505 37.9017 67.2246C38.2652 67.4323 39.117 67.8166 39.4805 67.4531C39.6363 67.2973 39.6259 67.1207 39.6882 66.9961C39.896 66.6533 39.6779 66.7676 40.1868 66.7572C40.1868 65.0745 40.3322 66.0197 40.3842 65.2199C39.6571 64.7629 39.844 65.0849 39.0858 65.1057L38.6184 65.3757C38.1094 65.5419 37.5589 65.7081 37.1019 65.5835V65.1057C38.0471 64.846 38.2237 65.0122 38.9819 64.3786C39.2416 64.1605 39.5013 63.9943 39.8337 63.8489C40.2803 63.6411 40.3634 63.8073 40.7165 63.7242C41.3294 63.5788 41.0178 63.3918 41.6825 63.3399C42.1915 63.2983 42.3265 63.3295 42.6693 63.101C43.4275 62.6024 43.2821 62.8413 43.5106 62.6855C43.8118 62.4882 43.6353 62.27 44.0611 61.9273C44.809 62.135 44.1858 62.5297 45.131 62.3843C45.9827 62.2493 45.5984 62.0831 45.9515 61.5637C46.232 61.1587 46.6786 61.3248 47.0525 61.0963C47.2707 60.9613 47.2811 60.8367 47.4784 60.6601C47.6861 60.4835 47.4888 60.6393 47.7381 60.4939L47.9458 60.39C46.9383 60.39 47.2707 60.1511 46.7409 60.0369C46.1281 59.9122 46.1697 60.255 45.5672 60.2654C45.1621 59.2579 45.8269 58.4165 46.4397 57.5129C48.2055 54.9369 48.5379 55.1031 50.2932 53.3269C50.7295 52.8803 50.7191 52.9219 51.2281 52.6622C51.5189 52.5168 51.5397 52.4337 51.8201 52.2986C52.2668 52.0701 52.0694 52.4025 52.3395 51.9663C50.9788 51.9663 51.8201 51.5819 49.6597 52.0909C48.9326 52.2675 47.8835 52.3713 47.0629 52.4337L43.7599 52.9946C42.6901 53.3685 42.6589 52.9738 41.8591 53.2231C40.5296 53.6178 40.5815 53.4412 39.252 53.6801C38.743 53.7632 38.3172 53.6905 37.829 53.7632C37.3824 53.8255 37.2473 53.9398 36.6241 53.9917C35.2427 54.0956 35.3673 54.0229 34.017 54.4383C33.4665 54.6045 32.7602 54.563 32.0019 54.6461C31.5242 54.698 31.7838 54.5941 31.4514 54.6149C31.0567 54.6253 30.9529 54.9265 30.257 54.9369C29.4675 54.9577 29.5714 55.0616 28.969 55.1862C28.138 55.3628 27.681 54.4487 26.8397 55.1343C26.5592 55.3628 26.8397 55.342 26.3307 55.477C25.3647 55.7575 25.0116 55.4874 24.4611 55.4147C22.903 55.2174 22.955 55.5913 21.989 55.8821C21.6047 55.9964 21.158 56.0379 20.7218 56.1522C20.0363 56.3288 20.0155 56.2664 19.4858 56.0171C18.956 55.7679 19.0495 56.121 18.499 56.3495C18.2289 56.4638 18.2913 56.4534 18.0316 56.3391C17.0448 55.8925 17.5019 56.3184 16.8786 55.9237C16.0892 55.4147 16.0477 55.9756 15.3206 55.9756C14.9882 55.9756 15.1544 55.8717 14.6662 55.934C14.1469 56.0068 13.1601 56.1314 12.7343 55.8821C12.7758 55.2797 13.077 55.342 13.6276 55.2901L16.11 55.0512C16.4839 55.02 16.8579 54.7915 17.1279 54.7811C17.2941 54.7707 17.4395 54.8746 17.585 54.8538C17.7823 54.833 17.8031 54.7084 18.0316 54.6357C18.2082 54.5838 18.686 54.6565 19.0807 54.563C19.6 54.4383 19.5377 53.919 21.0853 54.3345L21.2931 53.8671C21.7189 53.8671 22.8511 53.784 23.225 53.6801C23.3704 53.6385 23.9313 53.4827 23.9729 53.4204C24.1183 53.2438 23.8898 53.1815 23.8794 52.5687H22.8823C22.7992 53.7113 21.9267 52.8491 21.7916 52.8076C21.5631 53.3789 21.667 53.3789 21.1996 53.7528C20.6179 52.7141 20.8776 52.7972 19.4027 52.8076C17.5122 52.8284 18.3536 51.6131 17.5953 52.1636C17.1799 52.4648 17.5953 52.2779 17.3357 52.7037C17.1279 53.0361 17.2941 52.8699 16.9306 52.9426C15.7257 53.1919 15.9958 52.2883 15.0402 52.3298C14.4481 52.361 14.6351 52.5271 14.0119 52.3713C12.6823 52.039 12.672 52.6206 11.9449 52.6933C11.4255 52.7453 11.2593 52.5895 10.7608 52.5687C10.3765 52.5583 9.9506 52.5687 9.56628 52.5687C6.0659 52.5687 8.56914 52.6622 6.22171 53.2231C5.7543 53.3373 5.62965 53.2335 5.58811 52.683C6.25287 52.6206 6.24248 52.5895 6.53331 52.0286C6.90724 51.3015 7.0942 51.4261 7.35388 51.343C7.99786 51.1457 7.52007 51.0626 8.27831 50.9587C8.82881 50.886 8.88075 50.5744 9.16119 50.4082C9.4728 50.2213 10.0545 50.3251 10.4699 50.3147L12.35 50.0655C13.0978 49.9824 12.2357 49.8369 14.2404 49.8369C14.23 49.2553 13.9911 48.7048 14.552 48.8606C15.1337 49.0268 14.8324 49.3488 15.5284 49.3695C15.5803 49.0787 15.6322 48.8917 15.7257 48.6632C16.11 48.7879 16.3489 49.141 16.7228 49.3695C16.9306 49.1306 17.0656 48.8606 17.3149 48.6632C17.5642 48.7359 17.5746 48.8086 17.7615 48.8502C18.177 48.9541 18.0316 48.8606 18.2186 48.7983C18.8522 48.5905 18.5094 49.0268 19.008 48.7983C19.143 48.7359 19.1638 48.6425 19.4234 48.5697C19.6104 48.5178 19.7662 48.5386 19.9636 48.5074C20.2648 48.4555 20.4829 48.3101 20.888 48.2997V48.0608C20.3479 48.2062 19.9636 48.0504 19.2053 48.2062C18.3847 48.3724 18.4471 47.9361 17.6057 47.9361C16.245 47.9465 16.5774 48.4763 14.2196 47.8323C14.2715 47.1675 14.4689 47.3856 14.5312 47.1779C14.5624 47.074 14.739 47.1156 14.3858 46.9494C14.1988 46.8663 14.23 46.8975 14.0326 46.8767C13.5964 46.8455 12.6096 47.126 12.6304 46.5339C12.6512 46.1496 12.8797 46.2119 13.1394 46.2119C14.5935 46.2015 14.5728 45.7965 15.2064 45.8172C15.6738 45.8276 15.518 45.9419 15.9646 45.8899C17.1072 45.7549 17.3045 45.9419 18.2082 45.5887C18.7794 45.3706 18.7587 45.6199 19.1638 45.4225C20.7945 44.6331 19.413 45.2356 20.8464 44.9343C21.3035 44.8409 21.7605 44.6539 22.2175 44.55C23.277 44.3111 22.8303 44.8097 24.5753 44.28C24.8558 44.1969 24.9596 44.1865 25.2712 44.1553C26.0918 44.0826 25.9983 43.8749 26.6008 43.7191C27.1201 43.584 27.7226 43.6983 28.2627 43.6775C28.8132 43.6568 29.1767 43.5009 29.7064 43.3867C30.2258 43.2724 30.6932 43.2621 31.2022 43.1582C32.0954 42.9712 31.815 43.1166 32.2408 42.3792C32.7914 42.4311 32.5317 42.6077 33.1341 42.3792C33.5184 42.2337 34.7337 42.2026 35.8243 41.9014C35.8451 41.5794 35.8659 41.5794 35.9282 41.3093C37.3304 41.3093 37.32 41.6521 36.728 40.603C36.3956 40.6342 36.0113 40.7484 35.7308 40.8419C35.1076 41.0704 35.3777 40.8627 34.8376 40.8523C33.83 40.8315 33.5184 41.4547 33.2484 41.6729C32.8017 41.3924 32.5317 41.112 31.7838 41.2262C31.6384 41.247 31.2333 41.2989 30.984 41.3509C30.7555 41.4028 30.5789 41.5171 30.2985 41.6001C29.6441 41.8079 29.4364 41.6417 28.6678 41.6729C26.5281 41.7456 27.7018 42.7323 26.1126 42.2337C25.8321 42.1507 26.1334 42.213 25.8114 42.1195L24.2949 42.0364C23.547 42.0987 24.0248 42.3999 22.6953 42.3896C21.7605 42.3896 22.0409 42.7427 21.21 42.7427C21.1061 42.2649 21.1788 42.3999 20.7114 42.3896C20.4206 43.6671 19.7558 42.6077 18.9249 42.6181L17.0241 42.857C16.6397 42.9297 16.7436 42.7323 16.6294 43.2205C15.3518 43.2205 15.7361 42.6804 15.1129 43.179C14.3339 43.7918 13.8249 43.4594 12.8901 43.1686C12.485 43.0439 12.5993 43.0128 12.2669 42.8466C11.0828 42.2441 9.65976 43.2205 9.35854 42.5142C9.03655 41.7663 10.0441 41.9741 10.4699 41.7975C11.7891 41.247 11.1035 41.6729 11.9345 41.5378C12.4954 41.4443 12.7758 41.1224 12.6512 40.4888C12.0799 40.4888 12.1111 40.4057 11.7371 40.7069C11.3424 41.0289 11.654 40.9562 10.9581 40.9562C10.875 40.5095 10.8543 40.4888 10.8543 39.8863C10.3868 39.8863 10.1272 39.9071 9.7117 39.959C9.18197 40.0317 9.25468 39.8136 8.93268 39.5539C8.34063 39.0658 7.77974 40.0525 7.07343 39.6474C7.11498 39.0865 7.19807 39.1592 7.6551 39.045C8.29908 38.8892 8.27831 38.723 9.38971 38.5049C9.92982 38.401 9.80518 38.3802 10.1687 38.2452C10.9789 37.944 11.6437 38.3283 11.7475 38.3283C12.1111 38.3283 12.163 38.0582 12.4642 37.9024C13.2225 37.5181 13.3783 38.0894 14.1365 38.1205C15.2791 38.1725 15.2375 37.4973 15.7153 37.4558C15.8815 37.4454 16.1827 37.5389 16.5774 37.4766C18.2289 37.2065 17.4292 37.113 17.9589 36.6144C18.3951 36.199 19.1014 36.8118 19.5065 36.9261C20.2959 36.3028 19.9739 36.6248 20.5348 36.2613C21.1061 35.8978 20.8984 35.6173 21.2931 35.2745C21.4489 35.0253 21.3035 35.1187 21.5943 35.0356V34.6825C21.0853 34.5371 20.9815 34.3293 20.0986 34.3293L19.8181 34.4747C19.4858 34.5994 19.3507 34.5682 19.0495 34.5163C18.6236 34.4436 18.3744 34.4436 17.9069 34.4436C17.9797 33.3841 18.0835 34.4955 19.6831 33.8411C22.446 32.6986 21.532 33.9346 22.6538 33.3426C23.3601 32.9687 22.9342 33.4153 24.0871 33.2803L24.5857 33.1556C25.1362 32.9375 24.9181 33.0206 25.6659 33.0206C25.6763 32.5532 25.6348 32.7401 25.7698 32.4285H26.3619C26.4346 32.7921 26.5177 32.8856 26.6631 33.1348C27.3382 33.0725 26.6943 32.8959 28.0549 32.8959C28.7612 31.6391 28.9274 32.4493 29.7584 32.0858C30.2258 31.878 30.0181 31.7534 30.5686 31.8053C32.1993 31.93 31.5969 31.5768 32.4694 31.2964C33.1757 31.0679 37.32 30.6316 37.7043 30.7666C38.3691 31.0159 38.9923 31.0159 39.5844 30.7562L41.5579 30.2681C42.1499 30.1642 42.9809 30.1123 43.5833 29.9461C43.5833 29.1774 43.5002 29.5306 43.8326 29.1774C44.1546 28.8347 43.978 29.1047 44.1754 28.6373C44.6012 28.6373 45.3075 28.5438 45.5361 28.5854C45.8788 28.6477 46.097 28.9074 46.5436 28.9074C48.5171 28.897 47.7485 29.0632 48.5483 28.1595C49.1715 28.2218 48.9949 28.44 49.348 28.6373C49.6077 28.7724 49.4935 28.6893 50.1478 28.3984C50.6568 28.1803 50.501 28.1595 50.823 27.7752C51.5501 26.8923 51.6851 27.5779 52.2979 27.744C52.838 27.8895 53.1704 27.6506 53.6067 27.5259C55.3621 27.017 54.0014 27.2247 54.635 26.9754C55.2686 26.7261 55.0816 27.6817 56.0995 26.9339L56.2865 26.8092C57.294 26.2587 57.2836 26.9546 58.0211 26.9754C58.1042 26.6119 58.0107 26.7573 58.3015 26.5911C58.9767 26.2068 59.3922 26.5911 59.5895 26.6534C60.3581 26.9131 61.3864 25.4797 62.1655 25.8329C62.7887 26.1133 61.9993 26.3314 62.6952 26.4457C63.3911 26.5599 63.8897 26.238 64.2013 25.5524C64.9699 25.5524 64.6687 25.6978 65.1153 25.4485C65.9359 24.9811 66.7772 25.8225 67.3693 24.6903C67.3693 24.6799 67.4004 24.0567 68.0964 24.3372C68.4495 24.4826 68.2106 24.4826 68.5845 24.5968C68.7404 24.4618 68.5534 24.4826 68.9793 24.4826C69.0312 24.2748 68.73 24.4722 69.1974 24.2748C69.5817 24.119 69.831 24.2956 69.966 23.6516C70.4853 23.662 70.4646 23.797 70.8385 23.9321C71.389 24.1294 71.1605 23.9424 71.4929 23.6828C72.4173 22.9349 72.4381 25.1473 73.5495 23.1738C74.6297 23.475 76.3539 22.7064 77.5277 22.696C77.9224 22.696 78.3378 22.7168 78.7325 22.7064C79.2311 22.6856 79.2519 22.561 79.7193 22.5818C80.4152 22.6129 79.9478 22.7687 80.5918 22.5506C81.4123 22.2598 81.3085 22.8207 81.3085 22.8207C81.7863 22.7687 81.7551 22.5922 82.2121 22.4779C82.5549 22.3948 82.8042 22.3844 83.1366 22.2702C83.5936 22.1144 83.5624 22.0728 84.0922 21.9897C84.9439 21.8547 84.7569 20.951 85.4425 21.5639C85.9306 21.9897 85.7229 21.917 86.3565 21.6054C87.2913 21.138 88.1534 21.6781 89.3375 20.9926C89.7219 20.7641 90.584 21.0445 92.1732 20.5875L94.022 20.0578C94.3648 19.9539 94.7179 20.037 95.123 19.9539C95.4554 19.8812 95.4762 19.7669 95.6112 19.58C95.6216 19.5592 95.6424 19.528 95.6528 19.5073C95.6631 19.4865 95.7151 19.4034 95.7359 19.3722C96.7226 19.9954 98.343 19.5488 99.7244 19.3826C100.638 19.2684 100.566 18.6451 101.324 18.5517C101.843 18.4893 101.781 18.7282 102.383 18.6451C103.765 18.4478 103.433 18.0427 103.983 17.8142C104.274 17.6895 104.471 17.8246 104.897 17.8454C106.227 17.9181 106.05 17.3676 106.704 17.2637C107.203 17.1806 107.286 17.2741 107.774 17.1079C107.899 17.0663 108.044 17.004 108.242 16.9521C109.301 16.6405 108.74 16.6197 109.478 16.412C110.672 16.0588 110.174 16.3704 110.755 16.36C111.991 16.3289 111.327 16.682 112.147 16.5262C112.407 16.4743 112.791 16.2562 113.082 16.2458C113.529 16.225 113.331 16.4016 113.923 16.1627C115.409 15.5602 114.463 16.2977 115.648 15.7264C115.97 15.5706 116.832 15.5602 117.569 15.2902C118.057 15.1136 118.068 15.1863 118.608 15.1032C119.574 14.9578 119.833 14.802 120.457 14.615L121.205 14.4177C122.43 13.9087 122.378 14.1788 122.991 13.8152C123.812 13.3374 124.019 13.9295 124.601 13.1297C124.746 13.5556 124.892 13.4829 125.692 13.4829C125.879 13.1505 125.847 13.1193 125.993 12.7766C126.398 12.9012 126.336 13.1505 126.606 13.3686C127.073 13.7425 127.405 13.2751 127.405 13.2751C127.935 12.9427 127.8 13.2751 128.278 13.244C128.652 13.2232 128.652 13.0258 128.922 12.8285C129.306 12.5584 129.41 12.7454 129.784 12.548C130.231 12.3091 130.002 12.1014 130.407 12.0079C130.688 11.9456 130.792 12.2157 131.249 12.1637L132.879 11.6132C133.482 11.4366 133.129 11.3432 133.606 11.177C133.918 11.0627 134.302 11.1562 134.635 11.1043C134.842 11.0731 135.164 10.9588 135.445 10.8861C135.767 10.803 135.985 10.7096 136.307 10.6161C136.712 10.4914 136.92 10.5849 137.335 10.533C138.073 10.4395 137.844 10.0967 138.634 9.59816C138.623 9.03727 138.519 9.20346 138.634 8.89186C139.132 9.04766 138.873 8.99572 138.831 9.59816C140.379 9.1723 140.171 8.85031 140.524 8.42445C141.147 7.68698 141.376 8.33096 141.906 6.99106C142.248 7.10531 142.3 7.58311 144.097 7.58311C144.305 7.07415 144.035 7.13647 144.492 6.99106C144.814 7.2715 144.7 7.04299 144.596 7.58311C145.115 7.53117 144.772 7.48963 145.593 6.86641C146.081 6.50287 145.905 6.19127 146.393 6.04585L146.507 6.01469C146.517 6.01469 146.549 6.0043 146.569 6.0043C147.785 5.83811 147.39 5.58883 147.972 5.30838C148.512 5.04871 148.345 5.61999 149.353 4.59169C149.696 4.23853 149.727 3.90615 150.277 3.90615C150.911 3.90615 150.973 4.37356 151.451 3.89577C151.659 3.68803 151.638 3.60493 151.877 3.44913L152.241 3.29333C153.445 2.72205 152.687 3.06481 153.477 3.18946C153.913 3.26217 153.986 2.99211 154.536 3.10636C154.754 3.1583 154.64 3.11675 154.754 3.19984L154.723 3.231ZM176.12 65.6042C176.224 66.1236 176.317 65.9989 175.923 66.3105C175.798 66.0924 175.725 66.1028 175.725 65.8327C175.725 65.5939 175.933 65.6146 176.12 65.5939V65.6042ZM162.492 88.2165L163.77 88.2892C163.895 88.2892 164.04 88.2165 164.279 88.2165C165.151 88.2165 164.57 89.5148 164.175 89.5148C162.752 89.5148 163.375 89.1617 162.877 89.1617C161.599 89.1617 162.212 90.1588 161.184 89.5148C161.693 88.6112 161.132 88.2165 162.482 88.2165H162.492ZM16.3178 89.6395C16.9825 89.6395 17.2733 89.8784 17.8135 89.8784C18.2082 89.8784 18.1251 89.5252 18.634 90.0757C19.5273 91.0209 19.0391 91.7169 18.4367 90.9067C18.1251 90.4912 18.2601 90.4704 17.6057 90.4704C17.533 90.782 17.3668 90.9067 17.3668 90.8963C17.3564 90.8755 17.3253 90.9275 17.3149 90.9482C16.4839 90.7197 16.9202 90.4704 15.4245 90.4704C14.874 90.4704 14.4273 90.7924 14.2196 90.3666C13.7522 89.4214 15.9127 89.6395 16.3178 89.6395ZM139.205 8.20632C139.205 7.96742 139.496 7.88433 139.704 8.09207C139.569 8.70489 139.205 8.63218 139.205 8.20632ZM45.1725 124.321C45.2972 124.633 45.453 124.809 44.8713 125.266C44.7467 125.048 44.6739 125.059 44.6739 124.789C44.6739 124.55 44.9856 124.373 45.1725 124.311V124.321ZM183.889 68.8138C183.682 67.7751 183.941 68.2217 184.585 68.2217C185.375 68.2217 185.364 67.7439 185.676 67.7439C186.237 67.7439 185.925 67.7959 186.06 68.0036C186.216 68.2425 186.195 68.471 186.777 68.928C187.203 68.793 186.953 68.6891 187.275 68.6891C187.753 68.6891 187.442 68.7722 187.847 68.9592C188.543 69.2708 188.823 69.0527 189.27 68.928C189.332 69.2396 189.561 69.8732 189.072 69.8732L186.59 69.759C186.258 69.1773 185.998 68.4606 185.198 68.4606C184.866 68.4606 185.312 68.8138 183.9 68.8138H183.889ZM168.267 83.3762C168.735 83.5216 168.589 83.7605 168.922 83.9163C169.202 84.041 169.441 83.854 169.867 83.854C170.158 83.854 170.272 84.1552 170.76 84.2071C171.093 84.2383 171.602 84.2071 171.955 84.2071C171.643 85.5886 169.722 85.0381 168.766 85.0381C168.693 84.8615 168.693 84.7369 168.673 84.6746C168.434 84.0098 168.174 84.4564 168.174 83.7294C168.174 83.5008 168.205 83.5216 168.278 83.3762H168.267ZM178.415 74.1423C178.415 73.7372 179.672 73.5918 179.922 73.5606C180.295 73.519 180.566 73.6125 180.69 73.6229C181.22 73.6645 182.227 73.1555 182.29 74.1319C181.781 74.1319 181.552 74.1111 181.168 74.2254C180.659 74.3708 179.672 74.2981 179.111 74.3915C178.841 74.4331 178.405 74.6824 178.405 74.1319L178.415 74.1423ZM163.271 77.8919C164.902 77.7673 164.05 77.7257 164.684 78.2762C165.702 77.9958 165.068 78.0789 165.681 78.2762C165.629 78.9825 165.297 78.9618 164.788 79.1072C164.757 79.0553 164.507 78.6398 164.497 78.6294C164.206 78.2555 164.601 78.5151 164.102 78.3697C163.469 78.1828 163.625 78.5151 163.095 78.5151C162.461 78.5151 162.69 77.8296 162.7 77.8088C162.991 77.84 162.991 77.9127 163.271 77.8919ZM180.212 64.4305L181.293 64.5759C181.729 64.6902 182.352 64.3578 182.809 64.659C182.809 65.4692 182.279 65.033 181.615 65.033C181.064 65.033 180.503 65.5108 179.922 65.3653C179.932 64.8148 180.036 64.7421 180.223 64.4201L180.212 64.4305ZM173.347 10.3356C173.658 10.0863 173.596 10.1175 174.084 10.0136C174.406 9.94093 174.635 9.93054 174.635 10.3356C174.635 10.8134 174.001 10.8134 173.544 10.803L173.336 10.3356H173.347ZM182.705 69.9875H183.006V70.3407H182.705V69.9875ZM182.03 71.2547C181.989 71.0158 182.092 70.9327 182.3 70.9327C182.529 70.9327 182.497 71.2651 182.497 71.5248C182.227 71.5144 182.072 71.5559 182.02 71.2547H182.03ZM174.967 84.2799C175.632 84.6953 175.04 85.0173 174.541 85.0173C174.198 85.0173 174.281 84.8615 174.333 84.6642C174.354 84.5707 174.51 84.1552 174.541 84.0721L174.967 84.2799ZM176.93 77.2064C178.228 77.2064 177.886 76.8532 178.322 77.0921C178.021 77.6219 178.145 77.383 177.533 77.4661C177.159 77.518 177.449 77.6219 177.148 77.5284C176.899 77.4557 177.003 77.4557 176.93 77.2168V77.2064ZM178.623 67.6193C178.623 67.37 179.215 66.9545 179.215 67.6193C179.215 68.4606 178.623 68.0555 178.623 67.6193ZM177.034 82.7738C177.47 82.9088 177.47 83.1061 177.034 83.2516V82.7738ZM176.535 84.0721C176.67 84.0721 176.733 84.2383 176.733 84.4253V85.0173H176.338V84.5395C176.338 84.2487 176.12 84.0617 176.535 84.0617V84.0721ZM166.284 84.6642C166.284 84.5603 166.855 83.7501 166.876 84.9031C166.709 84.955 166.284 85.2562 166.284 84.6642ZM167.177 77.7984C167.551 77.7984 167.426 78.7748 166.678 78.2762C166.751 77.9646 166.876 77.7984 167.177 77.7984ZM169.961 77.4453C170.241 77.6634 170.386 77.7881 170.158 78.2762C169.961 78.2762 169.763 78.3386 169.763 77.9231C169.763 77.653 169.846 77.6634 169.961 77.4453ZM173.741 77.331C173.741 77.1129 174.001 76.9883 174.354 77.2168L174.24 77.6842C173.845 77.6738 174.011 77.7153 173.741 77.5699V77.331ZM179.018 85.6198C179.07 85.2251 179.465 85.4536 179.641 85.4743C180.16 85.5263 179.911 85.142 180.212 85.6198C179.672 85.6198 179.35 85.8067 179.018 85.6198ZM167.572 86.9181C167.997 87.0532 167.945 87.1986 167.862 87.6452L167.468 87.5102C167.468 87.0739 167.457 87.1986 167.572 86.9181ZM177.626 63.9527C177.626 63.9527 177.844 63.4749 177.927 64.3059C177.283 64.2228 177.626 63.9631 177.626 63.9527ZM170.168 76.3858C170.168 76.1469 170.376 76.1677 170.563 76.1469C170.553 76.7597 170.656 76.4897 170.366 76.739C170.21 76.6039 170.168 76.7182 170.168 76.3858ZM173.845 16.734C174.583 16.8067 174.437 16.8378 174.437 17.326C173.97 16.9209 174.541 16.9936 173.845 16.9729V16.734ZM173.045 84.1968C173.222 84.1968 173.212 84.3733 173.243 84.5499C172.848 84.5395 173.014 84.5811 172.744 84.4357C172.765 84.2591 172.858 84.1968 173.045 84.1968ZM175.528 86.565C175.414 87.0531 175.455 86.9804 175.133 86.8039C175.164 86.5546 175.299 86.5857 175.528 86.565ZM179.008 71.2028C178.779 71.047 178.966 71.1093 179.008 71.0574C179.08 70.9743 178.976 70.8392 179.132 71.0574C179.257 71.2235 179.111 71.2755 179.008 71.2028ZM180.815 71.1093C181.064 71.0054 180.804 71.2962 180.701 71.1716C180.534 70.9743 180.815 71.1093 180.815 71.1093ZM180.95 72.8023C181.168 72.8023 180.919 72.605 180.95 72.8023ZM180.95 72.8023C180.95 72.8127 180.95 72.8231 180.96 72.8335C181.023 73.1036 180.804 72.9685 180.804 72.8335C180.804 72.5946 180.784 72.7816 180.908 72.8023C180.919 72.8023 180.939 72.8023 180.95 72.8023ZM184.533 78.2451C184.751 78.2451 184.502 78.0477 184.533 78.2451ZM184.533 78.2451C184.533 78.2555 184.533 78.2659 184.544 78.2762C184.606 78.5463 184.388 78.4113 184.388 78.2762C184.388 78.0373 184.367 78.2243 184.492 78.2451C184.502 78.2451 184.523 78.2451 184.533 78.2451ZM174.385 74.1007C174.603 74.1007 174.354 73.9034 174.385 74.1007ZM174.24 74.1319C174.24 73.893 174.219 74.0799 174.344 74.1007C174.354 74.1007 174.375 74.1007 174.385 74.1007C174.385 74.1111 174.385 74.1215 174.396 74.1319C174.458 74.4019 174.24 74.2669 174.24 74.1319ZM144.211 4.67478C144.855 4.4255 144.357 4.30085 145.292 4.30085C145.25 4.88252 145.022 4.89291 143.9 4.89291C143.796 5.33954 143.36 5.70308 143.308 4.89291C143.578 4.8202 143.993 4.76826 144.222 4.67478H144.211ZM161.204 76.1469C161.568 76.1469 161.506 76.4481 161.506 76.8532C161.101 76.9571 160.758 76.9467 160.706 76.2612C160.83 76.2092 161.049 76.1469 161.204 76.1469ZM25.7698 87.988C25.749 88.3204 25.7698 88.4658 25.4686 88.4658H25.1674C25.1674 87.6868 25.3024 87.9464 25.7594 87.988H25.7698ZM133.149 116.178C133.575 115.929 133.804 115.825 134.136 116.043C134.022 116.552 133.991 116.406 133.606 116.604C133.243 116.791 133.066 117.04 132.64 116.76C132.796 116.49 132.911 116.323 133.149 116.178ZM131.249 117.352C131.259 116.957 131.425 117.009 131.747 116.999V117.352H131.249ZM130.657 117.352H131.155C131.051 117.456 131.249 117.393 130.916 117.549C130.75 117.622 130.812 117.58 130.657 117.591V117.352ZM23.6821 94.7394C23.6821 94.2616 25.0739 94.1889 25.0739 94.8537C25.0739 95.1653 23.6821 95.3523 23.6821 94.7394ZM10.8439 55.5601C11.4775 55.5601 11.6644 55.4666 11.9345 55.9133C11.6021 56.5053 11.6748 56.2249 11.2178 56.1833C10.7712 56.1418 11.0412 56.3184 10.4388 56.1522C10.4596 55.799 10.5115 55.5601 10.8335 55.5601H10.8439ZM11.9345 49.0475C12.3707 49.1722 12.4331 49.0683 12.5265 49.5253C12.1526 49.6188 11.976 49.6811 11.9345 49.0475Z" fill="#FFED00"/>
<path d="M180.95 72.8023C180.919 72.605 181.168 72.8023 180.95 72.8023ZM180.95 72.8023C180.95 72.8127 180.95 72.8231 180.96 72.8335C181.023 73.1036 180.804 72.9685 180.804 72.8335C180.804 72.5946 180.784 72.7816 180.908 72.8023C180.919 72.8023 180.939 72.8023 180.95 72.8023ZM184.533 78.2451C184.502 78.0477 184.751 78.2451 184.533 78.2451ZM184.533 78.2451C184.533 78.2555 184.533 78.2659 184.544 78.2762C184.606 78.5463 184.388 78.4113 184.388 78.2762C184.388 78.0373 184.367 78.2243 184.492 78.2451C184.502 78.2451 184.523 78.2451 184.533 78.2451ZM174.385 74.1007C174.354 73.9034 174.603 74.1007 174.385 74.1007ZM174.385 74.1007C174.375 74.1007 174.354 74.1007 174.344 74.1007C174.219 74.0799 174.24 73.893 174.24 74.1319C174.24 74.2669 174.458 74.4019 174.396 74.1319C174.385 74.1215 174.385 74.1111 174.385 74.1007ZM28.6989 84.5291C28.3665 84.633 28.647 84.5395 28.6989 84.5291ZM5.55695 52.7037C5.04799 52.6933 5.11031 52.6726 4.8818 52.3298C4.60135 51.9039 4.82986 52.039 4.26897 51.8832C3.76001 52.4025 4.12356 52.1844 3.46918 52.5895C3.32377 52.496 3.43802 52.5791 3.2926 52.4544C2.33701 51.6339 1.20484 52.4648 0.384277 52.2363C0.405051 51.26 0.799753 51.4261 1.57877 51.4054C2.12927 51.395 2.77326 51.1249 3.24067 51.1976C3.46918 51.2288 3.78079 51.3638 4.03007 51.343C4.27936 51.3223 4.49748 51.2184 4.80909 51.3327C4.96489 51.3846 5.01683 51.4469 5.1207 51.5612C5.6712 52.1428 5.54656 52.2052 5.54656 52.7141L5.55695 52.7037ZM154.723 3.231C154.962 3.33487 154.858 3.1583 154.92 3.4699C155.824 3.44913 155.398 2.79476 156.333 2.55586C157.018 2.37928 156.852 2.29619 157.797 1.69375C157.943 1.95342 158.41 2.42083 158.68 2.55586C159.054 2.74282 158.94 2.63895 159.262 2.50392C160.249 2.08845 161.246 1.69375 162.274 1.808C162.814 1.87032 163.313 1.72491 163.791 1.90148C164.57 2.18193 164.269 2.02613 165.162 2.0469C165.764 2.05729 166.014 2.33773 166.522 2.26502C166.907 2.21309 167.301 1.94303 167.665 1.84955C168.569 1.60026 168.132 1.52756 168.683 1.15363C169.213 0.790087 169.254 1.27827 169.805 1.20556C170.334 1.13285 170.397 0.603123 170.968 0.810861C171.446 0.987438 171.498 1.30943 172.121 0.997825C172.672 0.727766 172.588 0.623897 173.409 0.634284C174.624 0.644671 174.095 0.426546 174.707 0.395386L175.902 0.74854C176.515 0.956277 176.494 1.0186 176.899 1.34059C176.899 2.18193 176.619 2.51431 176.213 2.89862C175.154 3.90615 175.403 3.40758 174.915 3.52184C174.655 3.58416 174.603 3.7919 174.385 4.04118C174.011 4.45666 173.513 4.4982 172.921 4.66439C170.189 5.46418 172.173 5.26683 170.573 5.90043C169.888 6.17049 169.493 6.22243 169.078 6.4821C168.641 6.75216 167 7.22995 166.45 7.37537V7.72853C166.969 7.73891 167.125 7.91549 167.509 8.12323C168.621 8.69451 170.573 8.64257 171.124 8.79837C171.113 9.53584 170.978 9.34888 169.639 9.99287C169.618 10.0033 169.587 10.0136 169.566 10.024C169.545 10.0344 169.514 10.0448 169.493 10.0552C168.683 10.4291 169.317 10.9173 169.4 10.9692C169.826 11.2185 169.909 10.9069 170.199 10.7719C170.656 10.5641 170.698 10.8134 171.041 10.6992C171.311 10.6057 171.342 10.4707 171.861 10.3772C172.298 10.2941 172.391 10.3668 172.713 10.4603V10.9381C171.789 11.1977 171.571 11.2081 171.373 11.8313C171.145 12.5688 171.082 13.0051 170.418 13.1816C170.418 13.9918 170.438 13.6283 170.719 14.1268C171.28 14.1268 171.602 13.9814 172.007 14.0126C172.609 14.0541 172.485 14.2515 173.149 13.9399C173.534 13.7633 173.731 13.5348 174.115 13.4101C174.749 13.2128 174.333 13.7114 174.874 13.6906C174.915 13.6906 175.653 13.379 175.933 13.3374C176.504 13.244 176.442 13.4205 176.992 13.3063C177.585 13.1816 177.439 13.0466 177.927 12.7454L178.187 12.5792C178.914 12.0702 178.862 12.3715 179.246 12.735C179.672 13.1401 180.015 13.3998 180.576 13.3998C180.576 12.922 180.545 13.0154 180.68 12.6935C181.75 12.7246 181.199 13.4932 183.079 12.6831C183.401 12.548 183.463 12.5896 183.567 13.0466C183.567 13.7633 181.438 13.9918 181.075 13.9918C180.503 14.0022 180.067 14.2619 179.662 13.8983C179.433 13.6906 179.059 13.1609 178.789 13.0466C178.28 13.5763 178.623 13.3063 178.374 13.971C178.218 14.3761 178.415 14.1061 178.062 14.3138L176.951 14.8851C176.598 15.0928 176.65 15.2902 176.504 15.6537C175.538 15.6537 175.601 15.6537 174.853 15.9342L172.536 16.5781C172.308 16.8586 172.64 16.9417 172.516 17.3987C172.391 17.835 172.308 17.6168 171.841 17.6688C171.342 17.7311 171.591 17.7311 171.238 18.0115C171.124 17.9388 171.113 17.9388 170.989 17.835C170.563 17.4922 170.791 17.5441 170.345 17.5337C170.324 17.8973 170.251 18.105 170.147 18.3647L171.685 18.427C172.079 18.4686 172.547 18.157 172.755 18.562C172.973 18.9983 172.786 18.7386 172.744 18.8321C172.568 19.6111 172.516 18.7698 172.35 19.5384C173.918 19.5384 174.313 18.6763 174.344 19.8916C173.793 20.0474 173.409 20.037 172.921 20.3278C172.63 20.5044 172.64 20.5563 172.266 20.6186C171.654 20.7329 171.747 20.5148 170.272 20.9614L168.974 21.4288C168.641 21.782 168.662 21.7612 168.174 21.8962C167.052 22.2078 166.803 22.5714 166.45 22.6856C166.117 22.7895 165.598 22.7583 165.37 22.8207C164.726 22.9661 164.933 23.07 164.539 23.2465C164.154 23.4231 163.926 23.2361 163.562 23.5166C163.178 23.8074 163.656 23.5893 163.24 23.8386C162.97 23.9944 162.035 24.0463 161.62 24.0463C161.371 24.2437 161.246 24.2333 160.965 24.3268C160.488 24.5033 160.633 24.5864 160.342 24.6695C158.691 25.0954 158.857 25.7809 158.566 25.9367C158.265 26.1029 158.525 25.7394 158.078 25.8744C157.714 25.9783 157.901 26.0094 157.735 26.4145C158.255 26.5599 158.68 26.5392 159.335 26.5392C160.238 26.5392 160.01 26.1964 160.727 26.1756C161.298 25.8536 162.17 25.9783 162.69 25.5524C163.012 25.2824 162.991 25.0435 163.583 25.1369C164.196 25.2304 165.058 25.4174 165.619 25.0123C166.315 24.5033 166.346 24.8877 166.959 24.5968C167.312 24.4202 167.115 24.4722 167.333 24.3164C167.644 24.0983 167.862 24.2852 168.299 24.2852C168.517 23.2985 168.662 24.2333 170.096 23.9321C170.885 23.7659 171.404 23.7866 171.789 23.1011C172.443 23.2777 172.256 23.6101 172.91 23.018C173.482 22.5091 173.959 22.7168 174.624 22.9245C176.12 23.3919 175.299 23.2777 176.369 23.1323C176.733 23.0907 176.421 23.2673 176.93 23.0388C177.159 22.9349 177.242 22.7791 177.501 22.9245C177.99 23.1842 177.72 23.7659 177.346 23.8905L176.162 24.3683C175.528 24.4826 175.382 24.3164 175.081 24.8565C175.206 25.3966 175.424 25.4382 175.881 25.5628C176.026 25.2408 176.078 24.9708 176.276 24.7319C176.795 25.0642 176.629 25.3135 176.972 25.916C177.688 25.916 177.533 25.7082 178.062 25.5628C178.415 25.8433 178.644 26.1341 179.143 25.916C179.413 25.7913 180.025 25.1993 180.046 25.916C180.057 26.2899 179.87 26.3107 179.662 26.4041C178.831 26.7677 177.605 27.5571 176.764 27.5779C175.684 27.609 176.307 27.8999 175.663 28.0453C175.362 28.118 174.52 28.0453 174.167 28.0453C173.253 28.0557 173.637 28.2426 173.378 28.8866C171.269 28.8866 171.519 29.541 171.384 30.185C170.75 30.185 170.262 29.7903 169.69 29.9461C169.711 30.9951 170.584 30.8601 171.269 30.7666C172.401 30.6108 172.298 30.185 173.17 30.185C173.347 30.777 173.804 30.4343 174.209 30.3408C174.687 30.2369 174.738 30.6835 175.175 30.8705C175.528 31.0263 175.871 30.8913 176.4 30.8497C176.816 30.8186 177.19 31.0159 177.626 30.9744C178.436 30.8913 177.958 30.9432 178.644 31.3691C179.89 32.1377 180.171 33.1245 178.634 33.9554C178.145 34.2151 177.886 34.1112 177.429 34.2982C176.889 34.5163 177.044 34.6306 176.265 34.6929C175.777 34.7344 175.403 34.9006 175.092 34.8694C174.365 34.7967 174.738 34.8071 174.167 35.1603C173.399 35.6277 171.3 35.8978 170.293 35.877C169.649 35.8666 169.628 35.9497 169.098 36.1159C169.358 36.5417 169.265 36.2925 169.794 36.3548C170.283 36.4171 170.428 36.8533 170.885 37.0715C171.332 37.2792 171.487 37.6012 171.986 37.7778C172.755 38.0582 173.565 37.8816 173.586 38.8372C172.63 39.0969 171.55 39.045 170.625 39.5747C170.012 39.9175 169.317 39.5747 169.109 40.2602C170.023 40.2602 170.771 40.0213 171.591 40.0213C171.757 40.3226 171.82 40.5511 171.986 40.8523C172.474 40.8523 173.045 40.7277 173.284 40.8523C173.575 41.569 173.087 42.0468 172.62 42.3168C172.131 42.5973 171.789 42.8362 171.321 43.1374L168.403 44.5189C168.454 45.3187 168.704 45.329 169.4 45.3498C170.22 45.3706 169.971 45.7445 170.688 45.8276C171.384 45.9003 172.308 45.7549 172.848 45.3187C173.045 45.1629 172.91 45.2459 173.087 45.1317C173.139 45.1005 173.305 45.0278 173.367 44.9967C173.762 45.3083 173.783 45.5783 174.375 45.3706C174.874 45.2044 175.009 45.1213 175.518 45.4121C176.307 45.8692 176.535 45.3706 177.886 45.5576C178.634 45.6614 178.405 45.2563 179.08 45.6614C179.589 45.9626 180.742 46.2742 180.586 47.1779C180.347 48.5178 178.592 48.6217 178.322 48.7567C177.927 48.9644 178.384 48.8086 177.906 49.0995L176.13 49.5877C175.414 49.7227 175.632 49.7227 174.977 49.9928C174.178 50.3251 173.7 50.3044 173.129 51.1145C172.672 51.7585 172.277 51.5404 172.277 52.5791C172.848 52.9011 174.261 52.6102 174.468 53.5243C174.043 53.7943 171.529 54.5838 170.968 54.6876L169.888 55.0615C170.511 56.0691 172.287 53.7009 172.672 55.6536C172.994 55.6536 174.157 55.6432 174.261 55.7679C174.749 56.3495 173.409 57.3778 173.035 57.6271C172.422 58.0218 171.757 58.4996 171.103 58.7593C170.334 59.0709 169.857 59.5071 169.015 59.7045C167.925 59.9642 167.655 60.4316 166.003 60.7328C165.536 60.8159 165.629 60.9198 165.349 60.9925C165.027 61.0756 165.068 60.847 164.663 60.9198C164.165 61.0028 164.424 61.0756 164.009 61.2106C164.144 61.7923 164.746 61.865 165.266 61.7611C165.64 61.6884 166.367 61.5534 166.689 61.4287C167.301 61.1898 167.156 60.712 167.717 60.847C168.444 61.0236 168.174 60.9094 168.756 60.4627C169.42 59.9538 169.41 60.0784 170.012 60.2342C170.376 60.3277 171.996 60.39 172.339 60.2238L172.609 60.0784C173.575 59.7253 173.305 59.4344 174.167 59.6733V60.3796L172.609 61.3664C172.183 61.5534 171.612 61.5534 171.28 61.9169C171.103 62.1039 171.155 61.9584 171.093 62.2804C171.384 62.7998 171.487 62.6336 172.183 62.6336C172.214 62.2285 172.256 62.1973 172.381 61.9273C173.191 61.9273 173.108 62.1454 173.378 62.7582C174.77 62.7582 174.095 61.6261 175.372 62.644C176.089 62.187 176.805 61.4079 177.055 61.4806C177.678 61.678 176.868 62.2804 176.639 62.4882L173.949 64.4928C173.284 64.846 173.045 64.4409 172.609 64.6694C171.622 65.1784 173.118 65.49 170.106 65.4796C169.524 65.9158 169.306 65.033 169.306 66.9026C169.68 67.0065 169.732 67.2454 170.147 67.0792C170.511 66.9338 170.283 66.778 170.843 66.8403C171.55 66.9338 171.986 66.778 172.692 66.778C172.89 66.4248 172.9 65.8535 173.887 65.8327C173.939 66.1132 173.98 66.1859 173.991 66.5391C175.362 66.5391 174.354 67.1934 175.434 66.8507C176.463 66.5183 176.567 66.4248 176.587 67.2558C176.078 67.4012 175.85 67.4012 175.216 67.3389C174.458 67.2661 174.967 67.5985 174.063 67.4323C173.565 67.3388 173.16 67.4531 172.755 67.4531C172.287 67.4427 172.131 67.6089 171.519 67.6193L170.251 67.6816C169.732 67.7232 169.659 67.9413 169.088 67.9101C168.87 67.8997 168.662 67.8894 168.506 67.9101C167.27 68.0348 168.538 68.149 166.751 67.9725C165.993 67.9725 165.712 67.7439 165.255 67.6193C165.016 68.0452 164.923 68.3879 164.362 68.4502C164.248 70.0291 163.749 69.5305 163.562 70.3407C164.798 70.3407 164.57 70.403 165.588 70.0187C166.128 69.8213 165.91 70.081 166.502 69.9356C166.969 69.8213 166.948 69.5824 167.447 69.8629C167.426 70.7146 167.125 70.351 166.647 70.351C166.367 70.351 165.473 70.8912 165.172 71.0677C164.632 71.4001 164.165 71.4624 163.635 71.4417C162.96 71.4105 163.313 71.8052 162.659 71.8883C162.067 71.961 161.994 71.7013 161.516 71.9299C161.246 72.0545 160.363 72.9062 159.781 73.0724C159.532 72.8751 159.47 72.8647 159.387 72.4804C158.971 72.5219 158.971 72.6258 158.795 72.9582C159.179 73.1243 158.857 73.0101 159.054 73.1243C159.169 73.1867 159.2 73.197 159.345 73.249C160.695 73.7372 160.633 73.3009 160.986 73.0828C161.558 72.7193 161.869 73.0413 162.077 73.2074C162.69 73.6749 162.077 73.3009 163.074 73.2074C163.676 73.1451 163.843 73.3944 164.362 73.3321C164.933 73.2594 165.577 72.0441 166.336 72.8647C166.585 73.1347 166.855 73.384 166.948 73.7891C167.852 73.7891 167.312 73.519 167.945 73.3113C168.496 73.3632 168.236 73.6333 168.86 73.7579C169.275 73.841 171.207 73.3425 170.418 74.3292C170.168 74.6408 168.361 74.7135 168.267 74.6928C168.143 74.672 167.997 74.5681 167.81 74.537C167.27 74.4539 167.831 74.5577 167.333 74.5889C166.574 74.6304 166.45 73.7268 165.962 73.3009C165.505 73.5814 165.702 73.4256 165.505 74.0592C165.245 74.8901 164.559 74.807 164.123 75.0251C163.801 75.1809 163.895 75.4095 163.541 75.5237C163.365 75.586 162.783 75.5757 162.524 75.6172C161.163 75.8457 161.038 75.6795 159.781 76.0223C159.906 76.6663 159.927 76.5416 159.678 77.0921C159.179 77.0817 159.283 76.9259 158.722 77.0194C158.068 77.1337 158.39 77.0921 157.901 76.9259C157.382 76.7598 157.714 76.9779 157.195 77.0194L156.489 77.196C157.133 78.3489 158.753 76.9571 159.678 77.9023C160.841 79.5123 160.457 77.9023 161.869 77.9023C162.004 78.5671 161.9 78.5047 161.547 78.8164C160.695 79.5746 161.859 79.3253 160.207 79.585C159.792 79.6473 159.366 79.855 158.815 79.9485C158.286 80.042 158.026 79.7927 157.434 79.9485L156.115 80.3952C155.886 80.4783 155.772 80.551 155.492 80.6029C153.715 80.9249 154.546 81.0911 153.674 81.4027C153.113 81.6 152.947 81.5793 152.521 81.922V82.6283C153.082 82.6803 152.656 82.8569 153.414 82.8776L154.733 82.8257C155.357 82.8361 155.398 82.0882 155.699 82.7426C156.406 82.7634 155.99 82.9503 156.759 82.7011C157.205 82.5556 157.527 82.6907 157.974 82.5972L159.002 82.5037C159.833 82.5245 159.615 81.8078 160.924 82.3479C161.287 82.4933 161.589 82.5972 161.89 82.7322C162.607 83.0542 163.136 82.8672 163.863 82.8672C164.269 83.5943 164.819 83.667 164.933 84.3837L164.757 84.6434C163.998 84.4045 164.258 83.719 163.209 83.9786C162.752 84.0929 162.804 84.1344 162.274 84.176C161.63 84.2175 161.848 84.2799 161.381 84.4149C161.402 84.7369 161.433 84.7369 161.485 85.0069C162.721 85.3497 161.911 84.6746 162.877 84.6538C163.053 85.0589 162.981 84.8927 163.043 85.2666L163.282 85.8379C163.749 85.8379 163.905 85.6613 164.269 85.7236C164.622 85.786 164.58 85.9625 164.881 86.191C165.079 86.1391 165.764 85.8587 165.889 85.8898C166.325 86.0145 166.024 86.513 165.764 86.6481L164.279 87.1362C164.248 87.1466 164.092 87.2297 164.071 87.2401C163.593 87.5206 163.614 87.7179 162.814 87.5725C162.264 87.479 162.44 87.4375 161.952 87.7906C161.246 88.2996 161.121 88.58 160.602 89.0267C160.706 89.4733 160.862 89.3279 160.685 89.8161L160.207 90.4497C159.657 90.2731 159.927 89.868 159.054 90.0134L157.714 90.325C157.725 91.1248 158.078 90.9794 157.818 91.6234C157.34 91.4676 157.704 91.426 157.226 91.2702C156.987 91.4572 157.039 91.4987 156.759 91.6545C156.582 91.748 156.624 91.7065 156.458 91.7792C155.751 92.1116 155.647 91.9869 155.44 92.3297C155.564 92.901 155.897 92.8698 156.302 93.0775C156.915 93.3892 157.808 93.3476 158.13 93.867C157.964 94.6148 156.873 94.7394 156.343 95.0511C156.271 95.0926 155.98 95.3211 155.928 95.4042C155.834 95.5288 155.731 95.7989 155.803 95.9547C155.949 96.2975 156.374 95.8924 156.842 95.882C157.081 97.0973 157.652 96.2975 158.088 96.526C158.826 96.9207 157.881 98.1879 157.527 98.593C156.686 99.5486 155.814 100.431 154.858 101.21C154.567 101.439 154.515 101.408 154.193 101.595C153.456 102.031 153.549 102.426 152.396 102.769C150.62 103.288 150.849 104.108 150.205 104.773C150.101 104.887 150.049 104.898 149.903 105.012L149.623 105.251C148.906 105.573 148.636 104.378 147.795 105.926C147.577 106.331 147.047 106.767 146.611 106.757C145.905 106.736 145.769 106.591 145.042 107.027C143.245 108.118 143.91 108.928 142.996 108.918C142.103 108.907 141.739 109.562 141.002 109.904C140.503 110.133 140.244 110.528 139.776 110.808C139.465 110.995 139.485 110.943 139.195 111.182C138.966 111.358 138.8 111.493 138.561 111.608C138.322 111.722 138.114 111.743 137.875 111.857C137.439 112.065 137.699 112.023 137.315 112.366C136.733 112.885 136.089 113.187 135.445 113.581C134.25 114.308 134.52 113.955 134.115 113.706C133.523 113.353 133.046 113.831 132.63 114.017C132.08 114.256 132.318 114.267 132.007 114.464C131.633 114.693 131.373 114.433 130.937 114.952C130.667 115.274 130.781 114.952 130.293 115.139C130.22 115.17 128.86 115.949 128.184 116.074C127.821 116.136 127.717 116.053 127.385 116.188C126.876 116.386 126.533 116.625 125.931 116.697C124.092 116.947 123.635 117.185 121.994 117.694C121.672 117.798 121.558 117.767 121.256 117.892C121.059 117.975 120.768 118.141 120.55 118.235L116.935 119.616C116.437 119.834 115.938 119.928 115.471 120.125C115.014 120.322 114.536 120.457 114.006 120.634C113.851 120.686 113.83 120.707 113.622 120.769L108.159 122.794C107.12 123.158 106.227 123.573 105.209 123.895L102.976 124.674C102.664 124.778 102.57 124.809 102.28 124.913L98.5611 126.17C98.0417 126.368 97.4601 126.357 97.0134 126.586L89.5868 129.12C89.2856 129.224 89.0779 129.203 88.7351 129.286L86.4188 129.961C86.2111 130.024 85.9514 130.138 85.7333 130.211C85.2036 130.398 84.6946 130.398 84.1856 130.616L82.5757 131.073C82.1706 131.166 82.129 131.145 81.7551 131.291C80.4775 131.8 78.9714 131.8 77.86 132.226L75.5126 132.87C74.9413 133.036 71.9499 133.773 71.5656 133.618C71.3786 133.96 71.7733 133.784 71.067 133.867L66.8811 134.687C66.2994 134.708 66.4137 134.708 65.9463 134.874C64.4298 135.414 63.7131 135.196 63.1626 135.352C61.885 135.685 61.8642 135.342 61.241 135.674C60.919 135.851 60.8359 135.955 60.4101 135.986C58.6755 136.131 59.1429 135.965 57.5641 136.515C57.2213 136.64 57.1382 136.734 56.8266 136.827C56.2761 136.214 56.7123 136.349 55.6321 136.349C55.0401 137.668 54.2195 136.879 53.8456 136.817C52.8484 136.671 52.5576 137.087 51.6435 137.398C50.3348 137.845 50.688 137.502 50.2309 137.44C49.7635 137.378 49.7116 137.938 48.5379 137.326L46.8448 137.243C45.3387 137.596 46.4086 137.18 44.5597 137.502C43.4067 137.71 43.4483 136.879 44.0819 136.806C44.8713 136.702 44.6012 137.118 45.6295 136.754L47.0318 136.297C47.5927 136.152 48.0705 136.193 48.569 135.996C48.943 135.851 48.8287 135.736 49.1611 135.705C50.3763 135.581 49.5454 135.653 50.3244 135.124C52.2148 133.867 49.6285 134.075 48.8495 134.085C48.3301 134.095 48.3717 133.991 48.2678 134.448C48.0289 134.293 47.8419 134.241 47.7692 133.971C47.3122 133.805 47.1253 133.659 46.7617 133.503C45.0479 132.766 44.9856 133.888 43.8118 133.576C42.742 133.296 43.012 133.846 41.6929 133.836C40.4984 133.825 41.0281 134.552 39.9064 134.552C39.8025 134.095 39.844 134.293 39.5532 134.023C38.3172 132.859 39.0027 134.116 38.0471 133.701C36.3021 132.942 35.9282 134.448 35.9282 132.901C36.5514 132.402 37.4655 132.413 38.2133 132.672C38.7638 132.859 38.9819 132.475 39.3974 132.797C39.5532 132.922 39.5117 132.994 39.7506 133.223C40.3218 133.773 40.3426 132.974 40.4257 132.704C40.6854 131.893 41.5683 131.769 41.963 131.582C43.012 131.083 42.2642 130.959 43.2302 131.083C43.5522 131.125 43.656 131.094 43.8534 130.865L44.2792 130.304C44.6012 130.501 44.6324 130.668 45.0686 130.668C45.5361 130.668 45.4841 130.522 45.8581 130.418C46.1385 129.951 46.3358 130.003 46.4605 129.349C45.6399 129.432 45.3179 129.66 45.5568 128.414L45.1829 128.279L44.7778 128.403C44.6843 128.414 44.487 128.403 44.3727 128.403C44.3208 128.133 44.3 128.133 44.2689 127.811C44.622 127.604 45.266 127.604 45.6711 127.469C46.1593 127.313 46.502 127.333 47.1045 127.313C48.5898 127.261 48.3717 125.703 49.9609 125.111C50.8749 124.778 51.9448 125.048 52.7549 124.654C53.0873 124.487 53.5963 124.228 53.9183 124.145C54.0118 123.833 53.6171 123.657 54.4168 123.438C54.6246 123.646 54.6869 123.636 54.7181 124.03C55.7568 124.03 56.7851 123.792 57.6783 123.407C59.039 122.826 58.4989 122.493 59.1948 122.493C59.6726 122.493 59.548 122.607 60.1192 122.524C60.9814 122.389 60.5451 122.202 60.9398 121.725C61.1475 121.475 61.1995 121.621 61.3864 121.309C61.0541 120.717 61.0748 121.122 60.0258 121.216C59.7349 121.247 59.7972 121.278 59.4233 121.33C59.0494 121.392 58.8624 121.247 58.4573 121.361C58.0523 121.475 57.5537 121.382 57.2005 121.538C56.4215 121.88 56.5046 121.662 55.6321 121.808C54.2299 122.036 53.3782 122.649 52.6822 122.535C52.0798 122.441 52.3395 122.587 51.9032 122.691C51.2281 122.846 51.145 122.67 50.5114 123.168C50.2621 123.366 50.1686 123.345 50.1374 123.792C50.4802 123.823 50.501 123.885 50.7295 124.03C50.314 124.955 50.5529 124.207 49.7324 124.508C49.5454 124.571 49.3584 124.778 49.1299 124.508C48.9326 124.269 49.0884 124.539 49.0468 124.186C48.9845 123.646 48.8391 123.553 48.247 123.542C46.0139 123.48 47.4992 124.633 46.4501 124.737C46.2112 123.657 45.4218 124.28 44.6739 124.02C44.165 123.843 44.0819 123.864 43.656 123.864C43.2717 123.864 43.0951 123.677 42.5758 123.677C41.8591 124.955 41.641 123.906 41.1216 124.311C40.8516 124.529 40.9658 124.581 40.7789 124.737C40.2595 125.152 40.0726 124.55 39.5324 124.913C38.7223 125.453 39.3247 125.163 38.5457 124.913C38.1821 124.799 37.185 125.495 36.084 125.568C35.4504 125.609 33.1445 124.83 34.5987 123.085C35.2011 122.358 35.3881 122.649 35.9282 121.943C36.2086 121.59 36.541 121.496 36.8734 121.288C37.6836 120.79 37.7563 121.153 38.3691 120.354C38.608 120.052 38.9819 119.938 39.3559 119.751C41.3294 118.712 39.9687 118.224 40.9762 118.12C40.4465 117.269 38.6599 117.591 37.9952 117.05C38.1821 116.23 38.9923 116.084 39.5844 115.752C39.5844 115.129 39.6675 115.378 39.4182 115.119C39.3455 115.046 39.2728 115.015 39.1689 114.942C38.8677 114.724 39.1585 114.745 38.6807 114.682C38.2964 114.63 38.2237 114.797 37.7874 114.807C37.5589 114.236 37.6109 113.893 37.9017 113.405C39.4078 110.891 39.6467 111.504 40.4984 110.569C41.1009 109.915 41.7968 109.593 42.4304 108.969C43.3237 108.097 44.1131 108.097 44.2481 107.463C43.8326 107.578 43.6664 107.848 43.4171 107.91C43.0848 108.003 42.8874 107.827 42.4512 107.817C41.9318 107.806 41.8903 107.941 41.454 107.941C40.9035 107.941 41.1009 107.827 40.54 107.9C39.4909 108.045 39.5532 107.692 38.743 108.492C37.8705 109.354 38.473 108.419 37.6732 109.832C36.8734 109.832 36.8526 109.458 36.4787 110.309C34.7545 110.309 35.0765 110.881 33.7989 111.265C33.3834 111.39 33.425 111.493 33.1653 111.577C32.5628 111.764 30.984 111.732 31.0256 110.579C31.0775 108.897 31.9916 108.959 32.3032 108.544C32.4382 108.357 32.4694 108.087 32.6252 107.858C33.0406 107.224 33.6431 107.038 34.1936 106.643C34.7025 106.269 34.9934 105.303 35.9801 104.628C36.9461 103.963 36.8422 103.464 38.1718 103.091C38.1198 102.436 38.1925 102.883 37.9536 102.81C37.9121 102.8 37.9329 102.841 37.7355 102.779C37.2889 102.633 37.3408 102.509 36.7799 102.498C35.44 102.467 32.8744 103.309 34.2559 101.886C34.7752 101.346 34.7441 101.21 35.3777 100.847V100.255L34.2871 99.9121C33.7885 99.9744 34.1209 100.38 33.1861 100.38C33.0303 99.5693 33.103 99.0396 33.4665 98.4683C33.7781 97.9802 34.0274 97.6789 34.339 97.1388C34.7856 96.3598 36.0009 95.425 36.0736 94.4694C35.762 94.646 35.8035 94.5421 35.4088 94.6252C35.2427 94.6564 34.9311 94.7602 34.7649 94.8018C33.238 95.2692 32.4694 94.781 32.137 94.8745C31.6488 95.0095 31.6696 95.425 31.0879 95.2069L29.8726 94.7394C29.3117 94.5733 29.0001 94.8433 28.5951 94.8641C28.4496 94.8745 28.2834 94.8122 27.9407 94.8537C27.3694 94.9368 26.445 94.968 25.9152 94.8225V94.4694C26.5073 94.3032 26.8708 94.1474 27.6083 94.1162L30.5997 93.7008C30.8075 93.6592 30.662 93.6904 30.7763 93.6177C30.7971 93.6073 30.8594 93.5346 30.8906 93.5242C30.984 93.4619 30.9217 93.4619 31.1087 93.4203L31.8046 93.4099C32.5109 93.3995 32.1162 93.3164 32.594 93.171C32.7083 93.0775 32.5421 93.171 32.7914 93.036C32.9783 92.9321 32.8225 93.0048 33.0095 92.9425C33.1964 92.8802 33.3003 92.8906 33.3626 92.901C33.83 92.9737 33.4146 93.1191 34.0793 92.9321C34.0482 92.4959 33.7677 91.9662 33.5808 91.6338C32.8952 91.6338 31.7111 92.0596 31.1918 91.5091C31.0879 91.3325 31.0879 91.7792 31.0879 91.156H30.4959C30.4855 91.6026 30.4751 91.7169 30.1635 91.8311C29.0728 92.2258 29.0105 91.1352 28.0342 91.3014C26.7254 91.5195 27.4525 91.1456 26.5073 91.1456C25.8218 91.1456 25.6244 91.5403 25.0947 91.6234C24.2429 91.7688 24.378 91.2391 23.6301 91.2806C23.1419 91.3014 22.633 91.4987 21.9474 91.3637C20.9088 91.1664 21.6255 91.0936 20.6595 91.5403C20.2024 91.7584 19.8389 91.8623 19.2365 91.8623C19.0807 91.0833 19.2261 91.3325 19.7662 91.0625C20.6179 90.647 19.6727 90.2108 21.3866 89.681C22.1552 89.4525 21.854 89.8784 22.446 89.2863C22.9238 88.8085 22.9446 89.0682 23.5159 89.1305C24.0248 89.1825 24.3053 89.0267 24.7415 88.9436L27.2863 88.6631C27.2551 88.2373 26.9955 87.7906 27.4837 87.7179C27.8472 87.666 27.9303 87.9672 28.2834 88.0711C28.647 87.7802 28.4704 87.7491 28.782 87.479C29.291 87.6244 29.883 88.7878 29.9765 87.479C30.4647 87.4894 30.527 87.6764 30.8698 87.6868C31.0671 87.6868 31.4722 87.5933 31.8669 87.5933C31.6176 87.1986 31.8773 87.5517 31.5242 87.2817C31.5034 87.2713 31.4826 87.2505 31.4618 87.2401C31.1918 87.0428 31.2125 87.0116 30.7244 86.9181C30.0388 86.7831 29.8519 87.0324 29.3117 87.1674C28.46 87.3959 28.6885 86.9597 27.9303 87.0635C27.1513 87.1674 27.172 86.7104 27.4733 86.1599C27.359 86.0976 27.3279 86.0872 27.1928 86.0145C25.9879 85.3393 26.0087 86.6585 25.0843 85.921C25.292 84.9862 26.2788 85.277 26.9851 84.8719C27.8472 84.3629 27.5564 84.9031 28.3769 84.633C28.5223 84.5915 28.5327 84.5707 28.6054 84.5395C28.7197 84.498 28.7405 84.4876 28.7197 84.4876C28.7301 84.4876 28.7301 84.4876 28.7405 84.4772C29.0728 84.3733 29.0105 84.5291 29.3637 84.6018C29.4883 84.6226 29.6234 84.6226 29.748 84.6226C30.0492 84.6226 30.3504 84.6122 30.6517 84.6122C30.6724 84.5603 30.7763 84.2383 30.8075 84.1968C31.1087 83.7397 30.7867 84.3422 31.3891 83.6982C31.95 83.0958 31.8461 83.719 32.2824 83.2204C32.5836 82.8776 32.3136 82.9088 32.6148 82.5556C32.916 82.2025 32.9679 82.5245 34.0689 82.0363C35.0141 81.6208 35.118 81.8909 35.5335 81.652C35.44 81.3715 35.7205 81.4858 35.2011 81.33C34.7129 81.1846 34.3078 81.6727 34.0274 81.7143C33.7677 81.7558 33.5911 81.5377 33.103 81.7143C32.7498 81.8389 32.8952 82.0155 32.3239 81.8078C31.306 81.4339 31.6592 81.787 30.4543 81.7662C29.0728 81.7455 29.7792 82.0467 29.239 82.1609C29.104 82.1921 29.1559 82.1609 28.9067 82.0882C28.7197 82.0259 28.647 81.974 28.3665 82.0051C27.7018 82.0778 28.1276 82.431 27.1513 82.4829C26.6943 82.5037 26.902 82.4725 26.6839 82.3583L25.5725 81.8909C23.6197 80.8418 22.4149 82.5868 22.7888 80.7068C23.6197 80.7068 23.7444 80.4783 24.3987 80.3744C25.0116 80.2809 25.4374 80.1459 25.5725 79.5227C25.1154 79.263 24.9493 79.7616 24.1806 79.7616C24.0144 79.3876 24.0144 79.1487 23.8794 78.8164H22.581C22.446 78.5775 22.4045 78.484 22.2798 78.2243C21.532 78.2243 21.1684 78.6709 20.5868 78.3386C20.6906 77.7984 20.753 77.8296 21.2411 77.6946L24.0664 77.0402C24.5546 77.0921 24.5649 77.3103 25.0635 77.0402C25.4167 76.8532 25.2609 76.7701 25.9048 76.7598C26.2476 76.7494 26.2788 76.8948 26.7566 76.9259C27.0993 76.9467 27.5044 76.9259 27.8576 76.9259C27.9718 76.6663 28.0238 76.5728 28.1588 76.3339C28.9067 76.3339 28.969 76.5728 29.7272 76.1781C30.4439 75.8042 30.257 75.4198 30.7451 75.264C31.2749 74.9317 31.0879 75.1082 31.2437 74.3188C31.68 74.0696 31.5761 74.4019 31.8358 73.9657C31.4826 73.3944 30.8698 73.4879 30.2466 73.4879C30.1011 72.7296 30.4024 72.3246 29.7895 72.4388C29.3429 72.5219 29.1352 72.9893 28.5535 72.6569C28.6054 71.9714 29.4052 71.7117 30.0492 71.3586C30.6932 71.1716 30.9425 70.7873 31.2125 70.6211C31.6488 70.351 32.407 70.538 32.7186 70.2887C33.103 69.9875 32.9991 69.572 33.9755 69.759C34.5675 69.8733 34.9207 69.7278 35.4088 69.5928C35.44 69.1877 35.4816 69.1566 35.6062 68.8865C36.4891 68.8865 36.5514 68.8761 37.0292 68.3256C37.3512 67.9517 37.6628 67.6505 37.9017 67.2246C38.2652 67.4323 39.117 67.8166 39.4805 67.4531C39.6363 67.2973 39.6259 67.1207 39.6882 66.9961C39.896 66.6533 39.6779 66.7676 40.1868 66.7572C40.1868 65.0745 40.3322 66.0197 40.3842 65.2199C39.6571 64.7629 39.844 65.0849 39.0858 65.1057L38.6184 65.3757C38.1094 65.5419 37.5589 65.7081 37.1019 65.5835V65.1057C38.0471 64.846 38.2237 65.0122 38.9819 64.3786C39.2416 64.1605 39.5013 63.9943 39.8337 63.8489C40.2803 63.6411 40.3634 63.8073 40.7165 63.7242C41.3294 63.5788 41.0178 63.3918 41.6825 63.3399C42.1915 63.2983 42.3265 63.3295 42.6693 63.101C43.4275 62.6024 43.2821 62.8413 43.5106 62.6855C43.8118 62.4882 43.6353 62.27 44.0611 61.9273C44.809 62.135 44.1858 62.5297 45.131 62.3843C45.9827 62.2493 45.5984 62.0831 45.9515 61.5637C46.232 61.1587 46.6786 61.3248 47.0525 61.0963C47.2707 60.9613 47.2811 60.8367 47.4784 60.6601C47.6861 60.4835 47.4888 60.6393 47.7381 60.4939L47.9458 60.39C46.9383 60.39 47.2707 60.1511 46.7409 60.0369C46.1281 59.9122 46.1697 60.255 45.5672 60.2654C45.1621 59.2579 45.8269 58.4165 46.4397 57.5129C48.2055 54.9369 48.5379 55.1031 50.2932 53.3269C50.7295 52.8803 50.7191 52.9219 51.2281 52.6622C51.5189 52.5168 51.5397 52.4337 51.8201 52.2986C52.2668 52.0701 52.0694 52.4025 52.3395 51.9663C50.9788 51.9663 51.8201 51.5819 49.6597 52.0909C48.9326 52.2675 47.8835 52.3713 47.0629 52.4337L43.7599 52.9946C42.6901 53.3685 42.6589 52.9738 41.8591 53.2231C40.5296 53.6178 40.5815 53.4412 39.252 53.6801C38.743 53.7632 38.3172 53.6905 37.829 53.7632C37.3824 53.8255 37.2473 53.9398 36.6241 53.9917C35.2427 54.0956 35.3673 54.0229 34.017 54.4383C33.4665 54.6045 32.7602 54.563 32.0019 54.6461C31.5242 54.698 31.7838 54.5941 31.4514 54.6149C31.0567 54.6253 30.9529 54.9265 30.257 54.9369C29.4675 54.9577 29.5714 55.0616 28.969 55.1862C28.138 55.3628 27.681 54.4487 26.8397 55.1343C26.5592 55.3628 26.8397 55.342 26.3307 55.477C25.3647 55.7575 25.0116 55.4874 24.4611 55.4147C22.903 55.2174 22.955 55.5913 21.989 55.8821C21.6047 55.9964 21.158 56.0379 20.7218 56.1522C20.0363 56.3288 20.0155 56.2664 19.4858 56.0171C18.956 55.7679 19.0495 56.121 18.499 56.3495C18.2289 56.4638 18.2913 56.4534 18.0316 56.3391C17.0448 55.8925 17.5019 56.3184 16.8786 55.9237C16.0892 55.4147 16.0477 55.9756 15.3206 55.9756C14.9882 55.9756 15.1544 55.8717 14.6662 55.934C14.1469 56.0068 13.1601 56.1314 12.7343 55.8821C12.7758 55.2797 13.077 55.342 13.6276 55.2901L16.11 55.0512C16.4839 55.02 16.8579 54.7915 17.1279 54.7811C17.2941 54.7707 17.4395 54.8746 17.585 54.8538C17.7823 54.833 17.8031 54.7084 18.0316 54.6357C18.2082 54.5838 18.686 54.6565 19.0807 54.563C19.6 54.4383 19.5377 53.919 21.0853 54.3345L21.2931 53.8671C21.7189 53.8671 22.8511 53.784 23.225 53.6801C23.3704 53.6385 23.9313 53.4827 23.9729 53.4204C24.1183 53.2438 23.8898 53.1815 23.8794 52.5687H22.8823C22.7992 53.7113 21.9267 52.8491 21.7916 52.8076C21.5631 53.3789 21.667 53.3789 21.1996 53.7528C20.6179 52.7141 20.8776 52.7972 19.4027 52.8076C17.5122 52.8284 18.3536 51.6131 17.5953 52.1636C17.1799 52.4648 17.5953 52.2779 17.3357 52.7037C17.1279 53.0361 17.2941 52.8699 16.9306 52.9426C15.7257 53.1919 15.9958 52.2883 15.0402 52.3298C14.4481 52.361 14.6351 52.5271 14.0119 52.3713C12.6823 52.039 12.672 52.6206 11.9449 52.6933C11.4255 52.7453 11.2593 52.5895 10.7608 52.5687C10.3765 52.5583 9.9506 52.5687 9.56628 52.5687C6.0659 52.5687 8.56914 52.6622 6.22171 53.2231C5.7543 53.3373 5.62965 53.2335 5.58811 52.683C6.25287 52.6206 6.24248 52.5895 6.53331 52.0286C6.90724 51.3015 7.0942 51.4261 7.35388 51.343C7.99786 51.1457 7.52007 51.0626 8.27831 50.9587C8.82881 50.886 8.88075 50.5744 9.16119 50.4082C9.4728 50.2213 10.0545 50.3251 10.4699 50.3147L12.35 50.0655C13.0978 49.9824 12.2357 49.8369 14.2404 49.8369C14.23 49.2553 13.9911 48.7048 14.552 48.8606C15.1337 49.0268 14.8324 49.3488 15.5284 49.3695C15.5803 49.0787 15.6322 48.8917 15.7257 48.6632C16.11 48.7879 16.3489 49.141 16.7228 49.3695C16.9306 49.1306 17.0656 48.8606 17.3149 48.6632C17.5642 48.7359 17.5746 48.8086 17.7615 48.8502C18.177 48.9541 18.0316 48.8606 18.2186 48.7983C18.8522 48.5905 18.5094 49.0268 19.008 48.7983C19.143 48.7359 19.1638 48.6425 19.4234 48.5697C19.6104 48.5178 19.7662 48.5386 19.9636 48.5074C20.2648 48.4555 20.4829 48.3101 20.888 48.2997V48.0608C20.3479 48.2062 19.9636 48.0504 19.2053 48.2062C18.3847 48.3724 18.4471 47.9361 17.6057 47.9361C16.245 47.9465 16.5774 48.4763 14.2196 47.8323C14.2715 47.1675 14.4689 47.3856 14.5312 47.1779C14.5624 47.074 14.739 47.1156 14.3858 46.9494C14.1988 46.8663 14.23 46.8975 14.0326 46.8767C13.5964 46.8455 12.6096 47.126 12.6304 46.5339C12.6512 46.1496 12.8797 46.2119 13.1394 46.2119C14.5935 46.2015 14.5728 45.7965 15.2064 45.8172C15.6738 45.8276 15.518 45.9419 15.9646 45.8899C17.1072 45.7549 17.3045 45.9419 18.2082 45.5887C18.7794 45.3706 18.7587 45.6199 19.1638 45.4225C20.7945 44.6331 19.413 45.2356 20.8464 44.9343C21.3035 44.8409 21.7605 44.6539 22.2175 44.55C23.277 44.3111 22.8303 44.8097 24.5753 44.28C24.8558 44.1969 24.9596 44.1865 25.2712 44.1553C26.0918 44.0826 25.9983 43.8749 26.6008 43.7191C27.1201 43.584 27.7226 43.6983 28.2627 43.6775C28.8132 43.6568 29.1767 43.5009 29.7064 43.3867C30.2258 43.2724 30.6932 43.2621 31.2022 43.1582C32.0954 42.9712 31.815 43.1166 32.2408 42.3792C32.7914 42.4311 32.5317 42.6077 33.1341 42.3792C33.5184 42.2337 34.7337 42.2026 35.8243 41.9014C35.8451 41.5794 35.8659 41.5794 35.9282 41.3093C37.3304 41.3093 37.32 41.6521 36.728 40.603C36.3956 40.6342 36.0113 40.7484 35.7308 40.8419C35.1076 41.0704 35.3777 40.8627 34.8376 40.8523C33.83 40.8315 33.5184 41.4547 33.2484 41.6729C32.8017 41.3924 32.5317 41.112 31.7838 41.2262C31.6384 41.247 31.2333 41.2989 30.984 41.3509C30.7555 41.4028 30.5789 41.5171 30.2985 41.6001C29.6441 41.8079 29.4364 41.6417 28.6678 41.6729C26.5281 41.7456 27.7018 42.7323 26.1126 42.2337C25.8321 42.1507 26.1334 42.213 25.8114 42.1195L24.2949 42.0364C23.547 42.0987 24.0248 42.3999 22.6953 42.3896C21.7605 42.3896 22.0409 42.7427 21.21 42.7427C21.1061 42.2649 21.1788 42.3999 20.7114 42.3896C20.4206 43.6671 19.7558 42.6077 18.9249 42.6181L17.0241 42.857C16.6397 42.9297 16.7436 42.7323 16.6294 43.2205C15.3518 43.2205 15.7361 42.6804 15.1129 43.179C14.3339 43.7918 13.8249 43.4594 12.8901 43.1686C12.485 43.0439 12.5993 43.0128 12.2669 42.8466C11.0828 42.2441 9.65976 43.2205 9.35854 42.5142C9.03655 41.7663 10.0441 41.9741 10.4699 41.7975C11.7891 41.247 11.1035 41.6729 11.9345 41.5378C12.4954 41.4443 12.7758 41.1224 12.6512 40.4888C12.0799 40.4888 12.1111 40.4057 11.7371 40.7069C11.3424 41.0289 11.654 40.9562 10.9581 40.9562C10.875 40.5095 10.8543 40.4888 10.8543 39.8863C10.3868 39.8863 10.1272 39.9071 9.7117 39.959C9.18197 40.0317 9.25468 39.8136 8.93268 39.5539C8.34063 39.0658 7.77974 40.0525 7.07343 39.6474C7.11498 39.0865 7.19807 39.1592 7.6551 39.045C8.29908 38.8892 8.27831 38.723 9.38971 38.5049C9.92982 38.401 9.80518 38.3802 10.1687 38.2452C10.9789 37.944 11.6437 38.3283 11.7475 38.3283C12.1111 38.3283 12.163 38.0582 12.4642 37.9024C13.2225 37.5181 13.3783 38.0894 14.1365 38.1205C15.2791 38.1725 15.2375 37.4973 15.7153 37.4558C15.8815 37.4454 16.1827 37.5389 16.5774 37.4766C18.2289 37.2065 17.4292 37.113 17.9589 36.6144C18.3951 36.199 19.1014 36.8118 19.5065 36.9261C20.2959 36.3028 19.9739 36.6248 20.5348 36.2613C21.1061 35.8978 20.8984 35.6173 21.2931 35.2745C21.4489 35.0253 21.3035 35.1187 21.5943 35.0356V34.6825C21.0853 34.5371 20.9815 34.3293 20.0986 34.3293L19.8181 34.4747C19.4858 34.5994 19.3507 34.5682 19.0495 34.5163C18.6236 34.4436 18.3744 34.4436 17.9069 34.4436C17.9797 33.3841 18.0835 34.4955 19.6831 33.8411C22.446 32.6986 21.532 33.9346 22.6538 33.3426C23.3601 32.9687 22.9342 33.4153 24.0871 33.2803L24.5857 33.1556C25.1362 32.9375 24.9181 33.0206 25.6659 33.0206C25.6763 32.5532 25.6348 32.7401 25.7698 32.4285H26.3619C26.4346 32.7921 26.5177 32.8856 26.6631 33.1348C27.3382 33.0725 26.6943 32.8959 28.0549 32.8959C28.7612 31.6391 28.9274 32.4493 29.7584 32.0858C30.2258 31.878 30.0181 31.7534 30.5686 31.8053C32.1993 31.93 31.5969 31.5768 32.4694 31.2964C33.1757 31.0679 37.32 30.6316 37.7043 30.7666C38.3691 31.0159 38.9923 31.0159 39.5844 30.7562L41.5579 30.2681C42.1499 30.1642 42.9809 30.1123 43.5833 29.9461C43.5833 29.1774 43.5002 29.5306 43.8326 29.1774C44.1546 28.8347 43.978 29.1047 44.1754 28.6373C44.6012 28.6373 45.3075 28.5438 45.5361 28.5854C45.8788 28.6477 46.097 28.9074 46.5436 28.9074C48.5171 28.897 47.7485 29.0632 48.5483 28.1595C49.1715 28.2218 48.9949 28.44 49.348 28.6373C49.6077 28.7724 49.4935 28.6893 50.1478 28.3984C50.6568 28.1803 50.501 28.1595 50.823 27.7752C51.5501 26.8923 51.6851 27.5779 52.2979 27.744C52.838 27.8895 53.1704 27.6506 53.6067 27.5259C55.3621 27.017 54.0014 27.2247 54.635 26.9754C55.2686 26.7261 55.0816 27.6817 56.0995 26.9339L56.2865 26.8092C57.294 26.2587 57.2836 26.9546 58.0211 26.9754C58.1042 26.6119 58.0107 26.7573 58.3015 26.5911C58.9767 26.2068 59.3922 26.5911 59.5895 26.6534C60.3581 26.9131 61.3864 25.4797 62.1655 25.8329C62.7887 26.1133 61.9993 26.3314 62.6952 26.4457C63.3911 26.5599 63.8897 26.238 64.2013 25.5524C64.9699 25.5524 64.6687 25.6978 65.1153 25.4485C65.9359 24.9811 66.7772 25.8225 67.3693 24.6903C67.3693 24.6799 67.4004 24.0567 68.0964 24.3372C68.4495 24.4826 68.2106 24.4826 68.5845 24.5968C68.7404 24.4618 68.5534 24.4826 68.9793 24.4826C69.0312 24.2748 68.73 24.4722 69.1974 24.2748C69.5817 24.119 69.831 24.2956 69.966 23.6516C70.4853 23.662 70.4646 23.797 70.8385 23.9321C71.389 24.1294 71.1605 23.9424 71.4929 23.6828C72.4173 22.9349 72.4381 25.1473 73.5495 23.1738C74.6297 23.475 76.3539 22.7064 77.5277 22.696C77.9224 22.696 78.3378 22.7168 78.7325 22.7064C79.2311 22.6856 79.2519 22.561 79.7193 22.5818C80.4152 22.6129 79.9478 22.7687 80.5918 22.5506C81.4123 22.2598 81.3085 22.8207 81.3085 22.8207C81.7863 22.7687 81.7551 22.5922 82.2121 22.4779C82.5549 22.3948 82.8042 22.3844 83.1366 22.2702C83.5936 22.1144 83.5624 22.0728 84.0922 21.9897C84.9439 21.8547 84.7569 20.951 85.4425 21.5639C85.9306 21.9897 85.7229 21.917 86.3565 21.6054C87.2913 21.138 88.1534 21.6781 89.3375 20.9926C89.7219 20.7641 90.584 21.0445 92.1732 20.5875L94.022 20.0578C94.3648 19.9539 94.7179 20.037 95.123 19.9539C95.4554 19.8812 95.4762 19.7669 95.6112 19.58C95.6216 19.5592 95.6424 19.528 95.6528 19.5073C95.6631 19.4865 95.7151 19.4034 95.7359 19.3722C96.7226 19.9954 98.343 19.5488 99.7244 19.3826C100.638 19.2684 100.566 18.6451 101.324 18.5517C101.843 18.4893 101.781 18.7282 102.383 18.6451C103.765 18.4478 103.433 18.0427 103.983 17.8142C104.274 17.6895 104.471 17.8246 104.897 17.8454C106.227 17.9181 106.05 17.3676 106.704 17.2637C107.203 17.1806 107.286 17.2741 107.774 17.1079C107.899 17.0663 108.044 17.004 108.242 16.9521C109.301 16.6405 108.74 16.6197 109.478 16.412C110.672 16.0588 110.174 16.3704 110.755 16.36C111.991 16.3289 111.327 16.682 112.147 16.5262C112.407 16.4743 112.791 16.2562 113.082 16.2458C113.529 16.225 113.331 16.4016 113.923 16.1627C115.409 15.5602 114.463 16.2977 115.648 15.7264C115.97 15.5706 116.832 15.5602 117.569 15.2902C118.057 15.1136 118.068 15.1863 118.608 15.1032C119.574 14.9578 119.833 14.802 120.457 14.615L121.205 14.4177C122.43 13.9087 122.378 14.1788 122.991 13.8152C123.812 13.3374 124.019 13.9295 124.601 13.1297C124.746 13.5556 124.892 13.4829 125.692 13.4829C125.879 13.1505 125.847 13.1193 125.993 12.7766C126.398 12.9012 126.336 13.1505 126.606 13.3686C127.073 13.7425 127.405 13.2751 127.405 13.2751C127.935 12.9427 127.8 13.2751 128.278 13.244C128.652 13.2232 128.652 13.0258 128.922 12.8285C129.306 12.5584 129.41 12.7454 129.784 12.548C130.231 12.3091 130.002 12.1014 130.407 12.0079C130.688 11.9456 130.792 12.2157 131.249 12.1637L132.879 11.6132C133.482 11.4366 133.129 11.3432 133.606 11.177C133.918 11.0627 134.302 11.1562 134.635 11.1043C134.842 11.0731 135.164 10.9588 135.445 10.8861C135.767 10.803 135.985 10.7096 136.307 10.6161C136.712 10.4914 136.92 10.5849 137.335 10.533C138.073 10.4395 137.844 10.0967 138.634 9.59816C138.623 9.03727 138.519 9.20346 138.634 8.89186C139.132 9.04766 138.873 8.99572 138.831 9.59816C140.379 9.1723 140.171 8.85031 140.524 8.42445C141.147 7.68698 141.376 8.33096 141.906 6.99106C142.248 7.10531 142.3 7.58311 144.097 7.58311C144.305 7.07415 144.035 7.13647 144.492 6.99106C144.814 7.2715 144.7 7.04299 144.596 7.58311C145.115 7.53117 144.772 7.48963 145.593 6.86641C146.081 6.50287 145.905 6.19127 146.393 6.04585L146.507 6.01469C146.517 6.01469 146.549 6.0043 146.569 6.0043C147.785 5.83811 147.39 5.58883 147.972 5.30838C148.512 5.04871 148.345 5.61999 149.353 4.59169C149.696 4.23853 149.727 3.90615 150.277 3.90615C150.911 3.90615 150.973 4.37356 151.451 3.89577C151.659 3.68803 151.638 3.60493 151.877 3.44913L152.241 3.29333C153.445 2.72205 152.687 3.06481 153.477 3.18946C153.913 3.26217 153.986 2.99211 154.536 3.10636C154.754 3.1583 154.64 3.11675 154.754 3.19984L154.723 3.231ZM176.12 65.6042C176.224 66.1236 176.317 65.9989 175.923 66.3105C175.798 66.0924 175.725 66.1028 175.725 65.8327C175.725 65.5939 175.933 65.6146 176.12 65.5939V65.6042ZM162.492 88.2165L163.77 88.2892C163.895 88.2892 164.04 88.2165 164.279 88.2165C165.151 88.2165 164.57 89.5148 164.175 89.5148C162.752 89.5148 163.375 89.1617 162.877 89.1617C161.599 89.1617 162.212 90.1588 161.184 89.5148C161.693 88.6112 161.132 88.2165 162.482 88.2165H162.492ZM16.3178 89.6395C16.9825 89.6395 17.2733 89.8784 17.8135 89.8784C18.2082 89.8784 18.1251 89.5252 18.634 90.0757C19.5273 91.0209 19.0391 91.7169 18.4367 90.9067C18.1251 90.4912 18.2601 90.4704 17.6057 90.4704C17.533 90.782 17.3668 90.9067 17.3668 90.8963C17.3564 90.8755 17.3253 90.9275 17.3149 90.9482C16.4839 90.7197 16.9202 90.4704 15.4245 90.4704C14.874 90.4704 14.4273 90.7924 14.2196 90.3666C13.7522 89.4214 15.9127 89.6395 16.3178 89.6395ZM139.205 8.20632C139.205 7.96742 139.496 7.88433 139.704 8.09207C139.569 8.70489 139.205 8.63218 139.205 8.20632ZM45.1725 124.321C45.2972 124.633 45.453 124.809 44.8713 125.266C44.7467 125.048 44.6739 125.059 44.6739 124.789C44.6739 124.55 44.9856 124.373 45.1725 124.311V124.321ZM183.889 68.8138C183.682 67.7751 183.941 68.2217 184.585 68.2217C185.375 68.2217 185.364 67.7439 185.676 67.7439C186.237 67.7439 185.925 67.7959 186.06 68.0036C186.216 68.2425 186.195 68.471 186.777 68.928C187.203 68.793 186.953 68.6891 187.275 68.6891C187.753 68.6891 187.442 68.7722 187.847 68.9592C188.543 69.2708 188.823 69.0527 189.27 68.928C189.332 69.2396 189.561 69.8732 189.072 69.8732L186.59 69.759C186.258 69.1773 185.998 68.4606 185.198 68.4606C184.866 68.4606 185.312 68.8138 183.9 68.8138H183.889ZM168.267 83.3762C168.735 83.5216 168.589 83.7605 168.922 83.9163C169.202 84.041 169.441 83.854 169.867 83.854C170.158 83.854 170.272 84.1552 170.76 84.2071C171.093 84.2383 171.602 84.2071 171.955 84.2071C171.643 85.5886 169.722 85.0381 168.766 85.0381C168.693 84.8615 168.693 84.7369 168.673 84.6746C168.434 84.0098 168.174 84.4564 168.174 83.7294C168.174 83.5008 168.205 83.5216 168.278 83.3762H168.267ZM178.415 74.1423C178.415 73.7372 179.672 73.5918 179.922 73.5606C180.295 73.519 180.566 73.6125 180.69 73.6229C181.22 73.6645 182.227 73.1555 182.29 74.1319C181.781 74.1319 181.552 74.1111 181.168 74.2254C180.659 74.3708 179.672 74.2981 179.111 74.3915C178.841 74.4331 178.405 74.6824 178.405 74.1319L178.415 74.1423ZM163.271 77.8919C164.902 77.7673 164.05 77.7257 164.684 78.2762C165.702 77.9958 165.068 78.0789 165.681 78.2762C165.629 78.9825 165.297 78.9618 164.788 79.1072C164.757 79.0553 164.507 78.6398 164.497 78.6294C164.206 78.2555 164.601 78.5151 164.102 78.3697C163.469 78.1828 163.625 78.5151 163.095 78.5151C162.461 78.5151 162.69 77.8296 162.7 77.8088C162.991 77.84 162.991 77.9127 163.271 77.8919ZM180.212 64.4305L181.293 64.5759C181.729 64.6902 182.352 64.3578 182.809 64.659C182.809 65.4692 182.279 65.033 181.615 65.033C181.064 65.033 180.503 65.5108 179.922 65.3653C179.932 64.8148 180.036 64.7421 180.223 64.4201L180.212 64.4305ZM173.347 10.3356C173.658 10.0863 173.596 10.1175 174.084 10.0136C174.406 9.94093 174.635 9.93054 174.635 10.3356C174.635 10.8134 174.001 10.8134 173.544 10.803L173.336 10.3356H173.347ZM182.705 69.9875H183.006V70.3407H182.705V69.9875ZM182.03 71.2547C181.989 71.0158 182.092 70.9327 182.3 70.9327C182.529 70.9327 182.497 71.2651 182.497 71.5248C182.227 71.5144 182.072 71.5559 182.02 71.2547H182.03ZM174.967 84.2799C175.632 84.6953 175.04 85.0173 174.541 85.0173C174.198 85.0173 174.281 84.8615 174.333 84.6642C174.354 84.5707 174.51 84.1552 174.541 84.0721L174.967 84.2799ZM176.93 77.2064C178.228 77.2064 177.886 76.8532 178.322 77.0921C178.021 77.6219 178.145 77.383 177.533 77.4661C177.159 77.518 177.449 77.6219 177.148 77.5284C176.899 77.4557 177.003 77.4557 176.93 77.2168V77.2064ZM178.623 67.6193C178.623 67.37 179.215 66.9545 179.215 67.6193C179.215 68.4606 178.623 68.0555 178.623 67.6193ZM177.034 82.7738C177.47 82.9088 177.47 83.1061 177.034 83.2516V82.7738ZM176.535 84.0721C176.67 84.0721 176.733 84.2383 176.733 84.4253V85.0173H176.338V84.5395C176.338 84.2487 176.12 84.0617 176.535 84.0617V84.0721ZM166.284 84.6642C166.284 84.5603 166.855 83.7501 166.876 84.9031C166.709 84.955 166.284 85.2562 166.284 84.6642ZM167.177 77.7984C167.551 77.7984 167.426 78.7748 166.678 78.2762C166.751 77.9646 166.876 77.7984 167.177 77.7984ZM169.961 77.4453C170.241 77.6634 170.386 77.7881 170.158 78.2762C169.961 78.2762 169.763 78.3386 169.763 77.9231C169.763 77.653 169.846 77.6634 169.961 77.4453ZM173.741 77.331C173.741 77.1129 174.001 76.9883 174.354 77.2168L174.24 77.6842C173.845 77.6738 174.011 77.7153 173.741 77.5699V77.331ZM179.018 85.6198C179.07 85.2251 179.465 85.4536 179.641 85.4743C180.16 85.5263 179.911 85.142 180.212 85.6198C179.672 85.6198 179.35 85.8067 179.018 85.6198ZM167.572 86.9181C167.997 87.0532 167.945 87.1986 167.862 87.6452L167.468 87.5102C167.468 87.0739 167.457 87.1986 167.572 86.9181ZM177.626 63.9527C177.626 63.9527 177.844 63.4749 177.927 64.3059C177.283 64.2228 177.626 63.9631 177.626 63.9527ZM170.168 76.3858C170.168 76.1469 170.376 76.1677 170.563 76.1469C170.553 76.7597 170.656 76.4897 170.366 76.739C170.21 76.6039 170.168 76.7182 170.168 76.3858ZM173.845 16.734C174.583 16.8067 174.437 16.8378 174.437 17.326C173.97 16.9209 174.541 16.9936 173.845 16.9729V16.734ZM173.045 84.1968C173.222 84.1968 173.212 84.3733 173.243 84.5499C172.848 84.5395 173.014 84.5811 172.744 84.4357C172.765 84.2591 172.858 84.1968 173.045 84.1968ZM175.528 86.565C175.414 87.0531 175.455 86.9804 175.133 86.8039C175.164 86.5546 175.299 86.5857 175.528 86.565ZM179.008 71.2028C178.779 71.047 178.966 71.1093 179.008 71.0574C179.08 70.9743 178.976 70.8392 179.132 71.0574C179.257 71.2235 179.111 71.2755 179.008 71.2028ZM180.815 71.1093C181.064 71.0054 180.804 71.2962 180.701 71.1716C180.534 70.9743 180.815 71.1093 180.815 71.1093ZM144.211 4.67478C144.855 4.4255 144.357 4.30085 145.292 4.30085C145.25 4.88252 145.022 4.89291 143.9 4.89291C143.796 5.33954 143.36 5.70308 143.308 4.89291C143.578 4.8202 143.993 4.76826 144.222 4.67478H144.211ZM161.204 76.1469C161.568 76.1469 161.506 76.4481 161.506 76.8532C161.101 76.9571 160.758 76.9467 160.706 76.2612C160.83 76.2092 161.049 76.1469 161.204 76.1469ZM25.7698 87.988C25.749 88.3204 25.7698 88.4658 25.4686 88.4658H25.1674C25.1674 87.6868 25.3024 87.9464 25.7594 87.988H25.7698ZM133.149 116.178C133.575 115.929 133.804 115.825 134.136 116.043C134.022 116.552 133.991 116.406 133.606 116.604C133.243 116.791 133.066 117.04 132.64 116.76C132.796 116.49 132.911 116.323 133.149 116.178ZM131.249 117.352C131.259 116.957 131.425 117.009 131.747 116.999V117.352H131.249ZM130.657 117.352H131.155C131.051 117.456 131.249 117.393 130.916 117.549C130.75 117.622 130.812 117.58 130.657 117.591V117.352ZM23.6821 94.7394C23.6821 94.2616 25.0739 94.1889 25.0739 94.8537C25.0739 95.1653 23.6821 95.3523 23.6821 94.7394ZM10.8439 55.5601C11.4775 55.5601 11.6644 55.4666 11.9345 55.9133C11.6021 56.5053 11.6748 56.2249 11.2178 56.1833C10.7712 56.1418 11.0412 56.3184 10.4388 56.1522C10.4596 55.799 10.5115 55.5601 10.8335 55.5601H10.8439ZM11.9345 49.0475C12.3707 49.1722 12.4331 49.0683 12.5265 49.5253C12.1526 49.6188 11.976 49.6811 11.9345 49.0475Z" stroke="#FFED00" stroke-width="0.758242" stroke-miterlimit="22.9256"/>
</g>
<defs>
<clipPath id="clip0_21_2">
<rect width="189.737" height="138.043" fill="white"/>
</clipPath>
</defs>
</svg>
